<?xml version="1.0" encoding="us-ascii" standalone="no"?><svg xmlns="http://www.w3.org/2000/svg" xmlns:xlink="http://www.w3.org/1999/xlink" contentStyleType="text/css" height="1956px" preserveAspectRatio="none" style="width:1183px;height:1956px;background:#FFFFFF;" version="1.1" viewBox="0 0 1183 1956" width="1183px" zoomAndPan="magnify"><defs/><g><rect fill="none" height="20.9531" style="stroke:none;stroke-width:1.0;" width="1150" x="15" y="12.7451"/><rect fill="#DCDCDC" height="1932.1777" style="stroke:#DCDCDC;stroke-width:1.0;" width="339" x="15" y="12.7451"/><ellipse cx="172.25" cy="48.6982" fill="#222222" rx="10" ry="10" style="stroke:#222222;stroke-width:1.0;"/><rect fill="#F1F1F1" height="33.9688" rx="12.5" ry="12.5" style="stroke:#181818;stroke-width:0.5;" width="105" x="119.75" y="78.6982"/><text fill="#000000" font-family="sans-serif" font-size="12" lengthAdjust="spacing" textLength="85" x="129.75" y="99.8369">Prepare Paper</text><polygon fill="#F1F1F1" points="106.25,152.667,238.25,152.667,250.25,164.667,238.25,176.667,106.25,176.667,94.25,164.667,106.25,152.667" style="stroke:#181818;stroke-width:0.5;"/><text fill="#000000" font-family="sans-serif" font-size="11" lengthAdjust="spacing" textLength="132" x="106.25" y="168.4751">Ready for Monetization</text><text fill="#000000" font-family="sans-serif" font-size="11" lengthAdjust="spacing" textLength="15" x="250.25" y="162.0728">No</text><rect fill="#555555" height="6" rx="2.5" ry="2.5" style="stroke:#555555;stroke-width:1.0;" width="302" x="21" y="272.0347"/><rect fill="#F1F1F1" height="33.9688" rx="12.5" ry="12.5" style="stroke:#181818;stroke-width:0.5;" width="105" x="33" y="365.9214"/><text fill="#000000" font-family="sans-serif" font-size="12" lengthAdjust="spacing" textLength="85" x="43" y="387.0601">Paper Outputs</text><rect fill="#F1F1F1" height="33.9688" rx="12.5" ry="12.5" style="stroke:#181818;stroke-width:0.5;" width="134" x="166" y="298.0347"/><text fill="#000000" font-family="sans-serif" font-size="12" lengthAdjust="spacing" textLength="114" x="176" y="319.1733">Upcoming Offering</text><rect fill="#F1F1F1" height="33.9688" rx="12.5" ry="12.5" style="stroke:#181818;stroke-width:0.5;" width="113" x="176.5" y="400.4058"/><text fill="#000000" font-family="sans-serif" font-size="12" lengthAdjust="spacing" textLength="93" x="186.5" y="421.5444">Create Offering</text><polygon fill="#F1F1F1" points="183,352.0034,283,352.0034,295,364.0034,283,376.0034,183,376.0034,171,364.0034,183,352.0034" style="stroke:#181818;stroke-width:0.5;"/><text fill="#000000" font-family="sans-serif" font-size="11" lengthAdjust="spacing" textLength="21" x="237" y="386.2139">Yes</text><text fill="#000000" font-family="sans-serif" font-size="11" lengthAdjust="spacing" textLength="100" x="183" y="367.8115">Feasible Creation</text><text fill="#000000" font-family="sans-serif" font-size="11" lengthAdjust="spacing" textLength="15" x="295" y="361.4092">No</text><polygon fill="#F1F1F1" points="233,454.3745,245,466.3745,233,478.3745,221,466.3745,233,454.3745" style="stroke:#181818;stroke-width:0.5;"/><rect fill="#555555" height="6" rx="2.5" ry="2.5" style="stroke:#555555;stroke-width:1.0;" width="302" x="21" y="498.3745"/><rect fill="#F1F1F1" height="33.9688" rx="12.5" ry="12.5" style="stroke:#181818;stroke-width:0.5;" width="181" x="81.75" y="218.0659"/><text fill="#000000" font-family="sans-serif" font-size="12" lengthAdjust="spacing" textLength="161" x="91.75" y="239.2046">Collect Profitable Offerings</text><polygon fill="#F1F1F1" points="123.25,524.3745,221.25,524.3745,233.25,536.3745,221.25,548.3745,123.25,548.3745,111.25,536.3745,123.25,524.3745" style="stroke:#181818;stroke-width:0.5;"/><text fill="#000000" font-family="sans-serif" font-size="11" lengthAdjust="spacing" textLength="98" x="123.25" y="540.1826">Enough Offerings</text><text fill="#000000" font-family="sans-serif" font-size="11" lengthAdjust="spacing" textLength="15" x="233.25" y="533.7803">No</text><line style="stroke:#000000;stroke-width:1.5;" x1="15" x2="15" y1="12.7451" y2="1944.9229"/><rect fill="#F1F1F1" height="33.9688" rx="12.5" ry="12.5" style="stroke:#181818;stroke-width:0.5;" width="137" x="494.5" y="585.6338"/><text fill="#000000" font-family="sans-serif" font-size="12" lengthAdjust="spacing" textLength="117" x="504.5" y="606.7725">Establish Protection</text><polygon fill="#F1F1F1" points="513.5,693.5713,612.5,693.5713,624.5,705.5713,612.5,717.5713,513.5,717.5713,501.5,705.5713,513.5,693.5713" style="stroke:#181818;stroke-width:0.5;"/><text fill="#000000" font-family="sans-serif" font-size="11" lengthAdjust="spacing" textLength="99" x="513.5" y="709.3794">Property Secured</text><text fill="#000000" font-family="sans-serif" font-size="11" lengthAdjust="spacing" textLength="15" x="624.5" y="702.9771">No</text><rect fill="#F1F1F1" height="33.9688" rx="12.5" ry="12.5" style="stroke:#181818;stroke-width:0.5;" width="118" x="655.5" y="629.6025"/><text fill="#000000" font-family="sans-serif" font-size="12" lengthAdjust="spacing" textLength="98" x="665.5" y="650.7412">Secure Property</text><rect fill="#F1F1F1" height="33.9688" rx="12.5" ry="12.5" style="stroke:#181818;stroke-width:0.5;" width="192" x="467" y="758.9702"/><text fill="#000000" font-family="sans-serif" font-size="12" lengthAdjust="spacing" textLength="172" x="477" y="780.1089">Define Pricing and Packaging</text><polygon fill="#F1F1F1" points="397,922.6182,512,922.6182,524,934.6182,512,946.6182,397,946.6182,385,934.6182,397,922.6182" style="stroke:#181818;stroke-width:0.5;"/><text fill="#000000" font-family="sans-serif" font-size="11" lengthAdjust="spacing" textLength="15" x="458.5" y="956.8286">No</text><text fill="#000000" font-family="sans-serif" font-size="11" lengthAdjust="spacing" textLength="115" x="397" y="938.4263">Accessible Payment</text><polygon fill="#F1F1F1" points="577,922.6182,679,922.6182,691,934.6182,679,946.6182,577,946.6182,565,934.6182,577,922.6182" style="stroke:#181818;stroke-width:0.5;"/><text fill="#000000" font-family="sans-serif" font-size="11" lengthAdjust="spacing" textLength="15" x="632" y="956.8286">No</text><text fill="#000000" font-family="sans-serif" font-size="11" lengthAdjust="spacing" textLength="102" x="577" y="938.4263">Legal Compliance</text><text fill="#000000" font-family="sans-serif" font-size="11" lengthAdjust="spacing" textLength="21" x="544" y="932.0239">Yes</text><text fill="#000000" font-family="sans-serif" font-size="11" lengthAdjust="spacing" textLength="21" x="691" y="932.0239">Yes</text><rect fill="#F1F1F1" height="33.9688" rx="12.5" ry="12.5" style="stroke:#181818;stroke-width:0.5;" width="135" x="495.5" y="868.6494"/><text fill="#000000" font-family="sans-serif" font-size="12" lengthAdjust="spacing" textLength="115" x="505.5" y="889.7881">Collect Distributors</text><polygon fill="#F1F1F1" points="515,1043.0786,611,1043.0786,623,1055.0786,611,1067.0786,515,1067.0786,503,1055.0786,515,1043.0786" style="stroke:#181818;stroke-width:0.5;"/><text fill="#000000" font-family="sans-serif" font-size="11" lengthAdjust="spacing" textLength="96" x="515" y="1058.8867">Valid Distributors</text><text fill="#000000" font-family="sans-serif" font-size="11" lengthAdjust="spacing" textLength="15" x="623" y="1052.4844">No</text><path d="M640,1106.7349 L640,1122.8677 L620,1126.8677 L640,1130.8677 L640,1147.0005 A0,0 0 0 0 640,1147.0005 L789,1147.0005 A0,0 0 0 0 789,1147.0005 L789,1116.7349 L779,1106.7349 L640,1106.7349 A0,0 0 0 0 640,1106.7349 " fill="#FEFFDD" style="stroke:#181818;stroke-width:0.5;"/><path d="M779,1106.7349 L779,1116.7349 L789,1116.7349 L779,1106.7349 " fill="#FEFFDD" style="stroke:#181818;stroke-width:0.5;"/><text fill="#000000" font-family="sans-serif" font-size="13" lengthAdjust="spacing" textLength="124" x="646" y="1123.8018">Multiple distributors</text><text fill="#000000" font-family="sans-serif" font-size="13" lengthAdjust="spacing" textLength="104" x="646" y="1138.9346">for one offering.</text><rect fill="#F1F1F1" height="33.9688" rx="12.5" ry="12.5" style="stroke:#181818;stroke-width:0.5;" width="114" x="506" y="1109.8833"/><text fill="#000000" font-family="sans-serif" font-size="12" lengthAdjust="spacing" textLength="94" x="516" y="1131.022">Publish Offering</text><polygon fill="#F1F1F1" points="496,812.939,630,812.939,642,824.939,630,836.939,496,836.939,484,824.939,496,812.939" style="stroke:#181818;stroke-width:0.5;"/><text fill="#000000" font-family="sans-serif" font-size="11" lengthAdjust="spacing" textLength="21" x="567" y="847.1494">Yes</text><text fill="#000000" font-family="sans-serif" font-size="11" lengthAdjust="spacing" textLength="134" x="496" y="828.7471">Unpublished Offering(s)</text><text fill="#000000" font-family="sans-serif" font-size="11" lengthAdjust="spacing" textLength="15" x="469" y="822.3447">No</text><line style="stroke:#000000;stroke-width:1.5;" x1="354" x2="354" y1="12.7451" y2="1944.9229"/><rect fill="#F1F1F1" height="33.9688" rx="12.5" ry="12.5" style="stroke:#181818;stroke-width:0.5;" width="130" x="869.5" y="1237.4028"/><text fill="#000000" font-family="sans-serif" font-size="12" lengthAdjust="spacing" textLength="110" x="879.5" y="1258.5415">Promote Offerings</text><polygon fill="#F1F1F1" points="877,1189.0005,992,1189.0005,1004,1201.0005,992,1213.0005,877,1213.0005,865,1201.0005,877,1189.0005" style="stroke:#181818;stroke-width:0.5;"/><text fill="#000000" font-family="sans-serif" font-size="11" lengthAdjust="spacing" textLength="21" x="938.5" y="1223.2109">Yes</text><text fill="#000000" font-family="sans-serif" font-size="11" lengthAdjust="spacing" textLength="115" x="877" y="1204.8086">Promotional Content</text><text fill="#000000" font-family="sans-serif" font-size="11" lengthAdjust="spacing" textLength="15" x="1004" y="1198.4063">No</text><polygon fill="#F1F1F1" points="934.5,1291.3716,946.5,1303.3716,934.5,1315.3716,922.5,1303.3716,934.5,1291.3716" style="stroke:#181818;stroke-width:0.5;"/><rect fill="#F1F1F1" height="33.9688" rx="12.5" ry="12.5" style="stroke:#181818;stroke-width:0.5;" width="179" x="845" y="1335.3716"/><text fill="#000000" font-family="sans-serif" font-size="12" lengthAdjust="spacing" textLength="159" x="855" y="1356.5103">Provide Customer Support</text><rect fill="#F1F1F1" height="33.9688" rx="12.5" ry="12.5" style="stroke:#181818;stroke-width:0.5;" width="171" x="849" y="1389.3403"/><text fill="#000000" font-family="sans-serif" font-size="12" lengthAdjust="spacing" textLength="151" x="859" y="1410.479">Establish Feedback Loop</text><rect fill="#F1F1F1" height="33.9688" rx="12.5" ry="12.5" style="stroke:#181818;stroke-width:0.5;" width="125" x="872" y="1443.3091"/><text fill="#000000" font-family="sans-serif" font-size="12" lengthAdjust="spacing" textLength="105" x="882" y="1464.4478">Monitor Offerings</text><polygon fill="#F1F1F1" points="880,1551.2466,989,1551.2466,1001,1563.2466,989,1575.2466,880,1575.2466,868,1563.2466,880,1551.2466" style="stroke:#181818;stroke-width:0.5;"/><text fill="#000000" font-family="sans-serif" font-size="11" lengthAdjust="spacing" textLength="109" x="880" y="1567.0547">Satisfactory Impact</text><text fill="#000000" font-family="sans-serif" font-size="11" lengthAdjust="spacing" textLength="15" x="1001" y="1560.6523">No</text><rect fill="#F1F1F1" height="33.9688" rx="12.5" ry="12.5" style="stroke:#181818;stroke-width:0.5;" width="134" x="1025" y="1487.2778"/><text fill="#000000" font-family="sans-serif" font-size="12" lengthAdjust="spacing" textLength="114" x="1035" y="1508.4165">Optimize Offerings</text><rect fill="#F1F1F1" height="33.9688" rx="12.5" ry="12.5" style="stroke:#181818;stroke-width:0.5;" width="217" x="826" y="1616.6455"/><text fill="#000000" font-family="sans-serif" font-size="12" lengthAdjust="spacing" textLength="197" x="836" y="1637.7842">Maintain Continuous Engagement</text><rect fill="#F1F1F1" height="33.9688" rx="12.5" ry="12.5" style="stroke:#181818;stroke-width:0.5;" width="199" x="835" y="1670.6143"/><text fill="#000000" font-family="sans-serif" font-size="12" lengthAdjust="spacing" textLength="179" x="845" y="1691.7529">Explore Scaling Opportunities</text><rect fill="#F1F1F1" height="33.9688" rx="12.5" ry="12.5" style="stroke:#181818;stroke-width:0.5;" width="143" x="863" y="1724.583"/><text fill="#000000" font-family="sans-serif" font-size="12" lengthAdjust="spacing" textLength="123" x="873" y="1745.7217">Ensure Sustainability</text><rect fill="#F1F1F1" height="33.9688" rx="12.5" ry="12.5" style="stroke:#181818;stroke-width:0.5;" width="163" x="853" y="1826.9541"/><text fill="#000000" font-family="sans-serif" font-size="12" lengthAdjust="spacing" textLength="143" x="863" y="1848.0928">Consider Diversification</text><polygon fill="#F1F1F1" points="865.5,1778.5518,1003.5,1778.5518,1015.5,1790.5518,1003.5,1802.5518,865.5,1802.5518,853.5,1790.5518,865.5,1778.5518" style="stroke:#181818;stroke-width:0.5;"/><text fill="#000000" font-family="sans-serif" font-size="11" lengthAdjust="spacing" textLength="21" x="938.5" y="1812.7622">Yes</text><text fill="#000000" font-family="sans-serif" font-size="11" lengthAdjust="spacing" textLength="138" x="865.5" y="1794.3599">Diversification Available</text><text fill="#000000" font-family="sans-serif" font-size="11" lengthAdjust="spacing" textLength="15" x="1015.5" y="1787.9575">No</text><polygon fill="#F1F1F1" points="934.5,1880.9229,946.5,1892.9229,934.5,1904.9229,922.5,1892.9229,934.5,1880.9229" style="stroke:#181818;stroke-width:0.5;"/><ellipse cx="934.5" cy="1934.9229" fill="none" rx="10" ry="10" style="stroke:#222222;stroke-width:1.5;"/><line style="stroke:#222222;stroke-width:2.5;" x1="928.3128" x2="940.6872" y1="1928.7357" y2="1941.11"/><line style="stroke:#222222;stroke-width:2.5;" x1="940.6872" x2="928.3128" y1="1928.7357" y2="1941.11"/><line style="stroke:#000000;stroke-width:1.5;" x1="820" x2="820" y1="12.7451" y2="1944.9229"/><line style="stroke:#000000;stroke-width:1.5;" x1="1163" x2="1163" y1="12.7451" y2="1944.9229"/><line style="stroke:#181818;stroke-width:1.0;" x1="172.25" x2="172.25" y1="112.667" y2="152.667"/><polygon fill="#181818" points="168.25,142.667,172.25,152.667,176.25,142.667,172.25,146.667" style="stroke:#181818;stroke-width:1.0;"/><line style="stroke:#181818;stroke-width:1.0;" x1="250.25" x2="262.25" y1="164.667" y2="164.667"/><polygon fill="#181818" points="258.25,132.667,262.25,122.667,266.25,132.667,262.25,128.667" style="stroke:#181818;stroke-width:1.0;"/><line style="stroke:#181818;stroke-width:1.0;" x1="262.25" x2="262.25" y1="95.6826" y2="164.667"/><line style="stroke:#181818;stroke-width:1.0;" x1="262.25" x2="224.75" y1="95.6826" y2="95.6826"/><polygon fill="#181818" points="234.75,91.6826,224.75,95.6826,234.75,99.6826,230.75,95.6826" style="stroke:#181818;stroke-width:1.0;"/><line style="stroke:#181818;stroke-width:1.0;" x1="172.25" x2="172.25" y1="58.6982" y2="78.6982"/><polygon fill="#181818" points="168.25,68.6982,172.25,78.6982,176.25,68.6982,172.25,72.6982" style="stroke:#181818;stroke-width:1.0;"/><line style="stroke:#181818;stroke-width:1.0;" x1="233" x2="233" y1="376.0034" y2="400.4058"/><polygon fill="#181818" points="229,390.4058,233,400.4058,237,390.4058,233,394.4058" style="stroke:#181818;stroke-width:1.0;"/><line style="stroke:#181818;stroke-width:1.0;" x1="295" x2="307" y1="364.0034" y2="364.0034"/><polygon fill="#181818" points="303,407.3901,307,417.3901,311,407.3901,307,411.3901" style="stroke:#181818;stroke-width:1.0;"/><line style="stroke:#181818;stroke-width:1.0;" x1="307" x2="307" y1="364.0034" y2="466.3745"/><line style="stroke:#181818;stroke-width:1.0;" x1="307" x2="245" y1="466.3745" y2="466.3745"/><polygon fill="#181818" points="255,462.3745,245,466.3745,255,470.3745,251,466.3745" style="stroke:#181818;stroke-width:1.0;"/><line style="stroke:#181818;stroke-width:1.0;" x1="233" x2="233" y1="434.3745" y2="454.3745"/><polygon fill="#181818" points="229,444.3745,233,454.3745,237,444.3745,233,448.3745" style="stroke:#181818;stroke-width:1.0;"/><line style="stroke:#181818;stroke-width:1.0;" x1="233" x2="233" y1="332.0034" y2="352.0034"/><polygon fill="#181818" points="229,342.0034,233,352.0034,237,342.0034,233,346.0034" style="stroke:#181818;stroke-width:1.0;"/><line style="stroke:#181818;stroke-width:1.0;" x1="85.5" x2="85.5" y1="278.0347" y2="365.9214"/><polygon fill="#181818" points="81.5,355.9214,85.5,365.9214,89.5,355.9214,85.5,359.9214" style="stroke:#181818;stroke-width:1.0;"/><line style="stroke:#181818;stroke-width:1.0;" x1="233" x2="233" y1="278.0347" y2="298.0347"/><polygon fill="#181818" points="229,288.0347,233,298.0347,237,288.0347,233,292.0347" style="stroke:#181818;stroke-width:1.0;"/><line style="stroke:#181818;stroke-width:1.0;" x1="85.5" x2="85.5" y1="399.8901" y2="498.3745"/><polygon fill="#181818" points="81.5,488.3745,85.5,498.3745,89.5,488.3745,85.5,492.3745" style="stroke:#181818;stroke-width:1.0;"/><line style="stroke:#181818;stroke-width:1.0;" x1="233" x2="233" y1="478.3745" y2="498.3745"/><polygon fill="#181818" points="229,488.3745,233,498.3745,237,488.3745,233,492.3745" style="stroke:#181818;stroke-width:1.0;"/><line style="stroke:#181818;stroke-width:1.0;" x1="172.25" x2="172.25" y1="252.0347" y2="272.0347"/><polygon fill="#181818" points="168.25,262.0347,172.25,272.0347,176.25,262.0347,172.25,266.0347" style="stroke:#181818;stroke-width:1.0;"/><line style="stroke:#181818;stroke-width:1.0;" x1="233.25" x2="335" y1="536.3745" y2="536.3745"/><polygon fill="#181818" points="331,390.4136,335,380.4136,339,390.4136,335,386.4136" style="stroke:#181818;stroke-width:1.0;"/><line style="stroke:#181818;stroke-width:1.0;" x1="335" x2="335" y1="235.0503" y2="536.3745"/><line style="stroke:#181818;stroke-width:1.0;" x1="335" x2="262.75" y1="235.0503" y2="235.0503"/><polygon fill="#181818" points="272.75,231.0503,262.75,235.0503,272.75,239.0503,268.75,235.0503" style="stroke:#181818;stroke-width:1.0;"/><line style="stroke:#181818;stroke-width:1.0;" x1="172.25" x2="172.25" y1="504.3745" y2="524.3745"/><polygon fill="#181818" points="168.25,514.3745,172.25,524.3745,176.25,514.3745,172.25,518.3745" style="stroke:#181818;stroke-width:1.0;"/><line style="stroke:#181818;stroke-width:1.0;" x1="172.25" x2="172.25" y1="176.667" y2="218.0659"/><polygon fill="#181818" points="168.25,208.0659,172.25,218.0659,176.25,208.0659,172.25,212.0659" style="stroke:#181818;stroke-width:1.0;"/><text fill="#000000" font-family="sans-serif" font-size="11" lengthAdjust="spacing" textLength="21" x="176.25" y="197.9717">Yes</text><line style="stroke:#181818;stroke-width:1.0;" x1="563" x2="563" y1="619.6025" y2="693.5713"/><polygon fill="#181818" points="559,683.5713,563,693.5713,567,683.5713,563,687.5713" style="stroke:#181818;stroke-width:1.0;"/><line style="stroke:#181818;stroke-width:1.0;" x1="624.5" x2="714.5" y1="705.5713" y2="705.5713"/><line style="stroke:#181818;stroke-width:1.0;" x1="714.5" x2="714.5" y1="663.5713" y2="705.5713"/><polygon fill="#181818" points="710.5,673.5713,714.5,663.5713,718.5,673.5713,714.5,669.5713" style="stroke:#181818;stroke-width:1.0;"/><line style="stroke:#181818;stroke-width:1.0;" x1="714.5" x2="714.5" y1="602.6182" y2="629.6025"/><line style="stroke:#181818;stroke-width:1.0;" x1="714.5" x2="631.5" y1="602.6182" y2="602.6182"/><polygon fill="#181818" points="641.5,598.6182,631.5,602.6182,641.5,606.6182,637.5,602.6182" style="stroke:#181818;stroke-width:1.0;"/><line style="stroke:#181818;stroke-width:1.0;" x1="563" x2="563" y1="717.5713" y2="758.9702"/><polygon fill="#181818" points="559,748.9702,563,758.9702,567,748.9702,563,752.9702" style="stroke:#181818;stroke-width:1.0;"/><text fill="#000000" font-family="sans-serif" font-size="11" lengthAdjust="spacing" textLength="21" x="567" y="738.876">Yes</text><line style="stroke:#181818;stroke-width:1.0;" x1="454.5" x2="454.5" y1="946.6182" y2="1023.0786"/><polygon fill="#181818" points="450.5,1013.0786,454.5,1023.0786,458.5,1013.0786,454.5,1017.0786" style="stroke:#181818;stroke-width:1.0;"/><line style="stroke:#181818;stroke-width:1.0;" x1="628" x2="628" y1="946.6182" y2="1023.0786"/><polygon fill="#181818" points="624,1013.0786,628,1023.0786,632,1013.0786,628,1017.0786" style="stroke:#181818;stroke-width:1.0;"/><line style="stroke:#181818;stroke-width:1.0;" x1="524" x2="565" y1="934.6182" y2="934.6182"/><polygon fill="#181818" points="555,930.6182,565,934.6182,555,938.6182,559,934.6182" style="stroke:#181818;stroke-width:1.0;"/><line style="stroke:#181818;stroke-width:1.0;" x1="563" x2="563" y1="902.6182" y2="907.6182"/><line style="stroke:#181818;stroke-width:1.0;" x1="563" x2="454.5" y1="907.6182" y2="907.6182"/><line style="stroke:#181818;stroke-width:1.0;" x1="454.5" x2="454.5" y1="907.6182" y2="922.6182"/><polygon fill="#181818" points="450.5,912.6182,454.5,922.6182,458.5,912.6182,454.5,916.6182" style="stroke:#181818;stroke-width:1.0;"/><line style="stroke:#181818;stroke-width:1.0;" x1="691" x2="726" y1="934.6182" y2="934.6182"/><line style="stroke:#181818;stroke-width:1.0;" x1="726" x2="726" y1="934.6182" y2="1023.0786"/><polygon fill="#181818" points="722,1013.0786,726,1023.0786,730,1013.0786,726,1017.0786" style="stroke:#181818;stroke-width:1.0;"/><line style="stroke:#181818;stroke-width:1.0;" x1="454.5" x2="726" y1="1023.0786" y2="1023.0786"/><line style="stroke:#181818;stroke-width:1.0;" x1="623" x2="753" y1="1055.0786" y2="1055.0786"/><polygon fill="#181818" points="749,978.3286,753,968.3286,757,978.3286,753,974.3286" style="stroke:#181818;stroke-width:1.0;"/><line style="stroke:#181818;stroke-width:1.0;" x1="753" x2="753" y1="885.6338" y2="1055.0786"/><line style="stroke:#181818;stroke-width:1.0;" x1="753" x2="630.5" y1="885.6338" y2="885.6338"/><polygon fill="#181818" points="640.5,881.6338,630.5,885.6338,640.5,889.6338,636.5,885.6338" style="stroke:#181818;stroke-width:1.0;"/><line style="stroke:#181818;stroke-width:1.0;" x1="563" x2="563" y1="1023.0786" y2="1043.0786"/><polygon fill="#181818" points="559,1033.0786,563,1043.0786,567,1033.0786,563,1037.0786" style="stroke:#181818;stroke-width:1.0;"/><line style="stroke:#181818;stroke-width:1.0;" x1="563" x2="563" y1="1067.0786" y2="1109.8833"/><polygon fill="#181818" points="559,1099.8833,563,1109.8833,567,1099.8833,563,1103.8833" style="stroke:#181818;stroke-width:1.0;"/><text fill="#000000" font-family="sans-serif" font-size="11" lengthAdjust="spacing" textLength="21" x="567" y="1088.3833">Yes</text><line style="stroke:#181818;stroke-width:1.0;" x1="563" x2="563" y1="836.939" y2="868.6494"/><polygon fill="#181818" points="559,858.6494,563,868.6494,567,858.6494,563,862.6494" style="stroke:#181818;stroke-width:1.0;"/><line style="stroke:#181818;stroke-width:1.0;" x1="563" x2="563" y1="1143.8521" y2="1157.0005"/><line style="stroke:#181818;stroke-width:1.0;" x1="563" x2="801" y1="1157.0005" y2="1157.0005"/><polygon fill="#181818" points="797,998.3286,801,988.3286,805,998.3286,801,994.3286" style="stroke:#181818;stroke-width:1.0;"/><line style="stroke:#181818;stroke-width:1.0;" x1="801" x2="801" y1="824.939" y2="1157.0005"/><line style="stroke:#181818;stroke-width:1.0;" x1="801" x2="642" y1="824.939" y2="824.939"/><polygon fill="#181818" points="652,820.939,642,824.939,652,828.939,648,824.939" style="stroke:#181818;stroke-width:1.0;"/><line style="stroke:#181818;stroke-width:1.0;" x1="484" x2="373" y1="824.939" y2="824.939"/><polygon fill="#181818" points="369,993.0786,373,1003.0786,377,993.0786,373,997.0786" style="stroke:#181818;stroke-width:1.0;"/><line style="stroke:#181818;stroke-width:1.0;" x1="373" x2="373" y1="824.939" y2="1174.0005"/><line style="stroke:#181818;stroke-width:1.0;" x1="373" x2="934.5" y1="1174.0005" y2="1174.0005"/><line style="stroke:#181818;stroke-width:1.0;" x1="934.5" x2="934.5" y1="1174.0005" y2="1189.0005"/><polygon fill="#181818" points="930.5,1179.0005,934.5,1189.0005,938.5,1179.0005,934.5,1183.0005" style="stroke:#181818;stroke-width:1.0;"/><line style="stroke:#181818;stroke-width:1.0;" x1="563" x2="563" y1="792.939" y2="812.939"/><polygon fill="#181818" points="559,802.939,563,812.939,567,802.939,563,806.939" style="stroke:#181818;stroke-width:1.0;"/><line style="stroke:#181818;stroke-width:1.0;" x1="934.5" x2="934.5" y1="1213.0005" y2="1237.4028"/><polygon fill="#181818" points="930.5,1227.4028,934.5,1237.4028,938.5,1227.4028,934.5,1231.4028" style="stroke:#181818;stroke-width:1.0;"/><line style="stroke:#181818;stroke-width:1.0;" x1="1004" x2="1016" y1="1201.0005" y2="1201.0005"/><polygon fill="#181818" points="1012,1244.3872,1016,1254.3872,1020,1244.3872,1016,1248.3872" style="stroke:#181818;stroke-width:1.0;"/><line style="stroke:#181818;stroke-width:1.0;" x1="1016" x2="1016" y1="1201.0005" y2="1303.3716"/><line style="stroke:#181818;stroke-width:1.0;" x1="1016" x2="946.5" y1="1303.3716" y2="1303.3716"/><polygon fill="#181818" points="956.5,1299.3716,946.5,1303.3716,956.5,1307.3716,952.5,1303.3716" style="stroke:#181818;stroke-width:1.0;"/><line style="stroke:#181818;stroke-width:1.0;" x1="934.5" x2="934.5" y1="1271.3716" y2="1291.3716"/><polygon fill="#181818" points="930.5,1281.3716,934.5,1291.3716,938.5,1281.3716,934.5,1285.3716" style="stroke:#181818;stroke-width:1.0;"/><line style="stroke:#181818;stroke-width:1.0;" x1="934.5" x2="934.5" y1="1315.3716" y2="1335.3716"/><polygon fill="#181818" points="930.5,1325.3716,934.5,1335.3716,938.5,1325.3716,934.5,1329.3716" style="stroke:#181818;stroke-width:1.0;"/><line style="stroke:#181818;stroke-width:1.0;" x1="934.5" x2="934.5" y1="1369.3403" y2="1389.3403"/><polygon fill="#181818" points="930.5,1379.3403,934.5,1389.3403,938.5,1379.3403,934.5,1383.3403" style="stroke:#181818;stroke-width:1.0;"/><line style="stroke:#181818;stroke-width:1.0;" x1="934.5" x2="934.5" y1="1477.2778" y2="1551.2466"/><polygon fill="#181818" points="930.5,1541.2466,934.5,1551.2466,938.5,1541.2466,934.5,1545.2466" style="stroke:#181818;stroke-width:1.0;"/><line style="stroke:#181818;stroke-width:1.0;" x1="1001" x2="1092" y1="1563.2466" y2="1563.2466"/><line style="stroke:#181818;stroke-width:1.0;" x1="1092" x2="1092" y1="1521.2466" y2="1563.2466"/><polygon fill="#181818" points="1088,1531.2466,1092,1521.2466,1096,1531.2466,1092,1527.2466" style="stroke:#181818;stroke-width:1.0;"/><line style="stroke:#181818;stroke-width:1.0;" x1="1092" x2="1092" y1="1460.2935" y2="1487.2778"/><line style="stroke:#181818;stroke-width:1.0;" x1="1092" x2="997" y1="1460.2935" y2="1460.2935"/><polygon fill="#181818" points="1007,1456.2935,997,1460.2935,1007,1464.2935,1003,1460.2935" style="stroke:#181818;stroke-width:1.0;"/><line style="stroke:#181818;stroke-width:1.0;" x1="934.5" x2="934.5" y1="1423.3091" y2="1443.3091"/><polygon fill="#181818" points="930.5,1433.3091,934.5,1443.3091,938.5,1433.3091,934.5,1437.3091" style="stroke:#181818;stroke-width:1.0;"/><line style="stroke:#181818;stroke-width:1.0;" x1="934.5" x2="934.5" y1="1575.2466" y2="1616.6455"/><polygon fill="#181818" points="930.5,1606.6455,934.5,1616.6455,938.5,1606.6455,934.5,1610.6455" style="stroke:#181818;stroke-width:1.0;"/><text fill="#000000" font-family="sans-serif" font-size="11" lengthAdjust="spacing" textLength="21" x="938.5" y="1596.5513">Yes</text><line style="stroke:#181818;stroke-width:1.0;" x1="934.5" x2="934.5" y1="1650.6143" y2="1670.6143"/><polygon fill="#181818" points="930.5,1660.6143,934.5,1670.6143,938.5,1660.6143,934.5,1664.6143" style="stroke:#181818;stroke-width:1.0;"/><line style="stroke:#181818;stroke-width:1.0;" x1="934.5" x2="934.5" y1="1704.583" y2="1724.583"/><polygon fill="#181818" points="930.5,1714.583,934.5,1724.583,938.5,1714.583,934.5,1718.583" style="stroke:#181818;stroke-width:1.0;"/><line style="stroke:#181818;stroke-width:1.0;" x1="934.5" x2="934.5" y1="1802.5518" y2="1826.9541"/><polygon fill="#181818" points="930.5,1816.9541,934.5,1826.9541,938.5,1816.9541,934.5,1820.9541" style="stroke:#181818;stroke-width:1.0;"/><line style="stroke:#181818;stroke-width:1.0;" x1="1015.5" x2="1027.5" y1="1790.5518" y2="1790.5518"/><polygon fill="#181818" points="1023.5,1833.9385,1027.5,1843.9385,1031.5,1833.9385,1027.5,1837.9385" style="stroke:#181818;stroke-width:1.0;"/><line style="stroke:#181818;stroke-width:1.0;" x1="1027.5" x2="1027.5" y1="1790.5518" y2="1892.9229"/><line style="stroke:#181818;stroke-width:1.0;" x1="1027.5" x2="946.5" y1="1892.9229" y2="1892.9229"/><polygon fill="#181818" points="956.5,1888.9229,946.5,1892.9229,956.5,1896.9229,952.5,1892.9229" style="stroke:#181818;stroke-width:1.0;"/><line style="stroke:#181818;stroke-width:1.0;" x1="934.5" x2="934.5" y1="1860.9229" y2="1880.9229"/><polygon fill="#181818" points="930.5,1870.9229,934.5,1880.9229,938.5,1870.9229,934.5,1874.9229" style="stroke:#181818;stroke-width:1.0;"/><line style="stroke:#181818;stroke-width:1.0;" x1="934.5" x2="934.5" y1="1758.5518" y2="1778.5518"/><polygon fill="#181818" points="930.5,1768.5518,934.5,1778.5518,938.5,1768.5518,934.5,1772.5518" style="stroke:#181818;stroke-width:1.0;"/><line style="stroke:#181818;stroke-width:1.0;" x1="934.5" x2="934.5" y1="1904.9229" y2="1924.9229"/><polygon fill="#181818" points="930.5,1914.9229,934.5,1924.9229,938.5,1914.9229,934.5,1918.9229" style="stroke:#181818;stroke-width:1.0;"/><line style="stroke:#181818;stroke-width:1.0;" x1="172.25" x2="172.25" y1="548.3745" y2="570.6338"/><line style="stroke:#181818;stroke-width:1.0;" x1="172.25" x2="563" y1="570.6338" y2="570.6338"/><line style="stroke:#181818;stroke-width:1.0;" x1="563" x2="563" y1="570.6338" y2="585.6338"/><polygon fill="#181818" points="559,575.6338,563,585.6338,567,575.6338,563,579.6338" style="stroke:#181818;stroke-width:1.0;"/><text fill="#000000" font-family="sans-serif" font-size="11" lengthAdjust="spacing" textLength="21" x="176.25" y="564.1338">Yes</text><text fill="#000000" font-family="sans-serif" font-size="18" lengthAdjust="spacing" textLength="75" x="147" y="29.4531">Produce</text><text fill="#000000" font-family="sans-serif" font-size="18" lengthAdjust="spacing" textLength="94" x="540" y="29.4531">Distribute</text><text fill="#000000" font-family="sans-serif" font-size="18" lengthAdjust="spacing" textLength="80" x="951.5" y="29.4531">Maintain</text><!--SRC=[RLJRYjim47ttLmZwaZoq7-10OKcoKDWqeM4BVLJaiJF4beGksMRnntT6lYIEQuXnBCtHEMVEkFrIITJ-P9nf3yuKKK6R-I1To1nOa47a1tgG3iH1Md2huVN76MiGYryWYvieZHCxeo7Wfmnez5AW5ukVPfbz_Vu7_5YKhqrTWmg2ZYeno1D1xCiI7EgATX7C9HDqvUaiiO_1nj0l2CbCk-Ltgqn3DMFnAht7KYnUGNfatBM3daiuWnOBuh5Ckn92MeMdUgWzTBJJFrrWcT4zqPhAtceJg_ET-qnmkq4V79vY83y7zLlFaj6VMNyW7uZUAZj9TVcGhiYFe2Bxx0o93xTdguVtejjNpCxCDr2YPW1KR8xK1JLDNMIL5FOmxzh6H0AAaV_2BpkqqQJdXeroZFEhqKOs_4Kfy9tb1tbhG8V1yS58lX9oCfXhtg2IjLYRnjOejOB_LNJDc7IjwyW3lLxIRrbZCQ5uzuPtz_vqoUh4FtLUKpk4m-eSniDsiGve2Rvum1NZCaUU4YzCZ_Djo0n3SMfwRioXtL5o0_tQZDLJ8nl3lKyUwF1WsIWtxpPDnkCUpyu8tdF5Wg8UVJ0D3SmnMcjSe2ZSe_OAK734n9inzZw9DAv8YXxnno3kRS06FoU7Jnq_qcZvKYf2k8aVZQMdUHm7rKaawcYY5rjToGeu9KpohwqD9Vweg84ypObz96AO0BRQyq0SIHx1o1FMo6F17cxm2ivZYIeDkNYvIgpvUp9taaxtv98JJpLpG-d-3m00]--></g></svg>