<?xml version="1.0" encoding="us-ascii" standalone="no"?><svg xmlns="http://www.w3.org/2000/svg" xmlns:xlink="http://www.w3.org/1999/xlink" contentStyleType="text/css" height="2505px" preserveAspectRatio="none" style="width:614px;height:2505px;background:#FFFFFF;" version="1.1" viewBox="0 0 614 2505" width="614px" zoomAndPan="magnify"><defs/><g><ellipse cx="297" cy="20" fill="#222222" rx="10" ry="10" style="stroke:#222222;stroke-width:1.0;"/><rect fill="#F1F1F1" height="33.9688" rx="12.5" ry="12.5" style="stroke:#181818;stroke-width:0.5;" width="153" x="220.5" y="50"/><text fill="#000000" font-family="sans-serif" font-size="12" lengthAdjust="spacing" textLength="133" x="230.5" y="71.1387">Promote the Research</text><rect fill="#F1F1F1" height="33.9688" rx="12.5" ry="12.5" style="stroke:#181818;stroke-width:0.5;" width="138" x="228" y="103.9688"/><text fill="#000000" font-family="sans-serif" font-size="12" lengthAdjust="spacing" textLength="118" x="238" y="125.1074">Prepare a Research</text><polygon fill="#F1F1F1" points="231,177.9375,363,177.9375,375,189.9375,363,201.9375,231,201.9375,219,189.9375,231,177.9375" style="stroke:#181818;stroke-width:0.5;"/><text fill="#000000" font-family="sans-serif" font-size="11" lengthAdjust="spacing" textLength="132" x="231" y="193.7456">Ready for Monetization</text><text fill="#000000" font-family="sans-serif" font-size="11" lengthAdjust="spacing" textLength="15" x="375" y="187.3433">No</text><rect fill="#F1F1F1" height="33.9688" rx="12.5" ry="12.5" style="stroke:#181818;stroke-width:0.5;" width="192" x="201" y="243.3364"/><text fill="#000000" font-family="sans-serif" font-size="12" lengthAdjust="spacing" textLength="172" x="211" y="264.4751">Identify Profitable Resources</text><rect fill="#555555" height="6" rx="2.5" ry="2.5" style="stroke:#555555;stroke-width:1.0;" width="338" x="128" y="297.3052"/><rect fill="#F1F1F1" height="33.9688" rx="12.5" ry="12.5" style="stroke:#181818;stroke-width:0.5;" width="127" x="142" y="323.3052"/><text fill="#000000" font-family="sans-serif" font-size="12" lengthAdjust="spacing" textLength="107" x="152" y="344.4438">Research Outputs</text><rect fill="#F1F1F1" height="33.9688" rx="12.5" ry="12.5" style="stroke:#181818;stroke-width:0.5;" width="155" x="297" y="323.3052"/><text fill="#000000" font-family="sans-serif" font-size="12" lengthAdjust="spacing" textLength="135" x="307" y="344.4438">Products and Services</text><rect fill="#555555" height="6" rx="2.5" ry="2.5" style="stroke:#555555;stroke-width:1.0;" width="338" x="128" y="377.2739"/><polygon fill="#F1F1F1" points="239,403.2739,355,403.2739,367,415.2739,355,427.2739,239,427.2739,227,415.2739,239,403.2739" style="stroke:#181818;stroke-width:0.5;"/><text fill="#000000" font-family="sans-serif" font-size="11" lengthAdjust="spacing" textLength="21" x="301" y="437.4844">Yes</text><text fill="#000000" font-family="sans-serif" font-size="11" lengthAdjust="spacing" textLength="116" x="239" y="419.082">Profitable Resources</text><text fill="#000000" font-family="sans-serif" font-size="11" lengthAdjust="spacing" textLength="15" x="367" y="412.6797">No</text><ellipse cx="404" cy="415.2739" fill="none" rx="11" ry="11" style="stroke:#222222;stroke-width:1.0;"/><ellipse cx="404" cy="415.2739" fill="#222222" rx="6" ry="6" style="stroke:#222222;stroke-width:1.0;"/><rect fill="#F1F1F1" height="33.9688" rx="12.5" ry="12.5" style="stroke:#181818;stroke-width:0.5;" width="206" x="194" y="458.9844"/><text fill="#000000" font-family="sans-serif" font-size="12" lengthAdjust="spacing" textLength="186" x="204" y="480.123">Develop Monetization Strategy</text><rect fill="#555555" height="6" rx="2.5" ry="2.5" style="stroke:#555555;stroke-width:1.0;" width="574" x="11" y="512.9531"/><rect fill="#F1F1F1" height="33.9688" rx="12.5" ry="12.5" style="stroke:#181818;stroke-width:0.5;" width="165" x="23" y="592.9219"/><text fill="#000000" font-family="sans-serif" font-size="12" lengthAdjust="spacing" textLength="145" x="33" y="614.0605">Define Feasibility Terms</text><rect fill="#F1F1F1" height="33.9688" rx="12.5" ry="12.5" style="stroke:#181818;stroke-width:0.5;" width="134" x="216" y="538.9531"/><text fill="#000000" font-family="sans-serif" font-size="12" lengthAdjust="spacing" textLength="114" x="226" y="560.0918">Evaluate Feasibility</text><polygon fill="#F1F1F1" points="232.5,656.8906,333.5,656.8906,345.5,668.8906,333.5,680.8906,232.5,680.8906,220.5,668.8906,232.5,656.8906" style="stroke:#181818;stroke-width:0.5;"/><text fill="#000000" font-family="sans-serif" font-size="11" lengthAdjust="spacing" textLength="101" x="232.5" y="672.6987">Feasible Strategy</text><text fill="#000000" font-family="sans-serif" font-size="11" lengthAdjust="spacing" textLength="15" x="345.5" y="666.2964">No</text><rect fill="#F1F1F1" height="33.9688" rx="12.5" ry="12.5" style="stroke:#181818;stroke-width:0.5;" width="197" x="374" y="592.9219"/><text fill="#000000" font-family="sans-serif" font-size="12" lengthAdjust="spacing" textLength="177" x="384" y="614.0605">Optimize Strategy and Terms</text><rect fill="#555555" height="6" rx="2.5" ry="2.5" style="stroke:#555555;stroke-width:1.0;" width="574" x="11" y="713.6953"/><rect fill="#F1F1F1" height="33.9688" rx="12.5" ry="12.5" style="stroke:#181818;stroke-width:0.5;" width="232" x="181" y="788.0977"/><text fill="#000000" font-family="sans-serif" font-size="12" lengthAdjust="spacing" textLength="212" x="191" y="809.2363">Collect Profitable Research Outputs</text><polygon fill="#F1F1F1" points="246.5,739.6953,347.5,739.6953,359.5,751.6953,347.5,763.6953,246.5,763.6953,234.5,751.6953,246.5,739.6953" style="stroke:#181818;stroke-width:0.5;"/><text fill="#000000" font-family="sans-serif" font-size="11" lengthAdjust="spacing" textLength="21" x="301" y="773.9058">Yes</text><text fill="#000000" font-family="sans-serif" font-size="11" lengthAdjust="spacing" textLength="101" x="246.5" y="755.5034">Research Outputs</text><text fill="#000000" font-family="sans-serif" font-size="11" lengthAdjust="spacing" textLength="15" x="359.5" y="749.1011">No</text><polygon fill="#F1F1F1" points="297,842.0664,309,854.0664,297,866.0664,285,854.0664,297,842.0664" style="stroke:#181818;stroke-width:0.5;"/><rect fill="#F1F1F1" height="33.9688" rx="12.5" ry="12.5" style="stroke:#181818;stroke-width:0.5;" width="132" x="231" y="990.1792"/><text fill="#000000" font-family="sans-serif" font-size="12" lengthAdjust="spacing" textLength="112" x="241" y="1011.3179">Create a Resource</text><polygon fill="#F1F1F1" points="247,941.7769,347,941.7769,359,953.7769,347,965.7769,247,965.7769,235,953.7769,247,941.7769" style="stroke:#181818;stroke-width:0.5;"/><text fill="#000000" font-family="sans-serif" font-size="11" lengthAdjust="spacing" textLength="21" x="301" y="975.9873">Yes</text><text fill="#000000" font-family="sans-serif" font-size="11" lengthAdjust="spacing" textLength="100" x="247" y="957.585">Feasible Creation</text><text fill="#000000" font-family="sans-serif" font-size="11" lengthAdjust="spacing" textLength="15" x="359" y="951.1826">No</text><polygon fill="#F1F1F1" points="297,1044.1479,309,1056.1479,297,1068.1479,285,1056.1479,297,1044.1479" style="stroke:#181818;stroke-width:0.5;"/><polygon fill="#F1F1F1" points="220,886.0664,374,886.0664,386,898.0664,374,910.0664,220,910.0664,208,898.0664,220,886.0664" style="stroke:#181818;stroke-width:0.5;"/><text fill="#000000" font-family="sans-serif" font-size="11" lengthAdjust="spacing" textLength="21" x="301" y="920.2769">Yes</text><text fill="#000000" font-family="sans-serif" font-size="11" lengthAdjust="spacing" textLength="154" x="220" y="901.8745">Possible Product or Service</text><text fill="#000000" font-family="sans-serif" font-size="11" lengthAdjust="spacing" textLength="15" x="193" y="895.4722">No</text><rect fill="#F1F1F1" height="33.9688" rx="12.5" ry="12.5" style="stroke:#181818;stroke-width:0.5;" width="192" x="201" y="1110.1479"/><text fill="#000000" font-family="sans-serif" font-size="12" lengthAdjust="spacing" textLength="172" x="211" y="1131.2866">Establish Property Protection</text><polygon fill="#F1F1F1" points="230,1184.1167,364,1184.1167,376,1196.1167,364,1208.1167,230,1208.1167,218,1196.1167,230,1184.1167" style="stroke:#181818;stroke-width:0.5;"/><text fill="#000000" font-family="sans-serif" font-size="11" lengthAdjust="spacing" textLength="134" x="230" y="1199.9248">Resources are Secured</text><text fill="#000000" font-family="sans-serif" font-size="11" lengthAdjust="spacing" textLength="15" x="376" y="1193.5225">No</text><rect fill="#F1F1F1" height="33.9688" rx="12.5" ry="12.5" style="stroke:#181818;stroke-width:0.5;" width="192" x="201" y="1249.5156"/><text fill="#000000" font-family="sans-serif" font-size="12" lengthAdjust="spacing" textLength="172" x="211" y="1270.6543">Define Pricing and Packaging</text><rect fill="#F1F1F1" height="33.9688" rx="12.5" ry="12.5" style="stroke:#181818;stroke-width:0.5;" width="178" x="208" y="1303.4844"/><text fill="#000000" font-family="sans-serif" font-size="12" lengthAdjust="spacing" textLength="158" x="218" y="1324.623">Define Distribution Origins</text><rect fill="#F1F1F1" height="33.9688" rx="12.5" ry="12.5" style="stroke:#181818;stroke-width:0.5;" width="146" x="224" y="1357.4531"/><text fill="#000000" font-family="sans-serif" font-size="12" lengthAdjust="spacing" textLength="126" x="234" y="1378.5918">Distribute Resources</text><polygon fill="#F1F1F1" points="242.5,1431.4219,351.5,1431.4219,363.5,1443.4219,351.5,1455.4219,242.5,1455.4219,230.5,1443.4219,242.5,1431.4219" style="stroke:#181818;stroke-width:0.5;"/><text fill="#000000" font-family="sans-serif" font-size="11" lengthAdjust="spacing" textLength="109" x="242.5" y="1447.23">Guidelines are Met</text><text fill="#000000" font-family="sans-serif" font-size="11" lengthAdjust="spacing" textLength="15" x="363.5" y="1440.8276">No</text><rect fill="#F1F1F1" height="33.9688" rx="12.5" ry="12.5" style="stroke:#181818;stroke-width:0.5;" width="241" x="176.5" y="1496.8208"/><text fill="#000000" font-family="sans-serif" font-size="12" lengthAdjust="spacing" textLength="221" x="186.5" y="1517.9595">Set Up Accessible Payment Methods</text><rect fill="#F1F1F1" height="33.9688" rx="12.5" ry="12.5" style="stroke:#181818;stroke-width:0.5;" width="171" x="211.5" y="1550.7896"/><text fill="#000000" font-family="sans-serif" font-size="12" lengthAdjust="spacing" textLength="151" x="221.5" y="1571.9282">Ensure Legal Compliance</text><polygon fill="#F1F1F1" points="246,1624.7583,348,1624.7583,360,1636.7583,348,1648.7583,246,1648.7583,234,1636.7583,246,1624.7583" style="stroke:#181818;stroke-width:0.5;"/><text fill="#000000" font-family="sans-serif" font-size="11" lengthAdjust="spacing" textLength="102" x="246" y="1640.5664">Legal Compliance</text><text fill="#000000" font-family="sans-serif" font-size="11" lengthAdjust="spacing" textLength="15" x="360" y="1634.1641">No</text><path d="M394,1681.563 L394,1705.2622 L374,1709.2622 L394,1713.2622 L394,1736.9614 A0,0 0 0 0 394,1736.9614 L602,1736.9614 A0,0 0 0 0 602,1736.9614 L602,1691.563 L592,1681.563 L394,1681.563 A0,0 0 0 0 394,1681.563 " fill="#FEFFDD" style="stroke:#181818;stroke-width:0.5;"/><path d="M592,1681.563 L592,1691.563 L602,1691.563 L592,1681.563 " fill="#FEFFDD" style="stroke:#181818;stroke-width:0.5;"/><text fill="#000000" font-family="sans-serif" font-size="13" lengthAdjust="spacing" textLength="164" x="400" y="1698.6299">Resource offers are CTAs</text><text fill="#000000" font-family="sans-serif" font-size="13" lengthAdjust="spacing" textLength="183" x="400" y="1713.7627">in engaging and promotional</text><text fill="#000000" font-family="sans-serif" font-size="13" lengthAdjust="spacing" textLength="53" x="400" y="1728.8955">content.</text><rect fill="#F1F1F1" height="33.9688" rx="12.5" ry="12.5" style="stroke:#181818;stroke-width:0.5;" width="154" x="220" y="1692.2778"/><text fill="#000000" font-family="sans-serif" font-size="12" lengthAdjust="spacing" textLength="134" x="230" y="1713.4165">Place Resource Offers</text><rect fill="#555555" height="6" rx="2.5" ry="2.5" style="stroke:#555555;stroke-width:1.0;" width="417" x="88.5" y="1756.9614"/><rect fill="#F1F1F1" height="33.9688" rx="12.5" ry="12.5" style="stroke:#181818;stroke-width:0.5;" width="179" x="102.5" y="1782.9614"/><text fill="#000000" font-family="sans-serif" font-size="12" lengthAdjust="spacing" textLength="159" x="112.5" y="1804.1001">Provide Customer Support</text><rect fill="#F1F1F1" height="33.9688" rx="12.5" ry="12.5" style="stroke:#181818;stroke-width:0.5;" width="182" x="309.5" y="1782.9614"/><text fill="#000000" font-family="sans-serif" font-size="12" lengthAdjust="spacing" textLength="162" x="319.5" y="1804.1001">Establish a Feedback Loop</text><rect fill="#555555" height="6" rx="2.5" ry="2.5" style="stroke:#555555;stroke-width:1.0;" width="417" x="88.5" y="1836.9302"/><rect fill="#F1F1F1" height="33.9688" rx="12.5" ry="12.5" style="stroke:#181818;stroke-width:0.5;" width="122" x="236" y="1862.9302"/><text fill="#000000" font-family="sans-serif" font-size="12" lengthAdjust="spacing" textLength="102" x="246" y="1884.0688">Monitor Analytics</text><polygon fill="#F1F1F1" points="236,1970.8677,358,1970.8677,370,1982.8677,358,1994.8677,236,1994.8677,224,1982.8677,236,1970.8677" style="stroke:#181818;stroke-width:0.5;"/><text fill="#000000" font-family="sans-serif" font-size="11" lengthAdjust="spacing" textLength="122" x="236" y="1986.6758">Optimization Needed</text><text fill="#000000" font-family="sans-serif" font-size="11" lengthAdjust="spacing" textLength="21" x="370" y="1980.2734">Yes</text><rect fill="#F1F1F1" height="33.9688" rx="12.5" ry="12.5" style="stroke:#181818;stroke-width:0.5;" width="142" x="394" y="1906.8989"/><text fill="#000000" font-family="sans-serif" font-size="12" lengthAdjust="spacing" textLength="122" x="404" y="1928.0376">Optimize Resources</text><rect fill="#F1F1F1" height="33.9688" rx="12.5" ry="12.5" style="stroke:#181818;stroke-width:0.5;" width="217" x="188.5" y="2084.6689"/><text fill="#000000" font-family="sans-serif" font-size="12" lengthAdjust="spacing" textLength="197" x="198.5" y="2105.8076">Maintain Continuous Engagement</text><polygon fill="#F1F1F1" points="227,2036.2666,367,2036.2666,379,2048.2666,367,2060.2666,227,2060.2666,215,2048.2666,227,2036.2666" style="stroke:#181818;stroke-width:0.5;"/><text fill="#000000" font-family="sans-serif" font-size="11" lengthAdjust="spacing" textLength="21" x="301" y="2070.4771">Yes</text><text fill="#000000" font-family="sans-serif" font-size="11" lengthAdjust="spacing" textLength="140" x="227" y="2052.0747">Continuous Engagement</text><text fill="#000000" font-family="sans-serif" font-size="11" lengthAdjust="spacing" textLength="15" x="379" y="2045.6724">No</text><polygon fill="#F1F1F1" points="297,2138.6377,309,2150.6377,297,2162.6377,285,2150.6377,297,2138.6377" style="stroke:#181818;stroke-width:0.5;"/><rect fill="#F1F1F1" height="33.9688" rx="12.5" ry="12.5" style="stroke:#181818;stroke-width:0.5;" width="167" x="213.5" y="2238.3481"/><text fill="#000000" font-family="sans-serif" font-size="12" lengthAdjust="spacing" textLength="147" x="223.5" y="2259.4868">Stay Updated and Adapt</text><polygon fill="#F1F1F1" points="241.5,2182.6377,352.5,2182.6377,364.5,2194.6377,352.5,2206.6377,241.5,2206.6377,229.5,2194.6377,241.5,2182.6377" style="stroke:#181818;stroke-width:0.5;"/><text fill="#000000" font-family="sans-serif" font-size="11" lengthAdjust="spacing" textLength="21" x="301" y="2216.8481">Yes</text><text fill="#000000" font-family="sans-serif" font-size="11" lengthAdjust="spacing" textLength="111" x="241.5" y="2198.4458">Adaptation Needed</text><text fill="#000000" font-family="sans-serif" font-size="11" lengthAdjust="spacing" textLength="15" x="214.5" y="2192.0435">No</text><rect fill="#F1F1F1" height="33.9688" rx="12.5" ry="12.5" style="stroke:#181818;stroke-width:0.5;" width="199" x="197.5" y="2314.3169"/><text fill="#000000" font-family="sans-serif" font-size="12" lengthAdjust="spacing" textLength="179" x="207.5" y="2335.4556">Explore Scaling Opportunities</text><rect fill="#555555" height="6" rx="2.5" ry="2.5" style="stroke:#555555;stroke-width:1.0;" width="362" x="116" y="2368.2856"/><rect fill="#F1F1F1" height="33.9688" rx="12.5" ry="12.5" style="stroke:#181818;stroke-width:0.5;" width="143" x="130" y="2394.2856"/><text fill="#000000" font-family="sans-serif" font-size="12" lengthAdjust="spacing" textLength="123" x="140" y="2415.4243">Ensure Sustainability</text><rect fill="#F1F1F1" height="33.9688" rx="12.5" ry="12.5" style="stroke:#181818;stroke-width:0.5;" width="163" x="301" y="2394.2856"/><text fill="#000000" font-family="sans-serif" font-size="12" lengthAdjust="spacing" textLength="143" x="311" y="2415.4243">Consider Diversification</text><rect fill="#555555" height="6" rx="2.5" ry="2.5" style="stroke:#555555;stroke-width:1.0;" width="362" x="116" y="2448.2544"/><ellipse cx="297" cy="2484.2544" fill="none" rx="10" ry="10" style="stroke:#222222;stroke-width:1.5;"/><line style="stroke:#222222;stroke-width:2.5;" x1="290.8128" x2="303.1872" y1="2478.0672" y2="2490.4416"/><line style="stroke:#222222;stroke-width:2.5;" x1="303.1872" x2="290.8128" y1="2478.0672" y2="2490.4416"/><line style="stroke:#181818;stroke-width:1.0;" x1="297" x2="297" y1="30" y2="50"/><polygon fill="#181818" points="293,40,297,50,301,40,297,44" style="stroke:#181818;stroke-width:1.0;"/><line style="stroke:#181818;stroke-width:1.0;" x1="297" x2="297" y1="137.9375" y2="177.9375"/><polygon fill="#181818" points="293,167.9375,297,177.9375,301,167.9375,297,171.9375" style="stroke:#181818;stroke-width:1.0;"/><line style="stroke:#181818;stroke-width:1.0;" x1="375" x2="387" y1="189.9375" y2="189.9375"/><polygon fill="#181818" points="383,157.9375,387,147.9375,391,157.9375,387,153.9375" style="stroke:#181818;stroke-width:1.0;"/><line style="stroke:#181818;stroke-width:1.0;" x1="387" x2="387" y1="120.9531" y2="189.9375"/><line style="stroke:#181818;stroke-width:1.0;" x1="387" x2="366" y1="120.9531" y2="120.9531"/><polygon fill="#181818" points="376,116.9531,366,120.9531,376,124.9531,372,120.9531" style="stroke:#181818;stroke-width:1.0;"/><line style="stroke:#181818;stroke-width:1.0;" x1="297" x2="297" y1="83.9688" y2="103.9688"/><polygon fill="#181818" points="293,93.9688,297,103.9688,301,93.9688,297,97.9688" style="stroke:#181818;stroke-width:1.0;"/><line style="stroke:#181818;stroke-width:1.0;" x1="297" x2="297" y1="201.9375" y2="243.3364"/><polygon fill="#181818" points="293,233.3364,297,243.3364,301,233.3364,297,237.3364" style="stroke:#181818;stroke-width:1.0;"/><text fill="#000000" font-family="sans-serif" font-size="11" lengthAdjust="spacing" textLength="21" x="301" y="223.2422">Yes</text><line style="stroke:#181818;stroke-width:1.0;" x1="205.5" x2="205.5" y1="303.3052" y2="323.3052"/><polygon fill="#181818" points="201.5,313.3052,205.5,323.3052,209.5,313.3052,205.5,317.3052" style="stroke:#181818;stroke-width:1.0;"/><line style="stroke:#181818;stroke-width:1.0;" x1="374.5" x2="374.5" y1="303.3052" y2="323.3052"/><polygon fill="#181818" points="370.5,313.3052,374.5,323.3052,378.5,313.3052,374.5,317.3052" style="stroke:#181818;stroke-width:1.0;"/><line style="stroke:#181818;stroke-width:1.0;" x1="205.5" x2="205.5" y1="357.2739" y2="377.2739"/><polygon fill="#181818" points="201.5,367.2739,205.5,377.2739,209.5,367.2739,205.5,371.2739" style="stroke:#181818;stroke-width:1.0;"/><line style="stroke:#181818;stroke-width:1.0;" x1="374.5" x2="374.5" y1="357.2739" y2="377.2739"/><polygon fill="#181818" points="370.5,367.2739,374.5,377.2739,378.5,367.2739,374.5,371.2739" style="stroke:#181818;stroke-width:1.0;"/><line style="stroke:#181818;stroke-width:1.0;" x1="297" x2="297" y1="277.3052" y2="297.3052"/><polygon fill="#181818" points="293,287.3052,297,297.3052,301,287.3052,297,291.3052" style="stroke:#181818;stroke-width:1.0;"/><line style="stroke:#181818;stroke-width:1.0;" x1="297" x2="297" y1="427.2739" y2="458.9844"/><polygon fill="#181818" points="293,448.9844,297,458.9844,301,448.9844,297,452.9844" style="stroke:#181818;stroke-width:1.0;"/><line style="stroke:#181818;stroke-width:1.0;" x1="367" x2="393" y1="415.2739" y2="415.2739"/><polygon fill="#181818" points="383,411.2739,393,415.2739,383,419.2739,387,415.2739" style="stroke:#181818;stroke-width:1.0;"/><line style="stroke:#181818;stroke-width:1.0;" x1="297" x2="297" y1="383.2739" y2="403.2739"/><polygon fill="#181818" points="293,393.2739,297,403.2739,301,393.2739,297,397.2739" style="stroke:#181818;stroke-width:1.0;"/><line style="stroke:#181818;stroke-width:1.0;" x1="283" x2="283" y1="572.9219" y2="656.8906"/><polygon fill="#181818" points="279,646.8906,283,656.8906,287,646.8906,283,650.8906" style="stroke:#181818;stroke-width:1.0;"/><line style="stroke:#181818;stroke-width:1.0;" x1="345.5" x2="472.5" y1="668.8906" y2="668.8906"/><line style="stroke:#181818;stroke-width:1.0;" x1="472.5" x2="472.5" y1="626.8906" y2="668.8906"/><polygon fill="#181818" points="468.5,636.8906,472.5,626.8906,476.5,636.8906,472.5,632.8906" style="stroke:#181818;stroke-width:1.0;"/><line style="stroke:#181818;stroke-width:1.0;" x1="472.5" x2="472.5" y1="555.9375" y2="592.9219"/><line style="stroke:#181818;stroke-width:1.0;" x1="472.5" x2="350" y1="555.9375" y2="555.9375"/><polygon fill="#181818" points="360,551.9375,350,555.9375,360,559.9375,356,555.9375" style="stroke:#181818;stroke-width:1.0;"/><line style="stroke:#181818;stroke-width:1.0;" x1="105.5" x2="105.5" y1="518.9531" y2="592.9219"/><polygon fill="#181818" points="101.5,582.9219,105.5,592.9219,109.5,582.9219,105.5,586.9219" style="stroke:#181818;stroke-width:1.0;"/><line style="stroke:#181818;stroke-width:1.0;" x1="283" x2="283" y1="518.9531" y2="538.9531"/><polygon fill="#181818" points="279,528.9531,283,538.9531,287,528.9531,283,532.9531" style="stroke:#181818;stroke-width:1.0;"/><line style="stroke:#181818;stroke-width:1.0;" x1="105.5" x2="105.5" y1="626.8906" y2="713.6953"/><polygon fill="#181818" points="101.5,703.6953,105.5,713.6953,109.5,703.6953,105.5,707.6953" style="stroke:#181818;stroke-width:1.0;"/><line style="stroke:#181818;stroke-width:1.0;" x1="283" x2="283" y1="680.8906" y2="713.6953"/><polygon fill="#181818" points="279,703.6953,283,713.6953,287,703.6953,283,707.6953" style="stroke:#181818;stroke-width:1.0;"/><text fill="#000000" font-family="sans-serif" font-size="11" lengthAdjust="spacing" textLength="21" x="287" y="701.1011">Yes</text><line style="stroke:#181818;stroke-width:1.0;" x1="297" x2="297" y1="492.9531" y2="512.9531"/><polygon fill="#181818" points="293,502.9531,297,512.9531,301,502.9531,297,506.9531" style="stroke:#181818;stroke-width:1.0;"/><line style="stroke:#181818;stroke-width:1.0;" x1="297" x2="297" y1="763.6953" y2="788.0977"/><polygon fill="#181818" points="293,778.0977,297,788.0977,301,778.0977,297,782.0977" style="stroke:#181818;stroke-width:1.0;"/><line style="stroke:#181818;stroke-width:1.0;" x1="359.5" x2="423" y1="751.6953" y2="751.6953"/><polygon fill="#181818" points="419,795.082,423,805.082,427,795.082,423,799.082" style="stroke:#181818;stroke-width:1.0;"/><line style="stroke:#181818;stroke-width:1.0;" x1="423" x2="423" y1="751.6953" y2="854.0664"/><line style="stroke:#181818;stroke-width:1.0;" x1="423" x2="309" y1="854.0664" y2="854.0664"/><polygon fill="#181818" points="319,850.0664,309,854.0664,319,858.0664,315,854.0664" style="stroke:#181818;stroke-width:1.0;"/><line style="stroke:#181818;stroke-width:1.0;" x1="297" x2="297" y1="822.0664" y2="842.0664"/><polygon fill="#181818" points="293,832.0664,297,842.0664,301,832.0664,297,836.0664" style="stroke:#181818;stroke-width:1.0;"/><line style="stroke:#181818;stroke-width:1.0;" x1="297" x2="297" y1="719.6953" y2="739.6953"/><polygon fill="#181818" points="293,729.6953,297,739.6953,301,729.6953,297,733.6953" style="stroke:#181818;stroke-width:1.0;"/><line style="stroke:#181818;stroke-width:1.0;" x1="297" x2="297" y1="965.7769" y2="990.1792"/><polygon fill="#181818" points="293,980.1792,297,990.1792,301,980.1792,297,984.1792" style="stroke:#181818;stroke-width:1.0;"/><line style="stroke:#181818;stroke-width:1.0;" x1="359" x2="373" y1="953.7769" y2="953.7769"/><polygon fill="#181818" points="369,997.1636,373,1007.1636,377,997.1636,373,1001.1636" style="stroke:#181818;stroke-width:1.0;"/><line style="stroke:#181818;stroke-width:1.0;" x1="373" x2="373" y1="953.7769" y2="1056.1479"/><line style="stroke:#181818;stroke-width:1.0;" x1="373" x2="309" y1="1056.1479" y2="1056.1479"/><polygon fill="#181818" points="319,1052.1479,309,1056.1479,319,1060.1479,315,1056.1479" style="stroke:#181818;stroke-width:1.0;"/><line style="stroke:#181818;stroke-width:1.0;" x1="297" x2="297" y1="1024.1479" y2="1044.1479"/><polygon fill="#181818" points="293,1034.1479,297,1044.1479,301,1034.1479,297,1038.1479" style="stroke:#181818;stroke-width:1.0;"/><line style="stroke:#181818;stroke-width:1.0;" x1="297" x2="297" y1="910.0664" y2="941.7769"/><polygon fill="#181818" points="293,931.7769,297,941.7769,301,931.7769,297,935.7769" style="stroke:#181818;stroke-width:1.0;"/><line style="stroke:#181818;stroke-width:1.0;" x1="297" x2="297" y1="1068.1479" y2="1078.1479"/><line style="stroke:#181818;stroke-width:1.0;" x1="297" x2="398" y1="1078.1479" y2="1078.1479"/><polygon fill="#181818" points="394,998.7612,398,988.7612,402,998.7612,398,994.7612" style="stroke:#181818;stroke-width:1.0;"/><line style="stroke:#181818;stroke-width:1.0;" x1="398" x2="398" y1="898.0664" y2="1078.1479"/><line style="stroke:#181818;stroke-width:1.0;" x1="398" x2="386" y1="898.0664" y2="898.0664"/><polygon fill="#181818" points="396,894.0664,386,898.0664,396,902.0664,392,898.0664" style="stroke:#181818;stroke-width:1.0;"/><line style="stroke:#181818;stroke-width:1.0;" x1="208" x2="196" y1="898.0664" y2="898.0664"/><polygon fill="#181818" points="192,984.7612,196,994.7612,200,984.7612,196,988.7612" style="stroke:#181818;stroke-width:1.0;"/><line style="stroke:#181818;stroke-width:1.0;" x1="196" x2="196" y1="898.0664" y2="1090.1479"/><line style="stroke:#181818;stroke-width:1.0;" x1="196" x2="297" y1="1090.1479" y2="1090.1479"/><line style="stroke:#181818;stroke-width:1.0;" x1="297" x2="297" y1="1090.1479" y2="1110.1479"/><polygon fill="#181818" points="293,1100.1479,297,1110.1479,301,1100.1479,297,1104.1479" style="stroke:#181818;stroke-width:1.0;"/><line style="stroke:#181818;stroke-width:1.0;" x1="297" x2="297" y1="866.0664" y2="886.0664"/><polygon fill="#181818" points="293,876.0664,297,886.0664,301,876.0664,297,880.0664" style="stroke:#181818;stroke-width:1.0;"/><line style="stroke:#181818;stroke-width:1.0;" x1="297" x2="297" y1="1144.1167" y2="1184.1167"/><polygon fill="#181818" points="293,1174.1167,297,1184.1167,301,1174.1167,297,1178.1167" style="stroke:#181818;stroke-width:1.0;"/><line style="stroke:#181818;stroke-width:1.0;" x1="376" x2="405" y1="1196.1167" y2="1196.1167"/><polygon fill="#181818" points="401,1164.1167,405,1154.1167,409,1164.1167,405,1160.1167" style="stroke:#181818;stroke-width:1.0;"/><line style="stroke:#181818;stroke-width:1.0;" x1="405" x2="405" y1="1127.1323" y2="1196.1167"/><line style="stroke:#181818;stroke-width:1.0;" x1="405" x2="393" y1="1127.1323" y2="1127.1323"/><polygon fill="#181818" points="403,1123.1323,393,1127.1323,403,1131.1323,399,1127.1323" style="stroke:#181818;stroke-width:1.0;"/><line style="stroke:#181818;stroke-width:1.0;" x1="297" x2="297" y1="1208.1167" y2="1249.5156"/><polygon fill="#181818" points="293,1239.5156,297,1249.5156,301,1239.5156,297,1243.5156" style="stroke:#181818;stroke-width:1.0;"/><text fill="#000000" font-family="sans-serif" font-size="11" lengthAdjust="spacing" textLength="21" x="301" y="1229.4214">Yes</text><line style="stroke:#181818;stroke-width:1.0;" x1="297" x2="297" y1="1283.4844" y2="1303.4844"/><polygon fill="#181818" points="293,1293.4844,297,1303.4844,301,1293.4844,297,1297.4844" style="stroke:#181818;stroke-width:1.0;"/><line style="stroke:#181818;stroke-width:1.0;" x1="297" x2="297" y1="1391.4219" y2="1431.4219"/><polygon fill="#181818" points="293,1421.4219,297,1431.4219,301,1421.4219,297,1425.4219" style="stroke:#181818;stroke-width:1.0;"/><line style="stroke:#181818;stroke-width:1.0;" x1="363.5" x2="382" y1="1443.4219" y2="1443.4219"/><polygon fill="#181818" points="378,1411.4219,382,1401.4219,386,1411.4219,382,1407.4219" style="stroke:#181818;stroke-width:1.0;"/><line style="stroke:#181818;stroke-width:1.0;" x1="382" x2="382" y1="1374.4375" y2="1443.4219"/><line style="stroke:#181818;stroke-width:1.0;" x1="382" x2="370" y1="1374.4375" y2="1374.4375"/><polygon fill="#181818" points="380,1370.4375,370,1374.4375,380,1378.4375,376,1374.4375" style="stroke:#181818;stroke-width:1.0;"/><line style="stroke:#181818;stroke-width:1.0;" x1="297" x2="297" y1="1337.4531" y2="1357.4531"/><polygon fill="#181818" points="293,1347.4531,297,1357.4531,301,1347.4531,297,1351.4531" style="stroke:#181818;stroke-width:1.0;"/><line style="stroke:#181818;stroke-width:1.0;" x1="297" x2="297" y1="1455.4219" y2="1496.8208"/><polygon fill="#181818" points="293,1486.8208,297,1496.8208,301,1486.8208,297,1490.8208" style="stroke:#181818;stroke-width:1.0;"/><text fill="#000000" font-family="sans-serif" font-size="11" lengthAdjust="spacing" textLength="21" x="301" y="1476.7266">Yes</text><line style="stroke:#181818;stroke-width:1.0;" x1="297" x2="297" y1="1584.7583" y2="1624.7583"/><polygon fill="#181818" points="293,1614.7583,297,1624.7583,301,1614.7583,297,1618.7583" style="stroke:#181818;stroke-width:1.0;"/><line style="stroke:#181818;stroke-width:1.0;" x1="360" x2="394.5" y1="1636.7583" y2="1636.7583"/><polygon fill="#181818" points="390.5,1604.7583,394.5,1594.7583,398.5,1604.7583,394.5,1600.7583" style="stroke:#181818;stroke-width:1.0;"/><line style="stroke:#181818;stroke-width:1.0;" x1="394.5" x2="394.5" y1="1567.7739" y2="1636.7583"/><line style="stroke:#181818;stroke-width:1.0;" x1="394.5" x2="382.5" y1="1567.7739" y2="1567.7739"/><polygon fill="#181818" points="392.5,1563.7739,382.5,1567.7739,392.5,1571.7739,388.5,1567.7739" style="stroke:#181818;stroke-width:1.0;"/><line style="stroke:#181818;stroke-width:1.0;" x1="297" x2="297" y1="1530.7896" y2="1550.7896"/><polygon fill="#181818" points="293,1540.7896,297,1550.7896,301,1540.7896,297,1544.7896" style="stroke:#181818;stroke-width:1.0;"/><line style="stroke:#181818;stroke-width:1.0;" x1="297" x2="297" y1="1648.7583" y2="1692.2778"/><polygon fill="#181818" points="293,1682.2778,297,1692.2778,301,1682.2778,297,1686.2778" style="stroke:#181818;stroke-width:1.0;"/><text fill="#000000" font-family="sans-serif" font-size="11" lengthAdjust="spacing" textLength="21" x="301" y="1670.063">Yes</text><line style="stroke:#181818;stroke-width:1.0;" x1="192" x2="192" y1="1762.9614" y2="1782.9614"/><polygon fill="#181818" points="188,1772.9614,192,1782.9614,196,1772.9614,192,1776.9614" style="stroke:#181818;stroke-width:1.0;"/><line style="stroke:#181818;stroke-width:1.0;" x1="400.5" x2="400.5" y1="1762.9614" y2="1782.9614"/><polygon fill="#181818" points="396.5,1772.9614,400.5,1782.9614,404.5,1772.9614,400.5,1776.9614" style="stroke:#181818;stroke-width:1.0;"/><line style="stroke:#181818;stroke-width:1.0;" x1="192" x2="192" y1="1816.9302" y2="1836.9302"/><polygon fill="#181818" points="188,1826.9302,192,1836.9302,196,1826.9302,192,1830.9302" style="stroke:#181818;stroke-width:1.0;"/><line style="stroke:#181818;stroke-width:1.0;" x1="400.5" x2="400.5" y1="1816.9302" y2="1836.9302"/><polygon fill="#181818" points="396.5,1826.9302,400.5,1836.9302,404.5,1826.9302,400.5,1830.9302" style="stroke:#181818;stroke-width:1.0;"/><line style="stroke:#181818;stroke-width:1.0;" x1="297" x2="297" y1="1726.2466" y2="1756.9614"/><polygon fill="#181818" points="293,1746.9614,297,1756.9614,301,1746.9614,297,1750.9614" style="stroke:#181818;stroke-width:1.0;"/><line style="stroke:#181818;stroke-width:1.0;" x1="297" x2="297" y1="1896.8989" y2="1970.8677"/><polygon fill="#181818" points="293,1960.8677,297,1970.8677,301,1960.8677,297,1964.8677" style="stroke:#181818;stroke-width:1.0;"/><line style="stroke:#181818;stroke-width:1.0;" x1="370" x2="465" y1="1982.8677" y2="1982.8677"/><line style="stroke:#181818;stroke-width:1.0;" x1="465" x2="465" y1="1940.8677" y2="1982.8677"/><polygon fill="#181818" points="461,1950.8677,465,1940.8677,469,1950.8677,465,1946.8677" style="stroke:#181818;stroke-width:1.0;"/><line style="stroke:#181818;stroke-width:1.0;" x1="465" x2="465" y1="1879.9146" y2="1906.8989"/><line style="stroke:#181818;stroke-width:1.0;" x1="465" x2="358" y1="1879.9146" y2="1879.9146"/><polygon fill="#181818" points="368,1875.9146,358,1879.9146,368,1883.9146,364,1879.9146" style="stroke:#181818;stroke-width:1.0;"/><line style="stroke:#181818;stroke-width:1.0;" x1="297" x2="297" y1="1842.9302" y2="1862.9302"/><polygon fill="#181818" points="293,1852.9302,297,1862.9302,301,1852.9302,297,1856.9302" style="stroke:#181818;stroke-width:1.0;"/><line style="stroke:#181818;stroke-width:1.0;" x1="297" x2="297" y1="2060.2666" y2="2084.6689"/><polygon fill="#181818" points="293,2074.6689,297,2084.6689,301,2074.6689,297,2078.6689" style="stroke:#181818;stroke-width:1.0;"/><line style="stroke:#181818;stroke-width:1.0;" x1="379" x2="415.5" y1="2048.2666" y2="2048.2666"/><polygon fill="#181818" points="411.5,2091.6533,415.5,2101.6533,419.5,2091.6533,415.5,2095.6533" style="stroke:#181818;stroke-width:1.0;"/><line style="stroke:#181818;stroke-width:1.0;" x1="415.5" x2="415.5" y1="2048.2666" y2="2150.6377"/><line style="stroke:#181818;stroke-width:1.0;" x1="415.5" x2="309" y1="2150.6377" y2="2150.6377"/><polygon fill="#181818" points="319,2146.6377,309,2150.6377,319,2154.6377,315,2150.6377" style="stroke:#181818;stroke-width:1.0;"/><line style="stroke:#181818;stroke-width:1.0;" x1="297" x2="297" y1="2118.6377" y2="2138.6377"/><polygon fill="#181818" points="293,2128.6377,297,2138.6377,301,2128.6377,297,2132.6377" style="stroke:#181818;stroke-width:1.0;"/><line style="stroke:#181818;stroke-width:1.0;" x1="297" x2="297" y1="1994.8677" y2="2036.2666"/><polygon fill="#181818" points="293,2026.2666,297,2036.2666,301,2026.2666,297,2030.2666" style="stroke:#181818;stroke-width:1.0;"/><text fill="#000000" font-family="sans-serif" font-size="11" lengthAdjust="spacing" textLength="15" x="301" y="2016.1724">No</text><line style="stroke:#181818;stroke-width:1.0;" x1="297" x2="297" y1="2206.6377" y2="2238.3481"/><polygon fill="#181818" points="293,2228.3481,297,2238.3481,301,2228.3481,297,2232.3481" style="stroke:#181818;stroke-width:1.0;"/><line style="stroke:#181818;stroke-width:1.0;" x1="297" x2="297" y1="2272.3169" y2="2282.3169"/><line style="stroke:#181818;stroke-width:1.0;" x1="297" x2="392.5" y1="2282.3169" y2="2282.3169"/><polygon fill="#181818" points="388.5,2246.9302,392.5,2236.9302,396.5,2246.9302,392.5,2242.9302" style="stroke:#181818;stroke-width:1.0;"/><line style="stroke:#181818;stroke-width:1.0;" x1="392.5" x2="392.5" y1="2194.6377" y2="2282.3169"/><line style="stroke:#181818;stroke-width:1.0;" x1="392.5" x2="364.5" y1="2194.6377" y2="2194.6377"/><polygon fill="#181818" points="374.5,2190.6377,364.5,2194.6377,374.5,2198.6377,370.5,2194.6377" style="stroke:#181818;stroke-width:1.0;"/><line style="stroke:#181818;stroke-width:1.0;" x1="229.5" x2="201.5" y1="2194.6377" y2="2194.6377"/><polygon fill="#181818" points="197.5,2232.9302,201.5,2242.9302,205.5,2232.9302,201.5,2236.9302" style="stroke:#181818;stroke-width:1.0;"/><line style="stroke:#181818;stroke-width:1.0;" x1="201.5" x2="201.5" y1="2194.6377" y2="2294.3169"/><line style="stroke:#181818;stroke-width:1.0;" x1="201.5" x2="297" y1="2294.3169" y2="2294.3169"/><line style="stroke:#181818;stroke-width:1.0;" x1="297" x2="297" y1="2294.3169" y2="2314.3169"/><polygon fill="#181818" points="293,2304.3169,297,2314.3169,301,2304.3169,297,2308.3169" style="stroke:#181818;stroke-width:1.0;"/><line style="stroke:#181818;stroke-width:1.0;" x1="297" x2="297" y1="2162.6377" y2="2182.6377"/><polygon fill="#181818" points="293,2172.6377,297,2182.6377,301,2172.6377,297,2176.6377" style="stroke:#181818;stroke-width:1.0;"/><line style="stroke:#181818;stroke-width:1.0;" x1="201.5" x2="201.5" y1="2374.2856" y2="2394.2856"/><polygon fill="#181818" points="197.5,2384.2856,201.5,2394.2856,205.5,2384.2856,201.5,2388.2856" style="stroke:#181818;stroke-width:1.0;"/><line style="stroke:#181818;stroke-width:1.0;" x1="382.5" x2="382.5" y1="2374.2856" y2="2394.2856"/><polygon fill="#181818" points="378.5,2384.2856,382.5,2394.2856,386.5,2384.2856,382.5,2388.2856" style="stroke:#181818;stroke-width:1.0;"/><line style="stroke:#181818;stroke-width:1.0;" x1="201.5" x2="201.5" y1="2428.2544" y2="2448.2544"/><polygon fill="#181818" points="197.5,2438.2544,201.5,2448.2544,205.5,2438.2544,201.5,2442.2544" style="stroke:#181818;stroke-width:1.0;"/><line style="stroke:#181818;stroke-width:1.0;" x1="382.5" x2="382.5" y1="2428.2544" y2="2448.2544"/><polygon fill="#181818" points="378.5,2438.2544,382.5,2448.2544,386.5,2438.2544,382.5,2442.2544" style="stroke:#181818;stroke-width:1.0;"/><line style="stroke:#181818;stroke-width:1.0;" x1="297" x2="297" y1="2348.2856" y2="2368.2856"/><polygon fill="#181818" points="293,2358.2856,297,2368.2856,301,2358.2856,297,2362.2856" style="stroke:#181818;stroke-width:1.0;"/><line style="stroke:#181818;stroke-width:1.0;" x1="297" x2="297" y1="2454.2544" y2="2474.2544"/><polygon fill="#181818" points="293,2464.2544,297,2474.2544,301,2464.2544,297,2468.2544" style="stroke:#181818;stroke-width:1.0;"/><!--SRC=[TLJDRk8m4BxdAUPO3jq70AaIekngfRQWqZtiqIGJ6DNObZsXcpxzZXs7GD8Y0O9nPhxvVXnOUIxcMszFbX7uYF2A0PKlZul2eqF585LqoYEeQUtZI1hXxXLLrK9jFJnRWqoVYicQ6L20knSxA-uV_c9O5FFV5HgckWKPM1EhlKxpREFBM9S6xmN8QzuFWat3hk5S0tLGPBeJqg5gIWwWJ0Kxz6TABT1KgGlLSFVLa5dSqNIeOf_0rXMeWomX46VnUQgB-IEUKLjtimxis2l6GtiDz15hCWW_KGNQaoPkuGtzQGgu9tDzLhgHDjUFBDA9lIhVFvIlvXl7TA9Fl0nCE-QsLxqo-LqZFHmVU8-7C_VNn8pPxKb93AIrLbPhB7caqqYIZhOufsCjuzdQqE794e7O8WlK8RkCYLWkw5SUisj6O3f0iPejc9Jic1WWf5y9Xdnc9F7_2-yXha7X664vz9nCoBAap9pwETi5ekztM3OUgwcTi_XRJoMPGr9fAoAgW_mQoeyKsDE-IHxQU99g6C9rgTuauHREhuOgrDAhm_ECFCMoGuO_3fQbF9_fL-r9uXQF7srrDN9jWkm3JtXG6bRsv3Gf4nczdJgkJsTkjIe7sB2fQ_JolubNYUnvvAJAfMvJFQsmUbi6w3nWHBP3eYmHwD9L95J9x7IWj8PbZHzHrzZvAdmYu5cOWLKZCJwXsAnnpdgUtXQ3-ag2XrNC6ZnPwuPWzEn8v8d5iaj1q3ALij0qcTzAbKzq5yQBJEfza-ny__1Y5oc2AzcAJ6ER0EkuFaQffZbybWrOtl3b-MyZkAoKusymfBuxLgtOfP9CLOdszCHYb9tv-f_JDYQWL3eAj4dqDa8GtTxNsL8x4KBGglvQ6yiWMmGHp4icpc85ggbKNVvw5UJxFm00]--></g></svg>