<?xml version="1.0" encoding="us-ascii" standalone="no"?><svg xmlns="http://www.w3.org/2000/svg" xmlns:xlink="http://www.w3.org/1999/xlink" contentStyleType="text/css" height="2157px" preserveAspectRatio="none" style="width:464px;height:2157px;background:#FFFFFF;" version="1.1" viewBox="0 0 464 2157" width="464px" zoomAndPan="magnify"><defs/><g><ellipse cx="229.5" cy="20" fill="#222222" rx="10" ry="10" style="stroke:#222222;stroke-width:1.0;"/><polygon fill="#F1F1F1" points="66.5,103.9688,158.5,103.9688,170.5,115.9688,158.5,127.9688,66.5,127.9688,54.5,115.9688,66.5,103.9688" style="stroke:#181818;stroke-width:0.5;"/><text fill="#000000" font-family="sans-serif" font-size="11" lengthAdjust="spacing" textLength="21" x="116.5" y="138.1792">Yes</text><text fill="#000000" font-family="sans-serif" font-size="11" lengthAdjust="spacing" textLength="92" x="66.5" y="119.7769">Problem Solving</text><polygon fill="#F1F1F1" points="217.5,103.9688,342.5,103.9688,354.5,115.9688,342.5,127.9688,217.5,127.9688,205.5,115.9688,217.5,103.9688" style="stroke:#181818;stroke-width:0.5;"/><text fill="#000000" font-family="sans-serif" font-size="11" lengthAdjust="spacing" textLength="21" x="284" y="138.1792">Yes</text><text fill="#000000" font-family="sans-serif" font-size="11" lengthAdjust="spacing" textLength="125" x="217.5" y="119.7769">Practice Improvement</text><text fill="#000000" font-family="sans-serif" font-size="11" lengthAdjust="spacing" textLength="15" x="190.5" y="113.3745">No</text><text fill="#000000" font-family="sans-serif" font-size="11" lengthAdjust="spacing" textLength="15" x="354.5" y="113.3745">No</text><rect fill="#F1F1F1" height="33.9688" rx="12.5" ry="12.5" style="stroke:#181818;stroke-width:0.5;" width="135" x="162" y="50"/><text fill="#000000" font-family="sans-serif" font-size="12" lengthAdjust="spacing" textLength="115" x="172" y="71.1387">Define the Purpose</text><polygon fill="#F1F1F1" points="181.5,199.6792,277.5,199.6792,289.5,211.6792,277.5,223.6792,181.5,223.6792,169.5,211.6792,181.5,199.6792" style="stroke:#181818;stroke-width:0.5;"/><text fill="#000000" font-family="sans-serif" font-size="11" lengthAdjust="spacing" textLength="96" x="181.5" y="215.4873">Purpose Clarified</text><text fill="#000000" font-family="sans-serif" font-size="11" lengthAdjust="spacing" textLength="15" x="289.5" y="209.085">No</text><polygon fill="#F1F1F1" points="44.5,319.0469,106.5,319.0469,118.5,331.0469,106.5,343.0469,44.5,343.0469,32.5,331.0469,44.5,319.0469" style="stroke:#181818;stroke-width:0.5;"/><text fill="#000000" font-family="sans-serif" font-size="11" lengthAdjust="spacing" textLength="21" x="79.5" y="353.2573">Yes</text><text fill="#000000" font-family="sans-serif" font-size="11" lengthAdjust="spacing" textLength="62" x="44.5" y="334.855">Qualitative</text><polygon fill="#F1F1F1" points="165.5,319.0469,235.5,319.0469,247.5,331.0469,235.5,343.0469,165.5,343.0469,153.5,331.0469,165.5,319.0469" style="stroke:#181818;stroke-width:0.5;"/><text fill="#000000" font-family="sans-serif" font-size="11" lengthAdjust="spacing" textLength="21" x="204.5" y="353.2573">Yes</text><text fill="#000000" font-family="sans-serif" font-size="11" lengthAdjust="spacing" textLength="70" x="165.5" y="334.855">Quantitative</text><text fill="#000000" font-family="sans-serif" font-size="11" lengthAdjust="spacing" textLength="15" x="138.5" y="328.4526">No</text><polygon fill="#F1F1F1" points="294.5,319.0469,364.5,319.0469,376.5,331.0469,364.5,343.0469,294.5,343.0469,282.5,331.0469,294.5,319.0469" style="stroke:#181818;stroke-width:0.5;"/><text fill="#000000" font-family="sans-serif" font-size="11" lengthAdjust="spacing" textLength="21" x="333.5" y="353.2573">Yes</text><text fill="#000000" font-family="sans-serif" font-size="11" lengthAdjust="spacing" textLength="70" x="294.5" y="334.855">Multimethod</text><text fill="#000000" font-family="sans-serif" font-size="11" lengthAdjust="spacing" textLength="15" x="267.5" y="328.4526">No</text><text fill="#000000" font-family="sans-serif" font-size="11" lengthAdjust="spacing" textLength="15" x="376.5" y="328.4526">No</text><rect fill="#F1F1F1" height="33.9688" rx="12.5" ry="12.5" style="stroke:#181818;stroke-width:0.5;" width="127" x="166" y="265.0781"/><text fill="#000000" font-family="sans-serif" font-size="12" lengthAdjust="spacing" textLength="107" x="176" y="286.2168">Select the Design</text><polygon fill="#F1F1F1" points="184,414.7573,275,414.7573,287,426.7573,275,438.7573,184,438.7573,172,426.7573,184,414.7573" style="stroke:#181818;stroke-width:0.5;"/><text fill="#000000" font-family="sans-serif" font-size="11" lengthAdjust="spacing" textLength="91" x="184" y="430.5654">Design Clarified</text><text fill="#000000" font-family="sans-serif" font-size="11" lengthAdjust="spacing" textLength="15" x="287" y="424.1631">No</text><rect fill="#F1F1F1" height="33.9688" rx="12.5" ry="12.5" style="stroke:#181818;stroke-width:0.5;" width="152" x="153.5" y="480.1563"/><text fill="#000000" font-family="sans-serif" font-size="12" lengthAdjust="spacing" textLength="132" x="163.5" y="501.2949">Identify the Study Site</text><rect fill="#F1F1F1" height="33.9688" rx="12.5" ry="12.5" style="stroke:#181818;stroke-width:0.5;" width="151" x="154" y="534.125"/><text fill="#000000" font-family="sans-serif" font-size="12" lengthAdjust="spacing" textLength="131" x="164" y="555.2637">Describe the Problem</text><rect fill="#F1F1F1" height="33.9688" rx="12.5" ry="12.5" style="stroke:#181818;stroke-width:0.5;" width="147" x="156" y="643.8042"/><text fill="#000000" font-family="sans-serif" font-size="12" lengthAdjust="spacing" textLength="127" x="166" y="664.9429">Review the Literature</text><rect fill="#F1F1F1" height="33.9688" rx="12.5" ry="12.5" style="stroke:#181818;stroke-width:0.5;" width="143" x="158" y="697.7729"/><text fill="#000000" font-family="sans-serif" font-size="12" lengthAdjust="spacing" textLength="123" x="168" y="718.9116">Evaluate Satisfaction</text><polygon fill="#F1F1F1" points="171,751.7417,288,751.7417,300,763.7417,288,775.7417,171,775.7417,159,763.7417,171,751.7417" style="stroke:#181818;stroke-width:0.5;"/><text fill="#000000" font-family="sans-serif" font-size="11" lengthAdjust="spacing" textLength="15" x="233.5" y="785.9521">No</text><text fill="#000000" font-family="sans-serif" font-size="11" lengthAdjust="spacing" textLength="117" x="171" y="767.5498">Satisfactory Solution</text><text fill="#000000" font-family="sans-serif" font-size="11" lengthAdjust="spacing" textLength="21" x="300" y="761.1475">Yes</text><ellipse cx="343" cy="763.7417" fill="none" rx="11" ry="11" style="stroke:#222222;stroke-width:1.0;"/><ellipse cx="343" cy="763.7417" fill="#222222" rx="6" ry="6" style="stroke:#222222;stroke-width:1.0;"/><polygon fill="#F1F1F1" points="182.5,588.0938,276.5,588.0938,288.5,600.0938,276.5,612.0938,182.5,612.0938,170.5,600.0938,182.5,588.0938" style="stroke:#181818;stroke-width:0.5;"/><text fill="#000000" font-family="sans-serif" font-size="11" lengthAdjust="spacing" textLength="21" x="233.5" y="622.3042">Yes</text><text fill="#000000" font-family="sans-serif" font-size="11" lengthAdjust="spacing" textLength="94" x="182.5" y="603.9019">Existing Solution</text><text fill="#000000" font-family="sans-serif" font-size="11" lengthAdjust="spacing" textLength="15" x="155.5" y="597.4995">No</text><rect fill="#F1F1F1" height="33.9688" rx="12.5" ry="12.5" style="stroke:#181818;stroke-width:0.5;" width="209" x="125" y="829.4521"/><text fill="#000000" font-family="sans-serif" font-size="12" lengthAdjust="spacing" textLength="189" x="135" y="850.5908">Formulate Research Objectives</text><rect fill="#F1F1F1" height="33.9688" rx="12.5" ry="12.5" style="stroke:#181818;stroke-width:0.5;" width="217" x="121" y="883.4209"/><text fill="#000000" font-family="sans-serif" font-size="12" lengthAdjust="spacing" textLength="197" x="131" y="904.5596">Formulate Research Hypotheses</text><rect fill="#555555" height="6" rx="2.5" ry="2.5" style="stroke:#555555;stroke-width:1.0;" width="439" x="11" y="937.3896"/><rect fill="#F1F1F1" height="33.9688" rx="12.5" ry="12.5" style="stroke:#181818;stroke-width:0.5;" width="203" x="23" y="1017.3584"/><text fill="#000000" font-family="sans-serif" font-size="12" lengthAdjust="spacing" textLength="183" x="33" y="1038.4971">Develop a Data Collection Plan</text><rect fill="#F1F1F1" height="33.9688" rx="12.5" ry="12.5" style="stroke:#181818;stroke-width:0.5;" width="158" x="254" y="963.3896"/><text fill="#000000" font-family="sans-serif" font-size="12" lengthAdjust="spacing" textLength="138" x="264" y="984.5283">Collect Analytical Tools</text><polygon fill="#F1F1F1" points="295,1071.3271,371,1071.3271,383,1083.3271,371,1095.3271,295,1095.3271,283,1083.3271,295,1071.3271" style="stroke:#181818;stroke-width:0.5;"/><text fill="#000000" font-family="sans-serif" font-size="11" lengthAdjust="spacing" textLength="76" x="295" y="1087.1353">Enough Tools</text><text fill="#000000" font-family="sans-serif" font-size="11" lengthAdjust="spacing" textLength="15" x="383" y="1080.7329">No</text><rect fill="#555555" height="6" rx="2.5" ry="2.5" style="stroke:#555555;stroke-width:1.0;" width="439" x="11" y="1128.1318"/><rect fill="#555555" height="6" rx="2.5" ry="2.5" style="stroke:#555555;stroke-width:1.0;" width="355" x="52" y="1154.1318"/><rect fill="#F1F1F1" height="33.9688" rx="12.5" ry="12.5" style="stroke:#181818;stroke-width:0.5;" width="165" x="66" y="1180.1318"/><text fill="#000000" font-family="sans-serif" font-size="12" lengthAdjust="spacing" textLength="145" x="76" y="1201.2705">Define Feasibility Terms</text><rect fill="#F1F1F1" height="33.9688" rx="12.5" ry="12.5" style="stroke:#181818;stroke-width:0.5;" width="134" x="259" y="1180.1318"/><text fill="#000000" font-family="sans-serif" font-size="12" lengthAdjust="spacing" textLength="114" x="269" y="1201.2705">Evaluate Feasibility</text><rect fill="#555555" height="6" rx="2.5" ry="2.5" style="stroke:#555555;stroke-width:1.0;" width="355" x="52" y="1234.1006"/><polygon fill="#F1F1F1" points="170.5,1260.1006,288.5,1260.1006,300.5,1272.1006,288.5,1284.1006,170.5,1284.1006,158.5,1272.1006,170.5,1260.1006" style="stroke:#181818;stroke-width:0.5;"/><text fill="#000000" font-family="sans-serif" font-size="11" lengthAdjust="spacing" textLength="21" x="233.5" y="1294.311">Yes</text><text fill="#000000" font-family="sans-serif" font-size="11" lengthAdjust="spacing" textLength="118" x="170.5" y="1275.9087">Research is Feasible</text><text fill="#000000" font-family="sans-serif" font-size="11" lengthAdjust="spacing" textLength="15" x="300.5" y="1269.5063">No</text><ellipse cx="337.5" cy="1272.1006" fill="none" rx="11" ry="11" style="stroke:#222222;stroke-width:1.0;"/><ellipse cx="337.5" cy="1272.1006" fill="#222222" rx="6" ry="6" style="stroke:#222222;stroke-width:1.0;"/><rect fill="#F1F1F1" height="33.9688" rx="12.5" ry="12.5" style="stroke:#181818;stroke-width:0.5;" width="191" x="134" y="1315.811"/><text fill="#000000" font-family="sans-serif" font-size="12" lengthAdjust="spacing" textLength="171" x="144" y="1336.9497">Write the Research Proposal</text><polygon fill="#F1F1F1" points="176.5,1389.7798,282.5,1389.7798,294.5,1401.7798,282.5,1413.7798,176.5,1413.7798,164.5,1401.7798,176.5,1389.7798" style="stroke:#181818;stroke-width:0.5;"/><text fill="#000000" font-family="sans-serif" font-size="11" lengthAdjust="spacing" textLength="106" x="176.5" y="1405.5879">Proposal Approved</text><text fill="#000000" font-family="sans-serif" font-size="11" lengthAdjust="spacing" textLength="15" x="294.5" y="1399.1855">No</text><rect fill="#555555" height="6" rx="2.5" ry="2.5" style="stroke:#555555;stroke-width:1.0;" width="295" x="82" y="1455.1787"/><rect fill="#F1F1F1" height="33.9688" rx="12.5" ry="12.5" style="stroke:#181818;stroke-width:0.5;" width="116" x="96" y="1481.1787"/><text fill="#000000" font-family="sans-serif" font-size="12" lengthAdjust="spacing" textLength="96" x="106" y="1502.3174">Define Logistics</text><rect fill="#F1F1F1" height="33.9688" rx="12.5" ry="12.5" style="stroke:#181818;stroke-width:0.5;" width="123" x="240" y="1481.1787"/><text fill="#000000" font-family="sans-serif" font-size="12" lengthAdjust="spacing" textLength="103" x="250" y="1502.3174">Plan the Logistics</text><rect fill="#555555" height="6" rx="2.5" ry="2.5" style="stroke:#555555;stroke-width:1.0;" width="295" x="82" y="1535.1475"/><rect fill="#F1F1F1" height="33.9688" rx="12.5" ry="12.5" style="stroke:#181818;stroke-width:0.5;" width="92" x="183.5" y="1561.1475"/><text fill="#000000" font-family="sans-serif" font-size="12" lengthAdjust="spacing" textLength="72" x="193.5" y="1582.2861">Collect Data</text><rect fill="#F1F1F1" height="33.9688" rx="12.5" ry="12.5" style="stroke:#181818;stroke-width:0.5;" width="128" x="165.5" y="1615.1162"/><text fill="#000000" font-family="sans-serif" font-size="12" lengthAdjust="spacing" textLength="108" x="175.5" y="1636.2549">Optimize the Data</text><polygon fill="#F1F1F1" points="163,1689.085,296,1689.085,308,1701.085,296,1713.085,163,1713.085,151,1701.085,163,1689.085" style="stroke:#181818;stroke-width:0.5;"/><text fill="#000000" font-family="sans-serif" font-size="11" lengthAdjust="spacing" textLength="133" x="163" y="1704.8931">Data Meets the Design</text><text fill="#000000" font-family="sans-serif" font-size="11" lengthAdjust="spacing" textLength="15" x="308" y="1698.4907">No</text><rect fill="#F1F1F1" height="33.9688" rx="12.5" ry="12.5" style="stroke:#181818;stroke-width:0.5;" width="121" x="169" y="1754.4839"/><text fill="#000000" font-family="sans-serif" font-size="12" lengthAdjust="spacing" textLength="101" x="179" y="1775.6226">Analyze the Data</text><rect fill="#F1F1F1" height="33.9688" rx="12.5" ry="12.5" style="stroke:#181818;stroke-width:0.5;" width="209" x="125" y="1808.4526"/><text fill="#000000" font-family="sans-serif" font-size="12" lengthAdjust="spacing" textLength="189" x="135" y="1829.5913">Interpret the Research Findings</text><rect fill="#F1F1F1" height="33.9688" rx="12.5" ry="12.5" style="stroke:#181818;stroke-width:0.5;" width="150" x="154.5" y="1862.4214"/><text fill="#000000" font-family="sans-serif" font-size="12" lengthAdjust="spacing" textLength="130" x="164.5" y="1883.5601">Write the Final Report</text><rect fill="#F1F1F1" height="33.9688" rx="12.5" ry="12.5" style="stroke:#181818;stroke-width:0.5;" width="183" x="138" y="1916.3901"/><text fill="#000000" font-family="sans-serif" font-size="12" lengthAdjust="spacing" textLength="163" x="148" y="1937.5288">Prepare a Presentation Plan</text><rect fill="#F1F1F1" height="33.9688" rx="12.5" ry="12.5" style="stroke:#181818;stroke-width:0.5;" width="135" x="162" y="1970.3589"/><text fill="#000000" font-family="sans-serif" font-size="12" lengthAdjust="spacing" textLength="115" x="172" y="1991.4976">Present the Results</text><rect fill="#F1F1F1" height="33.9688" rx="12.5" ry="12.5" style="stroke:#181818;stroke-width:0.5;" width="171" x="144" y="2072.73"/><text fill="#000000" font-family="sans-serif" font-size="12" lengthAdjust="spacing" textLength="151" x="154" y="2093.8687">Evaluation and Follow-Up</text><ellipse cx="229.5" cy="2136.6987" fill="none" rx="10" ry="10" style="stroke:#222222;stroke-width:1.5;"/><line style="stroke:#222222;stroke-width:2.5;" x1="223.3128" x2="235.6872" y1="2130.5115" y2="2142.8859"/><line style="stroke:#222222;stroke-width:2.5;" x1="235.6872" x2="223.3128" y1="2130.5115" y2="2142.8859"/><polygon fill="#F1F1F1" points="162,2024.3276,297,2024.3276,309,2036.3276,297,2048.3276,162,2048.3276,150,2036.3276,162,2024.3276" style="stroke:#181818;stroke-width:0.5;"/><text fill="#000000" font-family="sans-serif" font-size="11" lengthAdjust="spacing" textLength="21" x="233.5" y="2058.5381">Yes</text><text fill="#000000" font-family="sans-serif" font-size="11" lengthAdjust="spacing" textLength="135" x="162" y="2040.1357">Further Actions Needed</text><text fill="#000000" font-family="sans-serif" font-size="11" lengthAdjust="spacing" textLength="15" x="309" y="2033.7334">No</text><ellipse cx="346" cy="2036.3276" fill="none" rx="11" ry="11" style="stroke:#222222;stroke-width:1.0;"/><ellipse cx="346" cy="2036.3276" fill="#222222" rx="6" ry="6" style="stroke:#222222;stroke-width:1.0;"/><line style="stroke:#181818;stroke-width:1.0;" x1="112.5" x2="112.5" y1="127.9688" y2="179.6792"/><polygon fill="#181818" points="108.5,169.6792,112.5,179.6792,116.5,169.6792,112.5,173.6792" style="stroke:#181818;stroke-width:1.0;"/><line style="stroke:#181818;stroke-width:1.0;" x1="280" x2="280" y1="127.9688" y2="179.6792"/><polygon fill="#181818" points="276,169.6792,280,179.6792,284,169.6792,280,173.6792" style="stroke:#181818;stroke-width:1.0;"/><line style="stroke:#181818;stroke-width:1.0;" x1="170.5" x2="205.5" y1="115.9688" y2="115.9688"/><polygon fill="#181818" points="195.5,111.9688,205.5,115.9688,195.5,119.9688,199.5,115.9688" style="stroke:#181818;stroke-width:1.0;"/><line style="stroke:#181818;stroke-width:1.0;" x1="229.5" x2="229.5" y1="83.9688" y2="88.9688"/><line style="stroke:#181818;stroke-width:1.0;" x1="229.5" x2="112.5" y1="88.9688" y2="88.9688"/><line style="stroke:#181818;stroke-width:1.0;" x1="112.5" x2="112.5" y1="88.9688" y2="103.9688"/><polygon fill="#181818" points="108.5,93.9688,112.5,103.9688,116.5,93.9688,112.5,97.9688" style="stroke:#181818;stroke-width:1.0;"/><line style="stroke:#181818;stroke-width:1.0;" x1="354.5" x2="389.5" y1="115.9688" y2="115.9688"/><line style="stroke:#181818;stroke-width:1.0;" x1="389.5" x2="389.5" y1="115.9688" y2="179.6792"/><polygon fill="#181818" points="385.5,169.6792,389.5,179.6792,393.5,169.6792,389.5,173.6792" style="stroke:#181818;stroke-width:1.0;"/><line style="stroke:#181818;stroke-width:1.0;" x1="112.5" x2="389.5" y1="179.6792" y2="179.6792"/><line style="stroke:#181818;stroke-width:1.0;" x1="289.5" x2="416.5" y1="211.6792" y2="211.6792"/><polygon fill="#181818" points="412.5,159.6792,416.5,149.6792,420.5,159.6792,416.5,155.6792" style="stroke:#181818;stroke-width:1.0;"/><line style="stroke:#181818;stroke-width:1.0;" x1="416.5" x2="416.5" y1="66.9844" y2="211.6792"/><line style="stroke:#181818;stroke-width:1.0;" x1="416.5" x2="297" y1="66.9844" y2="66.9844"/><polygon fill="#181818" points="307,62.9844,297,66.9844,307,70.9844,303,66.9844" style="stroke:#181818;stroke-width:1.0;"/><line style="stroke:#181818;stroke-width:1.0;" x1="229.5" x2="229.5" y1="179.6792" y2="199.6792"/><polygon fill="#181818" points="225.5,189.6792,229.5,199.6792,233.5,189.6792,229.5,193.6792" style="stroke:#181818;stroke-width:1.0;"/><line style="stroke:#181818;stroke-width:1.0;" x1="229.5" x2="229.5" y1="30" y2="50"/><polygon fill="#181818" points="225.5,40,229.5,50,233.5,40,229.5,44" style="stroke:#181818;stroke-width:1.0;"/><line style="stroke:#181818;stroke-width:1.0;" x1="75.5" x2="75.5" y1="343.0469" y2="394.7573"/><polygon fill="#181818" points="71.5,384.7573,75.5,394.7573,79.5,384.7573,75.5,388.7573" style="stroke:#181818;stroke-width:1.0;"/><line style="stroke:#181818;stroke-width:1.0;" x1="200.5" x2="200.5" y1="343.0469" y2="394.7573"/><polygon fill="#181818" points="196.5,384.7573,200.5,394.7573,204.5,384.7573,200.5,388.7573" style="stroke:#181818;stroke-width:1.0;"/><line style="stroke:#181818;stroke-width:1.0;" x1="329.5" x2="329.5" y1="343.0469" y2="394.7573"/><polygon fill="#181818" points="325.5,384.7573,329.5,394.7573,333.5,384.7573,329.5,388.7573" style="stroke:#181818;stroke-width:1.0;"/><line style="stroke:#181818;stroke-width:1.0;" x1="118.5" x2="153.5" y1="331.0469" y2="331.0469"/><polygon fill="#181818" points="143.5,327.0469,153.5,331.0469,143.5,335.0469,147.5,331.0469" style="stroke:#181818;stroke-width:1.0;"/><line style="stroke:#181818;stroke-width:1.0;" x1="247.5" x2="282.5" y1="331.0469" y2="331.0469"/><polygon fill="#181818" points="272.5,327.0469,282.5,331.0469,272.5,335.0469,276.5,331.0469" style="stroke:#181818;stroke-width:1.0;"/><line style="stroke:#181818;stroke-width:1.0;" x1="229.5" x2="229.5" y1="299.0469" y2="304.0469"/><line style="stroke:#181818;stroke-width:1.0;" x1="229.5" x2="75.5" y1="304.0469" y2="304.0469"/><line style="stroke:#181818;stroke-width:1.0;" x1="75.5" x2="75.5" y1="304.0469" y2="319.0469"/><polygon fill="#181818" points="71.5,309.0469,75.5,319.0469,79.5,309.0469,75.5,313.0469" style="stroke:#181818;stroke-width:1.0;"/><line style="stroke:#181818;stroke-width:1.0;" x1="376.5" x2="411.5" y1="331.0469" y2="331.0469"/><line style="stroke:#181818;stroke-width:1.0;" x1="411.5" x2="411.5" y1="331.0469" y2="394.7573"/><polygon fill="#181818" points="407.5,384.7573,411.5,394.7573,415.5,384.7573,411.5,388.7573" style="stroke:#181818;stroke-width:1.0;"/><line style="stroke:#181818;stroke-width:1.0;" x1="75.5" x2="411.5" y1="394.7573" y2="394.7573"/><line style="stroke:#181818;stroke-width:1.0;" x1="287" x2="438.5" y1="426.7573" y2="426.7573"/><polygon fill="#181818" points="434.5,374.7573,438.5,364.7573,442.5,374.7573,438.5,370.7573" style="stroke:#181818;stroke-width:1.0;"/><line style="stroke:#181818;stroke-width:1.0;" x1="438.5" x2="438.5" y1="282.0625" y2="426.7573"/><line style="stroke:#181818;stroke-width:1.0;" x1="438.5" x2="293" y1="282.0625" y2="282.0625"/><polygon fill="#181818" points="303,278.0625,293,282.0625,303,286.0625,299,282.0625" style="stroke:#181818;stroke-width:1.0;"/><line style="stroke:#181818;stroke-width:1.0;" x1="229.5" x2="229.5" y1="394.7573" y2="414.7573"/><polygon fill="#181818" points="225.5,404.7573,229.5,414.7573,233.5,404.7573,229.5,408.7573" style="stroke:#181818;stroke-width:1.0;"/><line style="stroke:#181818;stroke-width:1.0;" x1="229.5" x2="229.5" y1="223.6792" y2="265.0781"/><polygon fill="#181818" points="225.5,255.0781,229.5,265.0781,233.5,255.0781,229.5,259.0781" style="stroke:#181818;stroke-width:1.0;"/><text fill="#000000" font-family="sans-serif" font-size="11" lengthAdjust="spacing" textLength="21" x="233.5" y="244.9839">Yes</text><line style="stroke:#181818;stroke-width:1.0;" x1="229.5" x2="229.5" y1="438.7573" y2="480.1563"/><polygon fill="#181818" points="225.5,470.1563,229.5,480.1563,233.5,470.1563,229.5,474.1563" style="stroke:#181818;stroke-width:1.0;"/><text fill="#000000" font-family="sans-serif" font-size="11" lengthAdjust="spacing" textLength="21" x="233.5" y="460.062">Yes</text><line style="stroke:#181818;stroke-width:1.0;" x1="229.5" x2="229.5" y1="514.125" y2="534.125"/><polygon fill="#181818" points="225.5,524.125,229.5,534.125,233.5,524.125,229.5,528.125" style="stroke:#181818;stroke-width:1.0;"/><line style="stroke:#181818;stroke-width:1.0;" x1="229.5" x2="229.5" y1="677.7729" y2="697.7729"/><polygon fill="#181818" points="225.5,687.7729,229.5,697.7729,233.5,687.7729,229.5,691.7729" style="stroke:#181818;stroke-width:1.0;"/><line style="stroke:#181818;stroke-width:1.0;" x1="229.5" x2="229.5" y1="775.7417" y2="797.4521"/><line style="stroke:#181818;stroke-width:1.0;" x1="229.5" x2="378" y1="797.4521" y2="797.4521"/><polygon fill="#181818" points="374,725.7729,378,715.7729,382,725.7729,378,721.7729" style="stroke:#181818;stroke-width:1.0;"/><line style="stroke:#181818;stroke-width:1.0;" x1="378" x2="378" y1="600.0938" y2="797.4521"/><line style="stroke:#181818;stroke-width:1.0;" x1="378" x2="288.5" y1="600.0938" y2="600.0938"/><polygon fill="#181818" points="298.5,596.0938,288.5,600.0938,298.5,604.0938,294.5,600.0938" style="stroke:#181818;stroke-width:1.0;"/><line style="stroke:#181818;stroke-width:1.0;" x1="300" x2="332" y1="763.7417" y2="763.7417"/><polygon fill="#181818" points="322,759.7417,332,763.7417,322,767.7417,326,763.7417" style="stroke:#181818;stroke-width:1.0;"/><line style="stroke:#181818;stroke-width:1.0;" x1="229.5" x2="229.5" y1="731.7417" y2="751.7417"/><polygon fill="#181818" points="225.5,741.7417,229.5,751.7417,233.5,741.7417,229.5,745.7417" style="stroke:#181818;stroke-width:1.0;"/><line style="stroke:#181818;stroke-width:1.0;" x1="229.5" x2="229.5" y1="612.0938" y2="643.8042"/><polygon fill="#181818" points="225.5,633.8042,229.5,643.8042,233.5,633.8042,229.5,637.8042" style="stroke:#181818;stroke-width:1.0;"/><line style="stroke:#181818;stroke-width:1.0;" x1="170.5" x2="144" y1="600.0938" y2="600.0938"/><polygon fill="#181818" points="140,711.7729,144,721.7729,148,711.7729,144,715.7729" style="stroke:#181818;stroke-width:1.0;"/><line style="stroke:#181818;stroke-width:1.0;" x1="144" x2="144" y1="600.0938" y2="809.4521"/><line style="stroke:#181818;stroke-width:1.0;" x1="144" x2="229.5" y1="809.4521" y2="809.4521"/><line style="stroke:#181818;stroke-width:1.0;" x1="229.5" x2="229.5" y1="809.4521" y2="829.4521"/><polygon fill="#181818" points="225.5,819.4521,229.5,829.4521,233.5,819.4521,229.5,823.4521" style="stroke:#181818;stroke-width:1.0;"/><line style="stroke:#181818;stroke-width:1.0;" x1="229.5" x2="229.5" y1="568.0938" y2="588.0938"/><polygon fill="#181818" points="225.5,578.0938,229.5,588.0938,233.5,578.0938,229.5,582.0938" style="stroke:#181818;stroke-width:1.0;"/><line style="stroke:#181818;stroke-width:1.0;" x1="229.5" x2="229.5" y1="863.4209" y2="883.4209"/><polygon fill="#181818" points="225.5,873.4209,229.5,883.4209,233.5,873.4209,229.5,877.4209" style="stroke:#181818;stroke-width:1.0;"/><line style="stroke:#181818;stroke-width:1.0;" x1="333" x2="333" y1="997.3584" y2="1071.3271"/><polygon fill="#181818" points="329,1061.3271,333,1071.3271,337,1061.3271,333,1065.3271" style="stroke:#181818;stroke-width:1.0;"/><line style="stroke:#181818;stroke-width:1.0;" x1="383" x2="424" y1="1083.3271" y2="1083.3271"/><polygon fill="#181818" points="420,1046.835,424,1036.835,428,1046.835,424,1042.835" style="stroke:#181818;stroke-width:1.0;"/><line style="stroke:#181818;stroke-width:1.0;" x1="424" x2="424" y1="980.374" y2="1083.3271"/><line style="stroke:#181818;stroke-width:1.0;" x1="424" x2="412" y1="980.374" y2="980.374"/><polygon fill="#181818" points="422,976.374,412,980.374,422,984.374,418,980.374" style="stroke:#181818;stroke-width:1.0;"/><line style="stroke:#181818;stroke-width:1.0;" x1="124.5" x2="124.5" y1="943.3896" y2="1017.3584"/><polygon fill="#181818" points="120.5,1007.3584,124.5,1017.3584,128.5,1007.3584,124.5,1011.3584" style="stroke:#181818;stroke-width:1.0;"/><line style="stroke:#181818;stroke-width:1.0;" x1="333" x2="333" y1="943.3896" y2="963.3896"/><polygon fill="#181818" points="329,953.3896,333,963.3896,337,953.3896,333,957.3896" style="stroke:#181818;stroke-width:1.0;"/><line style="stroke:#181818;stroke-width:1.0;" x1="124.5" x2="124.5" y1="1051.3271" y2="1128.1318"/><polygon fill="#181818" points="120.5,1118.1318,124.5,1128.1318,128.5,1118.1318,124.5,1122.1318" style="stroke:#181818;stroke-width:1.0;"/><line style="stroke:#181818;stroke-width:1.0;" x1="333" x2="333" y1="1095.3271" y2="1128.1318"/><polygon fill="#181818" points="329,1118.1318,333,1128.1318,337,1118.1318,333,1122.1318" style="stroke:#181818;stroke-width:1.0;"/><text fill="#000000" font-family="sans-serif" font-size="11" lengthAdjust="spacing" textLength="21" x="337" y="1115.5376">Yes</text><line style="stroke:#181818;stroke-width:1.0;" x1="229.5" x2="229.5" y1="917.3896" y2="937.3896"/><polygon fill="#181818" points="225.5,927.3896,229.5,937.3896,233.5,927.3896,229.5,931.3896" style="stroke:#181818;stroke-width:1.0;"/><line style="stroke:#181818;stroke-width:1.0;" x1="148.5" x2="148.5" y1="1160.1318" y2="1180.1318"/><polygon fill="#181818" points="144.5,1170.1318,148.5,1180.1318,152.5,1170.1318,148.5,1174.1318" style="stroke:#181818;stroke-width:1.0;"/><line style="stroke:#181818;stroke-width:1.0;" x1="326" x2="326" y1="1160.1318" y2="1180.1318"/><polygon fill="#181818" points="322,1170.1318,326,1180.1318,330,1170.1318,326,1174.1318" style="stroke:#181818;stroke-width:1.0;"/><line style="stroke:#181818;stroke-width:1.0;" x1="148.5" x2="148.5" y1="1214.1006" y2="1234.1006"/><polygon fill="#181818" points="144.5,1224.1006,148.5,1234.1006,152.5,1224.1006,148.5,1228.1006" style="stroke:#181818;stroke-width:1.0;"/><line style="stroke:#181818;stroke-width:1.0;" x1="326" x2="326" y1="1214.1006" y2="1234.1006"/><polygon fill="#181818" points="322,1224.1006,326,1234.1006,330,1224.1006,326,1228.1006" style="stroke:#181818;stroke-width:1.0;"/><line style="stroke:#181818;stroke-width:1.0;" x1="229.5" x2="229.5" y1="1134.1318" y2="1154.1318"/><polygon fill="#181818" points="225.5,1144.1318,229.5,1154.1318,233.5,1144.1318,229.5,1148.1318" style="stroke:#181818;stroke-width:1.0;"/><line style="stroke:#181818;stroke-width:1.0;" x1="229.5" x2="229.5" y1="1284.1006" y2="1315.811"/><polygon fill="#181818" points="225.5,1305.811,229.5,1315.811,233.5,1305.811,229.5,1309.811" style="stroke:#181818;stroke-width:1.0;"/><line style="stroke:#181818;stroke-width:1.0;" x1="300.5" x2="326.5" y1="1272.1006" y2="1272.1006"/><polygon fill="#181818" points="316.5,1268.1006,326.5,1272.1006,316.5,1276.1006,320.5,1272.1006" style="stroke:#181818;stroke-width:1.0;"/><line style="stroke:#181818;stroke-width:1.0;" x1="229.5" x2="229.5" y1="1240.1006" y2="1260.1006"/><polygon fill="#181818" points="225.5,1250.1006,229.5,1260.1006,233.5,1250.1006,229.5,1254.1006" style="stroke:#181818;stroke-width:1.0;"/><line style="stroke:#181818;stroke-width:1.0;" x1="229.5" x2="229.5" y1="1349.7798" y2="1389.7798"/><polygon fill="#181818" points="225.5,1379.7798,229.5,1389.7798,233.5,1379.7798,229.5,1383.7798" style="stroke:#181818;stroke-width:1.0;"/><line style="stroke:#181818;stroke-width:1.0;" x1="294.5" x2="337" y1="1401.7798" y2="1401.7798"/><polygon fill="#181818" points="333,1369.7798,337,1359.7798,341,1369.7798,337,1365.7798" style="stroke:#181818;stroke-width:1.0;"/><line style="stroke:#181818;stroke-width:1.0;" x1="337" x2="337" y1="1332.7954" y2="1401.7798"/><line style="stroke:#181818;stroke-width:1.0;" x1="337" x2="325" y1="1332.7954" y2="1332.7954"/><polygon fill="#181818" points="335,1328.7954,325,1332.7954,335,1336.7954,331,1332.7954" style="stroke:#181818;stroke-width:1.0;"/><line style="stroke:#181818;stroke-width:1.0;" x1="154" x2="154" y1="1461.1787" y2="1481.1787"/><polygon fill="#181818" points="150,1471.1787,154,1481.1787,158,1471.1787,154,1475.1787" style="stroke:#181818;stroke-width:1.0;"/><line style="stroke:#181818;stroke-width:1.0;" x1="301.5" x2="301.5" y1="1461.1787" y2="1481.1787"/><polygon fill="#181818" points="297.5,1471.1787,301.5,1481.1787,305.5,1471.1787,301.5,1475.1787" style="stroke:#181818;stroke-width:1.0;"/><line style="stroke:#181818;stroke-width:1.0;" x1="154" x2="154" y1="1515.1475" y2="1535.1475"/><polygon fill="#181818" points="150,1525.1475,154,1535.1475,158,1525.1475,154,1529.1475" style="stroke:#181818;stroke-width:1.0;"/><line style="stroke:#181818;stroke-width:1.0;" x1="301.5" x2="301.5" y1="1515.1475" y2="1535.1475"/><polygon fill="#181818" points="297.5,1525.1475,301.5,1535.1475,305.5,1525.1475,301.5,1529.1475" style="stroke:#181818;stroke-width:1.0;"/><line style="stroke:#181818;stroke-width:1.0;" x1="229.5" x2="229.5" y1="1413.7798" y2="1455.1787"/><polygon fill="#181818" points="225.5,1445.1787,229.5,1455.1787,233.5,1445.1787,229.5,1449.1787" style="stroke:#181818;stroke-width:1.0;"/><text fill="#000000" font-family="sans-serif" font-size="11" lengthAdjust="spacing" textLength="21" x="233.5" y="1435.0845">Yes</text><line style="stroke:#181818;stroke-width:1.0;" x1="229.5" x2="229.5" y1="1541.1475" y2="1561.1475"/><polygon fill="#181818" points="225.5,1551.1475,229.5,1561.1475,233.5,1551.1475,229.5,1555.1475" style="stroke:#181818;stroke-width:1.0;"/><line style="stroke:#181818;stroke-width:1.0;" x1="229.5" x2="229.5" y1="1649.085" y2="1689.085"/><polygon fill="#181818" points="225.5,1679.085,229.5,1689.085,233.5,1679.085,229.5,1683.085" style="stroke:#181818;stroke-width:1.0;"/><line style="stroke:#181818;stroke-width:1.0;" x1="308" x2="320" y1="1701.085" y2="1701.085"/><polygon fill="#181818" points="316,1669.085,320,1659.085,324,1669.085,320,1665.085" style="stroke:#181818;stroke-width:1.0;"/><line style="stroke:#181818;stroke-width:1.0;" x1="320" x2="320" y1="1632.1006" y2="1701.085"/><line style="stroke:#181818;stroke-width:1.0;" x1="320" x2="293.5" y1="1632.1006" y2="1632.1006"/><polygon fill="#181818" points="303.5,1628.1006,293.5,1632.1006,303.5,1636.1006,299.5,1632.1006" style="stroke:#181818;stroke-width:1.0;"/><line style="stroke:#181818;stroke-width:1.0;" x1="229.5" x2="229.5" y1="1595.1162" y2="1615.1162"/><polygon fill="#181818" points="225.5,1605.1162,229.5,1615.1162,233.5,1605.1162,229.5,1609.1162" style="stroke:#181818;stroke-width:1.0;"/><line style="stroke:#181818;stroke-width:1.0;" x1="229.5" x2="229.5" y1="1713.085" y2="1754.4839"/><polygon fill="#181818" points="225.5,1744.4839,229.5,1754.4839,233.5,1744.4839,229.5,1748.4839" style="stroke:#181818;stroke-width:1.0;"/><text fill="#000000" font-family="sans-serif" font-size="11" lengthAdjust="spacing" textLength="21" x="233.5" y="1734.3896">Yes</text><line style="stroke:#181818;stroke-width:1.0;" x1="229.5" x2="229.5" y1="1788.4526" y2="1808.4526"/><polygon fill="#181818" points="225.5,1798.4526,229.5,1808.4526,233.5,1798.4526,229.5,1802.4526" style="stroke:#181818;stroke-width:1.0;"/><line style="stroke:#181818;stroke-width:1.0;" x1="229.5" x2="229.5" y1="1842.4214" y2="1862.4214"/><polygon fill="#181818" points="225.5,1852.4214,229.5,1862.4214,233.5,1852.4214,229.5,1856.4214" style="stroke:#181818;stroke-width:1.0;"/><line style="stroke:#181818;stroke-width:1.0;" x1="229.5" x2="229.5" y1="1896.3901" y2="1916.3901"/><polygon fill="#181818" points="225.5,1906.3901,229.5,1916.3901,233.5,1906.3901,229.5,1910.3901" style="stroke:#181818;stroke-width:1.0;"/><line style="stroke:#181818;stroke-width:1.0;" x1="229.5" x2="229.5" y1="1950.3589" y2="1970.3589"/><polygon fill="#181818" points="225.5,1960.3589,229.5,1970.3589,233.5,1960.3589,229.5,1964.3589" style="stroke:#181818;stroke-width:1.0;"/><line style="stroke:#181818;stroke-width:1.0;" x1="229.5" x2="229.5" y1="2106.6987" y2="2126.6987"/><polygon fill="#181818" points="225.5,2116.6987,229.5,2126.6987,233.5,2116.6987,229.5,2120.6987" style="stroke:#181818;stroke-width:1.0;"/><line style="stroke:#181818;stroke-width:1.0;" x1="229.5" x2="229.5" y1="2048.3276" y2="2072.73"/><polygon fill="#181818" points="225.5,2062.73,229.5,2072.73,233.5,2062.73,229.5,2066.73" style="stroke:#181818;stroke-width:1.0;"/><line style="stroke:#181818;stroke-width:1.0;" x1="309" x2="335" y1="2036.3276" y2="2036.3276"/><polygon fill="#181818" points="325,2032.3276,335,2036.3276,325,2040.3276,329,2036.3276" style="stroke:#181818;stroke-width:1.0;"/><line style="stroke:#181818;stroke-width:1.0;" x1="229.5" x2="229.5" y1="2004.3276" y2="2024.3276"/><polygon fill="#181818" points="225.5,2014.3276,229.5,2024.3276,233.5,2014.3276,229.5,2018.3276" style="stroke:#181818;stroke-width:1.0;"/><!--SRC=[dLJBRjim4BpxA_OO7_834b30Y6FKG1wkdQBeaPPMyhOKAP2KNFNhkwJUKH84rS6moE5oTcPMrWdZLWPB50wYBMQa4Dm5uL2PKbkCLy0FPN1pCFeiiO2JbZMfVErH2cv-ebq7pCsJNWDAYorO98uIX7rH6brZWSejJdXmEDQ-gPIodidrGfBtEX9m9uMXZ31T0zdsoEqNhXCFp4yeCN61-HOjvMea_gqIafnmLEF7f1cetAUGZvLqLA2xwFG_kce9Vj1Kj4zPBygQqC_9LMa39t9i1Zja4qFdpgFMadZL5Rx_GzQnDzwZof5MRUM1MdJ4cl0QpZvmFIDSPJgBe_jQo4euley5i9dtJqzK75QrQIRrNpNl7-jq-QuI_DkHzUlHJfkYalxM8reK9hd0y_aNEyaMU27UsF_Qb9fljNu_q-PtotwBDKfTWe2jS0BkjFHvO8fma4ArI12v81NmVMmw76oKa0q7LaXuqLhQU8hgrLMwoY_j_cYPntMsSM-1q9HLcAST2ajduXGsy8Aci0i-e_eJx5ZH6p08m3Ut83bFwLpkuC8iVT4Fmvu7yuTQd20UC27ZruFNhSEc3FExpEYYoGUT-_GbRpJdBMX3DsBwrWOBl6_ZF3-NF63qjwKxs-g7oDlyYEZiPEYNanICdPM9zegJNnfqSobsn6Aft1yQXU955k68fJQEDmxCGHZabF4_opCg9X6BkhM-B7yZk9YtRbSPNZEm2Ocqy8IOulBBqOV0bnGgXHqhew-ttyku7w1tFVu7]--></g></svg>