<?xml version="1.0" encoding="us-ascii" standalone="no"?><svg xmlns="http://www.w3.org/2000/svg" xmlns:xlink="http://www.w3.org/1999/xlink" contentStyleType="text/css" height="2168px" preserveAspectRatio="none" style="width:513px;height:2168px;background:#FFFFFF;" version="1.1" viewBox="0 0 513 2168" width="513px" zoomAndPan="magnify"><defs/><g><ellipse cx="256.5" cy="20" fill="#222222" rx="10" ry="10" style="stroke:#222222;stroke-width:1.0;"/><polygon fill="#F1F1F1" points="93.5,103.9688,185.5,103.9688,197.5,115.9688,185.5,127.9688,93.5,127.9688,81.5,115.9688,93.5,103.9688" style="stroke:#181818;stroke-width:0.5;"/><text fill="#000000" font-family="sans-serif" font-size="11" lengthAdjust="spacing" textLength="21" x="143.5" y="138.1792">Yes</text><text fill="#000000" font-family="sans-serif" font-size="11" lengthAdjust="spacing" textLength="92" x="93.5" y="119.7769">Problem Solving</text><polygon fill="#F1F1F1" points="244.5,103.9688,369.5,103.9688,381.5,115.9688,369.5,127.9688,244.5,127.9688,232.5,115.9688,244.5,103.9688" style="stroke:#181818;stroke-width:0.5;"/><text fill="#000000" font-family="sans-serif" font-size="11" lengthAdjust="spacing" textLength="21" x="311" y="138.1792">Yes</text><text fill="#000000" font-family="sans-serif" font-size="11" lengthAdjust="spacing" textLength="125" x="244.5" y="119.7769">Practice Improvement</text><text fill="#000000" font-family="sans-serif" font-size="11" lengthAdjust="spacing" textLength="15" x="217.5" y="113.3745">No</text><text fill="#000000" font-family="sans-serif" font-size="11" lengthAdjust="spacing" textLength="15" x="381.5" y="113.3745">No</text><rect fill="#F1F1F1" height="33.9688" rx="12.5" ry="12.5" style="stroke:#181818;stroke-width:0.5;" width="135" x="189" y="50"/><text fill="#000000" font-family="sans-serif" font-size="12" lengthAdjust="spacing" textLength="115" x="199" y="71.1387">Define the Purpose</text><polygon fill="#F1F1F1" points="208.5,199.6792,304.5,199.6792,316.5,211.6792,304.5,223.6792,208.5,223.6792,196.5,211.6792,208.5,199.6792" style="stroke:#181818;stroke-width:0.5;"/><text fill="#000000" font-family="sans-serif" font-size="11" lengthAdjust="spacing" textLength="96" x="208.5" y="215.4873">Purpose Clarified</text><text fill="#000000" font-family="sans-serif" font-size="11" lengthAdjust="spacing" textLength="15" x="316.5" y="209.085">No</text><polygon fill="#F1F1F1" points="71.5,319.0469,133.5,319.0469,145.5,331.0469,133.5,343.0469,71.5,343.0469,59.5,331.0469,71.5,319.0469" style="stroke:#181818;stroke-width:0.5;"/><text fill="#000000" font-family="sans-serif" font-size="11" lengthAdjust="spacing" textLength="21" x="106.5" y="353.2573">Yes</text><text fill="#000000" font-family="sans-serif" font-size="11" lengthAdjust="spacing" textLength="62" x="71.5" y="334.855">Qualitative</text><polygon fill="#F1F1F1" points="192.5,319.0469,262.5,319.0469,274.5,331.0469,262.5,343.0469,192.5,343.0469,180.5,331.0469,192.5,319.0469" style="stroke:#181818;stroke-width:0.5;"/><text fill="#000000" font-family="sans-serif" font-size="11" lengthAdjust="spacing" textLength="21" x="231.5" y="353.2573">Yes</text><text fill="#000000" font-family="sans-serif" font-size="11" lengthAdjust="spacing" textLength="70" x="192.5" y="334.855">Quantitative</text><text fill="#000000" font-family="sans-serif" font-size="11" lengthAdjust="spacing" textLength="15" x="165.5" y="328.4526">No</text><polygon fill="#F1F1F1" points="321.5,319.0469,391.5,319.0469,403.5,331.0469,391.5,343.0469,321.5,343.0469,309.5,331.0469,321.5,319.0469" style="stroke:#181818;stroke-width:0.5;"/><text fill="#000000" font-family="sans-serif" font-size="11" lengthAdjust="spacing" textLength="21" x="360.5" y="353.2573">Yes</text><text fill="#000000" font-family="sans-serif" font-size="11" lengthAdjust="spacing" textLength="70" x="321.5" y="334.855">Multimethod</text><text fill="#000000" font-family="sans-serif" font-size="11" lengthAdjust="spacing" textLength="15" x="294.5" y="328.4526">No</text><text fill="#000000" font-family="sans-serif" font-size="11" lengthAdjust="spacing" textLength="15" x="403.5" y="328.4526">No</text><rect fill="#F1F1F1" height="33.9688" rx="12.5" ry="12.5" style="stroke:#181818;stroke-width:0.5;" width="127" x="193" y="265.0781"/><text fill="#000000" font-family="sans-serif" font-size="12" lengthAdjust="spacing" textLength="107" x="203" y="286.2168">Select the Design</text><polygon fill="#F1F1F1" points="211,414.7573,302,414.7573,314,426.7573,302,438.7573,211,438.7573,199,426.7573,211,414.7573" style="stroke:#181818;stroke-width:0.5;"/><text fill="#000000" font-family="sans-serif" font-size="11" lengthAdjust="spacing" textLength="91" x="211" y="430.5654">Design Clarified</text><text fill="#000000" font-family="sans-serif" font-size="11" lengthAdjust="spacing" textLength="15" x="314" y="424.1631">No</text><rect fill="#F1F1F1" height="33.9688" rx="12.5" ry="12.5" style="stroke:#181818;stroke-width:0.5;" width="152" x="180.5" y="480.1563"/><text fill="#000000" font-family="sans-serif" font-size="12" lengthAdjust="spacing" textLength="132" x="190.5" y="501.2949">Identify the Study Site</text><rect fill="#F1F1F1" height="33.9688" rx="12.5" ry="12.5" style="stroke:#181818;stroke-width:0.5;" width="151" x="181" y="534.125"/><text fill="#000000" font-family="sans-serif" font-size="12" lengthAdjust="spacing" textLength="131" x="191" y="555.2637">Describe the Problem</text><rect fill="#F1F1F1" height="33.9688" rx="12.5" ry="12.5" style="stroke:#181818;stroke-width:0.5;" width="147" x="183" y="643.8042"/><text fill="#000000" font-family="sans-serif" font-size="12" lengthAdjust="spacing" textLength="127" x="193" y="664.9429">Review the Literature</text><rect fill="#F1F1F1" height="33.9688" rx="12.5" ry="12.5" style="stroke:#181818;stroke-width:0.5;" width="143" x="185" y="697.7729"/><text fill="#000000" font-family="sans-serif" font-size="12" lengthAdjust="spacing" textLength="123" x="195" y="718.9116">Evaluate Satisfaction</text><polygon fill="#F1F1F1" points="198,751.7417,315,751.7417,327,763.7417,315,775.7417,198,775.7417,186,763.7417,198,751.7417" style="stroke:#181818;stroke-width:0.5;"/><text fill="#000000" font-family="sans-serif" font-size="11" lengthAdjust="spacing" textLength="15" x="260.5" y="785.9521">No</text><text fill="#000000" font-family="sans-serif" font-size="11" lengthAdjust="spacing" textLength="117" x="198" y="767.5498">Satisfactory Solution</text><text fill="#000000" font-family="sans-serif" font-size="11" lengthAdjust="spacing" textLength="21" x="327" y="761.1475">Yes</text><ellipse cx="370" cy="763.7417" fill="none" rx="11" ry="11" style="stroke:#222222;stroke-width:1.0;"/><ellipse cx="370" cy="763.7417" fill="#222222" rx="6" ry="6" style="stroke:#222222;stroke-width:1.0;"/><polygon fill="#F1F1F1" points="209.5,588.0938,303.5,588.0938,315.5,600.0938,303.5,612.0938,209.5,612.0938,197.5,600.0938,209.5,588.0938" style="stroke:#181818;stroke-width:0.5;"/><text fill="#000000" font-family="sans-serif" font-size="11" lengthAdjust="spacing" textLength="21" x="260.5" y="622.3042">Yes</text><text fill="#000000" font-family="sans-serif" font-size="11" lengthAdjust="spacing" textLength="94" x="209.5" y="603.9019">Existing Solution</text><text fill="#000000" font-family="sans-serif" font-size="11" lengthAdjust="spacing" textLength="15" x="182.5" y="597.4995">No</text><rect fill="#F1F1F1" height="33.9688" rx="12.5" ry="12.5" style="stroke:#181818;stroke-width:0.5;" width="209" x="152" y="829.4521"/><text fill="#000000" font-family="sans-serif" font-size="12" lengthAdjust="spacing" textLength="189" x="162" y="850.5908">Formulate Research Objectives</text><rect fill="#F1F1F1" height="33.9688" rx="12.5" ry="12.5" style="stroke:#181818;stroke-width:0.5;" width="217" x="148" y="883.4209"/><text fill="#000000" font-family="sans-serif" font-size="12" lengthAdjust="spacing" textLength="197" x="158" y="904.5596">Formulate Research Hypotheses</text><rect fill="#555555" height="6" rx="2.5" ry="2.5" style="stroke:#555555;stroke-width:1.0;" width="491" x="11" y="937.3896"/><rect fill="#F1F1F1" height="33.9688" rx="12.5" ry="12.5" style="stroke:#181818;stroke-width:0.5;" width="165" x="23" y="1017.3584"/><text fill="#000000" font-family="sans-serif" font-size="12" lengthAdjust="spacing" textLength="145" x="33" y="1038.4971">Define Feasibility Terms</text><rect fill="#F1F1F1" height="33.9688" rx="12.5" ry="12.5" style="stroke:#181818;stroke-width:0.5;" width="134" x="216" y="963.3896"/><text fill="#000000" font-family="sans-serif" font-size="12" lengthAdjust="spacing" textLength="114" x="226" y="984.5283">Evaluate Feasibility</text><polygon fill="#F1F1F1" points="230.5,1081.3271,335.5,1081.3271,347.5,1093.3271,335.5,1105.3271,230.5,1105.3271,218.5,1093.3271,230.5,1081.3271" style="stroke:#181818;stroke-width:0.5;"/><text fill="#000000" font-family="sans-serif" font-size="11" lengthAdjust="spacing" textLength="105" x="230.5" y="1097.1353">Feasible Research</text><text fill="#000000" font-family="sans-serif" font-size="11" lengthAdjust="spacing" textLength="15" x="347.5" y="1090.7329">No</text><rect fill="#F1F1F1" height="33.9688" rx="12.5" ry="12.5" style="stroke:#181818;stroke-width:0.5;" width="116" x="374" y="1017.3584"/><text fill="#000000" font-family="sans-serif" font-size="12" lengthAdjust="spacing" textLength="96" x="384" y="1038.4971">Optimize Terms</text><rect fill="#555555" height="6" rx="2.5" ry="2.5" style="stroke:#555555;stroke-width:1.0;" width="491" x="11" y="1138.1318"/><rect fill="#555555" height="6" rx="2.5" ry="2.5" style="stroke:#555555;stroke-width:1.0;" width="324" x="94.5" y="1164.1318"/><rect fill="#F1F1F1" height="33.9688" rx="12.5" ry="12.5" style="stroke:#181818;stroke-width:0.5;" width="116" x="108.5" y="1244.1006"/><text fill="#000000" font-family="sans-serif" font-size="12" lengthAdjust="spacing" textLength="96" x="118.5" y="1265.2393">Define Logistics</text><rect fill="#F1F1F1" height="33.9688" rx="12.5" ry="12.5" style="stroke:#181818;stroke-width:0.5;" width="123" x="255" y="1190.1318"/><text fill="#000000" font-family="sans-serif" font-size="12" lengthAdjust="spacing" textLength="103" x="265" y="1211.2705">Plan the Logistics</text><polygon fill="#F1F1F1" points="264.5,1298.0693,368.5,1298.0693,380.5,1310.0693,368.5,1322.0693,264.5,1322.0693,252.5,1310.0693,264.5,1298.0693" style="stroke:#181818;stroke-width:0.5;"/><text fill="#000000" font-family="sans-serif" font-size="11" lengthAdjust="spacing" textLength="104" x="264.5" y="1313.8774">Feasibility Aligned</text><text fill="#000000" font-family="sans-serif" font-size="11" lengthAdjust="spacing" textLength="15" x="380.5" y="1307.4751">No</text><rect fill="#555555" height="6" rx="2.5" ry="2.5" style="stroke:#555555;stroke-width:1.0;" width="324" x="94.5" y="1354.874"/><rect fill="#F1F1F1" height="33.9688" rx="12.5" ry="12.5" style="stroke:#181818;stroke-width:0.5;" width="191" x="161" y="1380.874"/><text fill="#000000" font-family="sans-serif" font-size="12" lengthAdjust="spacing" textLength="171" x="171" y="1402.0127">Write the Research Proposal</text><polygon fill="#F1F1F1" points="203.5,1454.8428,309.5,1454.8428,321.5,1466.8428,309.5,1478.8428,203.5,1478.8428,191.5,1466.8428,203.5,1454.8428" style="stroke:#181818;stroke-width:0.5;"/><text fill="#000000" font-family="sans-serif" font-size="11" lengthAdjust="spacing" textLength="106" x="203.5" y="1470.6509">Proposal Approved</text><text fill="#000000" font-family="sans-serif" font-size="11" lengthAdjust="spacing" textLength="15" x="321.5" y="1464.2485">No</text><rect fill="#F1F1F1" height="33.9688" rx="12.5" ry="12.5" style="stroke:#181818;stroke-width:0.5;" width="92" x="210.5" y="1520.2417"/><text fill="#000000" font-family="sans-serif" font-size="12" lengthAdjust="spacing" textLength="72" x="220.5" y="1541.3804">Collect Data</text><rect fill="#F1F1F1" height="33.9688" rx="12.5" ry="12.5" style="stroke:#181818;stroke-width:0.5;" width="128" x="192.5" y="1574.2104"/><text fill="#000000" font-family="sans-serif" font-size="12" lengthAdjust="spacing" textLength="108" x="202.5" y="1595.3491">Optimize the Data</text><polygon fill="#F1F1F1" points="190,1648.1792,323,1648.1792,335,1660.1792,323,1672.1792,190,1672.1792,178,1660.1792,190,1648.1792" style="stroke:#181818;stroke-width:0.5;"/><text fill="#000000" font-family="sans-serif" font-size="11" lengthAdjust="spacing" textLength="133" x="190" y="1663.9873">Data Meets the Design</text><text fill="#000000" font-family="sans-serif" font-size="11" lengthAdjust="spacing" textLength="15" x="335" y="1657.585">No</text><rect fill="#F1F1F1" height="33.9688" rx="12.5" ry="12.5" style="stroke:#181818;stroke-width:0.5;" width="121" x="196" y="1713.5781"/><text fill="#000000" font-family="sans-serif" font-size="12" lengthAdjust="spacing" textLength="101" x="206" y="1734.7168">Analyze the Data</text><rect fill="#F1F1F1" height="33.9688" rx="12.5" ry="12.5" style="stroke:#181818;stroke-width:0.5;" width="209" x="152" y="1767.5469"/><text fill="#000000" font-family="sans-serif" font-size="12" lengthAdjust="spacing" textLength="189" x="162" y="1788.6855">Interpret the Research Findings</text><rect fill="#F1F1F1" height="33.9688" rx="12.5" ry="12.5" style="stroke:#181818;stroke-width:0.5;" width="150" x="181.5" y="1821.5156"/><text fill="#000000" font-family="sans-serif" font-size="12" lengthAdjust="spacing" textLength="130" x="191.5" y="1842.6543">Write the Final Report</text><rect fill="#F1F1F1" height="33.9688" rx="12.5" ry="12.5" style="stroke:#181818;stroke-width:0.5;" width="183" x="165" y="1875.4844"/><text fill="#000000" font-family="sans-serif" font-size="12" lengthAdjust="spacing" textLength="163" x="175" y="1896.623">Prepare a Presentation Plan</text><rect fill="#F1F1F1" height="33.9688" rx="12.5" ry="12.5" style="stroke:#181818;stroke-width:0.5;" width="135" x="189" y="1929.4531"/><text fill="#000000" font-family="sans-serif" font-size="12" lengthAdjust="spacing" textLength="115" x="199" y="1950.5918">Present the Results</text><rect fill="#555555" height="6" rx="2.5" ry="2.5" style="stroke:#555555;stroke-width:1.0;" width="347" x="83" y="2031.8242"/><rect fill="#F1F1F1" height="33.9688" rx="12.5" ry="12.5" style="stroke:#181818;stroke-width:0.5;" width="148" x="97" y="2057.8242"/><text fill="#000000" font-family="sans-serif" font-size="12" lengthAdjust="spacing" textLength="128" x="107" y="2078.9629">Monitor the Research</text><rect fill="#F1F1F1" height="33.9688" rx="12.5" ry="12.5" style="stroke:#181818;stroke-width:0.5;" width="143" x="273" y="2057.8242"/><text fill="#000000" font-family="sans-serif" font-size="12" lengthAdjust="spacing" textLength="123" x="283" y="2078.9629">Pursue the Research</text><rect fill="#555555" height="6" rx="2.5" ry="2.5" style="stroke:#555555;stroke-width:1.0;" width="347" x="83" y="2111.793"/><ellipse cx="256.5" cy="2147.793" fill="none" rx="10" ry="10" style="stroke:#222222;stroke-width:1.5;"/><line style="stroke:#222222;stroke-width:2.5;" x1="250.3128" x2="262.6872" y1="2141.6058" y2="2153.9802"/><line style="stroke:#222222;stroke-width:2.5;" x1="262.6872" x2="250.3128" y1="2141.6058" y2="2153.9802"/><polygon fill="#F1F1F1" points="189,1983.4219,324,1983.4219,336,1995.4219,324,2007.4219,189,2007.4219,177,1995.4219,189,1983.4219" style="stroke:#181818;stroke-width:0.5;"/><text fill="#000000" font-family="sans-serif" font-size="11" lengthAdjust="spacing" textLength="21" x="260.5" y="2017.6323">Yes</text><text fill="#000000" font-family="sans-serif" font-size="11" lengthAdjust="spacing" textLength="135" x="189" y="1999.23">Further Actions Needed</text><text fill="#000000" font-family="sans-serif" font-size="11" lengthAdjust="spacing" textLength="15" x="336" y="1992.8276">No</text><ellipse cx="373" cy="1995.4219" fill="none" rx="11" ry="11" style="stroke:#222222;stroke-width:1.0;"/><ellipse cx="373" cy="1995.4219" fill="#222222" rx="6" ry="6" style="stroke:#222222;stroke-width:1.0;"/><line style="stroke:#181818;stroke-width:1.0;" x1="139.5" x2="139.5" y1="127.9688" y2="179.6792"/><polygon fill="#181818" points="135.5,169.6792,139.5,179.6792,143.5,169.6792,139.5,173.6792" style="stroke:#181818;stroke-width:1.0;"/><line style="stroke:#181818;stroke-width:1.0;" x1="307" x2="307" y1="127.9688" y2="179.6792"/><polygon fill="#181818" points="303,169.6792,307,179.6792,311,169.6792,307,173.6792" style="stroke:#181818;stroke-width:1.0;"/><line style="stroke:#181818;stroke-width:1.0;" x1="197.5" x2="232.5" y1="115.9688" y2="115.9688"/><polygon fill="#181818" points="222.5,111.9688,232.5,115.9688,222.5,119.9688,226.5,115.9688" style="stroke:#181818;stroke-width:1.0;"/><line style="stroke:#181818;stroke-width:1.0;" x1="256.5" x2="256.5" y1="83.9688" y2="88.9688"/><line style="stroke:#181818;stroke-width:1.0;" x1="256.5" x2="139.5" y1="88.9688" y2="88.9688"/><line style="stroke:#181818;stroke-width:1.0;" x1="139.5" x2="139.5" y1="88.9688" y2="103.9688"/><polygon fill="#181818" points="135.5,93.9688,139.5,103.9688,143.5,93.9688,139.5,97.9688" style="stroke:#181818;stroke-width:1.0;"/><line style="stroke:#181818;stroke-width:1.0;" x1="381.5" x2="416.5" y1="115.9688" y2="115.9688"/><line style="stroke:#181818;stroke-width:1.0;" x1="416.5" x2="416.5" y1="115.9688" y2="179.6792"/><polygon fill="#181818" points="412.5,169.6792,416.5,179.6792,420.5,169.6792,416.5,173.6792" style="stroke:#181818;stroke-width:1.0;"/><line style="stroke:#181818;stroke-width:1.0;" x1="139.5" x2="416.5" y1="179.6792" y2="179.6792"/><line style="stroke:#181818;stroke-width:1.0;" x1="316.5" x2="443.5" y1="211.6792" y2="211.6792"/><polygon fill="#181818" points="439.5,159.6792,443.5,149.6792,447.5,159.6792,443.5,155.6792" style="stroke:#181818;stroke-width:1.0;"/><line style="stroke:#181818;stroke-width:1.0;" x1="443.5" x2="443.5" y1="66.9844" y2="211.6792"/><line style="stroke:#181818;stroke-width:1.0;" x1="443.5" x2="324" y1="66.9844" y2="66.9844"/><polygon fill="#181818" points="334,62.9844,324,66.9844,334,70.9844,330,66.9844" style="stroke:#181818;stroke-width:1.0;"/><line style="stroke:#181818;stroke-width:1.0;" x1="256.5" x2="256.5" y1="179.6792" y2="199.6792"/><polygon fill="#181818" points="252.5,189.6792,256.5,199.6792,260.5,189.6792,256.5,193.6792" style="stroke:#181818;stroke-width:1.0;"/><line style="stroke:#181818;stroke-width:1.0;" x1="256.5" x2="256.5" y1="30" y2="50"/><polygon fill="#181818" points="252.5,40,256.5,50,260.5,40,256.5,44" style="stroke:#181818;stroke-width:1.0;"/><line style="stroke:#181818;stroke-width:1.0;" x1="102.5" x2="102.5" y1="343.0469" y2="394.7573"/><polygon fill="#181818" points="98.5,384.7573,102.5,394.7573,106.5,384.7573,102.5,388.7573" style="stroke:#181818;stroke-width:1.0;"/><line style="stroke:#181818;stroke-width:1.0;" x1="227.5" x2="227.5" y1="343.0469" y2="394.7573"/><polygon fill="#181818" points="223.5,384.7573,227.5,394.7573,231.5,384.7573,227.5,388.7573" style="stroke:#181818;stroke-width:1.0;"/><line style="stroke:#181818;stroke-width:1.0;" x1="356.5" x2="356.5" y1="343.0469" y2="394.7573"/><polygon fill="#181818" points="352.5,384.7573,356.5,394.7573,360.5,384.7573,356.5,388.7573" style="stroke:#181818;stroke-width:1.0;"/><line style="stroke:#181818;stroke-width:1.0;" x1="145.5" x2="180.5" y1="331.0469" y2="331.0469"/><polygon fill="#181818" points="170.5,327.0469,180.5,331.0469,170.5,335.0469,174.5,331.0469" style="stroke:#181818;stroke-width:1.0;"/><line style="stroke:#181818;stroke-width:1.0;" x1="274.5" x2="309.5" y1="331.0469" y2="331.0469"/><polygon fill="#181818" points="299.5,327.0469,309.5,331.0469,299.5,335.0469,303.5,331.0469" style="stroke:#181818;stroke-width:1.0;"/><line style="stroke:#181818;stroke-width:1.0;" x1="256.5" x2="256.5" y1="299.0469" y2="304.0469"/><line style="stroke:#181818;stroke-width:1.0;" x1="256.5" x2="102.5" y1="304.0469" y2="304.0469"/><line style="stroke:#181818;stroke-width:1.0;" x1="102.5" x2="102.5" y1="304.0469" y2="319.0469"/><polygon fill="#181818" points="98.5,309.0469,102.5,319.0469,106.5,309.0469,102.5,313.0469" style="stroke:#181818;stroke-width:1.0;"/><line style="stroke:#181818;stroke-width:1.0;" x1="403.5" x2="438.5" y1="331.0469" y2="331.0469"/><line style="stroke:#181818;stroke-width:1.0;" x1="438.5" x2="438.5" y1="331.0469" y2="394.7573"/><polygon fill="#181818" points="434.5,384.7573,438.5,394.7573,442.5,384.7573,438.5,388.7573" style="stroke:#181818;stroke-width:1.0;"/><line style="stroke:#181818;stroke-width:1.0;" x1="102.5" x2="438.5" y1="394.7573" y2="394.7573"/><line style="stroke:#181818;stroke-width:1.0;" x1="314" x2="465.5" y1="426.7573" y2="426.7573"/><polygon fill="#181818" points="461.5,374.7573,465.5,364.7573,469.5,374.7573,465.5,370.7573" style="stroke:#181818;stroke-width:1.0;"/><line style="stroke:#181818;stroke-width:1.0;" x1="465.5" x2="465.5" y1="282.0625" y2="426.7573"/><line style="stroke:#181818;stroke-width:1.0;" x1="465.5" x2="320" y1="282.0625" y2="282.0625"/><polygon fill="#181818" points="330,278.0625,320,282.0625,330,286.0625,326,282.0625" style="stroke:#181818;stroke-width:1.0;"/><line style="stroke:#181818;stroke-width:1.0;" x1="256.5" x2="256.5" y1="394.7573" y2="414.7573"/><polygon fill="#181818" points="252.5,404.7573,256.5,414.7573,260.5,404.7573,256.5,408.7573" style="stroke:#181818;stroke-width:1.0;"/><line style="stroke:#181818;stroke-width:1.0;" x1="256.5" x2="256.5" y1="223.6792" y2="265.0781"/><polygon fill="#181818" points="252.5,255.0781,256.5,265.0781,260.5,255.0781,256.5,259.0781" style="stroke:#181818;stroke-width:1.0;"/><text fill="#000000" font-family="sans-serif" font-size="11" lengthAdjust="spacing" textLength="21" x="260.5" y="244.9839">Yes</text><line style="stroke:#181818;stroke-width:1.0;" x1="256.5" x2="256.5" y1="438.7573" y2="480.1563"/><polygon fill="#181818" points="252.5,470.1563,256.5,480.1563,260.5,470.1563,256.5,474.1563" style="stroke:#181818;stroke-width:1.0;"/><text fill="#000000" font-family="sans-serif" font-size="11" lengthAdjust="spacing" textLength="21" x="260.5" y="460.062">Yes</text><line style="stroke:#181818;stroke-width:1.0;" x1="256.5" x2="256.5" y1="514.125" y2="534.125"/><polygon fill="#181818" points="252.5,524.125,256.5,534.125,260.5,524.125,256.5,528.125" style="stroke:#181818;stroke-width:1.0;"/><line style="stroke:#181818;stroke-width:1.0;" x1="256.5" x2="256.5" y1="677.7729" y2="697.7729"/><polygon fill="#181818" points="252.5,687.7729,256.5,697.7729,260.5,687.7729,256.5,691.7729" style="stroke:#181818;stroke-width:1.0;"/><line style="stroke:#181818;stroke-width:1.0;" x1="256.5" x2="256.5" y1="775.7417" y2="797.4521"/><line style="stroke:#181818;stroke-width:1.0;" x1="256.5" x2="405" y1="797.4521" y2="797.4521"/><polygon fill="#181818" points="401,725.7729,405,715.7729,409,725.7729,405,721.7729" style="stroke:#181818;stroke-width:1.0;"/><line style="stroke:#181818;stroke-width:1.0;" x1="405" x2="405" y1="600.0938" y2="797.4521"/><line style="stroke:#181818;stroke-width:1.0;" x1="405" x2="315.5" y1="600.0938" y2="600.0938"/><polygon fill="#181818" points="325.5,596.0938,315.5,600.0938,325.5,604.0938,321.5,600.0938" style="stroke:#181818;stroke-width:1.0;"/><line style="stroke:#181818;stroke-width:1.0;" x1="327" x2="359" y1="763.7417" y2="763.7417"/><polygon fill="#181818" points="349,759.7417,359,763.7417,349,767.7417,353,763.7417" style="stroke:#181818;stroke-width:1.0;"/><line style="stroke:#181818;stroke-width:1.0;" x1="256.5" x2="256.5" y1="731.7417" y2="751.7417"/><polygon fill="#181818" points="252.5,741.7417,256.5,751.7417,260.5,741.7417,256.5,745.7417" style="stroke:#181818;stroke-width:1.0;"/><line style="stroke:#181818;stroke-width:1.0;" x1="256.5" x2="256.5" y1="612.0938" y2="643.8042"/><polygon fill="#181818" points="252.5,633.8042,256.5,643.8042,260.5,633.8042,256.5,637.8042" style="stroke:#181818;stroke-width:1.0;"/><line style="stroke:#181818;stroke-width:1.0;" x1="197.5" x2="171" y1="600.0938" y2="600.0938"/><polygon fill="#181818" points="167,711.7729,171,721.7729,175,711.7729,171,715.7729" style="stroke:#181818;stroke-width:1.0;"/><line style="stroke:#181818;stroke-width:1.0;" x1="171" x2="171" y1="600.0938" y2="809.4521"/><line style="stroke:#181818;stroke-width:1.0;" x1="171" x2="256.5" y1="809.4521" y2="809.4521"/><line style="stroke:#181818;stroke-width:1.0;" x1="256.5" x2="256.5" y1="809.4521" y2="829.4521"/><polygon fill="#181818" points="252.5,819.4521,256.5,829.4521,260.5,819.4521,256.5,823.4521" style="stroke:#181818;stroke-width:1.0;"/><line style="stroke:#181818;stroke-width:1.0;" x1="256.5" x2="256.5" y1="568.0938" y2="588.0938"/><polygon fill="#181818" points="252.5,578.0938,256.5,588.0938,260.5,578.0938,256.5,582.0938" style="stroke:#181818;stroke-width:1.0;"/><line style="stroke:#181818;stroke-width:1.0;" x1="256.5" x2="256.5" y1="863.4209" y2="883.4209"/><polygon fill="#181818" points="252.5,873.4209,256.5,883.4209,260.5,873.4209,256.5,877.4209" style="stroke:#181818;stroke-width:1.0;"/><line style="stroke:#181818;stroke-width:1.0;" x1="283" x2="283" y1="997.3584" y2="1081.3271"/><polygon fill="#181818" points="279,1071.3271,283,1081.3271,287,1071.3271,283,1075.3271" style="stroke:#181818;stroke-width:1.0;"/><line style="stroke:#181818;stroke-width:1.0;" x1="347.5" x2="432" y1="1093.3271" y2="1093.3271"/><line style="stroke:#181818;stroke-width:1.0;" x1="432" x2="432" y1="1051.3271" y2="1093.3271"/><polygon fill="#181818" points="428,1061.3271,432,1051.3271,436,1061.3271,432,1057.3271" style="stroke:#181818;stroke-width:1.0;"/><line style="stroke:#181818;stroke-width:1.0;" x1="432" x2="432" y1="980.374" y2="1017.3584"/><line style="stroke:#181818;stroke-width:1.0;" x1="432" x2="350" y1="980.374" y2="980.374"/><polygon fill="#181818" points="360,976.374,350,980.374,360,984.374,356,980.374" style="stroke:#181818;stroke-width:1.0;"/><line style="stroke:#181818;stroke-width:1.0;" x1="105.5" x2="105.5" y1="943.3896" y2="1017.3584"/><polygon fill="#181818" points="101.5,1007.3584,105.5,1017.3584,109.5,1007.3584,105.5,1011.3584" style="stroke:#181818;stroke-width:1.0;"/><line style="stroke:#181818;stroke-width:1.0;" x1="283" x2="283" y1="943.3896" y2="963.3896"/><polygon fill="#181818" points="279,953.3896,283,963.3896,287,953.3896,283,957.3896" style="stroke:#181818;stroke-width:1.0;"/><line style="stroke:#181818;stroke-width:1.0;" x1="105.5" x2="105.5" y1="1051.3271" y2="1138.1318"/><polygon fill="#181818" points="101.5,1128.1318,105.5,1138.1318,109.5,1128.1318,105.5,1132.1318" style="stroke:#181818;stroke-width:1.0;"/><line style="stroke:#181818;stroke-width:1.0;" x1="283" x2="283" y1="1105.3271" y2="1138.1318"/><polygon fill="#181818" points="279,1128.1318,283,1138.1318,287,1128.1318,283,1132.1318" style="stroke:#181818;stroke-width:1.0;"/><text fill="#000000" font-family="sans-serif" font-size="11" lengthAdjust="spacing" textLength="21" x="287" y="1125.5376">Yes</text><line style="stroke:#181818;stroke-width:1.0;" x1="256.5" x2="256.5" y1="917.3896" y2="937.3896"/><polygon fill="#181818" points="252.5,927.3896,256.5,937.3896,260.5,927.3896,256.5,931.3896" style="stroke:#181818;stroke-width:1.0;"/><line style="stroke:#181818;stroke-width:1.0;" x1="316.5" x2="316.5" y1="1224.1006" y2="1298.0693"/><polygon fill="#181818" points="312.5,1288.0693,316.5,1298.0693,320.5,1288.0693,316.5,1292.0693" style="stroke:#181818;stroke-width:1.0;"/><line style="stroke:#181818;stroke-width:1.0;" x1="380.5" x2="392.5" y1="1310.0693" y2="1310.0693"/><polygon fill="#181818" points="388.5,1273.5771,392.5,1263.5771,396.5,1273.5771,392.5,1269.5771" style="stroke:#181818;stroke-width:1.0;"/><line style="stroke:#181818;stroke-width:1.0;" x1="392.5" x2="392.5" y1="1207.1162" y2="1310.0693"/><line style="stroke:#181818;stroke-width:1.0;" x1="392.5" x2="378" y1="1207.1162" y2="1207.1162"/><polygon fill="#181818" points="388,1203.1162,378,1207.1162,388,1211.1162,384,1207.1162" style="stroke:#181818;stroke-width:1.0;"/><line style="stroke:#181818;stroke-width:1.0;" x1="166.5" x2="166.5" y1="1170.1318" y2="1244.1006"/><polygon fill="#181818" points="162.5,1234.1006,166.5,1244.1006,170.5,1234.1006,166.5,1238.1006" style="stroke:#181818;stroke-width:1.0;"/><line style="stroke:#181818;stroke-width:1.0;" x1="316.5" x2="316.5" y1="1170.1318" y2="1190.1318"/><polygon fill="#181818" points="312.5,1180.1318,316.5,1190.1318,320.5,1180.1318,316.5,1184.1318" style="stroke:#181818;stroke-width:1.0;"/><line style="stroke:#181818;stroke-width:1.0;" x1="166.5" x2="166.5" y1="1278.0693" y2="1354.874"/><polygon fill="#181818" points="162.5,1344.874,166.5,1354.874,170.5,1344.874,166.5,1348.874" style="stroke:#181818;stroke-width:1.0;"/><line style="stroke:#181818;stroke-width:1.0;" x1="316.5" x2="316.5" y1="1322.0693" y2="1354.874"/><polygon fill="#181818" points="312.5,1344.874,316.5,1354.874,320.5,1344.874,316.5,1348.874" style="stroke:#181818;stroke-width:1.0;"/><text fill="#000000" font-family="sans-serif" font-size="11" lengthAdjust="spacing" textLength="21" x="320.5" y="1342.2798">Yes</text><line style="stroke:#181818;stroke-width:1.0;" x1="256.5" x2="256.5" y1="1144.1318" y2="1164.1318"/><polygon fill="#181818" points="252.5,1154.1318,256.5,1164.1318,260.5,1154.1318,256.5,1158.1318" style="stroke:#181818;stroke-width:1.0;"/><line style="stroke:#181818;stroke-width:1.0;" x1="256.5" x2="256.5" y1="1414.8428" y2="1454.8428"/><polygon fill="#181818" points="252.5,1444.8428,256.5,1454.8428,260.5,1444.8428,256.5,1448.8428" style="stroke:#181818;stroke-width:1.0;"/><line style="stroke:#181818;stroke-width:1.0;" x1="321.5" x2="364" y1="1466.8428" y2="1466.8428"/><polygon fill="#181818" points="360,1434.8428,364,1424.8428,368,1434.8428,364,1430.8428" style="stroke:#181818;stroke-width:1.0;"/><line style="stroke:#181818;stroke-width:1.0;" x1="364" x2="364" y1="1397.8584" y2="1466.8428"/><line style="stroke:#181818;stroke-width:1.0;" x1="364" x2="352" y1="1397.8584" y2="1397.8584"/><polygon fill="#181818" points="362,1393.8584,352,1397.8584,362,1401.8584,358,1397.8584" style="stroke:#181818;stroke-width:1.0;"/><line style="stroke:#181818;stroke-width:1.0;" x1="256.5" x2="256.5" y1="1360.874" y2="1380.874"/><polygon fill="#181818" points="252.5,1370.874,256.5,1380.874,260.5,1370.874,256.5,1374.874" style="stroke:#181818;stroke-width:1.0;"/><line style="stroke:#181818;stroke-width:1.0;" x1="256.5" x2="256.5" y1="1478.8428" y2="1520.2417"/><polygon fill="#181818" points="252.5,1510.2417,256.5,1520.2417,260.5,1510.2417,256.5,1514.2417" style="stroke:#181818;stroke-width:1.0;"/><text fill="#000000" font-family="sans-serif" font-size="11" lengthAdjust="spacing" textLength="21" x="260.5" y="1500.1475">Yes</text><line style="stroke:#181818;stroke-width:1.0;" x1="256.5" x2="256.5" y1="1608.1792" y2="1648.1792"/><polygon fill="#181818" points="252.5,1638.1792,256.5,1648.1792,260.5,1638.1792,256.5,1642.1792" style="stroke:#181818;stroke-width:1.0;"/><line style="stroke:#181818;stroke-width:1.0;" x1="335" x2="347" y1="1660.1792" y2="1660.1792"/><polygon fill="#181818" points="343,1628.1792,347,1618.1792,351,1628.1792,347,1624.1792" style="stroke:#181818;stroke-width:1.0;"/><line style="stroke:#181818;stroke-width:1.0;" x1="347" x2="347" y1="1591.1948" y2="1660.1792"/><line style="stroke:#181818;stroke-width:1.0;" x1="347" x2="320.5" y1="1591.1948" y2="1591.1948"/><polygon fill="#181818" points="330.5,1587.1948,320.5,1591.1948,330.5,1595.1948,326.5,1591.1948" style="stroke:#181818;stroke-width:1.0;"/><line style="stroke:#181818;stroke-width:1.0;" x1="256.5" x2="256.5" y1="1554.2104" y2="1574.2104"/><polygon fill="#181818" points="252.5,1564.2104,256.5,1574.2104,260.5,1564.2104,256.5,1568.2104" style="stroke:#181818;stroke-width:1.0;"/><line style="stroke:#181818;stroke-width:1.0;" x1="256.5" x2="256.5" y1="1672.1792" y2="1713.5781"/><polygon fill="#181818" points="252.5,1703.5781,256.5,1713.5781,260.5,1703.5781,256.5,1707.5781" style="stroke:#181818;stroke-width:1.0;"/><text fill="#000000" font-family="sans-serif" font-size="11" lengthAdjust="spacing" textLength="21" x="260.5" y="1693.4839">Yes</text><line style="stroke:#181818;stroke-width:1.0;" x1="256.5" x2="256.5" y1="1747.5469" y2="1767.5469"/><polygon fill="#181818" points="252.5,1757.5469,256.5,1767.5469,260.5,1757.5469,256.5,1761.5469" style="stroke:#181818;stroke-width:1.0;"/><line style="stroke:#181818;stroke-width:1.0;" x1="256.5" x2="256.5" y1="1801.5156" y2="1821.5156"/><polygon fill="#181818" points="252.5,1811.5156,256.5,1821.5156,260.5,1811.5156,256.5,1815.5156" style="stroke:#181818;stroke-width:1.0;"/><line style="stroke:#181818;stroke-width:1.0;" x1="256.5" x2="256.5" y1="1855.4844" y2="1875.4844"/><polygon fill="#181818" points="252.5,1865.4844,256.5,1875.4844,260.5,1865.4844,256.5,1869.4844" style="stroke:#181818;stroke-width:1.0;"/><line style="stroke:#181818;stroke-width:1.0;" x1="256.5" x2="256.5" y1="1909.4531" y2="1929.4531"/><polygon fill="#181818" points="252.5,1919.4531,256.5,1929.4531,260.5,1919.4531,256.5,1923.4531" style="stroke:#181818;stroke-width:1.0;"/><line style="stroke:#181818;stroke-width:1.0;" x1="171" x2="171" y1="2037.8242" y2="2057.8242"/><polygon fill="#181818" points="167,2047.8242,171,2057.8242,175,2047.8242,171,2051.8242" style="stroke:#181818;stroke-width:1.0;"/><line style="stroke:#181818;stroke-width:1.0;" x1="344.5" x2="344.5" y1="2037.8242" y2="2057.8242"/><polygon fill="#181818" points="340.5,2047.8242,344.5,2057.8242,348.5,2047.8242,344.5,2051.8242" style="stroke:#181818;stroke-width:1.0;"/><line style="stroke:#181818;stroke-width:1.0;" x1="171" x2="171" y1="2091.793" y2="2111.793"/><polygon fill="#181818" points="167,2101.793,171,2111.793,175,2101.793,171,2105.793" style="stroke:#181818;stroke-width:1.0;"/><line style="stroke:#181818;stroke-width:1.0;" x1="344.5" x2="344.5" y1="2091.793" y2="2111.793"/><polygon fill="#181818" points="340.5,2101.793,344.5,2111.793,348.5,2101.793,344.5,2105.793" style="stroke:#181818;stroke-width:1.0;"/><line style="stroke:#181818;stroke-width:1.0;" x1="256.5" x2="256.5" y1="2117.793" y2="2137.793"/><polygon fill="#181818" points="252.5,2127.793,256.5,2137.793,260.5,2127.793,256.5,2131.793" style="stroke:#181818;stroke-width:1.0;"/><line style="stroke:#181818;stroke-width:1.0;" x1="256.5" x2="256.5" y1="2007.4219" y2="2031.8242"/><polygon fill="#181818" points="252.5,2021.8242,256.5,2031.8242,260.5,2021.8242,256.5,2025.8242" style="stroke:#181818;stroke-width:1.0;"/><line style="stroke:#181818;stroke-width:1.0;" x1="336" x2="362" y1="1995.4219" y2="1995.4219"/><polygon fill="#181818" points="352,1991.4219,362,1995.4219,352,1999.4219,356,1995.4219" style="stroke:#181818;stroke-width:1.0;"/><line style="stroke:#181818;stroke-width:1.0;" x1="256.5" x2="256.5" y1="1963.4219" y2="1983.4219"/><polygon fill="#181818" points="252.5,1973.4219,256.5,1983.4219,260.5,1973.4219,256.5,1977.4219" style="stroke:#181818;stroke-width:1.0;"/><!--SRC=[dLJRZjem47tdA_ouFFG7WbG9BOkAjEnIg5JrqIGJcAvZH_O4cdvznvTSM62rQXuG6PyPdvap9uwafOc56YI9R04bQX1q1B5fR6qSp2Q27op5myQQlO9Ax8mweJvCFKgBXr_WfW7py6Ac0fI329OvOGvYLTNMdA02JLSP7XpIufikiEoOd8-e-2oH48zAMYmHYgb05rE-VEKwivxv3XJa59WlmE513yI_Dr8XIS8JV4oQWPe-XLmtYh02EfhYFxgA13zeAbiLF2yisz3FZfgY5Jia5eCLShd5VT8eIZARfC9FVz0HQ-CrQWYDZfLxQjaMJWZdaFlCzQoanYQ9iwUJL8qaley7u4gldnbDiOyQsuxglslUFuvCVNSI_9l8-dYsDBPgbBzr2mwapO_YTV-RbMG9_21kd7zhQyEtEdzU6liMsQVDNO9qk4VMknK_m5O98-H1eWx8Rc7wTaSfiTkzpD_EqXRPQyqYur_eAetIKmynLmti1YazECd9FGUYLsoVpS4BbjzdkL5IHxa6w3qQiUkvujqQxzGD8btrdvQN89JlfyihnOwJQlRUYIakvdKmz8sbVJGgU70XIGx6x8SOh3a-wjp0CR4683ToxtNrkPQglIYJhJIlS6s1BbjO8c-QFlYaeK4EClajrCOI7soOWxGW93VCUTgRtcZXnnrFVQmhosRdOju4oyPop8fvC8SJBm05N7y2Ug63s6kZaLrpGNBMuqQY1pH_ybm3Dy2TUEd_vD9TmNJ1Oly0]--></g></svg>