<?xml version="1.0" encoding="us-ascii" standalone="no"?><svg xmlns="http://www.w3.org/2000/svg" xmlns:xlink="http://www.w3.org/1999/xlink" contentStyleType="text/css" height="2141px" preserveAspectRatio="none" style="width:1029px;height:2141px;background:#FFFFFF;" version="1.1" viewBox="0 0 1029 2141" width="1029px" zoomAndPan="magnify"><defs/><g><rect fill="none" height="20.9531" style="stroke:none;stroke-width:1.0;" width="996.5" x="15" y="12.7451"/><ellipse cx="117.5" cy="48.6982" fill="#222222" rx="10" ry="10" style="stroke:#222222;stroke-width:1.0;"/><path d="M193.5,75.5498 L193.5,91.6826 L173.5,95.6826 L193.5,99.6826 L193.5,115.8154 A0,0 0 0 0 193.5,115.8154 L372.5,115.8154 A0,0 0 0 0 372.5,115.8154 L372.5,85.5498 L362.5,75.5498 L193.5,75.5498 A0,0 0 0 0 193.5,75.5498 " fill="#FEFFDD" style="stroke:#181818;stroke-width:0.5;"/><path d="M362.5,75.5498 L362.5,85.5498 L372.5,85.5498 L362.5,75.5498 " fill="#FEFFDD" style="stroke:#181818;stroke-width:0.5;"/><ellipse cx="205" cy="88.1826" fill="#000000" rx="2.5" ry="2.5" style="stroke:#000000;stroke-width:0.0;"/><text fill="#000000" font-family="sans-serif" font-size="13" lengthAdjust="spacing" textLength="108" x="211.5" y="92.6167">Problem Solving;</text><ellipse cx="205" cy="103.3154" fill="#000000" rx="2.5" ry="2.5" style="stroke:#000000;stroke-width:0.0;"/><text fill="#000000" font-family="sans-serif" font-size="13" lengthAdjust="spacing" textLength="146" x="211.5" y="107.7495">Practice Improvement.</text><rect fill="#F1F1F1" height="33.9688" rx="12.5" ry="12.5" style="stroke:#181818;stroke-width:0.5;" width="112" x="61.5" y="78.6982"/><text fill="#000000" font-family="sans-serif" font-size="12" lengthAdjust="spacing" textLength="92" x="71.5" y="99.8369">Define Purpose</text><path d="M195,125.8154 L195,149.5146 L175,153.5146 L195,157.5146 L195,181.2139 A0,0 0 0 0 195,181.2139 L312,181.2139 A0,0 0 0 0 312,181.2139 L312,135.8154 L302,125.8154 L195,125.8154 A0,0 0 0 0 195,125.8154 " fill="#FEFFDD" style="stroke:#181818;stroke-width:0.5;"/><path d="M302,125.8154 L302,135.8154 L312,135.8154 L302,125.8154 " fill="#FEFFDD" style="stroke:#181818;stroke-width:0.5;"/><ellipse cx="206.5" cy="138.4482" fill="#000000" rx="2.5" ry="2.5" style="stroke:#000000;stroke-width:0.0;"/><text fill="#000000" font-family="sans-serif" font-size="13" lengthAdjust="spacing" textLength="74" x="213" y="142.8823">Qualitative;</text><ellipse cx="206.5" cy="153.5811" fill="#000000" rx="2.5" ry="2.5" style="stroke:#000000;stroke-width:0.0;"/><text fill="#000000" font-family="sans-serif" font-size="13" lengthAdjust="spacing" textLength="84" x="213" y="158.0151">Quantitative;</text><ellipse cx="206.5" cy="168.7139" fill="#000000" rx="2.5" ry="2.5" style="stroke:#000000;stroke-width:0.0;"/><text fill="#000000" font-family="sans-serif" font-size="13" lengthAdjust="spacing" textLength="83" x="213" y="173.1479">Multimethod.</text><rect fill="#F1F1F1" height="33.9688" rx="12.5" ry="12.5" style="stroke:#181818;stroke-width:0.5;" width="115" x="60" y="136.5303"/><text fill="#000000" font-family="sans-serif" font-size="12" lengthAdjust="spacing" textLength="95" x="70" y="157.6689">Select a Design</text><rect fill="#F1F1F1" height="33.9688" rx="12.5" ry="12.5" style="stroke:#181818;stroke-width:0.5;" width="129" x="53" y="201.2139"/><text fill="#000000" font-family="sans-serif" font-size="12" lengthAdjust="spacing" textLength="109" x="63" y="222.3525">Identify Study Site</text><rect fill="#F1F1F1" height="33.9688" rx="12.5" ry="12.5" style="stroke:#181818;stroke-width:0.5;" width="124" x="55.5" y="364.8618"/><text fill="#000000" font-family="sans-serif" font-size="12" lengthAdjust="spacing" textLength="104" x="65.5" y="386.0005">Review Literature</text><rect fill="#F1F1F1" height="33.9688" rx="12.5" ry="12.5" style="stroke:#181818;stroke-width:0.5;" width="143" x="46" y="418.8306"/><text fill="#000000" font-family="sans-serif" font-size="12" lengthAdjust="spacing" textLength="123" x="56" y="439.9692">Evaluate Satisfaction</text><polygon fill="#F1F1F1" points="59,472.7993,176,472.7993,188,484.7993,176,496.7993,59,496.7993,47,484.7993,59,472.7993" style="stroke:#181818;stroke-width:0.5;"/><text fill="#000000" font-family="sans-serif" font-size="11" lengthAdjust="spacing" textLength="15" x="121.5" y="507.0098">No</text><text fill="#000000" font-family="sans-serif" font-size="11" lengthAdjust="spacing" textLength="117" x="59" y="488.6074">Satisfactory Solution</text><text fill="#000000" font-family="sans-serif" font-size="11" lengthAdjust="spacing" textLength="21" x="188" y="482.2051">Yes</text><ellipse cx="231" cy="484.7993" fill="none" rx="11" ry="11" style="stroke:#222222;stroke-width:1.0;"/><ellipse cx="231" cy="484.7993" fill="#222222" rx="6" ry="6" style="stroke:#222222;stroke-width:1.0;"/><polygon fill="#F1F1F1" points="70.5,309.1514,164.5,309.1514,176.5,321.1514,164.5,333.1514,70.5,333.1514,58.5,321.1514,70.5,309.1514" style="stroke:#181818;stroke-width:0.5;"/><text fill="#000000" font-family="sans-serif" font-size="11" lengthAdjust="spacing" textLength="21" x="121.5" y="343.3618">Yes</text><text fill="#000000" font-family="sans-serif" font-size="11" lengthAdjust="spacing" textLength="94" x="70.5" y="324.9595">Existing Solution</text><text fill="#000000" font-family="sans-serif" font-size="11" lengthAdjust="spacing" textLength="15" x="43.5" y="318.5571">No</text><rect fill="#F1F1F1" height="33.9688" rx="12.5" ry="12.5" style="stroke:#181818;stroke-width:0.5;" width="165" x="35" y="658.4473"/><text fill="#000000" font-family="sans-serif" font-size="12" lengthAdjust="spacing" textLength="145" x="45" y="679.5859">Define Feasibility Terms</text><rect fill="#F1F1F1" height="33.9688" rx="12.5" ry="12.5" style="stroke:#181818;stroke-width:0.5;" width="134" x="50.5" y="712.416"/><text fill="#000000" font-family="sans-serif" font-size="12" lengthAdjust="spacing" textLength="114" x="60.5" y="733.5547">Evaluate Feasibility</text><polygon fill="#F1F1F1" points="65,820.3535,170,820.3535,182,832.3535,170,844.3535,65,844.3535,53,832.3535,65,820.3535" style="stroke:#181818;stroke-width:0.5;"/><text fill="#000000" font-family="sans-serif" font-size="11" lengthAdjust="spacing" textLength="105" x="65" y="836.1616">Feasible Research</text><text fill="#000000" font-family="sans-serif" font-size="11" lengthAdjust="spacing" textLength="15" x="182" y="829.7593">No</text><rect fill="#F1F1F1" height="33.9688" rx="12.5" ry="12.5" style="stroke:#181818;stroke-width:0.5;" width="116" x="208.5" y="756.3848"/><text fill="#000000" font-family="sans-serif" font-size="12" lengthAdjust="spacing" textLength="96" x="218.5" y="777.5234">Optimize Terms</text><line style="stroke:#000000;stroke-width:1.5;" x1="15" x2="15" y1="12.7451" y2="2129.9043"/><rect fill="#DCDCDC" height="2117.1592" style="stroke:#DCDCDC;stroke-width:1.0;" width="322" x="377.5" y="12.7451"/><rect fill="#F1F1F1" height="33.9688" rx="12.5" ry="12.5" style="stroke:#181818;stroke-width:0.5;" width="128" x="479.5" y="255.1826"/><text fill="#000000" font-family="sans-serif" font-size="12" lengthAdjust="spacing" textLength="108" x="489.5" y="276.3213">Describe Problem</text><rect fill="#F1F1F1" height="33.9688" rx="12.5" ry="12.5" style="stroke:#181818;stroke-width:0.5;" width="209" x="439" y="550.5098"/><text fill="#000000" font-family="sans-serif" font-size="12" lengthAdjust="spacing" textLength="189" x="449" y="571.6484">Formulate Research Objectives</text><rect fill="#F1F1F1" height="33.9688" rx="12.5" ry="12.5" style="stroke:#181818;stroke-width:0.5;" width="217" x="435" y="604.4785"/><text fill="#000000" font-family="sans-serif" font-size="12" lengthAdjust="spacing" textLength="197" x="445" y="625.6172">Formulate Research Hypotheses</text><rect fill="#555555" height="6" rx="2.5" ry="2.5" style="stroke:#555555;stroke-width:1.0;" width="312" x="383.5" y="881.6128"/><rect fill="#F1F1F1" height="33.9688" rx="12.5" ry="12.5" style="stroke:#181818;stroke-width:0.5;" width="116" x="395.5" y="961.5815"/><text fill="#000000" font-family="sans-serif" font-size="12" lengthAdjust="spacing" textLength="96" x="405.5" y="982.7202">Define Logistics</text><rect fill="#F1F1F1" height="33.9688" rx="12.5" ry="12.5" style="stroke:#181818;stroke-width:0.5;" width="100" x="553.5" y="907.6128"/><text fill="#000000" font-family="sans-serif" font-size="12" lengthAdjust="spacing" textLength="80" x="563.5" y="928.7515">Plan Logistics</text><polygon fill="#F1F1F1" points="551.5,1015.5503,655.5,1015.5503,667.5,1027.5503,655.5,1039.5503,551.5,1039.5503,539.5,1027.5503,551.5,1015.5503" style="stroke:#181818;stroke-width:0.5;"/><text fill="#000000" font-family="sans-serif" font-size="11" lengthAdjust="spacing" textLength="104" x="551.5" y="1031.3584">Feasibility Aligned</text><text fill="#000000" font-family="sans-serif" font-size="11" lengthAdjust="spacing" textLength="15" x="667.5" y="1024.9561">No</text><rect fill="#555555" height="6" rx="2.5" ry="2.5" style="stroke:#555555;stroke-width:1.0;" width="312" x="383.5" y="1072.355"/><rect fill="#F1F1F1" height="33.9688" rx="12.5" ry="12.5" style="stroke:#181818;stroke-width:0.5;" width="168" x="459.5" y="1098.355"/><text fill="#000000" font-family="sans-serif" font-size="12" lengthAdjust="spacing" textLength="148" x="469.5" y="1119.4937">Write Research Proposal</text><polygon fill="#F1F1F1" points="490.5,1172.3237,596.5,1172.3237,608.5,1184.3237,596.5,1196.3237,490.5,1196.3237,478.5,1184.3237,490.5,1172.3237" style="stroke:#181818;stroke-width:0.5;"/><text fill="#000000" font-family="sans-serif" font-size="11" lengthAdjust="spacing" textLength="106" x="490.5" y="1188.1318">Proposal Approved</text><text fill="#000000" font-family="sans-serif" font-size="11" lengthAdjust="spacing" textLength="15" x="608.5" y="1181.7295">No</text><rect fill="#F1F1F1" height="33.9688" rx="12.5" ry="12.5" style="stroke:#181818;stroke-width:0.5;" width="92" x="497.5" y="1237.7227"/><text fill="#000000" font-family="sans-serif" font-size="12" lengthAdjust="spacing" textLength="72" x="507.5" y="1258.8613">Collect Data</text><rect fill="#F1F1F1" height="33.9688" rx="12.5" ry="12.5" style="stroke:#181818;stroke-width:0.5;" width="105" x="491" y="1291.6914"/><text fill="#000000" font-family="sans-serif" font-size="12" lengthAdjust="spacing" textLength="85" x="501" y="1312.8301">Optimize Data</text><polygon fill="#F1F1F1" points="477,1365.6602,610,1365.6602,622,1377.6602,610,1389.6602,477,1389.6602,465,1377.6602,477,1365.6602" style="stroke:#181818;stroke-width:0.5;"/><text fill="#000000" font-family="sans-serif" font-size="11" lengthAdjust="spacing" textLength="133" x="477" y="1381.4683">Data Meets the Design</text><text fill="#000000" font-family="sans-serif" font-size="11" lengthAdjust="spacing" textLength="15" x="622" y="1375.0659">No</text><rect fill="#F1F1F1" height="33.9688" rx="12.5" ry="12.5" style="stroke:#181818;stroke-width:0.5;" width="98" x="494.5" y="1431.0591"/><text fill="#000000" font-family="sans-serif" font-size="12" lengthAdjust="spacing" textLength="78" x="504.5" y="1452.1978">Analyze Data</text><rect fill="#F1F1F1" height="33.9688" rx="12.5" ry="12.5" style="stroke:#181818;stroke-width:0.5;" width="186" x="450.5" y="1485.0278"/><text fill="#000000" font-family="sans-serif" font-size="12" lengthAdjust="spacing" textLength="166" x="460.5" y="1506.1665">Interpret Research Findings</text><rect fill="#F1F1F1" height="33.9688" rx="12.5" ry="12.5" style="stroke:#181818;stroke-width:0.5;" width="127" x="480" y="1538.9966"/><text fill="#000000" font-family="sans-serif" font-size="12" lengthAdjust="spacing" textLength="107" x="490" y="1560.1353">Write Final Report</text><rect fill="#F1F1F1" height="33.9688" rx="12.5" ry="12.5" style="stroke:#181818;stroke-width:0.5;" width="131" x="478" y="1592.9653"/><text fill="#000000" font-family="sans-serif" font-size="12" lengthAdjust="spacing" textLength="111" x="488" y="1614.104">Edit and Proofread</text><polygon fill="#F1F1F1" points="500,1666.9341,587,1666.9341,599,1678.9341,587,1690.9341,500,1690.9341,488,1678.9341,500,1666.9341" style="stroke:#181818;stroke-width:0.5;"/><text fill="#000000" font-family="sans-serif" font-size="11" lengthAdjust="spacing" textLength="87" x="500" y="1682.7422">Mistakes Found</text><text fill="#000000" font-family="sans-serif" font-size="11" lengthAdjust="spacing" textLength="21" x="599" y="1676.3398">Yes</text><line style="stroke:#000000;stroke-width:1.5;" x1="377.5" x2="377.5" y1="12.7451" y2="2129.9043"/><rect fill="#F1F1F1" height="33.9688" rx="12.5" ry="12.5" style="stroke:#181818;stroke-width:0.5;" width="172" x="769.5" y="1776.5957"/><text fill="#000000" font-family="sans-serif" font-size="12" lengthAdjust="spacing" textLength="152" x="779.5" y="1797.7344">Prepare Presentation Plan</text><rect fill="#F1F1F1" height="33.9688" rx="12.5" ry="12.5" style="stroke:#181818;stroke-width:0.5;" width="112" x="799.5" y="1845.5645"/><text fill="#000000" font-family="sans-serif" font-size="12" lengthAdjust="spacing" textLength="92" x="809.5" y="1866.7031">Present Results</text><polygon fill="#F1F1F1" points="795,1728.1934,916,1728.1934,928,1740.1934,916,1752.1934,795,1752.1934,783,1740.1934,795,1728.1934" style="stroke:#181818;stroke-width:0.5;"/><text fill="#000000" font-family="sans-serif" font-size="11" lengthAdjust="spacing" textLength="21" x="859.5" y="1762.4038">Yes</text><text fill="#000000" font-family="sans-serif" font-size="11" lengthAdjust="spacing" textLength="121" x="795" y="1744.0015">Presentation Needed</text><text fill="#000000" font-family="sans-serif" font-size="11" lengthAdjust="spacing" textLength="15" x="928" y="1737.5991">No</text><polygon fill="#F1F1F1" points="855.5,1899.5332,867.5,1911.5332,855.5,1923.5332,843.5,1911.5332,855.5,1899.5332" style="stroke:#181818;stroke-width:0.5;"/><rect fill="#555555" height="6" rx="2.5" ry="2.5" style="stroke:#555555;stroke-width:1.0;" width="300" x="705.5" y="1991.9355"/><rect fill="#F1F1F1" height="33.9688" rx="12.5" ry="12.5" style="stroke:#181818;stroke-width:0.5;" width="125" x="717.5" y="2017.9355"/><text fill="#000000" font-family="sans-serif" font-size="12" lengthAdjust="spacing" textLength="105" x="727.5" y="2039.0742">Monitor Research</text><rect fill="#F1F1F1" height="33.9688" rx="12.5" ry="12.5" style="stroke:#181818;stroke-width:0.5;" width="123" x="870.5" y="2017.9355"/><text fill="#000000" font-family="sans-serif" font-size="12" lengthAdjust="spacing" textLength="103" x="880.5" y="2039.0742">Sustain Research</text><rect fill="#555555" height="6" rx="2.5" ry="2.5" style="stroke:#555555;stroke-width:1.0;" width="300" x="705.5" y="2071.9043"/><ellipse cx="855.5" cy="2107.9043" fill="none" rx="10" ry="10" style="stroke:#222222;stroke-width:1.5;"/><line style="stroke:#222222;stroke-width:2.5;" x1="849.3128" x2="861.6872" y1="2101.7171" y2="2114.0915"/><line style="stroke:#222222;stroke-width:2.5;" x1="861.6872" x2="849.3128" y1="2101.7171" y2="2114.0915"/><polygon fill="#F1F1F1" points="788,1943.5332,923,1943.5332,935,1955.5332,923,1967.5332,788,1967.5332,776,1955.5332,788,1943.5332" style="stroke:#181818;stroke-width:0.5;"/><text fill="#000000" font-family="sans-serif" font-size="11" lengthAdjust="spacing" textLength="21" x="859.5" y="1977.7437">Yes</text><text fill="#000000" font-family="sans-serif" font-size="11" lengthAdjust="spacing" textLength="135" x="788" y="1959.3413">Further Actions Needed</text><text fill="#000000" font-family="sans-serif" font-size="11" lengthAdjust="spacing" textLength="15" x="935" y="1952.939">No</text><ellipse cx="972" cy="1955.5332" fill="none" rx="11" ry="11" style="stroke:#222222;stroke-width:1.0;"/><ellipse cx="972" cy="1955.5332" fill="#222222" rx="6" ry="6" style="stroke:#222222;stroke-width:1.0;"/><line style="stroke:#000000;stroke-width:1.5;" x1="699.5" x2="699.5" y1="12.7451" y2="2129.9043"/><line style="stroke:#000000;stroke-width:1.5;" x1="1009.5" x2="1009.5" y1="12.7451" y2="2129.9043"/><line style="stroke:#181818;stroke-width:1.0;" x1="117.5" x2="117.5" y1="58.6982" y2="78.6982"/><polygon fill="#181818" points="113.5,68.6982,117.5,78.6982,121.5,68.6982,117.5,72.6982" style="stroke:#181818;stroke-width:1.0;"/><line style="stroke:#181818;stroke-width:1.0;" x1="117.5" x2="117.5" y1="112.667" y2="136.5303"/><polygon fill="#181818" points="113.5,126.5303,117.5,136.5303,121.5,126.5303,117.5,130.5303" style="stroke:#181818;stroke-width:1.0;"/><line style="stroke:#181818;stroke-width:1.0;" x1="117.5" x2="117.5" y1="170.499" y2="201.2139"/><polygon fill="#181818" points="113.5,191.2139,117.5,201.2139,121.5,191.2139,117.5,195.2139" style="stroke:#181818;stroke-width:1.0;"/><line style="stroke:#181818;stroke-width:1.0;" x1="117.5" x2="117.5" y1="398.8306" y2="418.8306"/><polygon fill="#181818" points="113.5,408.8306,117.5,418.8306,121.5,408.8306,117.5,412.8306" style="stroke:#181818;stroke-width:1.0;"/><line style="stroke:#181818;stroke-width:1.0;" x1="117.5" x2="117.5" y1="496.7993" y2="518.5098"/><line style="stroke:#181818;stroke-width:1.0;" x1="117.5" x2="266" y1="518.5098" y2="518.5098"/><polygon fill="#181818" points="262,446.8306,266,436.8306,270,446.8306,266,442.8306" style="stroke:#181818;stroke-width:1.0;"/><line style="stroke:#181818;stroke-width:1.0;" x1="266" x2="266" y1="321.1514" y2="518.5098"/><line style="stroke:#181818;stroke-width:1.0;" x1="266" x2="176.5" y1="321.1514" y2="321.1514"/><polygon fill="#181818" points="186.5,317.1514,176.5,321.1514,186.5,325.1514,182.5,321.1514" style="stroke:#181818;stroke-width:1.0;"/><line style="stroke:#181818;stroke-width:1.0;" x1="188" x2="220" y1="484.7993" y2="484.7993"/><polygon fill="#181818" points="210,480.7993,220,484.7993,210,488.7993,214,484.7993" style="stroke:#181818;stroke-width:1.0;"/><line style="stroke:#181818;stroke-width:1.0;" x1="117.5" x2="117.5" y1="452.7993" y2="472.7993"/><polygon fill="#181818" points="113.5,462.7993,117.5,472.7993,121.5,462.7993,117.5,466.7993" style="stroke:#181818;stroke-width:1.0;"/><line style="stroke:#181818;stroke-width:1.0;" x1="117.5" x2="117.5" y1="333.1514" y2="364.8618"/><polygon fill="#181818" points="113.5,354.8618,117.5,364.8618,121.5,354.8618,117.5,358.8618" style="stroke:#181818;stroke-width:1.0;"/><line style="stroke:#181818;stroke-width:1.0;" x1="58.5" x2="34" y1="321.1514" y2="321.1514"/><polygon fill="#181818" points="30,441.5806,34,451.5806,38,441.5806,34,445.5806" style="stroke:#181818;stroke-width:1.0;"/><line style="stroke:#181818;stroke-width:1.0;" x1="34" x2="34" y1="321.1514" y2="535.5098"/><line style="stroke:#181818;stroke-width:1.0;" x1="34" x2="543.5" y1="535.5098" y2="535.5098"/><line style="stroke:#181818;stroke-width:1.0;" x1="543.5" x2="543.5" y1="535.5098" y2="550.5098"/><polygon fill="#181818" points="539.5,540.5098,543.5,550.5098,547.5,540.5098,543.5,544.5098" style="stroke:#181818;stroke-width:1.0;"/><line style="stroke:#181818;stroke-width:1.0;" x1="117.5" x2="117.5" y1="746.3848" y2="820.3535"/><polygon fill="#181818" points="113.5,810.3535,117.5,820.3535,121.5,810.3535,117.5,814.3535" style="stroke:#181818;stroke-width:1.0;"/><line style="stroke:#181818;stroke-width:1.0;" x1="182" x2="266.5" y1="832.3535" y2="832.3535"/><line style="stroke:#181818;stroke-width:1.0;" x1="266.5" x2="266.5" y1="790.3535" y2="832.3535"/><polygon fill="#181818" points="262.5,800.3535,266.5,790.3535,270.5,800.3535,266.5,796.3535" style="stroke:#181818;stroke-width:1.0;"/><line style="stroke:#181818;stroke-width:1.0;" x1="266.5" x2="266.5" y1="729.4004" y2="756.3848"/><line style="stroke:#181818;stroke-width:1.0;" x1="266.5" x2="184.5" y1="729.4004" y2="729.4004"/><polygon fill="#181818" points="194.5,725.4004,184.5,729.4004,194.5,733.4004,190.5,729.4004" style="stroke:#181818;stroke-width:1.0;"/><line style="stroke:#181818;stroke-width:1.0;" x1="117.5" x2="117.5" y1="692.416" y2="712.416"/><polygon fill="#181818" points="113.5,702.416,117.5,712.416,121.5,702.416,117.5,706.416" style="stroke:#181818;stroke-width:1.0;"/><line style="stroke:#181818;stroke-width:1.0;" x1="543.5" x2="543.5" y1="584.4785" y2="604.4785"/><polygon fill="#181818" points="539.5,594.4785,543.5,604.4785,547.5,594.4785,543.5,598.4785" style="stroke:#181818;stroke-width:1.0;"/><line style="stroke:#181818;stroke-width:1.0;" x1="603.5" x2="603.5" y1="941.5815" y2="1015.5503"/><polygon fill="#181818" points="599.5,1005.5503,603.5,1015.5503,607.5,1005.5503,603.5,1009.5503" style="stroke:#181818;stroke-width:1.0;"/><line style="stroke:#181818;stroke-width:1.0;" x1="667.5" x2="679.5" y1="1027.5503" y2="1027.5503"/><polygon fill="#181818" points="675.5,991.0581,679.5,981.0581,683.5,991.0581,679.5,987.0581" style="stroke:#181818;stroke-width:1.0;"/><line style="stroke:#181818;stroke-width:1.0;" x1="679.5" x2="679.5" y1="924.5972" y2="1027.5503"/><line style="stroke:#181818;stroke-width:1.0;" x1="679.5" x2="653.5" y1="924.5972" y2="924.5972"/><polygon fill="#181818" points="663.5,920.5972,653.5,924.5972,663.5,928.5972,659.5,924.5972" style="stroke:#181818;stroke-width:1.0;"/><line style="stroke:#181818;stroke-width:1.0;" x1="453.5" x2="453.5" y1="887.6128" y2="961.5815"/><polygon fill="#181818" points="449.5,951.5815,453.5,961.5815,457.5,951.5815,453.5,955.5815" style="stroke:#181818;stroke-width:1.0;"/><line style="stroke:#181818;stroke-width:1.0;" x1="603.5" x2="603.5" y1="887.6128" y2="907.6128"/><polygon fill="#181818" points="599.5,897.6128,603.5,907.6128,607.5,897.6128,603.5,901.6128" style="stroke:#181818;stroke-width:1.0;"/><line style="stroke:#181818;stroke-width:1.0;" x1="453.5" x2="453.5" y1="995.5503" y2="1072.355"/><polygon fill="#181818" points="449.5,1062.355,453.5,1072.355,457.5,1062.355,453.5,1066.355" style="stroke:#181818;stroke-width:1.0;"/><line style="stroke:#181818;stroke-width:1.0;" x1="603.5" x2="603.5" y1="1039.5503" y2="1072.355"/><polygon fill="#181818" points="599.5,1062.355,603.5,1072.355,607.5,1062.355,603.5,1066.355" style="stroke:#181818;stroke-width:1.0;"/><text fill="#000000" font-family="sans-serif" font-size="11" lengthAdjust="spacing" textLength="21" x="607.5" y="1059.7607">Yes</text><line style="stroke:#181818;stroke-width:1.0;" x1="543.5" x2="543.5" y1="1132.3237" y2="1172.3237"/><polygon fill="#181818" points="539.5,1162.3237,543.5,1172.3237,547.5,1162.3237,543.5,1166.3237" style="stroke:#181818;stroke-width:1.0;"/><line style="stroke:#181818;stroke-width:1.0;" x1="608.5" x2="639.5" y1="1184.3237" y2="1184.3237"/><polygon fill="#181818" points="635.5,1152.3237,639.5,1142.3237,643.5,1152.3237,639.5,1148.3237" style="stroke:#181818;stroke-width:1.0;"/><line style="stroke:#181818;stroke-width:1.0;" x1="639.5" x2="639.5" y1="1115.3394" y2="1184.3237"/><line style="stroke:#181818;stroke-width:1.0;" x1="639.5" x2="627.5" y1="1115.3394" y2="1115.3394"/><polygon fill="#181818" points="637.5,1111.3394,627.5,1115.3394,637.5,1119.3394,633.5,1115.3394" style="stroke:#181818;stroke-width:1.0;"/><line style="stroke:#181818;stroke-width:1.0;" x1="543.5" x2="543.5" y1="1078.355" y2="1098.355"/><polygon fill="#181818" points="539.5,1088.355,543.5,1098.355,547.5,1088.355,543.5,1092.355" style="stroke:#181818;stroke-width:1.0;"/><line style="stroke:#181818;stroke-width:1.0;" x1="543.5" x2="543.5" y1="1196.3237" y2="1237.7227"/><polygon fill="#181818" points="539.5,1227.7227,543.5,1237.7227,547.5,1227.7227,543.5,1231.7227" style="stroke:#181818;stroke-width:1.0;"/><text fill="#000000" font-family="sans-serif" font-size="11" lengthAdjust="spacing" textLength="21" x="547.5" y="1217.6284">Yes</text><line style="stroke:#181818;stroke-width:1.0;" x1="543.5" x2="543.5" y1="1325.6602" y2="1365.6602"/><polygon fill="#181818" points="539.5,1355.6602,543.5,1365.6602,547.5,1355.6602,543.5,1359.6602" style="stroke:#181818;stroke-width:1.0;"/><line style="stroke:#181818;stroke-width:1.0;" x1="622" x2="634" y1="1377.6602" y2="1377.6602"/><polygon fill="#181818" points="630,1345.6602,634,1335.6602,638,1345.6602,634,1341.6602" style="stroke:#181818;stroke-width:1.0;"/><line style="stroke:#181818;stroke-width:1.0;" x1="634" x2="634" y1="1308.6758" y2="1377.6602"/><line style="stroke:#181818;stroke-width:1.0;" x1="634" x2="596" y1="1308.6758" y2="1308.6758"/><polygon fill="#181818" points="606,1304.6758,596,1308.6758,606,1312.6758,602,1308.6758" style="stroke:#181818;stroke-width:1.0;"/><line style="stroke:#181818;stroke-width:1.0;" x1="543.5" x2="543.5" y1="1271.6914" y2="1291.6914"/><polygon fill="#181818" points="539.5,1281.6914,543.5,1291.6914,547.5,1281.6914,543.5,1285.6914" style="stroke:#181818;stroke-width:1.0;"/><line style="stroke:#181818;stroke-width:1.0;" x1="543.5" x2="543.5" y1="1389.6602" y2="1431.0591"/><polygon fill="#181818" points="539.5,1421.0591,543.5,1431.0591,547.5,1421.0591,543.5,1425.0591" style="stroke:#181818;stroke-width:1.0;"/><text fill="#000000" font-family="sans-serif" font-size="11" lengthAdjust="spacing" textLength="21" x="547.5" y="1410.9648">Yes</text><line style="stroke:#181818;stroke-width:1.0;" x1="543.5" x2="543.5" y1="1465.0278" y2="1485.0278"/><polygon fill="#181818" points="539.5,1475.0278,543.5,1485.0278,547.5,1475.0278,543.5,1479.0278" style="stroke:#181818;stroke-width:1.0;"/><line style="stroke:#181818;stroke-width:1.0;" x1="543.5" x2="543.5" y1="1518.9966" y2="1538.9966"/><polygon fill="#181818" points="539.5,1528.9966,543.5,1538.9966,547.5,1528.9966,543.5,1532.9966" style="stroke:#181818;stroke-width:1.0;"/><line style="stroke:#181818;stroke-width:1.0;" x1="543.5" x2="543.5" y1="1626.9341" y2="1666.9341"/><polygon fill="#181818" points="539.5,1656.9341,543.5,1666.9341,547.5,1656.9341,543.5,1660.9341" style="stroke:#181818;stroke-width:1.0;"/><line style="stroke:#181818;stroke-width:1.0;" x1="599" x2="621" y1="1678.9341" y2="1678.9341"/><polygon fill="#181818" points="617,1646.9341,621,1636.9341,625,1646.9341,621,1642.9341" style="stroke:#181818;stroke-width:1.0;"/><line style="stroke:#181818;stroke-width:1.0;" x1="621" x2="621" y1="1609.9497" y2="1678.9341"/><line style="stroke:#181818;stroke-width:1.0;" x1="621" x2="609" y1="1609.9497" y2="1609.9497"/><polygon fill="#181818" points="619,1605.9497,609,1609.9497,619,1613.9497,615,1609.9497" style="stroke:#181818;stroke-width:1.0;"/><line style="stroke:#181818;stroke-width:1.0;" x1="543.5" x2="543.5" y1="1572.9653" y2="1592.9653"/><polygon fill="#181818" points="539.5,1582.9653,543.5,1592.9653,547.5,1582.9653,543.5,1586.9653" style="stroke:#181818;stroke-width:1.0;"/><line style="stroke:#181818;stroke-width:1.0;" x1="855.5" x2="855.5" y1="1810.5645" y2="1845.5645"/><polygon fill="#181818" points="851.5,1835.5645,855.5,1845.5645,859.5,1835.5645,855.5,1839.5645" style="stroke:#181818;stroke-width:1.0;"/><line style="stroke:#181818;stroke-width:1.0;" x1="855.5" x2="855.5" y1="1752.1934" y2="1776.5957"/><polygon fill="#181818" points="851.5,1766.5957,855.5,1776.5957,859.5,1766.5957,855.5,1770.5957" style="stroke:#181818;stroke-width:1.0;"/><line style="stroke:#181818;stroke-width:1.0;" x1="928" x2="951.5" y1="1740.1934" y2="1740.1934"/><polygon fill="#181818" points="947.5,1818.0645,951.5,1828.0645,955.5,1818.0645,951.5,1822.0645" style="stroke:#181818;stroke-width:1.0;"/><line style="stroke:#181818;stroke-width:1.0;" x1="951.5" x2="951.5" y1="1740.1934" y2="1911.5332"/><line style="stroke:#181818;stroke-width:1.0;" x1="951.5" x2="867.5" y1="1911.5332" y2="1911.5332"/><polygon fill="#181818" points="877.5,1907.5332,867.5,1911.5332,877.5,1915.5332,873.5,1911.5332" style="stroke:#181818;stroke-width:1.0;"/><line style="stroke:#181818;stroke-width:1.0;" x1="855.5" x2="855.5" y1="1879.5332" y2="1899.5332"/><polygon fill="#181818" points="851.5,1889.5332,855.5,1899.5332,859.5,1889.5332,855.5,1893.5332" style="stroke:#181818;stroke-width:1.0;"/><line style="stroke:#181818;stroke-width:1.0;" x1="780" x2="780" y1="1997.9355" y2="2017.9355"/><polygon fill="#181818" points="776,2007.9355,780,2017.9355,784,2007.9355,780,2011.9355" style="stroke:#181818;stroke-width:1.0;"/><line style="stroke:#181818;stroke-width:1.0;" x1="932" x2="932" y1="1997.9355" y2="2017.9355"/><polygon fill="#181818" points="928,2007.9355,932,2017.9355,936,2007.9355,932,2011.9355" style="stroke:#181818;stroke-width:1.0;"/><line style="stroke:#181818;stroke-width:1.0;" x1="780" x2="780" y1="2051.9043" y2="2071.9043"/><polygon fill="#181818" points="776,2061.9043,780,2071.9043,784,2061.9043,780,2065.9043" style="stroke:#181818;stroke-width:1.0;"/><line style="stroke:#181818;stroke-width:1.0;" x1="932" x2="932" y1="2051.9043" y2="2071.9043"/><polygon fill="#181818" points="928,2061.9043,932,2071.9043,936,2061.9043,932,2065.9043" style="stroke:#181818;stroke-width:1.0;"/><line style="stroke:#181818;stroke-width:1.0;" x1="855.5" x2="855.5" y1="2077.9043" y2="2097.9043"/><polygon fill="#181818" points="851.5,2087.9043,855.5,2097.9043,859.5,2087.9043,855.5,2091.9043" style="stroke:#181818;stroke-width:1.0;"/><line style="stroke:#181818;stroke-width:1.0;" x1="855.5" x2="855.5" y1="1967.5332" y2="1991.9355"/><polygon fill="#181818" points="851.5,1981.9355,855.5,1991.9355,859.5,1981.9355,855.5,1985.9355" style="stroke:#181818;stroke-width:1.0;"/><line style="stroke:#181818;stroke-width:1.0;" x1="935" x2="961" y1="1955.5332" y2="1955.5332"/><polygon fill="#181818" points="951,1951.5332,961,1955.5332,951,1959.5332,955,1955.5332" style="stroke:#181818;stroke-width:1.0;"/><line style="stroke:#181818;stroke-width:1.0;" x1="855.5" x2="855.5" y1="1923.5332" y2="1943.5332"/><polygon fill="#181818" points="851.5,1933.5332,855.5,1943.5332,859.5,1933.5332,855.5,1937.5332" style="stroke:#181818;stroke-width:1.0;"/><line style="stroke:#181818;stroke-width:1.0;" x1="117.5" x2="117.5" y1="235.1826" y2="240.1826"/><line style="stroke:#181818;stroke-width:1.0;" x1="117.5" x2="543.5" y1="240.1826" y2="240.1826"/><line style="stroke:#181818;stroke-width:1.0;" x1="543.5" x2="543.5" y1="240.1826" y2="255.1826"/><polygon fill="#181818" points="539.5,245.1826,543.5,255.1826,547.5,245.1826,543.5,249.1826" style="stroke:#181818;stroke-width:1.0;"/><line style="stroke:#181818;stroke-width:1.0;" x1="543.5" x2="543.5" y1="289.1514" y2="294.1514"/><line style="stroke:#181818;stroke-width:1.0;" x1="543.5" x2="117.5" y1="294.1514" y2="294.1514"/><line style="stroke:#181818;stroke-width:1.0;" x1="117.5" x2="117.5" y1="294.1514" y2="309.1514"/><polygon fill="#181818" points="113.5,299.1514,117.5,309.1514,121.5,299.1514,117.5,303.1514" style="stroke:#181818;stroke-width:1.0;"/><line style="stroke:#181818;stroke-width:1.0;" x1="543.5" x2="543.5" y1="638.4473" y2="643.4473"/><line style="stroke:#181818;stroke-width:1.0;" x1="543.5" x2="117.5" y1="643.4473" y2="643.4473"/><line style="stroke:#181818;stroke-width:1.0;" x1="117.5" x2="117.5" y1="643.4473" y2="658.4473"/><polygon fill="#181818" points="113.5,648.4473,117.5,658.4473,121.5,648.4473,117.5,652.4473" style="stroke:#181818;stroke-width:1.0;"/><line style="stroke:#181818;stroke-width:1.0;" x1="117.5" x2="117.5" y1="844.3535" y2="866.6128"/><line style="stroke:#181818;stroke-width:1.0;" x1="117.5" x2="543.5" y1="866.6128" y2="866.6128"/><line style="stroke:#181818;stroke-width:1.0;" x1="543.5" x2="543.5" y1="866.6128" y2="881.6128"/><polygon fill="#181818" points="539.5,871.6128,543.5,881.6128,547.5,871.6128,543.5,875.6128" style="stroke:#181818;stroke-width:1.0;"/><text fill="#000000" font-family="sans-serif" font-size="11" lengthAdjust="spacing" textLength="21" x="121.5" y="860.1128">Yes</text><line style="stroke:#181818;stroke-width:1.0;" x1="543.5" x2="543.5" y1="1690.9341" y2="1713.1934"/><line style="stroke:#181818;stroke-width:1.0;" x1="543.5" x2="855.5" y1="1713.1934" y2="1713.1934"/><line style="stroke:#181818;stroke-width:1.0;" x1="855.5" x2="855.5" y1="1713.1934" y2="1728.1934"/><polygon fill="#181818" points="851.5,1718.1934,855.5,1728.1934,859.5,1718.1934,855.5,1722.1934" style="stroke:#181818;stroke-width:1.0;"/><text fill="#000000" font-family="sans-serif" font-size="11" lengthAdjust="spacing" textLength="15" x="547.5" y="1706.6934">No</text><text fill="#000000" font-family="sans-serif" font-size="18" lengthAdjust="spacing" textLength="74" x="159.25" y="29.4531">Prepare</text><text fill="#000000" font-family="sans-serif" font-size="18" lengthAdjust="spacing" textLength="87" x="495" y="29.4531">Research</text><text fill="#000000" font-family="sans-serif" font-size="18" lengthAdjust="spacing" textLength="72" x="818.5" y="29.4531">Monitor</text><!--SRC=[TLJRRjim37ttLmZOIpgW-m0RA10i3HQWIRDamD17sQOTBh9aI7Ao3FxuaRx7RVrWE2H5dNF8atflePGMwi1vQNqGhY133M9VsT8uY09jF0YB-Sa7WfwlOczDhA0GHwCkgFDe2Cl4Om9YKvJMNA00xRy5e5Dk48H7K91u8SKA7ERwWxu_AwdGIuyNYCQGzhFOjb8U2_0daqxQRrAw3hEREFegfJTwEb0Vm86qoQbcMYwn64CFdx83y-i95OZ5yrzqdXWniygZqGy2dLYyWNjexWuFS46uYXTgRgMlR8SfVBv8LKcYSoIaBcCTZ6vpc8d543NsDkdjJw0dtVbntfJD3r2E0ErCcoAMc37N3YZ7wo-vHErYOysKvjhOebACfG-Ar_WFAKyAkkZ3_8zRQGYBu_oeIRy7Qv0EOwJ9tCGli0KLKGb8Fw4zgOc2M2RdgxHf-5hIdF0Vp8vr7DepQiJHYitK7f_U6YmZhSpOSojrX-h5v3ohXCeu9oIBqLJquFPAwcdP97U7e6MsLBIJa8uOkBp3GRetz_UTVrkSoaVxH4QHQawmZujbsVWXVKSm_6vKOugLz7AKTT3jBjnrvPZO0dZ7-zEPwNtdfPRgDhG8DvesjhJWHzXhfANIEHUtX2X0O0zG6kidCqwHJAjJfcao2pAT8zgIml8CJgnDfTE9PHwVTeQck3KQQVFhWAr0w-N8g98T87O0ASioCqBOxQ2uA-PvHaEUuyo5_WjuGeDRMgVmJUlAKbyhbeqPtMUN3PlLTEwm3Yf5GyramvhAOqMiKSyg-rNfleDx6pVkRX3-1m00]--></g></svg>