<?xml version="1.0" encoding="us-ascii" standalone="no"?><svg xmlns="http://www.w3.org/2000/svg" xmlns:xlink="http://www.w3.org/1999/xlink" contentStyleType="text/css" height="2094px" preserveAspectRatio="none" style="width:458px;height:2094px;background:#FFFFFF;" version="1.1" viewBox="0 0 458 2094" width="458px" zoomAndPan="magnify"><defs/><g><ellipse cx="235.25" cy="20" fill="#222222" rx="10" ry="10" style="stroke:#222222;stroke-width:1.0;"/><rect fill="#F1F1F1" height="33.9688" rx="12.5" ry="12.5" style="stroke:#181818;stroke-width:0.5;" width="135" x="167.75" y="50"/><text fill="#000000" font-family="sans-serif" font-size="12" lengthAdjust="spacing" textLength="115" x="177.75" y="71.1387">Define the Purpose</text><polygon fill="#F1F1F1" points="72.25,103.9688,164.25,103.9688,176.25,115.9688,164.25,127.9688,72.25,127.9688,60.25,115.9688,72.25,103.9688" style="stroke:#181818;stroke-width:0.5;"/><text fill="#000000" font-family="sans-serif" font-size="11" lengthAdjust="spacing" textLength="21" x="122.25" y="138.1792">Yes</text><text fill="#000000" font-family="sans-serif" font-size="11" lengthAdjust="spacing" textLength="92" x="72.25" y="119.7769">Problem Solving</text><polygon fill="#F1F1F1" points="223.25,103.9688,348.25,103.9688,360.25,115.9688,348.25,127.9688,223.25,127.9688,211.25,115.9688,223.25,103.9688" style="stroke:#181818;stroke-width:0.5;"/><text fill="#000000" font-family="sans-serif" font-size="11" lengthAdjust="spacing" textLength="21" x="289.75" y="138.1792">Yes</text><text fill="#000000" font-family="sans-serif" font-size="11" lengthAdjust="spacing" textLength="125" x="223.25" y="119.7769">Practice Improvement</text><text fill="#000000" font-family="sans-serif" font-size="11" lengthAdjust="spacing" textLength="15" x="196.25" y="113.3745">No</text><text fill="#000000" font-family="sans-serif" font-size="11" lengthAdjust="spacing" textLength="15" x="360.25" y="113.3745">No</text><ellipse cx="395.25" cy="157.3711" fill="none" rx="11" ry="11" style="stroke:#222222;stroke-width:1.0;"/><ellipse cx="395.25" cy="157.3711" fill="#222222" rx="6" ry="6" style="stroke:#111111;stroke-width:1.0;"/><rect fill="#F1F1F1" height="33.9688" rx="12.5" ry="12.5" style="stroke:#181818;stroke-width:0.5;" width="175" x="147.75" y="208.3711"/><text fill="#000000" font-family="sans-serif" font-size="12" lengthAdjust="spacing" textLength="155" x="157.75" y="229.5098">Select a Research Design</text><polygon fill="#F1F1F1" points="50.25,262.3398,112.25,262.3398,124.25,274.3398,112.25,286.3398,50.25,286.3398,38.25,274.3398,50.25,262.3398" style="stroke:#181818;stroke-width:0.5;"/><text fill="#000000" font-family="sans-serif" font-size="11" lengthAdjust="spacing" textLength="21" x="85.25" y="296.5503">Yes</text><text fill="#000000" font-family="sans-serif" font-size="11" lengthAdjust="spacing" textLength="62" x="50.25" y="278.1479">Qualitative</text><polygon fill="#F1F1F1" points="171.25,262.3398,241.25,262.3398,253.25,274.3398,241.25,286.3398,171.25,286.3398,159.25,274.3398,171.25,262.3398" style="stroke:#181818;stroke-width:0.5;"/><text fill="#000000" font-family="sans-serif" font-size="11" lengthAdjust="spacing" textLength="21" x="210.25" y="296.5503">Yes</text><text fill="#000000" font-family="sans-serif" font-size="11" lengthAdjust="spacing" textLength="70" x="171.25" y="278.1479">Quantitative</text><text fill="#000000" font-family="sans-serif" font-size="11" lengthAdjust="spacing" textLength="15" x="144.25" y="271.7456">No</text><polygon fill="#F1F1F1" points="300.25,262.3398,370.25,262.3398,382.25,274.3398,370.25,286.3398,300.25,286.3398,288.25,274.3398,300.25,262.3398" style="stroke:#181818;stroke-width:0.5;"/><text fill="#000000" font-family="sans-serif" font-size="11" lengthAdjust="spacing" textLength="21" x="339.25" y="296.5503">Yes</text><text fill="#000000" font-family="sans-serif" font-size="11" lengthAdjust="spacing" textLength="70" x="300.25" y="278.1479">Multimethod</text><text fill="#000000" font-family="sans-serif" font-size="11" lengthAdjust="spacing" textLength="15" x="273.25" y="271.7456">No</text><text fill="#000000" font-family="sans-serif" font-size="11" lengthAdjust="spacing" textLength="15" x="382.25" y="271.7456">No</text><ellipse cx="417.25" cy="315.7422" fill="none" rx="11" ry="11" style="stroke:#222222;stroke-width:1.0;"/><ellipse cx="417.25" cy="315.7422" fill="#222222" rx="6" ry="6" style="stroke:#111111;stroke-width:1.0;"/><rect fill="#555555" height="6" rx="2.5" ry="2.5" style="stroke:#555555;stroke-width:1.0;" width="436.5" x="11" y="366.7422"/><rect fill="#F1F1F1" height="33.9688" rx="12.5" ry="12.5" style="stroke:#181818;stroke-width:0.5;" width="192" x="23" y="446.6445"/><text fill="#000000" font-family="sans-serif" font-size="12" lengthAdjust="spacing" textLength="172" x="33" y="467.7832">Develop Data Collection Plan</text><rect fill="#F1F1F1" height="33.9688" rx="12.5" ry="12.5" style="stroke:#181818;stroke-width:0.5;" width="189" x="243" y="392.7422"/><text fill="#000000" font-family="sans-serif" font-size="12" lengthAdjust="spacing" textLength="169" x="253" y="413.8809">Collect Data Analytical Tools</text><polygon fill="#F1F1F1" points="299.5,461.7109,375.5,461.7109,387.5,473.7109,375.5,485.7109,299.5,485.7109,287.5,473.7109,299.5,461.7109" style="stroke:#181818;stroke-width:0.5;"/><text fill="#000000" font-family="sans-serif" font-size="11" lengthAdjust="spacing" textLength="21" x="341.5" y="495.9214">Yes</text><text fill="#000000" font-family="sans-serif" font-size="11" lengthAdjust="spacing" textLength="76" x="299.5" y="477.519">Enough Tools</text><text fill="#000000" font-family="sans-serif" font-size="11" lengthAdjust="spacing" textLength="15" x="387.5" y="471.1167">No</text><ellipse cx="424.5" cy="473.7109" fill="none" rx="11" ry="11" style="stroke:#222222;stroke-width:1.0;"/><ellipse cx="424.5" cy="473.7109" fill="#222222" rx="6" ry="6" style="stroke:#111111;stroke-width:1.0;"/><rect fill="#555555" height="6" rx="2.5" ry="2.5" style="stroke:#555555;stroke-width:1.0;" width="436.5" x="11" y="517.4214"/><rect fill="#F1F1F1" height="33.9688" rx="12.5" ry="12.5" style="stroke:#181818;stroke-width:0.5;" width="152" x="159.25" y="543.4214"/><text fill="#000000" font-family="sans-serif" font-size="12" lengthAdjust="spacing" textLength="132" x="169.25" y="564.5601">Identify the Study Site</text><rect fill="#F1F1F1" height="33.9688" rx="12.5" ry="12.5" style="stroke:#181818;stroke-width:0.5;" width="220" x="125.25" y="597.3901"/><text fill="#000000" font-family="sans-serif" font-size="12" lengthAdjust="spacing" textLength="200" x="135.25" y="618.5288">Define and Describe the Problem</text><rect fill="#F1F1F1" height="33.9688" rx="12.5" ry="12.5" style="stroke:#181818;stroke-width:0.5;" width="124" x="173.25" y="707.0693"/><text fill="#000000" font-family="sans-serif" font-size="12" lengthAdjust="spacing" textLength="104" x="183.25" y="728.208">Review Literature</text><rect fill="#F1F1F1" height="33.9688" rx="12.5" ry="12.5" style="stroke:#181818;stroke-width:0.5;" width="145" x="162.75" y="761.0381"/><text fill="#000000" font-family="sans-serif" font-size="12" lengthAdjust="spacing" textLength="125" x="172.75" y="782.1768">Evaluate Satisfactory</text><polygon fill="#F1F1F1" points="176.75,815.0068,293.75,815.0068,305.75,827.0068,293.75,839.0068,176.75,839.0068,164.75,827.0068,176.75,815.0068" style="stroke:#181818;stroke-width:0.5;"/><text fill="#000000" font-family="sans-serif" font-size="11" lengthAdjust="spacing" textLength="15" x="239.25" y="849.2173">No</text><text fill="#000000" font-family="sans-serif" font-size="11" lengthAdjust="spacing" textLength="117" x="176.75" y="830.8149">Satisfactory Solution</text><text fill="#000000" font-family="sans-serif" font-size="11" lengthAdjust="spacing" textLength="21" x="305.75" y="824.4126">Yes</text><ellipse cx="348.75" cy="827.0068" fill="none" rx="11" ry="11" style="stroke:#222222;stroke-width:1.0;"/><ellipse cx="348.75" cy="827.0068" fill="#222222" rx="6" ry="6" style="stroke:#111111;stroke-width:1.0;"/><polygon fill="#F1F1F1" points="188.25,651.3589,282.25,651.3589,294.25,663.3589,282.25,675.3589,188.25,675.3589,176.25,663.3589,188.25,651.3589" style="stroke:#181818;stroke-width:0.5;"/><text fill="#000000" font-family="sans-serif" font-size="11" lengthAdjust="spacing" textLength="21" x="239.25" y="685.5693">Yes</text><text fill="#000000" font-family="sans-serif" font-size="11" lengthAdjust="spacing" textLength="94" x="188.25" y="667.167">Existing Solution</text><text fill="#000000" font-family="sans-serif" font-size="11" lengthAdjust="spacing" textLength="15" x="161.25" y="660.7646">No</text><rect fill="#F1F1F1" height="33.9688" rx="12.5" ry="12.5" style="stroke:#181818;stroke-width:0.5;" width="209" x="130.75" y="892.7173"/><text fill="#000000" font-family="sans-serif" font-size="12" lengthAdjust="spacing" textLength="189" x="140.75" y="913.856">Formulate Research Objectives</text><rect fill="#F1F1F1" height="33.9688" rx="12.5" ry="12.5" style="stroke:#181818;stroke-width:0.5;" width="217" x="126.75" y="946.686"/><text fill="#000000" font-family="sans-serif" font-size="12" lengthAdjust="spacing" textLength="197" x="136.75" y="967.8247">Formulate Research Hypotheses</text><rect fill="#555555" height="6" rx="2.5" ry="2.5" style="stroke:#555555;stroke-width:1.0;" width="378" x="46.25" y="1000.6548"/><rect fill="#F1F1F1" height="33.9688" rx="12.5" ry="12.5" style="stroke:#181818;stroke-width:0.5;" width="165" x="60.25" y="1026.6548"/><text fill="#000000" font-family="sans-serif" font-size="12" lengthAdjust="spacing" textLength="145" x="70.25" y="1047.7935">Define Feasibility Terms</text><rect fill="#F1F1F1" height="33.9688" rx="12.5" ry="12.5" style="stroke:#181818;stroke-width:0.5;" width="157" x="253.25" y="1026.6548"/><text fill="#000000" font-family="sans-serif" font-size="12" lengthAdjust="spacing" textLength="137" x="263.25" y="1047.7935">Evaluate the Feasibility</text><rect fill="#555555" height="6" rx="2.5" ry="2.5" style="stroke:#555555;stroke-width:1.0;" width="378" x="46.25" y="1080.6235"/><polygon fill="#F1F1F1" points="176.25,1106.6235,294.25,1106.6235,306.25,1118.6235,294.25,1130.6235,176.25,1130.6235,164.25,1118.6235,176.25,1106.6235" style="stroke:#181818;stroke-width:0.5;"/><text fill="#000000" font-family="sans-serif" font-size="11" lengthAdjust="spacing" textLength="21" x="239.25" y="1140.834">Yes</text><text fill="#000000" font-family="sans-serif" font-size="11" lengthAdjust="spacing" textLength="118" x="176.25" y="1122.4316">Research is Feasible</text><text fill="#000000" font-family="sans-serif" font-size="11" lengthAdjust="spacing" textLength="15" x="306.25" y="1116.0293">No</text><ellipse cx="343.25" cy="1118.6235" fill="none" rx="11" ry="11" style="stroke:#222222;stroke-width:1.0;"/><ellipse cx="343.25" cy="1118.6235" fill="#222222" rx="6" ry="6" style="stroke:#111111;stroke-width:1.0;"/><rect fill="#F1F1F1" height="33.9688" rx="12.5" ry="12.5" style="stroke:#181818;stroke-width:0.5;" width="179" x="145.75" y="1162.334"/><text fill="#000000" font-family="sans-serif" font-size="12" lengthAdjust="spacing" textLength="159" x="155.75" y="1183.4727">Write a Research Proposal</text><polygon fill="#F1F1F1" points="182.25,1216.3027,288.25,1216.3027,300.25,1228.3027,288.25,1240.3027,182.25,1240.3027,170.25,1228.3027,182.25,1216.3027" style="stroke:#181818;stroke-width:0.5;"/><text fill="#000000" font-family="sans-serif" font-size="11" lengthAdjust="spacing" textLength="21" x="239.25" y="1250.5132">Yes</text><text fill="#000000" font-family="sans-serif" font-size="11" lengthAdjust="spacing" textLength="106" x="182.25" y="1232.1108">Proposal Approved</text><text fill="#000000" font-family="sans-serif" font-size="11" lengthAdjust="spacing" textLength="15" x="300.25" y="1225.7085">No</text><ellipse cx="337.25" cy="1228.3027" fill="none" rx="11" ry="11" style="stroke:#222222;stroke-width:1.0;"/><ellipse cx="337.25" cy="1228.3027" fill="#222222" rx="6" ry="6" style="stroke:#111111;stroke-width:1.0;"/><rect fill="#555555" height="6" rx="2.5" ry="2.5" style="stroke:#555555;stroke-width:1.0;" width="295" x="87.75" y="1272.0132"/><rect fill="#F1F1F1" height="33.9688" rx="12.5" ry="12.5" style="stroke:#181818;stroke-width:0.5;" width="116" x="101.75" y="1298.0132"/><text fill="#000000" font-family="sans-serif" font-size="12" lengthAdjust="spacing" textLength="96" x="111.75" y="1319.1519">Define Logistics</text><rect fill="#F1F1F1" height="33.9688" rx="12.5" ry="12.5" style="stroke:#181818;stroke-width:0.5;" width="123" x="245.75" y="1298.0132"/><text fill="#000000" font-family="sans-serif" font-size="12" lengthAdjust="spacing" textLength="103" x="255.75" y="1319.1519">Plan the Logistics</text><rect fill="#555555" height="6" rx="2.5" ry="2.5" style="stroke:#555555;stroke-width:1.0;" width="295" x="87.75" y="1351.9819"/><rect fill="#F1F1F1" height="33.9688" rx="12.5" ry="12.5" style="stroke:#181818;stroke-width:0.5;" width="92" x="189.25" y="1377.9819"/><text fill="#000000" font-family="sans-serif" font-size="12" lengthAdjust="spacing" textLength="72" x="199.25" y="1399.1206">Collect Data</text><polygon fill="#F1F1F1" points="49.75,1431.9507,182.75,1431.9507,194.75,1443.9507,182.75,1455.9507,49.75,1455.9507,37.75,1443.9507,49.75,1431.9507" style="stroke:#181818;stroke-width:0.5;"/><text fill="#000000" font-family="sans-serif" font-size="11" lengthAdjust="spacing" textLength="21" x="120.25" y="1466.1611">Yes</text><text fill="#000000" font-family="sans-serif" font-size="11" lengthAdjust="spacing" textLength="133" x="49.75" y="1447.7588">Data Meets the Design</text><polygon fill="#F1F1F1" points="241.75,1431.9507,370.75,1431.9507,382.75,1443.9507,370.75,1455.9507,241.75,1455.9507,229.75,1443.9507,241.75,1431.9507" style="stroke:#181818;stroke-width:0.5;"/><text fill="#000000" font-family="sans-serif" font-size="11" lengthAdjust="spacing" textLength="21" x="310.25" y="1466.1611">Yes</text><text fill="#000000" font-family="sans-serif" font-size="11" lengthAdjust="spacing" textLength="129" x="241.75" y="1447.7588">Optimization Available</text><text fill="#000000" font-family="sans-serif" font-size="11" lengthAdjust="spacing" textLength="15" x="214.75" y="1441.3564">No</text><text fill="#000000" font-family="sans-serif" font-size="11" lengthAdjust="spacing" textLength="15" x="382.75" y="1441.3564">No</text><rect fill="#F1F1F1" height="33.9688" rx="12.5" ry="12.5" style="stroke:#181818;stroke-width:0.5;" width="128" x="242.25" y="1487.6611"/><text fill="#000000" font-family="sans-serif" font-size="12" lengthAdjust="spacing" textLength="108" x="252.25" y="1508.7998">Optimize the Data</text><ellipse cx="417.75" cy="1501.2432" fill="none" rx="11" ry="11" style="stroke:#222222;stroke-width:1.0;"/><ellipse cx="417.75" cy="1501.2432" fill="#222222" rx="6" ry="6" style="stroke:#111111;stroke-width:1.0;"/><polygon fill="#F1F1F1" points="65.25,1561.6299,141.25,1561.6299,153.25,1573.6299,141.25,1585.6299,65.25,1585.6299,53.25,1573.6299,65.25,1561.6299" style="stroke:#181818;stroke-width:0.5;"/><text fill="#000000" font-family="sans-serif" font-size="11" lengthAdjust="spacing" textLength="21" x="107.25" y="1595.8403">Yes</text><text fill="#000000" font-family="sans-serif" font-size="11" lengthAdjust="spacing" textLength="76" x="65.25" y="1577.438">Enough Tools</text><polygon fill="#F1F1F1" points="200.25,1561.6299,355.25,1561.6299,367.25,1573.6299,355.25,1585.6299,200.25,1585.6299,188.25,1573.6299,200.25,1561.6299" style="stroke:#181818;stroke-width:0.5;"/><text fill="#000000" font-family="sans-serif" font-size="11" lengthAdjust="spacing" textLength="21" x="281.75" y="1595.8403">Yes</text><text fill="#000000" font-family="sans-serif" font-size="11" lengthAdjust="spacing" textLength="155" x="200.25" y="1577.438">Supplementation Available</text><text fill="#000000" font-family="sans-serif" font-size="11" lengthAdjust="spacing" textLength="15" x="173.25" y="1571.0356">No</text><text fill="#000000" font-family="sans-serif" font-size="11" lengthAdjust="spacing" textLength="15" x="367.25" y="1571.0356">No</text><rect fill="#F1F1F1" height="33.9688" rx="12.5" ry="12.5" style="stroke:#181818;stroke-width:0.5;" width="152" x="201.75" y="1617.3403"/><text fill="#000000" font-family="sans-serif" font-size="12" lengthAdjust="spacing" textLength="132" x="211.75" y="1638.479">Supplement the Tools</text><ellipse cx="402.25" cy="1630.9224" fill="none" rx="11" ry="11" style="stroke:#222222;stroke-width:1.0;"/><ellipse cx="402.25" cy="1630.9224" fill="#222222" rx="6" ry="6" style="stroke:#111111;stroke-width:1.0;"/><rect fill="#F1F1F1" height="33.9688" rx="12.5" ry="12.5" style="stroke:#181818;stroke-width:0.5;" width="98" x="186.25" y="1691.3091"/><text fill="#000000" font-family="sans-serif" font-size="12" lengthAdjust="spacing" textLength="78" x="196.25" y="1712.4478">Analyze Data</text><rect fill="#F1F1F1" height="33.9688" rx="12.5" ry="12.5" style="stroke:#181818;stroke-width:0.5;" width="209" x="130.75" y="1745.2778"/><text fill="#000000" font-family="sans-serif" font-size="12" lengthAdjust="spacing" textLength="189" x="140.75" y="1766.4165">Interpret the Research Findings</text><rect fill="#F1F1F1" height="33.9688" rx="12.5" ry="12.5" style="stroke:#181818;stroke-width:0.5;" width="150" x="160.25" y="1799.2466"/><text fill="#000000" font-family="sans-serif" font-size="12" lengthAdjust="spacing" textLength="130" x="170.25" y="1820.3853">Write the Final Report</text><rect fill="#F1F1F1" height="33.9688" rx="12.5" ry="12.5" style="stroke:#181818;stroke-width:0.5;" width="172" x="149.25" y="1853.2153"/><text fill="#000000" font-family="sans-serif" font-size="12" lengthAdjust="spacing" textLength="152" x="159.25" y="1874.354">Prepare Presentation Plan</text><rect fill="#F1F1F1" height="33.9688" rx="12.5" ry="12.5" style="stroke:#181818;stroke-width:0.5;" width="112" x="179.25" y="1907.1841"/><text fill="#000000" font-family="sans-serif" font-size="12" lengthAdjust="spacing" textLength="92" x="189.25" y="1928.3228">Present Results</text><rect fill="#F1F1F1" height="33.9688" rx="12.5" ry="12.5" style="stroke:#181818;stroke-width:0.5;" width="171" x="149.75" y="2009.5552"/><text fill="#000000" font-family="sans-serif" font-size="12" lengthAdjust="spacing" textLength="151" x="159.75" y="2030.6938">Evaluation and Follow-Up</text><ellipse cx="235.25" cy="2073.5239" fill="none" rx="10" ry="10" style="stroke:#222222;stroke-width:1.5;"/><line style="stroke:#222222;stroke-width:2.5;" x1="229.0628" x2="241.4372" y1="2067.3367" y2="2079.7111"/><line style="stroke:#222222;stroke-width:2.5;" x1="241.4372" x2="229.0628" y1="2067.3367" y2="2079.7111"/><polygon fill="#F1F1F1" points="167.75,1961.1528,302.75,1961.1528,314.75,1973.1528,302.75,1985.1528,167.75,1985.1528,155.75,1973.1528,167.75,1961.1528" style="stroke:#181818;stroke-width:0.5;"/><text fill="#000000" font-family="sans-serif" font-size="11" lengthAdjust="spacing" textLength="21" x="239.25" y="1995.3633">Yes</text><text fill="#000000" font-family="sans-serif" font-size="11" lengthAdjust="spacing" textLength="135" x="167.75" y="1976.9609">Further Actions Needed</text><text fill="#000000" font-family="sans-serif" font-size="11" lengthAdjust="spacing" textLength="15" x="314.75" y="1970.5586">No</text><ellipse cx="351.75" cy="1973.1528" fill="none" rx="11" ry="11" style="stroke:#222222;stroke-width:1.0;"/><ellipse cx="351.75" cy="1973.1528" fill="#222222" rx="6" ry="6" style="stroke:#111111;stroke-width:1.0;"/><line style="stroke:#181818;stroke-width:1.0;" x1="235.25" x2="235.25" y1="30" y2="50"/><polygon fill="#181818" points="231.25,40,235.25,50,239.25,40,235.25,44" style="stroke:#181818;stroke-width:1.0;"/><line style="stroke:#181818;stroke-width:1.0;" x1="118.25" x2="118.25" y1="127.9688" y2="188.3711"/><polygon fill="#181818" points="114.25,178.3711,118.25,188.3711,122.25,178.3711,118.25,182.3711" style="stroke:#181818;stroke-width:1.0;"/><line style="stroke:#181818;stroke-width:1.0;" x1="285.75" x2="285.75" y1="127.9688" y2="188.3711"/><polygon fill="#181818" points="281.75,178.3711,285.75,188.3711,289.75,178.3711,285.75,182.3711" style="stroke:#181818;stroke-width:1.0;"/><line style="stroke:#181818;stroke-width:1.0;" x1="176.25" x2="211.25" y1="115.9688" y2="115.9688"/><polygon fill="#181818" points="201.25,111.9688,211.25,115.9688,201.25,119.9688,205.25,115.9688" style="stroke:#181818;stroke-width:1.0;"/><line style="stroke:#181818;stroke-width:1.0;" x1="235.25" x2="235.25" y1="83.9688" y2="88.9688"/><line style="stroke:#181818;stroke-width:1.0;" x1="235.25" x2="118.25" y1="88.9688" y2="88.9688"/><line style="stroke:#181818;stroke-width:1.0;" x1="118.25" x2="118.25" y1="88.9688" y2="103.9688"/><polygon fill="#181818" points="114.25,93.9688,118.25,103.9688,122.25,93.9688,118.25,97.9688" style="stroke:#181818;stroke-width:1.0;"/><line style="stroke:#181818;stroke-width:1.0;" x1="360.25" x2="395.25" y1="115.9688" y2="115.9688"/><line style="stroke:#181818;stroke-width:1.0;" x1="395.25" x2="395.25" y1="115.9688" y2="146.3711"/><polygon fill="#181818" points="391.25,136.3711,395.25,146.3711,399.25,136.3711,395.25,140.3711" style="stroke:#181818;stroke-width:1.0;"/><line style="stroke:#181818;stroke-width:1.0;" x1="118.25" x2="285.75" y1="188.3711" y2="188.3711"/><line style="stroke:#181818;stroke-width:1.0;" x1="235.25" x2="235.25" y1="188.3711" y2="208.3711"/><polygon fill="#181818" points="231.25,198.3711,235.25,208.3711,239.25,198.3711,235.25,202.3711" style="stroke:#181818;stroke-width:1.0;"/><line style="stroke:#181818;stroke-width:1.0;" x1="81.25" x2="81.25" y1="286.3398" y2="346.7422"/><polygon fill="#181818" points="77.25,336.7422,81.25,346.7422,85.25,336.7422,81.25,340.7422" style="stroke:#181818;stroke-width:1.0;"/><line style="stroke:#181818;stroke-width:1.0;" x1="206.25" x2="206.25" y1="286.3398" y2="346.7422"/><polygon fill="#181818" points="202.25,336.7422,206.25,346.7422,210.25,336.7422,206.25,340.7422" style="stroke:#181818;stroke-width:1.0;"/><line style="stroke:#181818;stroke-width:1.0;" x1="335.25" x2="335.25" y1="286.3398" y2="346.7422"/><polygon fill="#181818" points="331.25,336.7422,335.25,346.7422,339.25,336.7422,335.25,340.7422" style="stroke:#181818;stroke-width:1.0;"/><line style="stroke:#181818;stroke-width:1.0;" x1="124.25" x2="159.25" y1="274.3398" y2="274.3398"/><polygon fill="#181818" points="149.25,270.3398,159.25,274.3398,149.25,278.3398,153.25,274.3398" style="stroke:#181818;stroke-width:1.0;"/><line style="stroke:#181818;stroke-width:1.0;" x1="253.25" x2="288.25" y1="274.3398" y2="274.3398"/><polygon fill="#181818" points="278.25,270.3398,288.25,274.3398,278.25,278.3398,282.25,274.3398" style="stroke:#181818;stroke-width:1.0;"/><line style="stroke:#181818;stroke-width:1.0;" x1="235.25" x2="235.25" y1="242.3398" y2="247.3398"/><line style="stroke:#181818;stroke-width:1.0;" x1="235.25" x2="81.25" y1="247.3398" y2="247.3398"/><line style="stroke:#181818;stroke-width:1.0;" x1="81.25" x2="81.25" y1="247.3398" y2="262.3398"/><polygon fill="#181818" points="77.25,252.3398,81.25,262.3398,85.25,252.3398,81.25,256.3398" style="stroke:#181818;stroke-width:1.0;"/><line style="stroke:#181818;stroke-width:1.0;" x1="382.25" x2="417.25" y1="274.3398" y2="274.3398"/><line style="stroke:#181818;stroke-width:1.0;" x1="417.25" x2="417.25" y1="274.3398" y2="304.7422"/><polygon fill="#181818" points="413.25,294.7422,417.25,304.7422,421.25,294.7422,417.25,298.7422" style="stroke:#181818;stroke-width:1.0;"/><line style="stroke:#181818;stroke-width:1.0;" x1="81.25" x2="335.25" y1="346.7422" y2="346.7422"/><line style="stroke:#181818;stroke-width:1.0;" x1="337.5" x2="337.5" y1="485.7109" y2="517.4214"/><polygon fill="#181818" points="333.5,507.4214,337.5,517.4214,341.5,507.4214,337.5,511.4214" style="stroke:#181818;stroke-width:1.0;"/><line style="stroke:#181818;stroke-width:1.0;" x1="387.5" x2="413.5" y1="473.7109" y2="473.7109"/><polygon fill="#181818" points="403.5,469.7109,413.5,473.7109,403.5,477.7109,407.5,473.7109" style="stroke:#181818;stroke-width:1.0;"/><line style="stroke:#181818;stroke-width:1.0;" x1="337.5" x2="337.5" y1="426.7109" y2="461.7109"/><polygon fill="#181818" points="333.5,451.7109,337.5,461.7109,341.5,451.7109,337.5,455.7109" style="stroke:#181818;stroke-width:1.0;"/><line style="stroke:#181818;stroke-width:1.0;" x1="119" x2="119" y1="372.7422" y2="446.6445"/><polygon fill="#181818" points="115,436.6445,119,446.6445,123,436.6445,119,440.6445" style="stroke:#181818;stroke-width:1.0;"/><line style="stroke:#181818;stroke-width:1.0;" x1="337.5" x2="337.5" y1="372.7422" y2="392.7422"/><polygon fill="#181818" points="333.5,382.7422,337.5,392.7422,341.5,382.7422,337.5,386.7422" style="stroke:#181818;stroke-width:1.0;"/><line style="stroke:#181818;stroke-width:1.0;" x1="119" x2="119" y1="480.6133" y2="517.4214"/><polygon fill="#181818" points="115,507.4214,119,517.4214,123,507.4214,119,511.4214" style="stroke:#181818;stroke-width:1.0;"/><line style="stroke:#181818;stroke-width:1.0;" x1="235.25" x2="235.25" y1="346.7422" y2="366.7422"/><polygon fill="#181818" points="231.25,356.7422,235.25,366.7422,239.25,356.7422,235.25,360.7422" style="stroke:#181818;stroke-width:1.0;"/><line style="stroke:#181818;stroke-width:1.0;" x1="235.25" x2="235.25" y1="523.4214" y2="543.4214"/><polygon fill="#181818" points="231.25,533.4214,235.25,543.4214,239.25,533.4214,235.25,537.4214" style="stroke:#181818;stroke-width:1.0;"/><line style="stroke:#181818;stroke-width:1.0;" x1="235.25" x2="235.25" y1="577.3901" y2="597.3901"/><polygon fill="#181818" points="231.25,587.3901,235.25,597.3901,239.25,587.3901,235.25,591.3901" style="stroke:#181818;stroke-width:1.0;"/><line style="stroke:#181818;stroke-width:1.0;" x1="235.25" x2="235.25" y1="741.0381" y2="761.0381"/><polygon fill="#181818" points="231.25,751.0381,235.25,761.0381,239.25,751.0381,235.25,755.0381" style="stroke:#181818;stroke-width:1.0;"/><line style="stroke:#181818;stroke-width:1.0;" x1="235.25" x2="235.25" y1="839.0068" y2="860.7173"/><line style="stroke:#181818;stroke-width:1.0;" x1="235.25" x2="383.75" y1="860.7173" y2="860.7173"/><polygon fill="#181818" points="379.75,789.0381,383.75,779.0381,387.75,789.0381,383.75,785.0381" style="stroke:#181818;stroke-width:1.0;"/><line style="stroke:#181818;stroke-width:1.0;" x1="383.75" x2="383.75" y1="663.3589" y2="860.7173"/><line style="stroke:#181818;stroke-width:1.0;" x1="383.75" x2="294.25" y1="663.3589" y2="663.3589"/><polygon fill="#181818" points="304.25,659.3589,294.25,663.3589,304.25,667.3589,300.25,663.3589" style="stroke:#181818;stroke-width:1.0;"/><line style="stroke:#181818;stroke-width:1.0;" x1="305.75" x2="337.75" y1="827.0068" y2="827.0068"/><polygon fill="#181818" points="327.75,823.0068,337.75,827.0068,327.75,831.0068,331.75,827.0068" style="stroke:#181818;stroke-width:1.0;"/><line style="stroke:#181818;stroke-width:1.0;" x1="235.25" x2="235.25" y1="795.0068" y2="815.0068"/><polygon fill="#181818" points="231.25,805.0068,235.25,815.0068,239.25,805.0068,235.25,809.0068" style="stroke:#181818;stroke-width:1.0;"/><line style="stroke:#181818;stroke-width:1.0;" x1="235.25" x2="235.25" y1="675.3589" y2="707.0693"/><polygon fill="#181818" points="231.25,697.0693,235.25,707.0693,239.25,697.0693,235.25,701.0693" style="stroke:#181818;stroke-width:1.0;"/><line style="stroke:#181818;stroke-width:1.0;" x1="176.25" x2="150.75" y1="663.3589" y2="663.3589"/><polygon fill="#181818" points="146.75,775.0381,150.75,785.0381,154.75,775.0381,150.75,779.0381" style="stroke:#181818;stroke-width:1.0;"/><line style="stroke:#181818;stroke-width:1.0;" x1="150.75" x2="150.75" y1="663.3589" y2="872.7173"/><line style="stroke:#181818;stroke-width:1.0;" x1="150.75" x2="235.25" y1="872.7173" y2="872.7173"/><line style="stroke:#181818;stroke-width:1.0;" x1="235.25" x2="235.25" y1="872.7173" y2="892.7173"/><polygon fill="#181818" points="231.25,882.7173,235.25,892.7173,239.25,882.7173,235.25,886.7173" style="stroke:#181818;stroke-width:1.0;"/><line style="stroke:#181818;stroke-width:1.0;" x1="235.25" x2="235.25" y1="631.3589" y2="651.3589"/><polygon fill="#181818" points="231.25,641.3589,235.25,651.3589,239.25,641.3589,235.25,645.3589" style="stroke:#181818;stroke-width:1.0;"/><line style="stroke:#181818;stroke-width:1.0;" x1="235.25" x2="235.25" y1="926.686" y2="946.686"/><polygon fill="#181818" points="231.25,936.686,235.25,946.686,239.25,936.686,235.25,940.686" style="stroke:#181818;stroke-width:1.0;"/><line style="stroke:#181818;stroke-width:1.0;" x1="142.75" x2="142.75" y1="1006.6548" y2="1026.6548"/><polygon fill="#181818" points="138.75,1016.6548,142.75,1026.6548,146.75,1016.6548,142.75,1020.6548" style="stroke:#181818;stroke-width:1.0;"/><line style="stroke:#181818;stroke-width:1.0;" x1="331.75" x2="331.75" y1="1006.6548" y2="1026.6548"/><polygon fill="#181818" points="327.75,1016.6548,331.75,1026.6548,335.75,1016.6548,331.75,1020.6548" style="stroke:#181818;stroke-width:1.0;"/><line style="stroke:#181818;stroke-width:1.0;" x1="142.75" x2="142.75" y1="1060.6235" y2="1080.6235"/><polygon fill="#181818" points="138.75,1070.6235,142.75,1080.6235,146.75,1070.6235,142.75,1074.6235" style="stroke:#181818;stroke-width:1.0;"/><line style="stroke:#181818;stroke-width:1.0;" x1="331.75" x2="331.75" y1="1060.6235" y2="1080.6235"/><polygon fill="#181818" points="327.75,1070.6235,331.75,1080.6235,335.75,1070.6235,331.75,1074.6235" style="stroke:#181818;stroke-width:1.0;"/><line style="stroke:#181818;stroke-width:1.0;" x1="235.25" x2="235.25" y1="980.6548" y2="1000.6548"/><polygon fill="#181818" points="231.25,990.6548,235.25,1000.6548,239.25,990.6548,235.25,994.6548" style="stroke:#181818;stroke-width:1.0;"/><line style="stroke:#181818;stroke-width:1.0;" x1="235.25" x2="235.25" y1="1130.6235" y2="1162.334"/><polygon fill="#181818" points="231.25,1152.334,235.25,1162.334,239.25,1152.334,235.25,1156.334" style="stroke:#181818;stroke-width:1.0;"/><line style="stroke:#181818;stroke-width:1.0;" x1="306.25" x2="332.25" y1="1118.6235" y2="1118.6235"/><polygon fill="#181818" points="322.25,1114.6235,332.25,1118.6235,322.25,1122.6235,326.25,1118.6235" style="stroke:#181818;stroke-width:1.0;"/><line style="stroke:#181818;stroke-width:1.0;" x1="235.25" x2="235.25" y1="1086.6235" y2="1106.6235"/><polygon fill="#181818" points="231.25,1096.6235,235.25,1106.6235,239.25,1096.6235,235.25,1100.6235" style="stroke:#181818;stroke-width:1.0;"/><line style="stroke:#181818;stroke-width:1.0;" x1="235.25" x2="235.25" y1="1240.3027" y2="1272.0132"/><polygon fill="#181818" points="231.25,1262.0132,235.25,1272.0132,239.25,1262.0132,235.25,1266.0132" style="stroke:#181818;stroke-width:1.0;"/><line style="stroke:#181818;stroke-width:1.0;" x1="300.25" x2="326.25" y1="1228.3027" y2="1228.3027"/><polygon fill="#181818" points="316.25,1224.3027,326.25,1228.3027,316.25,1232.3027,320.25,1228.3027" style="stroke:#181818;stroke-width:1.0;"/><line style="stroke:#181818;stroke-width:1.0;" x1="235.25" x2="235.25" y1="1196.3027" y2="1216.3027"/><polygon fill="#181818" points="231.25,1206.3027,235.25,1216.3027,239.25,1206.3027,235.25,1210.3027" style="stroke:#181818;stroke-width:1.0;"/><line style="stroke:#181818;stroke-width:1.0;" x1="159.75" x2="159.75" y1="1278.0132" y2="1298.0132"/><polygon fill="#181818" points="155.75,1288.0132,159.75,1298.0132,163.75,1288.0132,159.75,1292.0132" style="stroke:#181818;stroke-width:1.0;"/><line style="stroke:#181818;stroke-width:1.0;" x1="307.25" x2="307.25" y1="1278.0132" y2="1298.0132"/><polygon fill="#181818" points="303.25,1288.0132,307.25,1298.0132,311.25,1288.0132,307.25,1292.0132" style="stroke:#181818;stroke-width:1.0;"/><line style="stroke:#181818;stroke-width:1.0;" x1="159.75" x2="159.75" y1="1331.9819" y2="1351.9819"/><polygon fill="#181818" points="155.75,1341.9819,159.75,1351.9819,163.75,1341.9819,159.75,1345.9819" style="stroke:#181818;stroke-width:1.0;"/><line style="stroke:#181818;stroke-width:1.0;" x1="307.25" x2="307.25" y1="1331.9819" y2="1351.9819"/><polygon fill="#181818" points="303.25,1341.9819,307.25,1351.9819,311.25,1341.9819,307.25,1345.9819" style="stroke:#181818;stroke-width:1.0;"/><line style="stroke:#181818;stroke-width:1.0;" x1="235.25" x2="235.25" y1="1357.9819" y2="1377.9819"/><polygon fill="#181818" points="231.25,1367.9819,235.25,1377.9819,239.25,1367.9819,235.25,1371.9819" style="stroke:#181818;stroke-width:1.0;"/><line style="stroke:#181818;stroke-width:1.0;" x1="116.25" x2="116.25" y1="1455.9507" y2="1541.6299"/><polygon fill="#181818" points="112.25,1531.6299,116.25,1541.6299,120.25,1531.6299,116.25,1535.6299" style="stroke:#181818;stroke-width:1.0;"/><line style="stroke:#181818;stroke-width:1.0;" x1="306.25" x2="306.25" y1="1455.9507" y2="1487.6611"/><polygon fill="#181818" points="302.25,1477.6611,306.25,1487.6611,310.25,1477.6611,306.25,1481.6611" style="stroke:#181818;stroke-width:1.0;"/><line style="stroke:#181818;stroke-width:1.0;" x1="306.25" x2="306.25" y1="1521.6299" y2="1541.6299"/><polygon fill="#181818" points="302.25,1531.6299,306.25,1541.6299,310.25,1531.6299,306.25,1535.6299" style="stroke:#181818;stroke-width:1.0;"/><line style="stroke:#181818;stroke-width:1.0;" x1="194.75" x2="229.75" y1="1443.9507" y2="1443.9507"/><polygon fill="#181818" points="219.75,1439.9507,229.75,1443.9507,219.75,1447.9507,223.75,1443.9507" style="stroke:#181818;stroke-width:1.0;"/><line style="stroke:#181818;stroke-width:1.0;" x1="235.25" x2="235.25" y1="1411.9507" y2="1416.9507"/><line style="stroke:#181818;stroke-width:1.0;" x1="235.25" x2="116.25" y1="1416.9507" y2="1416.9507"/><line style="stroke:#181818;stroke-width:1.0;" x1="116.25" x2="116.25" y1="1416.9507" y2="1431.9507"/><polygon fill="#181818" points="112.25,1421.9507,116.25,1431.9507,120.25,1421.9507,116.25,1425.9507" style="stroke:#181818;stroke-width:1.0;"/><line style="stroke:#181818;stroke-width:1.0;" x1="382.75" x2="417.75" y1="1443.9507" y2="1443.9507"/><line style="stroke:#181818;stroke-width:1.0;" x1="417.75" x2="417.75" y1="1443.9507" y2="1490.2432"/><polygon fill="#181818" points="413.75,1480.2432,417.75,1490.2432,421.75,1480.2432,417.75,1484.2432" style="stroke:#181818;stroke-width:1.0;"/><line style="stroke:#181818;stroke-width:1.0;" x1="116.25" x2="306.25" y1="1541.6299" y2="1541.6299"/><line style="stroke:#181818;stroke-width:1.0;" x1="103.25" x2="103.25" y1="1585.6299" y2="1671.3091"/><polygon fill="#181818" points="99.25,1661.3091,103.25,1671.3091,107.25,1661.3091,103.25,1665.3091" style="stroke:#181818;stroke-width:1.0;"/><line style="stroke:#181818;stroke-width:1.0;" x1="277.75" x2="277.75" y1="1585.6299" y2="1617.3403"/><polygon fill="#181818" points="273.75,1607.3403,277.75,1617.3403,281.75,1607.3403,277.75,1611.3403" style="stroke:#181818;stroke-width:1.0;"/><line style="stroke:#181818;stroke-width:1.0;" x1="277.75" x2="277.75" y1="1651.3091" y2="1671.3091"/><polygon fill="#181818" points="273.75,1661.3091,277.75,1671.3091,281.75,1661.3091,277.75,1665.3091" style="stroke:#181818;stroke-width:1.0;"/><line style="stroke:#181818;stroke-width:1.0;" x1="153.25" x2="188.25" y1="1573.6299" y2="1573.6299"/><polygon fill="#181818" points="178.25,1569.6299,188.25,1573.6299,178.25,1577.6299,182.25,1573.6299" style="stroke:#181818;stroke-width:1.0;"/><line style="stroke:#181818;stroke-width:1.0;" x1="235.25" x2="235.25" y1="1541.6299" y2="1546.6299"/><line style="stroke:#181818;stroke-width:1.0;" x1="235.25" x2="103.25" y1="1546.6299" y2="1546.6299"/><line style="stroke:#181818;stroke-width:1.0;" x1="103.25" x2="103.25" y1="1546.6299" y2="1561.6299"/><polygon fill="#181818" points="99.25,1551.6299,103.25,1561.6299,107.25,1551.6299,103.25,1555.6299" style="stroke:#181818;stroke-width:1.0;"/><line style="stroke:#181818;stroke-width:1.0;" x1="367.25" x2="402.25" y1="1573.6299" y2="1573.6299"/><line style="stroke:#181818;stroke-width:1.0;" x1="402.25" x2="402.25" y1="1573.6299" y2="1619.9224"/><polygon fill="#181818" points="398.25,1609.9224,402.25,1619.9224,406.25,1609.9224,402.25,1613.9224" style="stroke:#181818;stroke-width:1.0;"/><line style="stroke:#181818;stroke-width:1.0;" x1="103.25" x2="277.75" y1="1671.3091" y2="1671.3091"/><line style="stroke:#181818;stroke-width:1.0;" x1="235.25" x2="235.25" y1="1671.3091" y2="1691.3091"/><polygon fill="#181818" points="231.25,1681.3091,235.25,1691.3091,239.25,1681.3091,235.25,1685.3091" style="stroke:#181818;stroke-width:1.0;"/><line style="stroke:#181818;stroke-width:1.0;" x1="235.25" x2="235.25" y1="1725.2778" y2="1745.2778"/><polygon fill="#181818" points="231.25,1735.2778,235.25,1745.2778,239.25,1735.2778,235.25,1739.2778" style="stroke:#181818;stroke-width:1.0;"/><line style="stroke:#181818;stroke-width:1.0;" x1="235.25" x2="235.25" y1="1779.2466" y2="1799.2466"/><polygon fill="#181818" points="231.25,1789.2466,235.25,1799.2466,239.25,1789.2466,235.25,1793.2466" style="stroke:#181818;stroke-width:1.0;"/><line style="stroke:#181818;stroke-width:1.0;" x1="235.25" x2="235.25" y1="1833.2153" y2="1853.2153"/><polygon fill="#181818" points="231.25,1843.2153,235.25,1853.2153,239.25,1843.2153,235.25,1847.2153" style="stroke:#181818;stroke-width:1.0;"/><line style="stroke:#181818;stroke-width:1.0;" x1="235.25" x2="235.25" y1="1887.1841" y2="1907.1841"/><polygon fill="#181818" points="231.25,1897.1841,235.25,1907.1841,239.25,1897.1841,235.25,1901.1841" style="stroke:#181818;stroke-width:1.0;"/><line style="stroke:#181818;stroke-width:1.0;" x1="235.25" x2="235.25" y1="2043.5239" y2="2063.5239"/><polygon fill="#181818" points="231.25,2053.5239,235.25,2063.5239,239.25,2053.5239,235.25,2057.5239" style="stroke:#181818;stroke-width:1.0;"/><line style="stroke:#181818;stroke-width:1.0;" x1="235.25" x2="235.25" y1="1985.1528" y2="2009.5552"/><polygon fill="#181818" points="231.25,1999.5552,235.25,2009.5552,239.25,1999.5552,235.25,2003.5552" style="stroke:#181818;stroke-width:1.0;"/><line style="stroke:#181818;stroke-width:1.0;" x1="314.75" x2="340.75" y1="1973.1528" y2="1973.1528"/><polygon fill="#181818" points="330.75,1969.1528,340.75,1973.1528,330.75,1977.1528,334.75,1973.1528" style="stroke:#181818;stroke-width:1.0;"/><line style="stroke:#181818;stroke-width:1.0;" x1="235.25" x2="235.25" y1="1941.1528" y2="1961.1528"/><polygon fill="#181818" points="231.25,1951.1528,235.25,1961.1528,239.25,1951.1528,235.25,1955.1528" style="stroke:#181818;stroke-width:1.0;"/><!--SRC=[dLHDZzem4BtdLymH3lq3uOGAg4ZxGPUjgXvDCWdJEhPbEw7PNz-n7RA1BjrLEKJ2VlQyDs-UdHVMP_aAAr88_eYmQwtH3XSPLJ3RMNsGsC1UouvKFGy81RCVwERPx47F0QN311I5fm9XsnYhEsnG-Gjq048uaW7_dDScGrLIbULxb5Xu4F243eKjZh12HxLA3BwsGf8NdZgyNPr1oh-Bkc-bfmRzKPSVerPf-okkSNywbDh0IdW1dxKCZ4ahs4d1F0CEH2r89VG0IEYb4hBdrWW9prfBjuYOm6UjT5iVq-e5eG2u93KIYrkH77yZltnRSg-fwgDxUz-MFUp9iu5dLuKgGqiBIuV1ukJg8ZiTINALzMzodkqDDhT1rnp8JRZaJzWHdk2EhxN2jnQJY7pT2TaApsMvzQxY4T2sVnKuNPtSVQNqKjk5x57fG3IivnjjcrQ6gkF0F1v-1aCwvEw-jV-bDvghkh0_DJMsPuF2qO5uodfuHjkulmqTTORkJV2BqOKWTop7pKiWYH_Cm7VBhPr6W2tY50evnZ3-WwM9wVgF-OrIxtGTd2xUa1WcESgROCOHcmvqOXH7-nxHktWe9VPsz1uD9uzUH0pDiXCanNLp8ei1bngTgjrKzyy8NLJVjyR8-2IzI-0L6YaCYRrjN4ptovbhlbMS46CndHxTt12ZLHscCpaTvuZuB6ECjfutTXQDi26SVEhCDBql-R0MBkGtp2KBDgtbQomiurFau06nl9gCwV26wy9Bi64lzUdJDxCuH-ocl3y0]--></g></svg>