<?xml version="1.0" encoding="us-ascii" standalone="no"?><svg xmlns="http://www.w3.org/2000/svg" xmlns:xlink="http://www.w3.org/1999/xlink" contentStyleType="text/css" height="2251px" preserveAspectRatio="none" style="width:1014px;height:2251px;background:#FFFFFF;" version="1.1" viewBox="0 0 1014 2251" width="1014px" zoomAndPan="magnify"><defs/><g><rect fill="none" height="20.9531" style="stroke:none;stroke-width:1.0;" width="981" x="15" y="12.7451"/><ellipse cx="195" cy="48.6982" fill="#222222" rx="10" ry="10" style="stroke:#222222;stroke-width:1.0;"/><path d="M266.5,68.6982 L266.5,92.3975 L246.5,96.3975 L266.5,100.3975 L266.5,124.0967 A0,0 0 0 0 266.5,124.0967 L391.5,124.0967 A0,0 0 0 0 391.5,124.0967 L391.5,78.6982 L381.5,68.6982 L266.5,68.6982 A0,0 0 0 0 266.5,68.6982 " fill="#FEFFDD" style="stroke:#181818;stroke-width:0.5;"/><path d="M381.5,68.6982 L381.5,78.6982 L391.5,78.6982 L381.5,68.6982 " fill="#FEFFDD" style="stroke:#181818;stroke-width:0.5;"/><ellipse cx="278" cy="81.3311" fill="#000000" rx="2.5" ry="2.5" style="stroke:#000000;stroke-width:0.0;"/><text fill="#000000" font-family="sans-serif" font-size="13" lengthAdjust="spacing" textLength="64" x="284.5" y="85.7651">Narrative;</text><ellipse cx="278" cy="96.4639" fill="#000000" rx="2.5" ry="2.5" style="stroke:#000000;stroke-width:0.0;"/><text fill="#000000" font-family="sans-serif" font-size="13" lengthAdjust="spacing" textLength="77" x="284.5" y="100.8979">Systematic;</text><ellipse cx="278" cy="111.5967" fill="#000000" rx="2.5" ry="2.5" style="stroke:#000000;stroke-width:0.0;"/><text fill="#000000" font-family="sans-serif" font-size="13" lengthAdjust="spacing" textLength="92" x="284.5" y="116.0308">Meta-analysis.</text><rect fill="#F1F1F1" height="33.9688" rx="12.5" ry="12.5" style="stroke:#181818;stroke-width:0.5;" width="103" x="143.5" y="79.4131"/><text fill="#000000" font-family="sans-serif" font-size="12" lengthAdjust="spacing" textLength="83" x="153.5" y="100.5518">Select a Type</text><rect fill="#F1F1F1" height="33.9688" rx="12.5" ry="12.5" style="stroke:#181818;stroke-width:0.5;" width="173" x="108.5" y="144.0967"/><text fill="#000000" font-family="sans-serif" font-size="12" lengthAdjust="spacing" textLength="153" x="118.5" y="165.2354">Set Up Collecting System</text><polygon fill="#F1F1F1" points="136.5,218.0654,253.5,218.0654,265.5,230.0654,253.5,242.0654,136.5,242.0654,124.5,230.0654,136.5,218.0654" style="stroke:#181818;stroke-width:0.5;"/><text fill="#000000" font-family="sans-serif" font-size="11" lengthAdjust="spacing" textLength="117" x="136.5" y="233.8735">Enough Functionality</text><text fill="#000000" font-family="sans-serif" font-size="11" lengthAdjust="spacing" textLength="15" x="265.5" y="227.4712">No</text><rect fill="#F1F1F1" height="33.9688" rx="12.5" ry="12.5" style="stroke:#181818;stroke-width:0.5;" width="165" x="112.5" y="387.2622"/><text fill="#000000" font-family="sans-serif" font-size="12" lengthAdjust="spacing" textLength="145" x="122.5" y="408.4009">Define Feasibility Terms</text><rect fill="#F1F1F1" height="33.9688" rx="12.5" ry="12.5" style="stroke:#181818;stroke-width:0.5;" width="134" x="128" y="441.231"/><text fill="#000000" font-family="sans-serif" font-size="12" lengthAdjust="spacing" textLength="114" x="138" y="462.3696">Evaluate Feasibility</text><polygon fill="#F1F1F1" points="148,549.1685,242,549.1685,254,561.1685,242,573.1685,148,573.1685,136,561.1685,148,549.1685" style="stroke:#181818;stroke-width:0.5;"/><text fill="#000000" font-family="sans-serif" font-size="11" lengthAdjust="spacing" textLength="94" x="148" y="564.9766">Feasible Review</text><text fill="#000000" font-family="sans-serif" font-size="11" lengthAdjust="spacing" textLength="15" x="254" y="558.5742">No</text><rect fill="#F1F1F1" height="33.9688" rx="12.5" ry="12.5" style="stroke:#181818;stroke-width:0.5;" width="116" x="286" y="485.1997"/><text fill="#000000" font-family="sans-serif" font-size="12" lengthAdjust="spacing" textLength="96" x="296" y="506.3384">Optimize Terms</text><rect fill="#F1F1F1" height="33.9688" rx="12.5" ry="12.5" style="stroke:#181818;stroke-width:0.5;" width="129" x="130.5" y="614.5674"/><text fill="#000000" font-family="sans-serif" font-size="12" lengthAdjust="spacing" textLength="109" x="140.5" y="635.7061">Identify Keywords</text><rect fill="#555555" height="6" rx="2.5" ry="2.5" style="stroke:#555555;stroke-width:1.0;" width="298" x="46" y="724.2466"/><rect fill="#F1F1F1" height="33.9688" rx="12.5" ry="12.5" style="stroke:#181818;stroke-width:0.5;" width="123" x="60" y="750.2466"/><text fill="#000000" font-family="sans-serif" font-size="12" lengthAdjust="spacing" textLength="103" x="70" y="771.3853">Search Database</text><rect fill="#F1F1F1" height="33.9688" rx="12.5" ry="12.5" style="stroke:#181818;stroke-width:0.5;" width="119" x="211" y="750.2466"/><text fill="#000000" font-family="sans-serif" font-size="12" lengthAdjust="spacing" textLength="99" x="221" y="771.3853">Select Literature</text><rect fill="#555555" height="6" rx="2.5" ry="2.5" style="stroke:#555555;stroke-width:1.0;" width="298" x="46" y="804.2153"/><polygon fill="#F1F1F1" points="139,668.5361,251,668.5361,263,680.5361,251,692.5361,139,692.5361,127,680.5361,139,668.5361" style="stroke:#181818;stroke-width:0.5;"/><text fill="#000000" font-family="sans-serif" font-size="11" lengthAdjust="spacing" textLength="21" x="199" y="702.7466">Yes</text><text fill="#000000" font-family="sans-serif" font-size="11" lengthAdjust="spacing" textLength="112" x="139" y="684.3442">Available Database</text><text fill="#000000" font-family="sans-serif" font-size="11" lengthAdjust="spacing" textLength="15" x="112" y="677.9419">No</text><path d="M279,842.2153 L279,873.481 L259,877.481 L279,881.481 L279,912.7466 A0,0 0 0 0 279,912.7466 L412,912.7466 A0,0 0 0 0 412,912.7466 L412,852.2153 L402,842.2153 L279,842.2153 A0,0 0 0 0 279,842.2153 " fill="#FEFFDD" style="stroke:#181818;stroke-width:0.5;"/><path d="M402,842.2153 L402,852.2153 L412,852.2153 L402,842.2153 " fill="#FEFFDD" style="stroke:#181818;stroke-width:0.5;"/><ellipse cx="290.5" cy="854.8481" fill="#000000" rx="2.5" ry="2.5" style="stroke:#000000;stroke-width:0.0;"/><text fill="#000000" font-family="sans-serif" font-size="13" lengthAdjust="spacing" textLength="91" x="297" y="859.2822">Chronological;</text><ellipse cx="290.5" cy="869.981" fill="#000000" rx="2.5" ry="2.5" style="stroke:#000000;stroke-width:0.0;"/><text fill="#000000" font-family="sans-serif" font-size="13" lengthAdjust="spacing" textLength="65" x="297" y="874.415">Thematic;</text><ellipse cx="290.5" cy="885.1138" fill="#000000" rx="2.5" ry="2.5" style="stroke:#000000;stroke-width:0.0;"/><text fill="#000000" font-family="sans-serif" font-size="13" lengthAdjust="spacing" textLength="100" x="297" y="889.5479">Methodological;</text><ellipse cx="290.5" cy="900.2466" fill="#000000" rx="2.5" ry="2.5" style="stroke:#000000;stroke-width:0.0;"/><text fill="#000000" font-family="sans-serif" font-size="13" lengthAdjust="spacing" textLength="75" x="297" y="904.6807">Theoretical.</text><rect fill="#F1F1F1" height="33.9688" rx="12.5" ry="12.5" style="stroke:#181818;stroke-width:0.5;" width="128" x="131" y="860.4966"/><text fill="#000000" font-family="sans-serif" font-size="12" lengthAdjust="spacing" textLength="108" x="141" y="881.6353">Select a Structure</text><path d="M279.5,929.5981 L279.5,945.731 L259.5,949.731 L279.5,953.731 L279.5,969.8638 A0,0 0 0 0 279.5,969.8638 L407.5,969.8638 A0,0 0 0 0 407.5,969.8638 L407.5,939.5981 L397.5,929.5981 L279.5,929.5981 A0,0 0 0 0 279.5,929.5981 " fill="#FEFFDD" style="stroke:#181818;stroke-width:0.5;"/><path d="M397.5,929.5981 L397.5,939.5981 L407.5,939.5981 L397.5,929.5981 " fill="#FEFFDD" style="stroke:#181818;stroke-width:0.5;"/><text fill="#000000" font-family="sans-serif" font-size="13" lengthAdjust="spacing" textLength="103" x="285.5" y="946.665">Sources reflects</text><text fill="#000000" font-family="sans-serif" font-size="13" lengthAdjust="spacing" textLength="87" x="285.5" y="961.7979">the structure.</text><rect fill="#F1F1F1" height="33.9688" rx="12.5" ry="12.5" style="stroke:#181818;stroke-width:0.5;" width="129" x="130.5" y="932.7466"/><text fill="#000000" font-family="sans-serif" font-size="12" lengthAdjust="spacing" textLength="109" x="140.5" y="953.8853">Organize Sources</text><polygon fill="#F1F1F1" points="75.5,989.8638,105.5,989.8638,117.5,1001.8638,105.5,1013.8638,75.5,1013.8638,63.5,1001.8638,75.5,989.8638" style="stroke:#181818;stroke-width:0.5;"/><text fill="#000000" font-family="sans-serif" font-size="11" lengthAdjust="spacing" textLength="21" x="94.5" y="1024.0742">Yes</text><text fill="#000000" font-family="sans-serif" font-size="11" lengthAdjust="spacing" textLength="30" x="75.5" y="1005.6719">Flood</text><rect fill="#F1F1F1" height="33.9688" rx="12.5" ry="12.5" style="stroke:#181818;stroke-width:0.5;" width="111" x="35" y="1045.5742"/><text fill="#000000" font-family="sans-serif" font-size="12" lengthAdjust="spacing" textLength="91" x="45" y="1066.7129">Filter Literature</text><polygon fill="#F1F1F1" points="231,989.8638,255,989.8638,267,1001.8638,255,1013.8638,231,1013.8638,219,1001.8638,231,989.8638" style="stroke:#181818;stroke-width:0.5;"/><text fill="#000000" font-family="sans-serif" font-size="11" lengthAdjust="spacing" textLength="21" x="247" y="1024.0742">Yes</text><text fill="#000000" font-family="sans-serif" font-size="11" lengthAdjust="spacing" textLength="23" x="231.5" y="1005.6719">Gap</text><text fill="#000000" font-family="sans-serif" font-size="11" lengthAdjust="spacing" textLength="15" x="204" y="999.2695">No</text><text fill="#000000" font-family="sans-serif" font-size="11" lengthAdjust="spacing" textLength="15" x="267" y="999.2695">No</text><rect fill="#F1F1F1" height="33.9688" rx="12.5" ry="12.5" style="stroke:#181818;stroke-width:0.5;" width="124" x="181" y="1045.5742"/><text fill="#000000" font-family="sans-serif" font-size="12" lengthAdjust="spacing" textLength="104" x="191" y="1066.7129">Source Literature</text><rect fill="#F1F1F1" height="33.9688" rx="12.5" ry="12.5" style="stroke:#181818;stroke-width:0.5;" width="115" x="137.5" y="1119.543"/><text fill="#000000" font-family="sans-serif" font-size="12" lengthAdjust="spacing" textLength="95" x="147.5" y="1140.6816">Study Literature</text><line style="stroke:#000000;stroke-width:1.5;" x1="15" x2="15" y1="12.7451" y2="2239.4668"/><rect fill="#DCDCDC" height="2226.7217" style="stroke:#DCDCDC;stroke-width:1.0;" width="291" x="417" y="12.7451"/><rect fill="#F1F1F1" height="33.9688" rx="12.5" ry="12.5" style="stroke:#181818;stroke-width:0.5;" width="168" x="478" y="279.3247"/><text fill="#000000" font-family="sans-serif" font-size="12" lengthAdjust="spacing" textLength="148" x="488" y="300.4634">Define a Preliminary Title</text><rect fill="#F1F1F1" height="33.9688" rx="12.5" ry="12.5" style="stroke:#181818;stroke-width:0.5;" width="128" x="498" y="333.2935"/><text fill="#000000" font-family="sans-serif" font-size="12" lengthAdjust="spacing" textLength="108" x="508" y="354.4321">Define Objectives</text><rect fill="#F1F1F1" height="33.9688" rx="12.5" ry="12.5" style="stroke:#181818;stroke-width:0.5;" width="139" x="492.5" y="1173.5117"/><text fill="#000000" font-family="sans-serif" font-size="12" lengthAdjust="spacing" textLength="119" x="502.5" y="1194.6504">Structure an Outline</text><polygon fill="#F1F1F1" points="506,1247.4805,618,1247.4805,630,1259.4805,618,1271.4805,506,1271.4805,494,1259.4805,506,1247.4805" style="stroke:#181818;stroke-width:0.5;"/><text fill="#000000" font-family="sans-serif" font-size="11" lengthAdjust="spacing" textLength="112" x="506" y="1263.2886">Satisfactory Outline</text><text fill="#000000" font-family="sans-serif" font-size="11" lengthAdjust="spacing" textLength="15" x="630" y="1256.8862">No</text><rect fill="#F1F1F1" height="33.9688" rx="12.5" ry="12.5" style="stroke:#181818;stroke-width:0.5;" width="141" x="491.5" y="1312.8794"/><text fill="#000000" font-family="sans-serif" font-size="12" lengthAdjust="spacing" textLength="121" x="501.5" y="1334.0181">Summarize Findings</text><rect fill="#555555" height="6" rx="2.5" ry="2.5" style="stroke:#555555;stroke-width:1.0;" width="280" x="423" y="1366.8481"/><rect fill="#F1F1F1" height="33.9688" rx="12.5" ry="12.5" style="stroke:#181818;stroke-width:0.5;" width="99" x="435" y="1435.2505"/><text fill="#000000" font-family="sans-serif" font-size="12" lengthAdjust="spacing" textLength="79" x="445" y="1456.3892">Identify Gaps</text><rect fill="#F1F1F1" height="33.9688" rx="12.5" ry="12.5" style="stroke:#181818;stroke-width:0.5;" width="64" x="599.5" y="1453.6528"/><text fill="#000000" font-family="sans-serif" font-size="12" lengthAdjust="spacing" textLength="44" x="609.5" y="1474.7915">Fill Gap</text><polygon fill="#F1F1F1" points="598,1392.8481,665,1392.8481,677,1404.8481,665,1416.8481,598,1416.8481,586,1404.8481,598,1392.8481" style="stroke:#181818;stroke-width:0.5;"/><text fill="#000000" font-family="sans-serif" font-size="11" lengthAdjust="spacing" textLength="21" x="635.5" y="1427.0586">Yes</text><text fill="#000000" font-family="sans-serif" font-size="11" lengthAdjust="spacing" textLength="67" x="598" y="1408.6563">Fillable Gap</text><text fill="#000000" font-family="sans-serif" font-size="11" lengthAdjust="spacing" textLength="15" x="571" y="1402.2539">No</text><rect fill="#555555" height="6" rx="2.5" ry="2.5" style="stroke:#555555;stroke-width:1.0;" width="280" x="423" y="1529.6216"/><rect fill="#F1F1F1" height="33.9688" rx="12.5" ry="12.5" style="stroke:#181818;stroke-width:0.5;" width="97" x="513.5" y="1555.6216"/><text fill="#000000" font-family="sans-serif" font-size="12" lengthAdjust="spacing" textLength="77" x="523.5" y="1576.7603">Cite Sources</text><rect fill="#F1F1F1" height="33.9688" rx="12.5" ry="12.5" style="stroke:#181818;stroke-width:0.5;" width="122" x="501" y="1609.5903"/><text fill="#000000" font-family="sans-serif" font-size="12" lengthAdjust="spacing" textLength="102" x="511" y="1630.729">Write the Review</text><rect fill="#F1F1F1" height="33.9688" rx="12.5" ry="12.5" style="stroke:#181818;stroke-width:0.5;" width="131" x="496.5" y="1663.5591"/><text fill="#000000" font-family="sans-serif" font-size="12" lengthAdjust="spacing" textLength="111" x="506.5" y="1684.6978">Edit and Proofread</text><polygon fill="#F1F1F1" points="518.5,1737.5278,605.5,1737.5278,617.5,1749.5278,605.5,1761.5278,518.5,1761.5278,506.5,1749.5278,518.5,1737.5278" style="stroke:#181818;stroke-width:0.5;"/><text fill="#000000" font-family="sans-serif" font-size="11" lengthAdjust="spacing" textLength="87" x="518.5" y="1753.3359">Mistakes Found</text><text fill="#000000" font-family="sans-serif" font-size="11" lengthAdjust="spacing" textLength="21" x="617.5" y="1746.9336">Yes</text><rect fill="#F1F1F1" height="33.9688" rx="12.5" ry="12.5" style="stroke:#181818;stroke-width:0.5;" width="137" x="493.5" y="1852.7559"/><text fill="#000000" font-family="sans-serif" font-size="12" lengthAdjust="spacing" textLength="117" x="503.5" y="1873.8945">Finalize and Format</text><line style="stroke:#000000;stroke-width:1.5;" x1="417" x2="417" y1="12.7451" y2="2239.4668"/><rect fill="#F1F1F1" height="33.9688" rx="12.5" ry="12.5" style="stroke:#181818;stroke-width:0.5;" width="115" x="793.5" y="1798.7871"/><text fill="#000000" font-family="sans-serif" font-size="12" lengthAdjust="spacing" textLength="95" x="803.5" y="1819.9258">Seek Feedback</text><rect fill="#F1F1F1" height="33.9688" rx="12.5" ry="12.5" style="stroke:#181818;stroke-width:0.5;" width="161" x="770.5" y="1955.127"/><text fill="#000000" font-family="sans-serif" font-size="12" lengthAdjust="spacing" textLength="141" x="780.5" y="1976.2656">Incorporate Into Project</text><polygon fill="#F1F1F1" points="798,1906.7246,904,1906.7246,916,1918.7246,904,1930.7246,798,1930.7246,786,1918.7246,798,1906.7246" style="stroke:#181818;stroke-width:0.5;"/><text fill="#000000" font-family="sans-serif" font-size="11" lengthAdjust="spacing" textLength="15" x="855" y="1940.9351">No</text><text fill="#000000" font-family="sans-serif" font-size="11" lengthAdjust="spacing" textLength="106" x="798" y="1922.5327">Stand-Alone Paper</text><text fill="#000000" font-family="sans-serif" font-size="11" lengthAdjust="spacing" textLength="21" x="916" y="1916.1304">Yes</text><polygon fill="#F1F1F1" points="851,2009.0957,863,2021.0957,851,2033.0957,839,2021.0957,851,2009.0957" style="stroke:#181818;stroke-width:0.5;"/><rect fill="#555555" height="6" rx="2.5" ry="2.5" style="stroke:#555555;stroke-width:1.0;" width="276" x="714" y="2101.498"/><rect fill="#F1F1F1" height="33.9688" rx="12.5" ry="12.5" style="stroke:#181818;stroke-width:0.5;" width="112" x="726" y="2127.498"/><text fill="#000000" font-family="sans-serif" font-size="12" lengthAdjust="spacing" textLength="92" x="736" y="2148.6367">Monitor Review</text><rect fill="#F1F1F1" height="33.9688" rx="12.5" ry="12.5" style="stroke:#181818;stroke-width:0.5;" width="110" x="866" y="2127.498"/><text fill="#000000" font-family="sans-serif" font-size="12" lengthAdjust="spacing" textLength="90" x="876" y="2148.6367">Sustain Review</text><rect fill="#555555" height="6" rx="2.5" ry="2.5" style="stroke:#555555;stroke-width:1.0;" width="276" x="714" y="2181.4668"/><ellipse cx="851" cy="2217.4668" fill="none" rx="10" ry="10" style="stroke:#222222;stroke-width:1.5;"/><line style="stroke:#222222;stroke-width:2.5;" x1="844.8128" x2="857.1872" y1="2211.2796" y2="2223.654"/><line style="stroke:#222222;stroke-width:2.5;" x1="857.1872" x2="844.8128" y1="2211.2796" y2="2223.654"/><polygon fill="#F1F1F1" points="783.5,2053.0957,918.5,2053.0957,930.5,2065.0957,918.5,2077.0957,783.5,2077.0957,771.5,2065.0957,783.5,2053.0957" style="stroke:#181818;stroke-width:0.5;"/><text fill="#000000" font-family="sans-serif" font-size="11" lengthAdjust="spacing" textLength="21" x="855" y="2087.3062">Yes</text><text fill="#000000" font-family="sans-serif" font-size="11" lengthAdjust="spacing" textLength="135" x="783.5" y="2068.9038">Further Actions Needed</text><text fill="#000000" font-family="sans-serif" font-size="11" lengthAdjust="spacing" textLength="15" x="930.5" y="2062.5015">No</text><ellipse cx="967.5" cy="2065.0957" fill="none" rx="11" ry="11" style="stroke:#222222;stroke-width:1.0;"/><ellipse cx="967.5" cy="2065.0957" fill="#222222" rx="6" ry="6" style="stroke:#222222;stroke-width:1.0;"/><line style="stroke:#000000;stroke-width:1.5;" x1="708" x2="708" y1="12.7451" y2="2239.4668"/><line style="stroke:#000000;stroke-width:1.5;" x1="994" x2="994" y1="12.7451" y2="2239.4668"/><line style="stroke:#181818;stroke-width:1.0;" x1="195" x2="195" y1="58.6982" y2="79.4131"/><polygon fill="#181818" points="191,69.4131,195,79.4131,199,69.4131,195,73.4131" style="stroke:#181818;stroke-width:1.0;"/><line style="stroke:#181818;stroke-width:1.0;" x1="195" x2="195" y1="178.0654" y2="218.0654"/><polygon fill="#181818" points="191,208.0654,195,218.0654,199,208.0654,195,212.0654" style="stroke:#181818;stroke-width:1.0;"/><line style="stroke:#181818;stroke-width:1.0;" x1="265.5" x2="293.5" y1="230.0654" y2="230.0654"/><polygon fill="#181818" points="289.5,198.0654,293.5,188.0654,297.5,198.0654,293.5,194.0654" style="stroke:#181818;stroke-width:1.0;"/><line style="stroke:#181818;stroke-width:1.0;" x1="293.5" x2="293.5" y1="161.0811" y2="230.0654"/><line style="stroke:#181818;stroke-width:1.0;" x1="293.5" x2="281.5" y1="161.0811" y2="161.0811"/><polygon fill="#181818" points="291.5,157.0811,281.5,161.0811,291.5,165.0811,287.5,161.0811" style="stroke:#181818;stroke-width:1.0;"/><line style="stroke:#181818;stroke-width:1.0;" x1="195" x2="195" y1="113.3818" y2="144.0967"/><polygon fill="#181818" points="191,134.0967,195,144.0967,199,134.0967,195,138.0967" style="stroke:#181818;stroke-width:1.0;"/><line style="stroke:#181818;stroke-width:1.0;" x1="195" x2="195" y1="475.1997" y2="549.1685"/><polygon fill="#181818" points="191,539.1685,195,549.1685,199,539.1685,195,543.1685" style="stroke:#181818;stroke-width:1.0;"/><line style="stroke:#181818;stroke-width:1.0;" x1="254" x2="344" y1="561.1685" y2="561.1685"/><line style="stroke:#181818;stroke-width:1.0;" x1="344" x2="344" y1="519.1685" y2="561.1685"/><polygon fill="#181818" points="340,529.1685,344,519.1685,348,529.1685,344,525.1685" style="stroke:#181818;stroke-width:1.0;"/><line style="stroke:#181818;stroke-width:1.0;" x1="344" x2="344" y1="458.2153" y2="485.1997"/><line style="stroke:#181818;stroke-width:1.0;" x1="344" x2="262" y1="458.2153" y2="458.2153"/><polygon fill="#181818" points="272,454.2153,262,458.2153,272,462.2153,268,458.2153" style="stroke:#181818;stroke-width:1.0;"/><line style="stroke:#181818;stroke-width:1.0;" x1="195" x2="195" y1="421.231" y2="441.231"/><polygon fill="#181818" points="191,431.231,195,441.231,199,431.231,195,435.231" style="stroke:#181818;stroke-width:1.0;"/><line style="stroke:#181818;stroke-width:1.0;" x1="195" x2="195" y1="573.1685" y2="614.5674"/><polygon fill="#181818" points="191,604.5674,195,614.5674,199,604.5674,195,608.5674" style="stroke:#181818;stroke-width:1.0;"/><text fill="#000000" font-family="sans-serif" font-size="11" lengthAdjust="spacing" textLength="21" x="199" y="594.4731">Yes</text><line style="stroke:#181818;stroke-width:1.0;" x1="121.5" x2="121.5" y1="730.2466" y2="750.2466"/><polygon fill="#181818" points="117.5,740.2466,121.5,750.2466,125.5,740.2466,121.5,744.2466" style="stroke:#181818;stroke-width:1.0;"/><line style="stroke:#181818;stroke-width:1.0;" x1="270.5" x2="270.5" y1="730.2466" y2="750.2466"/><polygon fill="#181818" points="266.5,740.2466,270.5,750.2466,274.5,740.2466,270.5,744.2466" style="stroke:#181818;stroke-width:1.0;"/><line style="stroke:#181818;stroke-width:1.0;" x1="121.5" x2="121.5" y1="784.2153" y2="804.2153"/><polygon fill="#181818" points="117.5,794.2153,121.5,804.2153,125.5,794.2153,121.5,798.2153" style="stroke:#181818;stroke-width:1.0;"/><line style="stroke:#181818;stroke-width:1.0;" x1="270.5" x2="270.5" y1="784.2153" y2="804.2153"/><polygon fill="#181818" points="266.5,794.2153,270.5,804.2153,274.5,794.2153,270.5,798.2153" style="stroke:#181818;stroke-width:1.0;"/><line style="stroke:#181818;stroke-width:1.0;" x1="195" x2="195" y1="692.5361" y2="724.2466"/><polygon fill="#181818" points="191,714.2466,195,724.2466,199,714.2466,195,718.2466" style="stroke:#181818;stroke-width:1.0;"/><line style="stroke:#181818;stroke-width:1.0;" x1="195" x2="195" y1="810.2153" y2="820.2153"/><line style="stroke:#181818;stroke-width:1.0;" x1="195" x2="356" y1="820.2153" y2="820.2153"/><polygon fill="#181818" points="352,758.8286,356,748.8286,360,758.8286,356,754.8286" style="stroke:#181818;stroke-width:1.0;"/><line style="stroke:#181818;stroke-width:1.0;" x1="356" x2="356" y1="680.5361" y2="820.2153"/><line style="stroke:#181818;stroke-width:1.0;" x1="356" x2="263" y1="680.5361" y2="680.5361"/><polygon fill="#181818" points="273,676.5361,263,680.5361,273,684.5361,269,680.5361" style="stroke:#181818;stroke-width:1.0;"/><line style="stroke:#181818;stroke-width:1.0;" x1="127" x2="34" y1="680.5361" y2="680.5361"/><polygon fill="#181818" points="30,744.8286,34,754.8286,38,744.8286,34,748.8286" style="stroke:#181818;stroke-width:1.0;"/><line style="stroke:#181818;stroke-width:1.0;" x1="34" x2="34" y1="680.5361" y2="832.2153"/><line style="stroke:#181818;stroke-width:1.0;" x1="34" x2="195" y1="832.2153" y2="832.2153"/><line style="stroke:#181818;stroke-width:1.0;" x1="195" x2="195" y1="832.2153" y2="860.4966"/><polygon fill="#181818" points="191,850.4966,195,860.4966,199,850.4966,195,854.4966" style="stroke:#181818;stroke-width:1.0;"/><line style="stroke:#181818;stroke-width:1.0;" x1="195" x2="195" y1="648.5361" y2="668.5361"/><polygon fill="#181818" points="191,658.5361,195,668.5361,199,658.5361,195,662.5361" style="stroke:#181818;stroke-width:1.0;"/><line style="stroke:#181818;stroke-width:1.0;" x1="195" x2="195" y1="894.4653" y2="932.7466"/><polygon fill="#181818" points="191,922.7466,195,932.7466,199,922.7466,195,926.7466" style="stroke:#181818;stroke-width:1.0;"/><line style="stroke:#181818;stroke-width:1.0;" x1="90.5" x2="90.5" y1="1013.8638" y2="1045.5742"/><polygon fill="#181818" points="86.5,1035.5742,90.5,1045.5742,94.5,1035.5742,90.5,1039.5742" style="stroke:#181818;stroke-width:1.0;"/><line style="stroke:#181818;stroke-width:1.0;" x1="90.5" x2="90.5" y1="1079.543" y2="1099.543"/><polygon fill="#181818" points="86.5,1089.543,90.5,1099.543,94.5,1089.543,90.5,1093.543" style="stroke:#181818;stroke-width:1.0;"/><line style="stroke:#181818;stroke-width:1.0;" x1="243" x2="243" y1="1013.8638" y2="1045.5742"/><polygon fill="#181818" points="239,1035.5742,243,1045.5742,247,1035.5742,243,1039.5742" style="stroke:#181818;stroke-width:1.0;"/><line style="stroke:#181818;stroke-width:1.0;" x1="243" x2="243" y1="1079.543" y2="1099.543"/><polygon fill="#181818" points="239,1089.543,243,1099.543,247,1089.543,243,1093.543" style="stroke:#181818;stroke-width:1.0;"/><line style="stroke:#181818;stroke-width:1.0;" x1="117.5" x2="219" y1="1001.8638" y2="1001.8638"/><polygon fill="#181818" points="209,997.8638,219,1001.8638,209,1005.8638,213,1001.8638" style="stroke:#181818;stroke-width:1.0;"/><line style="stroke:#181818;stroke-width:1.0;" x1="195" x2="195" y1="966.7153" y2="974.8638"/><line style="stroke:#181818;stroke-width:1.0;" x1="195" x2="90.5" y1="974.8638" y2="974.8638"/><line style="stroke:#181818;stroke-width:1.0;" x1="90.5" x2="90.5" y1="974.8638" y2="989.8638"/><polygon fill="#181818" points="86.5,979.8638,90.5,989.8638,94.5,979.8638,90.5,983.8638" style="stroke:#181818;stroke-width:1.0;"/><line style="stroke:#181818;stroke-width:1.0;" x1="267" x2="340" y1="1001.8638" y2="1001.8638"/><line style="stroke:#181818;stroke-width:1.0;" x1="340" x2="340" y1="1001.8638" y2="1099.543"/><polygon fill="#181818" points="336,1089.543,340,1099.543,344,1089.543,340,1093.543" style="stroke:#181818;stroke-width:1.0;"/><line style="stroke:#181818;stroke-width:1.0;" x1="90.5" x2="340" y1="1099.543" y2="1099.543"/><line style="stroke:#181818;stroke-width:1.0;" x1="195" x2="195" y1="1099.543" y2="1119.543"/><polygon fill="#181818" points="191,1109.543,195,1119.543,199,1109.543,195,1113.543" style="stroke:#181818;stroke-width:1.0;"/><line style="stroke:#181818;stroke-width:1.0;" x1="562" x2="562" y1="313.2935" y2="333.2935"/><polygon fill="#181818" points="558,323.2935,562,333.2935,566,323.2935,562,327.2935" style="stroke:#181818;stroke-width:1.0;"/><line style="stroke:#181818;stroke-width:1.0;" x1="562" x2="562" y1="1207.4805" y2="1247.4805"/><polygon fill="#181818" points="558,1237.4805,562,1247.4805,566,1237.4805,562,1241.4805" style="stroke:#181818;stroke-width:1.0;"/><line style="stroke:#181818;stroke-width:1.0;" x1="630" x2="643.5" y1="1259.4805" y2="1259.4805"/><polygon fill="#181818" points="639.5,1227.4805,643.5,1217.4805,647.5,1227.4805,643.5,1223.4805" style="stroke:#181818;stroke-width:1.0;"/><line style="stroke:#181818;stroke-width:1.0;" x1="643.5" x2="643.5" y1="1190.4961" y2="1259.4805"/><line style="stroke:#181818;stroke-width:1.0;" x1="643.5" x2="631.5" y1="1190.4961" y2="1190.4961"/><polygon fill="#181818" points="641.5,1186.4961,631.5,1190.4961,641.5,1194.4961,637.5,1190.4961" style="stroke:#181818;stroke-width:1.0;"/><line style="stroke:#181818;stroke-width:1.0;" x1="562" x2="562" y1="1271.4805" y2="1312.8794"/><polygon fill="#181818" points="558,1302.8794,562,1312.8794,566,1302.8794,562,1306.8794" style="stroke:#181818;stroke-width:1.0;"/><text fill="#000000" font-family="sans-serif" font-size="11" lengthAdjust="spacing" textLength="21" x="566" y="1292.7852">Yes</text><line style="stroke:#181818;stroke-width:1.0;" x1="631.5" x2="631.5" y1="1416.8481" y2="1453.6528"/><polygon fill="#181818" points="627.5,1443.6528,631.5,1453.6528,635.5,1443.6528,631.5,1447.6528" style="stroke:#181818;stroke-width:1.0;"/><line style="stroke:#181818;stroke-width:1.0;" x1="631.5" x2="631.5" y1="1487.6216" y2="1497.6216"/><line style="stroke:#181818;stroke-width:1.0;" x1="631.5" x2="689" y1="1497.6216" y2="1497.6216"/><polygon fill="#181818" points="685,1462.2349,689,1452.2349,693,1462.2349,689,1458.2349" style="stroke:#181818;stroke-width:1.0;"/><line style="stroke:#181818;stroke-width:1.0;" x1="689" x2="689" y1="1404.8481" y2="1497.6216"/><line style="stroke:#181818;stroke-width:1.0;" x1="689" x2="677" y1="1404.8481" y2="1404.8481"/><polygon fill="#181818" points="687,1400.8481,677,1404.8481,687,1408.8481,683,1404.8481" style="stroke:#181818;stroke-width:1.0;"/><line style="stroke:#181818;stroke-width:1.0;" x1="586" x2="574" y1="1404.8481" y2="1404.8481"/><polygon fill="#181818" points="570,1448.2349,574,1458.2349,578,1448.2349,574,1452.2349" style="stroke:#181818;stroke-width:1.0;"/><line style="stroke:#181818;stroke-width:1.0;" x1="574" x2="574" y1="1404.8481" y2="1509.6216"/><line style="stroke:#181818;stroke-width:1.0;" x1="574" x2="631.5" y1="1509.6216" y2="1509.6216"/><line style="stroke:#181818;stroke-width:1.0;" x1="631.5" x2="631.5" y1="1509.6216" y2="1529.6216"/><polygon fill="#181818" points="627.5,1519.6216,631.5,1529.6216,635.5,1519.6216,631.5,1523.6216" style="stroke:#181818;stroke-width:1.0;"/><line style="stroke:#181818;stroke-width:1.0;" x1="484.5" x2="484.5" y1="1372.8481" y2="1435.2505"/><polygon fill="#181818" points="480.5,1425.2505,484.5,1435.2505,488.5,1425.2505,484.5,1429.2505" style="stroke:#181818;stroke-width:1.0;"/><line style="stroke:#181818;stroke-width:1.0;" x1="631.5" x2="631.5" y1="1372.8481" y2="1392.8481"/><polygon fill="#181818" points="627.5,1382.8481,631.5,1392.8481,635.5,1382.8481,631.5,1386.8481" style="stroke:#181818;stroke-width:1.0;"/><line style="stroke:#181818;stroke-width:1.0;" x1="484.5" x2="484.5" y1="1469.2192" y2="1529.6216"/><polygon fill="#181818" points="480.5,1519.6216,484.5,1529.6216,488.5,1519.6216,484.5,1523.6216" style="stroke:#181818;stroke-width:1.0;"/><line style="stroke:#181818;stroke-width:1.0;" x1="562" x2="562" y1="1346.8481" y2="1366.8481"/><polygon fill="#181818" points="558,1356.8481,562,1366.8481,566,1356.8481,562,1360.8481" style="stroke:#181818;stroke-width:1.0;"/><line style="stroke:#181818;stroke-width:1.0;" x1="562" x2="562" y1="1535.6216" y2="1555.6216"/><polygon fill="#181818" points="558,1545.6216,562,1555.6216,566,1545.6216,562,1549.6216" style="stroke:#181818;stroke-width:1.0;"/><line style="stroke:#181818;stroke-width:1.0;" x1="562" x2="562" y1="1589.5903" y2="1609.5903"/><polygon fill="#181818" points="558,1599.5903,562,1609.5903,566,1599.5903,562,1603.5903" style="stroke:#181818;stroke-width:1.0;"/><line style="stroke:#181818;stroke-width:1.0;" x1="562" x2="562" y1="1697.5278" y2="1737.5278"/><polygon fill="#181818" points="558,1727.5278,562,1737.5278,566,1727.5278,562,1731.5278" style="stroke:#181818;stroke-width:1.0;"/><line style="stroke:#181818;stroke-width:1.0;" x1="617.5" x2="639.5" y1="1749.5278" y2="1749.5278"/><polygon fill="#181818" points="635.5,1717.5278,639.5,1707.5278,643.5,1717.5278,639.5,1713.5278" style="stroke:#181818;stroke-width:1.0;"/><line style="stroke:#181818;stroke-width:1.0;" x1="639.5" x2="639.5" y1="1680.5435" y2="1749.5278"/><line style="stroke:#181818;stroke-width:1.0;" x1="639.5" x2="627.5" y1="1680.5435" y2="1680.5435"/><polygon fill="#181818" points="637.5,1676.5435,627.5,1680.5435,637.5,1684.5435,633.5,1680.5435" style="stroke:#181818;stroke-width:1.0;"/><line style="stroke:#181818;stroke-width:1.0;" x1="562" x2="562" y1="1643.5591" y2="1663.5591"/><polygon fill="#181818" points="558,1653.5591,562,1663.5591,566,1653.5591,562,1657.5591" style="stroke:#181818;stroke-width:1.0;"/><line style="stroke:#181818;stroke-width:1.0;" x1="851" x2="851" y1="1930.7246" y2="1955.127"/><polygon fill="#181818" points="847,1945.127,851,1955.127,855,1945.127,851,1949.127" style="stroke:#181818;stroke-width:1.0;"/><line style="stroke:#181818;stroke-width:1.0;" x1="916" x2="941.5" y1="1918.7246" y2="1918.7246"/><polygon fill="#181818" points="937.5,1962.1113,941.5,1972.1113,945.5,1962.1113,941.5,1966.1113" style="stroke:#181818;stroke-width:1.0;"/><line style="stroke:#181818;stroke-width:1.0;" x1="941.5" x2="941.5" y1="1918.7246" y2="2021.0957"/><line style="stroke:#181818;stroke-width:1.0;" x1="941.5" x2="863" y1="2021.0957" y2="2021.0957"/><polygon fill="#181818" points="873,2017.0957,863,2021.0957,873,2025.0957,869,2021.0957" style="stroke:#181818;stroke-width:1.0;"/><line style="stroke:#181818;stroke-width:1.0;" x1="851" x2="851" y1="1989.0957" y2="2009.0957"/><polygon fill="#181818" points="847,1999.0957,851,2009.0957,855,1999.0957,851,2003.0957" style="stroke:#181818;stroke-width:1.0;"/><line style="stroke:#181818;stroke-width:1.0;" x1="782" x2="782" y1="2107.498" y2="2127.498"/><polygon fill="#181818" points="778,2117.498,782,2127.498,786,2117.498,782,2121.498" style="stroke:#181818;stroke-width:1.0;"/><line style="stroke:#181818;stroke-width:1.0;" x1="921" x2="921" y1="2107.498" y2="2127.498"/><polygon fill="#181818" points="917,2117.498,921,2127.498,925,2117.498,921,2121.498" style="stroke:#181818;stroke-width:1.0;"/><line style="stroke:#181818;stroke-width:1.0;" x1="782" x2="782" y1="2161.4668" y2="2181.4668"/><polygon fill="#181818" points="778,2171.4668,782,2181.4668,786,2171.4668,782,2175.4668" style="stroke:#181818;stroke-width:1.0;"/><line style="stroke:#181818;stroke-width:1.0;" x1="921" x2="921" y1="2161.4668" y2="2181.4668"/><polygon fill="#181818" points="917,2171.4668,921,2181.4668,925,2171.4668,921,2175.4668" style="stroke:#181818;stroke-width:1.0;"/><line style="stroke:#181818;stroke-width:1.0;" x1="851" x2="851" y1="2187.4668" y2="2207.4668"/><polygon fill="#181818" points="847,2197.4668,851,2207.4668,855,2197.4668,851,2201.4668" style="stroke:#181818;stroke-width:1.0;"/><line style="stroke:#181818;stroke-width:1.0;" x1="851" x2="851" y1="2077.0957" y2="2101.498"/><polygon fill="#181818" points="847,2091.498,851,2101.498,855,2091.498,851,2095.498" style="stroke:#181818;stroke-width:1.0;"/><line style="stroke:#181818;stroke-width:1.0;" x1="930.5" x2="956.5" y1="2065.0957" y2="2065.0957"/><polygon fill="#181818" points="946.5,2061.0957,956.5,2065.0957,946.5,2069.0957,950.5,2065.0957" style="stroke:#181818;stroke-width:1.0;"/><line style="stroke:#181818;stroke-width:1.0;" x1="851" x2="851" y1="2033.0957" y2="2053.0957"/><polygon fill="#181818" points="847,2043.0957,851,2053.0957,855,2043.0957,851,2047.0957" style="stroke:#181818;stroke-width:1.0;"/><line style="stroke:#181818;stroke-width:1.0;" x1="195" x2="195" y1="242.0654" y2="264.3247"/><line style="stroke:#181818;stroke-width:1.0;" x1="195" x2="562" y1="264.3247" y2="264.3247"/><line style="stroke:#181818;stroke-width:1.0;" x1="562" x2="562" y1="264.3247" y2="279.3247"/><polygon fill="#181818" points="558,269.3247,562,279.3247,566,269.3247,562,273.3247" style="stroke:#181818;stroke-width:1.0;"/><text fill="#000000" font-family="sans-serif" font-size="11" lengthAdjust="spacing" textLength="21" x="199" y="257.8247">Yes</text><line style="stroke:#181818;stroke-width:1.0;" x1="562" x2="562" y1="367.2622" y2="372.2622"/><line style="stroke:#181818;stroke-width:1.0;" x1="562" x2="195" y1="372.2622" y2="372.2622"/><line style="stroke:#181818;stroke-width:1.0;" x1="195" x2="195" y1="372.2622" y2="387.2622"/><polygon fill="#181818" points="191,377.2622,195,387.2622,199,377.2622,195,381.2622" style="stroke:#181818;stroke-width:1.0;"/><line style="stroke:#181818;stroke-width:1.0;" x1="195" x2="195" y1="1153.5117" y2="1158.5117"/><line style="stroke:#181818;stroke-width:1.0;" x1="195" x2="562" y1="1158.5117" y2="1158.5117"/><line style="stroke:#181818;stroke-width:1.0;" x1="562" x2="562" y1="1158.5117" y2="1173.5117"/><polygon fill="#181818" points="558,1163.5117,562,1173.5117,566,1163.5117,562,1167.5117" style="stroke:#181818;stroke-width:1.0;"/><line style="stroke:#181818;stroke-width:1.0;" x1="562" x2="562" y1="1761.5278" y2="1783.7871"/><line style="stroke:#181818;stroke-width:1.0;" x1="562" x2="851" y1="1783.7871" y2="1783.7871"/><line style="stroke:#181818;stroke-width:1.0;" x1="851" x2="851" y1="1783.7871" y2="1798.7871"/><polygon fill="#181818" points="847,1788.7871,851,1798.7871,855,1788.7871,851,1792.7871" style="stroke:#181818;stroke-width:1.0;"/><text fill="#000000" font-family="sans-serif" font-size="11" lengthAdjust="spacing" textLength="15" x="566" y="1777.2871">No</text><line style="stroke:#181818;stroke-width:1.0;" x1="851" x2="851" y1="1832.7559" y2="1837.7559"/><line style="stroke:#181818;stroke-width:1.0;" x1="851" x2="562" y1="1837.7559" y2="1837.7559"/><line style="stroke:#181818;stroke-width:1.0;" x1="562" x2="562" y1="1837.7559" y2="1852.7559"/><polygon fill="#181818" points="558,1842.7559,562,1852.7559,566,1842.7559,562,1846.7559" style="stroke:#181818;stroke-width:1.0;"/><line style="stroke:#181818;stroke-width:1.0;" x1="562" x2="562" y1="1886.7246" y2="1891.7246"/><line style="stroke:#181818;stroke-width:1.0;" x1="562" x2="851" y1="1891.7246" y2="1891.7246"/><line style="stroke:#181818;stroke-width:1.0;" x1="851" x2="851" y1="1891.7246" y2="1906.7246"/><polygon fill="#181818" points="847,1896.7246,851,1906.7246,855,1896.7246,851,1900.7246" style="stroke:#181818;stroke-width:1.0;"/><text fill="#000000" font-family="sans-serif" font-size="18" lengthAdjust="spacing" textLength="62" x="185" y="29.4531">Collect</text><text fill="#000000" font-family="sans-serif" font-size="18" lengthAdjust="spacing" textLength="51" x="537" y="29.4531">Write</text><text fill="#000000" font-family="sans-serif" font-size="18" lengthAdjust="spacing" textLength="72" x="815" y="29.4531">Monitor</text><!--SRC=[TLJRZjem47tFLrZgorA9Va2GLbhjBjMg1LQ5gkhZa4mI5-E9nWueApw-uzn8eCqBPZoNCsVE-F9Cnc3YBv7pm3wAjnZ-Ab2xkiH5PCcZOfqNFbBoVLPhO0QlJtBN6hQrytWKKz9RLkXX3XPCxRJx4g5DGvQ8iKJmIYfuzRDKNM5jyox5elSu5zgWUdYrLEM5MbPMl4ZIQL_Fb7RgOKspQFxu6zqYkdpAGLkt9wRBBzOUBr7yWfcsA2syCnfzr1QuLZljZM3kBpVxFw7ugSanSD3VBX6StkjGKUsGZsx05h-Um5JW9pwBQ0_9uGoSnflIIyKFl0dhMcfZvFG3JnhFTzt4RobQhxDQVSFwJ9oAhGjzEe4s469VmCCU7BRH4ZThUC-83yqXV48oS58Clel1HK4WREpOpFkxK2TphRXpbQ4r2UMt0n1WNjMnzLmbhVkTH9uB9ak6Sfs0wKMnA-v4Kb3w3ozYzC5q5KwyuHni87LB5IU1g9kQdLqnPW6VKutL5wXSZ_EQJcSo24EKpeA77L4OBxKH6YPaXBuL6eSXx2kKzq5jyKbGy6yPaw8w4zvybTOJbrwjmrRqG1LOjQcy4HtUocSh1BeC4ayYwCxdNaFRwdW43dGjjLItkHW7SLmL9hrq5oD9z3hLfjLQq_14PZrF9jmDMXbff5TE_2pzNISMD_qsCsd5FrgfL8kaR2hxIfGnGdhR-4hBwtIG0I-fika8qVnnJSBbYgmMKYv1e7YGrSGqREILPK4S7f0FREeiYKMBuxWmtAsNk_cJ8Na0tg54xaSTkcgvimbnIHpM_yrw2e33Cz8Fl87KJhmHMSMIWDLJytuvjHPOUA-wwU9sa0QI_hktbL2YxSIlfxuxZsGOBCvJsQBx2m00]--></g></svg>