<?xml version="1.0" encoding="us-ascii" standalone="no"?><svg xmlns="http://www.w3.org/2000/svg" xmlns:xlink="http://www.w3.org/1999/xlink" contentStyleType="text/css" height="1474px" preserveAspectRatio="none" style="width:617px;height:1474px;background:#FFFFFF;" version="1.1" viewBox="0 0 617 1474" width="617px" zoomAndPan="magnify"><defs/><g><ellipse cx="304" cy="20" fill="#222222" rx="10" ry="10" style="stroke:#222222;stroke-width:1.0;"/><rect fill="#F1F1F1" height="33.9688" rx="12.5" ry="12.5" style="stroke:#181818;stroke-width:0.5;" width="138" x="235" y="50"/><text fill="#000000" font-family="sans-serif" font-size="12" lengthAdjust="spacing" textLength="118" x="245" y="71.1387">Prepare a Research</text><polygon fill="#F1F1F1" points="246.5,123.9688,361.5,123.9688,373.5,135.9688,361.5,147.9688,246.5,147.9688,234.5,135.9688,246.5,123.9688" style="stroke:#181818;stroke-width:0.5;"/><text fill="#000000" font-family="sans-serif" font-size="11" lengthAdjust="spacing" textLength="115" x="246.5" y="139.7769">Ready for Promotion</text><text fill="#000000" font-family="sans-serif" font-size="11" lengthAdjust="spacing" textLength="15" x="373.5" y="133.3745">No</text><path d="M397,237.77 L397,253.9028 L377,257.9028 L397,261.9028 L397,278.0356 A0,0 0 0 0 397,278.0356 L576,278.0356 A0,0 0 0 0 576,278.0356 L576,247.77 L566,237.77 L397,237.77 A0,0 0 0 0 397,237.77 " fill="#FEFFDD" style="stroke:#181818;stroke-width:0.5;"/><path d="M566,237.77 L566,247.77 L576,247.77 L566,237.77 " fill="#FEFFDD" style="stroke:#181818;stroke-width:0.5;"/><text fill="#000000" font-family="sans-serif" font-size="13" lengthAdjust="spacing" textLength="116" x="403" y="254.8369">Publication source</text><text fill="#000000" font-family="sans-serif" font-size="13" lengthAdjust="spacing" textLength="158" x="403" y="269.9697">controlled by the author.</text><rect fill="#F1F1F1" height="33.9688" rx="12.5" ry="12.5" style="stroke:#181818;stroke-width:0.5;" width="146" x="231" y="240.9185"/><text fill="#000000" font-family="sans-serif" font-size="12" lengthAdjust="spacing" textLength="126" x="241" y="262.0571">Deploy the Research</text><polygon fill="#F1F1F1" points="218.5,189.3677,389.5,189.3677,401.5,201.3677,389.5,213.3677,218.5,213.3677,206.5,201.3677,218.5,189.3677" style="stroke:#181818;stroke-width:0.5;"/><text fill="#000000" font-family="sans-serif" font-size="11" lengthAdjust="spacing" textLength="21" x="308" y="223.5781">Yes</text><text fill="#000000" font-family="sans-serif" font-size="11" lengthAdjust="spacing" textLength="171" x="218.5" y="205.1758">Accessible Personal Source(s)</text><text fill="#000000" font-family="sans-serif" font-size="11" lengthAdjust="spacing" textLength="15" x="401.5" y="198.7734">No</text><polygon fill="#F1F1F1" points="304,298.0356,316,310.0356,304,322.0356,292,310.0356,304,298.0356" style="stroke:#181818;stroke-width:0.5;"/><rect fill="#F1F1F1" height="33.9688" rx="12.5" ry="12.5" style="stroke:#181818;stroke-width:0.5;" width="114" x="247" y="390.438"/><text fill="#000000" font-family="sans-serif" font-size="12" lengthAdjust="spacing" textLength="94" x="257" y="411.5767">Find a Publisher</text><rect fill="#F1F1F1" height="33.9688" rx="12.5" ry="12.5" style="stroke:#181818;stroke-width:0.5;" width="144" x="232" y="444.4067"/><text fill="#000000" font-family="sans-serif" font-size="12" lengthAdjust="spacing" textLength="124" x="242" y="465.5454">Publish the Research</text><polygon fill="#F1F1F1" points="249.5,567.2778,358.5,567.2778,370.5,579.2778,358.5,591.2778,249.5,591.2778,237.5,579.2778,249.5,567.2778" style="stroke:#181818;stroke-width:0.5;"/><text fill="#000000" font-family="sans-serif" font-size="11" lengthAdjust="spacing" textLength="109" x="249.5" y="583.0859">Guidelines are Met</text><text fill="#000000" font-family="sans-serif" font-size="11" lengthAdjust="spacing" textLength="15" x="370.5" y="576.6836">No</text><rect fill="#F1F1F1" height="33.9688" rx="12.5" ry="12.5" style="stroke:#181818;stroke-width:0.5;" width="138" x="400" y="503.3091"/><text fill="#000000" font-family="sans-serif" font-size="12" lengthAdjust="spacing" textLength="118" x="410" y="524.4478">Adapt the Research</text><polygon fill="#F1F1F1" points="248.5,342.0356,359.5,342.0356,371.5,354.0356,359.5,366.0356,248.5,366.0356,236.5,354.0356,248.5,342.0356" style="stroke:#181818;stroke-width:0.5;"/><text fill="#000000" font-family="sans-serif" font-size="11" lengthAdjust="spacing" textLength="21" x="308" y="376.2461">Yes</text><text fill="#000000" font-family="sans-serif" font-size="11" lengthAdjust="spacing" textLength="111" x="248.5" y="357.8438">Publishing Required</text><text fill="#000000" font-family="sans-serif" font-size="11" lengthAdjust="spacing" textLength="15" x="371.5" y="351.4414">No</text><polygon fill="#F1F1F1" points="304,615.1768,316,627.1768,304,639.1768,292,627.1768,304,615.1768" style="stroke:#181818;stroke-width:0.5;"/><text fill="#000000" font-family="sans-serif" font-size="11" lengthAdjust="spacing" textLength="21" x="310" y="612.5825">Yes</text><rect fill="#F1F1F1" height="33.9688" rx="12.5" ry="12.5" style="stroke:#181818;stroke-width:0.5;" width="147" x="230.5" y="713.1455"/><text fill="#000000" font-family="sans-serif" font-size="12" lengthAdjust="spacing" textLength="127" x="240.5" y="734.2842">Prioritize Key Groups</text><rect fill="#F1F1F1" height="33.9688" rx="12.5" ry="12.5" style="stroke:#181818;stroke-width:0.5;" width="147" x="230.5" y="659.1768"/><text fill="#000000" font-family="sans-serif" font-size="12" lengthAdjust="spacing" textLength="127" x="240.5" y="680.3154">Identify the Audience</text><polygon fill="#F1F1F1" points="252,767.1143,356,767.1143,368,779.1143,356,791.1143,252,791.1143,240,779.1143,252,767.1143" style="stroke:#181818;stroke-width:0.5;"/><text fill="#000000" font-family="sans-serif" font-size="11" lengthAdjust="spacing" textLength="104" x="252" y="782.9224">Reachable Groups</text><text fill="#000000" font-family="sans-serif" font-size="11" lengthAdjust="spacing" textLength="15" x="368" y="776.52">No</text><path d="M396,936.626 L396,952.7588 L376,956.7588 L396,960.7588 L396,976.8916 A0,0 0 0 0 396,976.8916 L557,976.8916 A0,0 0 0 0 557,976.8916 L557,946.626 L547,936.626 L396,936.626 A0,0 0 0 0 396,936.626 " fill="#FEFFDD" style="stroke:#181818;stroke-width:0.5;"/><path d="M547,936.626 L547,946.626 L557,946.626 L547,936.626 " fill="#FEFFDD" style="stroke:#181818;stroke-width:0.5;"/><text fill="#000000" font-family="sans-serif" font-size="13" lengthAdjust="spacing" textLength="129" x="402" y="953.6929">Multimedia resource</text><text fill="#000000" font-family="sans-serif" font-size="13" lengthAdjust="spacing" textLength="140" x="402" y="968.8257">with promotion value.</text><rect fill="#F1F1F1" height="33.9688" rx="12.5" ry="12.5" style="stroke:#181818;stroke-width:0.5;" width="144" x="232" y="939.7744"/><text fill="#000000" font-family="sans-serif" font-size="12" lengthAdjust="spacing" textLength="124" x="242" y="960.9131">Create the Resource</text><polygon fill="#F1F1F1" points="254,888.2236,354,888.2236,366,900.2236,354,912.2236,254,912.2236,242,900.2236,254,888.2236" style="stroke:#181818;stroke-width:0.5;"/><text fill="#000000" font-family="sans-serif" font-size="11" lengthAdjust="spacing" textLength="21" x="308" y="922.4341">Yes</text><text fill="#000000" font-family="sans-serif" font-size="11" lengthAdjust="spacing" textLength="100" x="254" y="904.0317">Feasible Creation</text><text fill="#000000" font-family="sans-serif" font-size="11" lengthAdjust="spacing" textLength="15" x="366" y="897.6294">No</text><polygon fill="#F1F1F1" points="304,996.8916,316,1008.8916,304,1020.8916,292,1008.8916,304,996.8916" style="stroke:#181818;stroke-width:0.5;"/><polygon fill="#F1F1F1" points="219.5,832.5132,388.5,832.5132,400.5,844.5132,388.5,856.5132,219.5,856.5132,207.5,844.5132,219.5,832.5132" style="stroke:#181818;stroke-width:0.5;"/><text fill="#000000" font-family="sans-serif" font-size="11" lengthAdjust="spacing" textLength="21" x="308" y="866.7236">Yes</text><text fill="#000000" font-family="sans-serif" font-size="11" lengthAdjust="spacing" textLength="169" x="219.5" y="848.3213">Possible Multimedia Resource</text><text fill="#000000" font-family="sans-serif" font-size="11" lengthAdjust="spacing" textLength="15" x="192.5" y="841.9189">No</text><path d="M396,1059.7432 L396,1075.876 L376,1079.876 L396,1083.876 L396,1100.0088 A0,0 0 0 0 396,1100.0088 L569,1100.0088 A0,0 0 0 0 569,1100.0088 L569,1069.7432 L559,1059.7432 L396,1059.7432 A0,0 0 0 0 396,1059.7432 " fill="#FEFFDD" style="stroke:#181818;stroke-width:0.5;"/><path d="M559,1059.7432 L559,1069.7432 L569,1069.7432 L559,1059.7432 " fill="#FEFFDD" style="stroke:#181818;stroke-width:0.5;"/><text fill="#000000" font-family="sans-serif" font-size="13" lengthAdjust="spacing" textLength="141" x="402" y="1076.8101">Research outputs and</text><text fill="#000000" font-family="sans-serif" font-size="13" lengthAdjust="spacing" textLength="152" x="402" y="1091.9429">its additional resources.</text><rect fill="#F1F1F1" height="33.9688" rx="12.5" ry="12.5" style="stroke:#181818;stroke-width:0.5;" width="144" x="232" y="1062.8916"/><text fill="#000000" font-family="sans-serif" font-size="12" lengthAdjust="spacing" textLength="124" x="242" y="1084.0303">Promote the Outputs</text><rect fill="#F1F1F1" height="33.9688" rx="12.5" ry="12.5" style="stroke:#181818;stroke-width:0.5;" width="139" x="234.5" y="1120.0088"/><text fill="#000000" font-family="sans-serif" font-size="12" lengthAdjust="spacing" textLength="119" x="244.5" y="1141.1475">Monitor the Outputs</text><polygon fill="#F1F1F1" points="249.5,1227.9463,358.5,1227.9463,370.5,1239.9463,358.5,1251.9463,249.5,1251.9463,237.5,1239.9463,249.5,1227.9463" style="stroke:#181818;stroke-width:0.5;"/><text fill="#000000" font-family="sans-serif" font-size="11" lengthAdjust="spacing" textLength="109" x="249.5" y="1243.7544">Satisfactory Impact</text><text fill="#000000" font-family="sans-serif" font-size="11" lengthAdjust="spacing" textLength="15" x="370.5" y="1237.3521">No</text><rect fill="#F1F1F1" height="33.9688" rx="12.5" ry="12.5" style="stroke:#181818;stroke-width:0.5;" width="129" x="397.5" y="1163.9775"/><text fill="#000000" font-family="sans-serif" font-size="12" lengthAdjust="spacing" textLength="109" x="407.5" y="1185.1162">Adapt the Outputs</text><rect fill="#555555" height="6" rx="2.5" ry="2.5" style="stroke:#555555;stroke-width:1.0;" width="522" x="44" y="1354.1499"/><rect fill="#F1F1F1" height="33.9688" rx="12.5" ry="12.5" style="stroke:#181818;stroke-width:0.5;" width="208" x="56" y="1380.1499"/><text fill="#000000" font-family="sans-serif" font-size="12" lengthAdjust="spacing" textLength="188" x="66" y="1401.2886">Reach Out to a Wider Audience</text><rect fill="#F1F1F1" height="33.9688" rx="12.5" ry="12.5" style="stroke:#181818;stroke-width:0.5;" width="260" x="292" y="1380.1499"/><text fill="#000000" font-family="sans-serif" font-size="12" lengthAdjust="spacing" textLength="240" x="302" y="1401.2886">Engage in Networking and Collaboration</text><rect fill="#555555" height="6" rx="2.5" ry="2.5" style="stroke:#555555;stroke-width:1.0;" width="522" x="44" y="1434.1187"/><polygon fill="#F1F1F1" points="224,1293.3452,384,1293.3452,396,1305.3452,384,1317.3452,224,1317.3452,212,1305.3452,224,1293.3452" style="stroke:#181818;stroke-width:0.5;"/><text fill="#000000" font-family="sans-serif" font-size="11" lengthAdjust="spacing" textLength="15" x="308" y="1327.5557">No</text><text fill="#000000" font-family="sans-serif" font-size="11" lengthAdjust="spacing" textLength="160" x="224" y="1309.1533">Research Potential Reached</text><text fill="#000000" font-family="sans-serif" font-size="11" lengthAdjust="spacing" textLength="21" x="191" y="1302.751">Yes</text><ellipse cx="24" cy="1351.3452" fill="none" rx="10" ry="10" style="stroke:#222222;stroke-width:1.5;"/><line style="stroke:#222222;stroke-width:2.5;" x1="17.8128" x2="30.1872" y1="1345.158" y2="1357.5324"/><line style="stroke:#222222;stroke-width:2.5;" x1="30.1872" x2="17.8128" y1="1345.158" y2="1357.5324"/><line style="stroke:#181818;stroke-width:1.0;" x1="304" x2="304" y1="83.9688" y2="123.9688"/><polygon fill="#181818" points="300,113.9688,304,123.9688,308,113.9688,304,117.9688" style="stroke:#181818;stroke-width:1.0;"/><line style="stroke:#181818;stroke-width:1.0;" x1="373.5" x2="385.5" y1="135.9688" y2="135.9688"/><polygon fill="#181818" points="381.5,103.9688,385.5,93.9688,389.5,103.9688,385.5,99.9688" style="stroke:#181818;stroke-width:1.0;"/><line style="stroke:#181818;stroke-width:1.0;" x1="385.5" x2="385.5" y1="66.9844" y2="135.9688"/><line style="stroke:#181818;stroke-width:1.0;" x1="385.5" x2="373" y1="66.9844" y2="66.9844"/><polygon fill="#181818" points="383,62.9844,373,66.9844,383,70.9844,379,66.9844" style="stroke:#181818;stroke-width:1.0;"/><line style="stroke:#181818;stroke-width:1.0;" x1="304" x2="304" y1="30" y2="50"/><polygon fill="#181818" points="300,40,304,50,308,40,304,44" style="stroke:#181818;stroke-width:1.0;"/><line style="stroke:#181818;stroke-width:1.0;" x1="304" x2="304" y1="213.3677" y2="240.9185"/><polygon fill="#181818" points="300,230.9185,304,240.9185,308,230.9185,304,234.9185" style="stroke:#181818;stroke-width:1.0;"/><line style="stroke:#181818;stroke-width:1.0;" x1="401.5" x2="586" y1="201.3677" y2="201.3677"/><polygon fill="#181818" points="582,247.9028,586,257.9028,590,247.9028,586,251.9028" style="stroke:#181818;stroke-width:1.0;"/><line style="stroke:#181818;stroke-width:1.0;" x1="586" x2="586" y1="201.3677" y2="310.0356"/><line style="stroke:#181818;stroke-width:1.0;" x1="586" x2="316" y1="310.0356" y2="310.0356"/><polygon fill="#181818" points="326,306.0356,316,310.0356,326,314.0356,322,310.0356" style="stroke:#181818;stroke-width:1.0;"/><line style="stroke:#181818;stroke-width:1.0;" x1="304" x2="304" y1="274.8872" y2="298.0356"/><polygon fill="#181818" points="300,288.0356,304,298.0356,308,288.0356,304,292.0356" style="stroke:#181818;stroke-width:1.0;"/><line style="stroke:#181818;stroke-width:1.0;" x1="304" x2="304" y1="147.9688" y2="189.3677"/><polygon fill="#181818" points="300,179.3677,304,189.3677,308,179.3677,304,183.3677" style="stroke:#181818;stroke-width:1.0;"/><text fill="#000000" font-family="sans-serif" font-size="11" lengthAdjust="spacing" textLength="21" x="308" y="169.2734">Yes</text><line style="stroke:#181818;stroke-width:1.0;" x1="304" x2="304" y1="478.3755" y2="567.2778"/><polygon fill="#181818" points="300,557.2778,304,567.2778,308,557.2778,304,561.2778" style="stroke:#181818;stroke-width:1.0;"/><line style="stroke:#181818;stroke-width:1.0;" x1="370.5" x2="469" y1="579.2778" y2="579.2778"/><line style="stroke:#181818;stroke-width:1.0;" x1="469" x2="469" y1="537.2778" y2="579.2778"/><polygon fill="#181818" points="465,547.2778,469,537.2778,473,547.2778,469,543.2778" style="stroke:#181818;stroke-width:1.0;"/><line style="stroke:#181818;stroke-width:1.0;" x1="469" x2="469" y1="461.3911" y2="503.3091"/><line style="stroke:#181818;stroke-width:1.0;" x1="469" x2="376" y1="461.3911" y2="461.3911"/><polygon fill="#181818" points="386,457.3911,376,461.3911,386,465.3911,382,461.3911" style="stroke:#181818;stroke-width:1.0;"/><line style="stroke:#181818;stroke-width:1.0;" x1="304" x2="304" y1="424.4067" y2="444.4067"/><polygon fill="#181818" points="300,434.4067,304,444.4067,308,434.4067,304,438.4067" style="stroke:#181818;stroke-width:1.0;"/><line style="stroke:#181818;stroke-width:1.0;" x1="304" x2="304" y1="366.0356" y2="390.438"/><polygon fill="#181818" points="300,380.438,304,390.438,308,380.438,304,384.438" style="stroke:#181818;stroke-width:1.0;"/><line style="stroke:#181818;stroke-width:1.0;" x1="371.5" x2="548" y1="354.0356" y2="354.0356"/><polygon fill="#181818" points="544,483.3091,548,493.3091,552,483.3091,548,487.3091" style="stroke:#181818;stroke-width:1.0;"/><line style="stroke:#181818;stroke-width:1.0;" x1="548" x2="548" y1="354.0356" y2="627.1768"/><line style="stroke:#181818;stroke-width:1.0;" x1="548" x2="316" y1="627.1768" y2="627.1768"/><polygon fill="#181818" points="326,623.1768,316,627.1768,326,631.1768,322,627.1768" style="stroke:#181818;stroke-width:1.0;"/><line style="stroke:#181818;stroke-width:1.0;" x1="304" x2="304" y1="591.2778" y2="615.1768"/><polygon fill="#181818" points="300,605.1768,304,615.1768,308,605.1768,304,609.1768" style="stroke:#181818;stroke-width:1.0;"/><line style="stroke:#181818;stroke-width:1.0;" x1="304" x2="304" y1="322.0356" y2="342.0356"/><polygon fill="#181818" points="300,332.0356,304,342.0356,308,332.0356,304,336.0356" style="stroke:#181818;stroke-width:1.0;"/><line style="stroke:#181818;stroke-width:1.0;" x1="304" x2="304" y1="693.1455" y2="713.1455"/><polygon fill="#181818" points="300,703.1455,304,713.1455,308,703.1455,304,707.1455" style="stroke:#181818;stroke-width:1.0;"/><line style="stroke:#181818;stroke-width:1.0;" x1="368" x2="389.5" y1="779.1143" y2="779.1143"/><polygon fill="#181818" points="385.5,737.6377,389.5,727.6377,393.5,737.6377,389.5,733.6377" style="stroke:#181818;stroke-width:1.0;"/><line style="stroke:#181818;stroke-width:1.0;" x1="389.5" x2="389.5" y1="676.1611" y2="779.1143"/><line style="stroke:#181818;stroke-width:1.0;" x1="389.5" x2="377.5" y1="676.1611" y2="676.1611"/><polygon fill="#181818" points="387.5,672.1611,377.5,676.1611,387.5,680.1611,383.5,676.1611" style="stroke:#181818;stroke-width:1.0;"/><line style="stroke:#181818;stroke-width:1.0;" x1="304" x2="304" y1="747.1143" y2="767.1143"/><polygon fill="#181818" points="300,757.1143,304,767.1143,308,757.1143,304,761.1143" style="stroke:#181818;stroke-width:1.0;"/><line style="stroke:#181818;stroke-width:1.0;" x1="304" x2="304" y1="639.1768" y2="659.1768"/><polygon fill="#181818" points="300,649.1768,304,659.1768,308,649.1768,304,653.1768" style="stroke:#181818;stroke-width:1.0;"/><line style="stroke:#181818;stroke-width:1.0;" x1="304" x2="304" y1="912.2236" y2="939.7744"/><polygon fill="#181818" points="300,929.7744,304,939.7744,308,929.7744,304,933.7744" style="stroke:#181818;stroke-width:1.0;"/><line style="stroke:#181818;stroke-width:1.0;" x1="366" x2="567" y1="900.2236" y2="900.2236"/><polygon fill="#181818" points="563,946.7588,567,956.7588,571,946.7588,567,950.7588" style="stroke:#181818;stroke-width:1.0;"/><line style="stroke:#181818;stroke-width:1.0;" x1="567" x2="567" y1="900.2236" y2="1008.8916"/><line style="stroke:#181818;stroke-width:1.0;" x1="567" x2="316" y1="1008.8916" y2="1008.8916"/><polygon fill="#181818" points="326,1004.8916,316,1008.8916,326,1012.8916,322,1008.8916" style="stroke:#181818;stroke-width:1.0;"/><line style="stroke:#181818;stroke-width:1.0;" x1="304" x2="304" y1="973.7432" y2="996.8916"/><polygon fill="#181818" points="300,986.8916,304,996.8916,308,986.8916,304,990.8916" style="stroke:#181818;stroke-width:1.0;"/><line style="stroke:#181818;stroke-width:1.0;" x1="304" x2="304" y1="856.5132" y2="888.2236"/><polygon fill="#181818" points="300,878.2236,304,888.2236,308,878.2236,304,882.2236" style="stroke:#181818;stroke-width:1.0;"/><line style="stroke:#181818;stroke-width:1.0;" x1="304" x2="304" y1="1020.8916" y2="1030.8916"/><line style="stroke:#181818;stroke-width:1.0;" x1="304" x2="591" y1="1030.8916" y2="1030.8916"/><polygon fill="#181818" points="587,948.3564,591,938.3564,595,948.3564,591,944.3564" style="stroke:#181818;stroke-width:1.0;"/><line style="stroke:#181818;stroke-width:1.0;" x1="591" x2="591" y1="844.5132" y2="1030.8916"/><line style="stroke:#181818;stroke-width:1.0;" x1="591" x2="400.5" y1="844.5132" y2="844.5132"/><polygon fill="#181818" points="410.5,840.5132,400.5,844.5132,410.5,848.5132,406.5,844.5132" style="stroke:#181818;stroke-width:1.0;"/><line style="stroke:#181818;stroke-width:1.0;" x1="207.5" x2="195.5" y1="844.5132" y2="844.5132"/><polygon fill="#181818" points="191.5,934.3564,195.5,944.3564,199.5,934.3564,195.5,938.3564" style="stroke:#181818;stroke-width:1.0;"/><line style="stroke:#181818;stroke-width:1.0;" x1="195.5" x2="195.5" y1="844.5132" y2="1042.8916"/><line style="stroke:#181818;stroke-width:1.0;" x1="195.5" x2="304" y1="1042.8916" y2="1042.8916"/><line style="stroke:#181818;stroke-width:1.0;" x1="304" x2="304" y1="1042.8916" y2="1062.8916"/><polygon fill="#181818" points="300,1052.8916,304,1062.8916,308,1052.8916,304,1056.8916" style="stroke:#181818;stroke-width:1.0;"/><line style="stroke:#181818;stroke-width:1.0;" x1="304" x2="304" y1="791.1143" y2="832.5132"/><polygon fill="#181818" points="300,822.5132,304,832.5132,308,822.5132,304,826.5132" style="stroke:#181818;stroke-width:1.0;"/><text fill="#000000" font-family="sans-serif" font-size="11" lengthAdjust="spacing" textLength="21" x="308" y="812.4189">Yes</text><line style="stroke:#181818;stroke-width:1.0;" x1="304" x2="304" y1="1153.9775" y2="1227.9463"/><polygon fill="#181818" points="300,1217.9463,304,1227.9463,308,1217.9463,304,1221.9463" style="stroke:#181818;stroke-width:1.0;"/><line style="stroke:#181818;stroke-width:1.0;" x1="370.5" x2="462" y1="1239.9463" y2="1239.9463"/><line style="stroke:#181818;stroke-width:1.0;" x1="462" x2="462" y1="1197.9463" y2="1239.9463"/><polygon fill="#181818" points="458,1207.9463,462,1197.9463,466,1207.9463,462,1203.9463" style="stroke:#181818;stroke-width:1.0;"/><line style="stroke:#181818;stroke-width:1.0;" x1="462" x2="462" y1="1136.9932" y2="1163.9775"/><line style="stroke:#181818;stroke-width:1.0;" x1="462" x2="373.5" y1="1136.9932" y2="1136.9932"/><polygon fill="#181818" points="383.5,1132.9932,373.5,1136.9932,383.5,1140.9932,379.5,1136.9932" style="stroke:#181818;stroke-width:1.0;"/><line style="stroke:#181818;stroke-width:1.0;" x1="304" x2="304" y1="1096.8604" y2="1120.0088"/><polygon fill="#181818" points="300,1110.0088,304,1120.0088,308,1110.0088,304,1114.0088" style="stroke:#181818;stroke-width:1.0;"/><line style="stroke:#181818;stroke-width:1.0;" x1="160" x2="160" y1="1360.1499" y2="1380.1499"/><polygon fill="#181818" points="156,1370.1499,160,1380.1499,164,1370.1499,160,1374.1499" style="stroke:#181818;stroke-width:1.0;"/><line style="stroke:#181818;stroke-width:1.0;" x1="422" x2="422" y1="1360.1499" y2="1380.1499"/><polygon fill="#181818" points="418,1370.1499,422,1380.1499,426,1370.1499,422,1374.1499" style="stroke:#181818;stroke-width:1.0;"/><line style="stroke:#181818;stroke-width:1.0;" x1="160" x2="160" y1="1414.1187" y2="1434.1187"/><polygon fill="#181818" points="156,1424.1187,160,1434.1187,164,1424.1187,160,1428.1187" style="stroke:#181818;stroke-width:1.0;"/><line style="stroke:#181818;stroke-width:1.0;" x1="422" x2="422" y1="1414.1187" y2="1434.1187"/><polygon fill="#181818" points="418,1424.1187,422,1434.1187,426,1424.1187,422,1428.1187" style="stroke:#181818;stroke-width:1.0;"/><line style="stroke:#181818;stroke-width:1.0;" x1="304" x2="304" y1="1317.3452" y2="1354.1499"/><polygon fill="#181818" points="300,1344.1499,304,1354.1499,308,1344.1499,304,1348.1499" style="stroke:#181818;stroke-width:1.0;"/><line style="stroke:#181818;stroke-width:1.0;" x1="304" x2="304" y1="1440.1187" y2="1450.1187"/><line style="stroke:#181818;stroke-width:1.0;" x1="304" x2="578" y1="1450.1187" y2="1450.1187"/><polygon fill="#181818" points="574,1388.7319,578,1378.7319,582,1388.7319,578,1384.7319" style="stroke:#181818;stroke-width:1.0;"/><line style="stroke:#181818;stroke-width:1.0;" x1="578" x2="578" y1="1305.3452" y2="1450.1187"/><line style="stroke:#181818;stroke-width:1.0;" x1="578" x2="396" y1="1305.3452" y2="1305.3452"/><polygon fill="#181818" points="406,1301.3452,396,1305.3452,406,1309.3452,402,1305.3452" style="stroke:#181818;stroke-width:1.0;"/><line style="stroke:#181818;stroke-width:1.0;" x1="212" x2="24" y1="1305.3452" y2="1305.3452"/><line style="stroke:#181818;stroke-width:1.0;" x1="24" x2="24" y1="1305.3452" y2="1341.3452"/><polygon fill="#181818" points="20,1331.3452,24,1341.3452,28,1331.3452,24,1335.3452" style="stroke:#181818;stroke-width:1.0;"/><line style="stroke:#181818;stroke-width:1.0;" x1="304" x2="304" y1="1251.9463" y2="1293.3452"/><polygon fill="#181818" points="300,1283.3452,304,1293.3452,308,1283.3452,304,1287.3452" style="stroke:#181818;stroke-width:1.0;"/><text fill="#000000" font-family="sans-serif" font-size="11" lengthAdjust="spacing" textLength="21" x="308" y="1273.251">Yes</text><!--SRC=[TLDDRzim3BtxL_2O79OVa003WcujYY6TqHw67HcBjeawagUF1Tcl7oLPpaTJ7GnBfCYdznwTH-ihIoEXXtKjFsW945x94TgctvJOiUU1OF5Ag4xG6WkrDGVZsUWbi8F5YrbMNxx-9hUfk8N5jcd8ETxBdPgiCne7U3F1DhHmooNudZGi97jPWQprDne7Suh75vrZH1jFOBdhVTh6LOVzm0t6rk1IIPXZZT7Ucc4W1VjS3eFlZLsb3D8grgjeS9GHomct2N2gwdhMdI3u4zYI-WZpaRKISgPSiXdZp5u-llEAFJRlHxHglLKu-Zi9roG_1LOqi2O7KOqT-JF7CNlY-VOP1SUp8ksvpU_V1iMa6zfKeYuRovx_4VoW4pnP4qPtH-2cnwXRZdzGTyghpIJlBWoU3wGucIRfaU_Cj4Lw7mbp-eCbpAwv8JSHdA9K24h5DdFqZXVYkW1WwTOGSHtPzp0Mky9V70AjvenYYlG_Cpf5X5NvJa-Ev-ji-mpnP_1ZyCB93RAYBPYS02YsoLJ4ZL8SWSX45BnkLHKOHSITqUnbpAxwtF7H7BkMyKr8TYqsKk84puTH_ZvJSaPRItynZk1A9eW3SEaw6Vhtir8f9NO7RsGaVebZxONPoWN03bcVhttN7NO4hE65_54Iui15UXvaQd5lR3B7fl2VUfuLI6QHxNy0]--></g></svg>