<?xml version="1.0" encoding="us-ascii" standalone="no"?><svg xmlns="http://www.w3.org/2000/svg" xmlns:xlink="http://www.w3.org/1999/xlink" contentStyleType="text/css" height="1580px" preserveAspectRatio="none" style="width:621px;height:1580px;background:#FFFFFF;" version="1.1" viewBox="0 0 621 1580" width="621px" zoomAndPan="magnify"><defs/><g><ellipse cx="271" cy="20" fill="#222222" rx="10" ry="10" style="stroke:#222222;stroke-width:1.0;"/><rect fill="#F1F1F1" height="33.9688" rx="12.5" ry="12.5" style="stroke:#181818;stroke-width:0.5;" width="150" x="196" y="50"/><text fill="#000000" font-family="sans-serif" font-size="12" lengthAdjust="spacing" textLength="130" x="206" y="71.1387">Prepare the Research</text><polygon fill="#F1F1F1" points="213.5,123.9688,328.5,123.9688,340.5,135.9688,328.5,147.9688,213.5,147.9688,201.5,135.9688,213.5,123.9688" style="stroke:#181818;stroke-width:0.5;"/><text fill="#000000" font-family="sans-serif" font-size="11" lengthAdjust="spacing" textLength="115" x="213.5" y="139.7769">Ready for Promotion</text><text fill="#000000" font-family="sans-serif" font-size="11" lengthAdjust="spacing" textLength="15" x="340.5" y="133.3745">No</text><rect fill="#F1F1F1" height="33.9688" rx="12.5" ry="12.5" style="stroke:#181818;stroke-width:0.5;" width="184" x="179" y="237.77"/><text fill="#000000" font-family="sans-serif" font-size="12" lengthAdjust="spacing" textLength="164" x="189" y="258.9087">Deploy on Personal Source</text><polygon fill="#F1F1F1" points="192.5,189.3677,349.5,189.3677,361.5,201.3677,349.5,213.3677,192.5,213.3677,180.5,201.3677,192.5,189.3677" style="stroke:#181818;stroke-width:0.5;"/><text fill="#000000" font-family="sans-serif" font-size="11" lengthAdjust="spacing" textLength="21" x="275" y="223.5781">Yes</text><text fill="#000000" font-family="sans-serif" font-size="11" lengthAdjust="spacing" textLength="157" x="192.5" y="205.1758">Accessible Personal Source</text><text fill="#000000" font-family="sans-serif" font-size="11" lengthAdjust="spacing" textLength="15" x="361.5" y="198.7734">No</text><polygon fill="#F1F1F1" points="271,291.7388,283,303.7388,271,315.7388,259,303.7388,271,291.7388" style="stroke:#181818;stroke-width:0.5;"/><rect fill="#F1F1F1" height="33.9688" rx="12.5" ry="12.5" style="stroke:#181818;stroke-width:0.5;" width="114" x="214" y="384.1411"/><text fill="#000000" font-family="sans-serif" font-size="12" lengthAdjust="spacing" textLength="94" x="224" y="405.2798">Find a Publisher</text><rect fill="#F1F1F1" height="33.9688" rx="12.5" ry="12.5" style="stroke:#181818;stroke-width:0.5;" width="144" x="199" y="438.1099"/><text fill="#000000" font-family="sans-serif" font-size="12" lengthAdjust="spacing" textLength="124" x="209" y="459.2485">Publish the Research</text><polygon fill="#F1F1F1" points="216.5,560.981,325.5,560.981,337.5,572.981,325.5,584.981,216.5,584.981,204.5,572.981,216.5,560.981" style="stroke:#181818;stroke-width:0.5;"/><text fill="#000000" font-family="sans-serif" font-size="11" lengthAdjust="spacing" textLength="109" x="216.5" y="576.7891">Guidelines are Met</text><text fill="#000000" font-family="sans-serif" font-size="11" lengthAdjust="spacing" textLength="15" x="337.5" y="570.3867">No</text><rect fill="#F1F1F1" height="33.9688" rx="12.5" ry="12.5" style="stroke:#181818;stroke-width:0.5;" width="218" x="367" y="497.0122"/><text fill="#000000" font-family="sans-serif" font-size="12" lengthAdjust="spacing" textLength="198" x="377" y="518.1509">Evaluate and Adapt the Research</text><polygon fill="#F1F1F1" points="215.5,335.7388,326.5,335.7388,338.5,347.7388,326.5,359.7388,215.5,359.7388,203.5,347.7388,215.5,335.7388" style="stroke:#181818;stroke-width:0.5;"/><text fill="#000000" font-family="sans-serif" font-size="11" lengthAdjust="spacing" textLength="21" x="275" y="369.9492">Yes</text><text fill="#000000" font-family="sans-serif" font-size="11" lengthAdjust="spacing" textLength="111" x="215.5" y="351.5469">Publishing Required</text><text fill="#000000" font-family="sans-serif" font-size="11" lengthAdjust="spacing" textLength="15" x="338.5" y="345.1445">No</text><polygon fill="#F1F1F1" points="271,608.8799,283,620.8799,271,632.8799,259,620.8799,271,608.8799" style="stroke:#181818;stroke-width:0.5;"/><text fill="#000000" font-family="sans-serif" font-size="11" lengthAdjust="spacing" textLength="21" x="277" y="606.2856">Yes</text><rect fill="#F1F1F1" height="33.9688" rx="12.5" ry="12.5" style="stroke:#181818;stroke-width:0.5;" width="147" x="197.5" y="706.8486"/><text fill="#000000" font-family="sans-serif" font-size="12" lengthAdjust="spacing" textLength="127" x="207.5" y="727.9873">Prioritize Key Groups</text><rect fill="#F1F1F1" height="33.9688" rx="12.5" ry="12.5" style="stroke:#181818;stroke-width:0.5;" width="147" x="197.5" y="652.8799"/><text fill="#000000" font-family="sans-serif" font-size="12" lengthAdjust="spacing" textLength="127" x="207.5" y="674.0186">Identify the Audience</text><polygon fill="#F1F1F1" points="219,760.8174,323,760.8174,335,772.8174,323,784.8174,219,784.8174,207,772.8174,219,760.8174" style="stroke:#181818;stroke-width:0.5;"/><text fill="#000000" font-family="sans-serif" font-size="11" lengthAdjust="spacing" textLength="104" x="219" y="776.6255">Reachable Groups</text><text fill="#000000" font-family="sans-serif" font-size="11" lengthAdjust="spacing" textLength="15" x="335" y="770.2231">No</text><rect fill="#F1F1F1" height="33.9688" rx="12.5" ry="12.5" style="stroke:#181818;stroke-width:0.5;" width="193" x="174.5" y="874.6187"/><text fill="#000000" font-family="sans-serif" font-size="12" lengthAdjust="spacing" textLength="173" x="184.5" y="895.7573">Clarify Multimedia Resources</text><polygon fill="#F1F1F1" points="214.5,960.6851,327.5,960.6851,339.5,972.6851,327.5,984.6851,214.5,984.6851,202.5,972.6851,214.5,960.6851" style="stroke:#181818;stroke-width:0.5;"/><text fill="#000000" font-family="sans-serif" font-size="11" lengthAdjust="spacing" textLength="113" x="214.5" y="976.4932">Creation is Feasible</text><text fill="#000000" font-family="sans-serif" font-size="11" lengthAdjust="spacing" textLength="15" x="339.5" y="970.0908">No</text><rect fill="#F1F1F1" height="33.9688" rx="12.5" ry="12.5" style="stroke:#181818;stroke-width:0.5;" width="196" x="173" y="1026.084"/><text fill="#000000" font-family="sans-serif" font-size="12" lengthAdjust="spacing" textLength="176" x="183" y="1047.2227">Create Multimedia Resources</text><polygon fill="#F1F1F1" points="208.5,826.2163,333.5,826.2163,345.5,838.2163,333.5,850.2163,208.5,850.2163,196.5,838.2163,208.5,826.2163" style="stroke:#181818;stroke-width:0.5;"/><text fill="#000000" font-family="sans-serif" font-size="11" lengthAdjust="spacing" textLength="21" x="275" y="860.4268">Yes</text><text fill="#000000" font-family="sans-serif" font-size="11" lengthAdjust="spacing" textLength="125" x="208.5" y="842.0244">Multimedia Resources</text><text fill="#000000" font-family="sans-serif" font-size="11" lengthAdjust="spacing" textLength="15" x="345.5" y="835.6221">No</text><polygon fill="#F1F1F1" points="271,1080.0527,283,1092.0527,271,1104.0527,259,1092.0527,271,1080.0527" style="stroke:#181818;stroke-width:0.5;"/><rect fill="#F1F1F1" height="33.9688" rx="12.5" ry="12.5" style="stroke:#181818;stroke-width:0.5;" width="186" x="178" y="1124.0527"/><text fill="#000000" font-family="sans-serif" font-size="12" lengthAdjust="spacing" textLength="166" x="188" y="1145.1914">Promote the Outputs Online</text><rect fill="#F1F1F1" height="33.9688" rx="12.5" ry="12.5" style="stroke:#181818;stroke-width:0.5;" width="139" x="201.5" y="1178.0215"/><text fill="#000000" font-family="sans-serif" font-size="12" lengthAdjust="spacing" textLength="119" x="211.5" y="1199.1602">Monitor the Outputs</text><polygon fill="#F1F1F1" points="216.5,1285.959,325.5,1285.959,337.5,1297.959,325.5,1309.959,216.5,1309.959,204.5,1297.959,216.5,1285.959" style="stroke:#181818;stroke-width:0.5;"/><text fill="#000000" font-family="sans-serif" font-size="11" lengthAdjust="spacing" textLength="109" x="216.5" y="1301.7671">Satisfactory Impact</text><text fill="#000000" font-family="sans-serif" font-size="11" lengthAdjust="spacing" textLength="15" x="337.5" y="1295.3647">No</text><rect fill="#F1F1F1" height="33.9688" rx="12.5" ry="12.5" style="stroke:#181818;stroke-width:0.5;" width="209" x="364.5" y="1221.9902"/><text fill="#000000" font-family="sans-serif" font-size="12" lengthAdjust="spacing" textLength="189" x="374.5" y="1243.1289">Evaluate and Adapt the Outputs</text><rect fill="#555555" height="6" rx="2.5" ry="2.5" style="stroke:#555555;stroke-width:1.0;" width="522" x="11" y="1399.7603"/><rect fill="#F1F1F1" height="33.9688" rx="12.5" ry="12.5" style="stroke:#181818;stroke-width:0.5;" width="208" x="23" y="1425.7603"/><text fill="#000000" font-family="sans-serif" font-size="12" lengthAdjust="spacing" textLength="188" x="33" y="1446.8989">Reach Out to a Wider Audience</text><rect fill="#F1F1F1" height="33.9688" rx="12.5" ry="12.5" style="stroke:#181818;stroke-width:0.5;" width="260" x="259" y="1425.7603"/><text fill="#000000" font-family="sans-serif" font-size="12" lengthAdjust="spacing" textLength="240" x="269" y="1446.8989">Engage in Networking and Collaboration</text><rect fill="#555555" height="6" rx="2.5" ry="2.5" style="stroke:#555555;stroke-width:1.0;" width="522" x="11" y="1479.729"/><polygon fill="#F1F1F1" points="191,1351.3579,351,1351.3579,363,1363.3579,351,1375.3579,191,1375.3579,179,1363.3579,191,1351.3579" style="stroke:#181818;stroke-width:0.5;"/><text fill="#000000" font-family="sans-serif" font-size="11" lengthAdjust="spacing" textLength="15" x="275" y="1385.5684">No</text><text fill="#000000" font-family="sans-serif" font-size="11" lengthAdjust="spacing" textLength="160" x="191" y="1367.166">Research Potential Reached</text><text fill="#000000" font-family="sans-serif" font-size="11" lengthAdjust="spacing" textLength="21" x="363" y="1360.7637">Yes</text><polygon fill="#F1F1F1" points="271,1505.729,283,1517.729,271,1529.729,259,1517.729,271,1505.729" style="stroke:#181818;stroke-width:0.5;"/><ellipse cx="271" cy="1559.729" fill="none" rx="10" ry="10" style="stroke:#222222;stroke-width:1.5;"/><line style="stroke:#222222;stroke-width:2.5;" x1="264.8128" x2="277.1872" y1="1553.5418" y2="1565.9162"/><line style="stroke:#222222;stroke-width:2.5;" x1="277.1872" x2="264.8128" y1="1553.5418" y2="1565.9162"/><line style="stroke:#181818;stroke-width:1.0;" x1="271" x2="271" y1="83.9688" y2="123.9688"/><polygon fill="#181818" points="267,113.9688,271,123.9688,275,113.9688,271,117.9688" style="stroke:#181818;stroke-width:1.0;"/><line style="stroke:#181818;stroke-width:1.0;" x1="340.5" x2="358" y1="135.9688" y2="135.9688"/><polygon fill="#181818" points="354,103.9688,358,93.9688,362,103.9688,358,99.9688" style="stroke:#181818;stroke-width:1.0;"/><line style="stroke:#181818;stroke-width:1.0;" x1="358" x2="358" y1="66.9844" y2="135.9688"/><line style="stroke:#181818;stroke-width:1.0;" x1="358" x2="346" y1="66.9844" y2="66.9844"/><polygon fill="#181818" points="356,62.9844,346,66.9844,356,70.9844,352,66.9844" style="stroke:#181818;stroke-width:1.0;"/><line style="stroke:#181818;stroke-width:1.0;" x1="271" x2="271" y1="30" y2="50"/><polygon fill="#181818" points="267,40,271,50,275,40,271,44" style="stroke:#181818;stroke-width:1.0;"/><line style="stroke:#181818;stroke-width:1.0;" x1="271" x2="271" y1="213.3677" y2="237.77"/><polygon fill="#181818" points="267,227.77,271,237.77,275,227.77,271,231.77" style="stroke:#181818;stroke-width:1.0;"/><line style="stroke:#181818;stroke-width:1.0;" x1="361.5" x2="373.5" y1="201.3677" y2="201.3677"/><polygon fill="#181818" points="369.5,244.7544,373.5,254.7544,377.5,244.7544,373.5,248.7544" style="stroke:#181818;stroke-width:1.0;"/><line style="stroke:#181818;stroke-width:1.0;" x1="373.5" x2="373.5" y1="201.3677" y2="303.7388"/><line style="stroke:#181818;stroke-width:1.0;" x1="373.5" x2="283" y1="303.7388" y2="303.7388"/><polygon fill="#181818" points="293,299.7388,283,303.7388,293,307.7388,289,303.7388" style="stroke:#181818;stroke-width:1.0;"/><line style="stroke:#181818;stroke-width:1.0;" x1="271" x2="271" y1="271.7388" y2="291.7388"/><polygon fill="#181818" points="267,281.7388,271,291.7388,275,281.7388,271,285.7388" style="stroke:#181818;stroke-width:1.0;"/><line style="stroke:#181818;stroke-width:1.0;" x1="271" x2="271" y1="147.9688" y2="189.3677"/><polygon fill="#181818" points="267,179.3677,271,189.3677,275,179.3677,271,183.3677" style="stroke:#181818;stroke-width:1.0;"/><text fill="#000000" font-family="sans-serif" font-size="11" lengthAdjust="spacing" textLength="21" x="275" y="169.2734">Yes</text><line style="stroke:#181818;stroke-width:1.0;" x1="271" x2="271" y1="472.0786" y2="560.981"/><polygon fill="#181818" points="267,550.981,271,560.981,275,550.981,271,554.981" style="stroke:#181818;stroke-width:1.0;"/><line style="stroke:#181818;stroke-width:1.0;" x1="337.5" x2="476" y1="572.981" y2="572.981"/><line style="stroke:#181818;stroke-width:1.0;" x1="476" x2="476" y1="530.981" y2="572.981"/><polygon fill="#181818" points="472,540.981,476,530.981,480,540.981,476,536.981" style="stroke:#181818;stroke-width:1.0;"/><line style="stroke:#181818;stroke-width:1.0;" x1="476" x2="476" y1="455.0942" y2="497.0122"/><line style="stroke:#181818;stroke-width:1.0;" x1="476" x2="343" y1="455.0942" y2="455.0942"/><polygon fill="#181818" points="353,451.0942,343,455.0942,353,459.0942,349,455.0942" style="stroke:#181818;stroke-width:1.0;"/><line style="stroke:#181818;stroke-width:1.0;" x1="271" x2="271" y1="418.1099" y2="438.1099"/><polygon fill="#181818" points="267,428.1099,271,438.1099,275,428.1099,271,432.1099" style="stroke:#181818;stroke-width:1.0;"/><line style="stroke:#181818;stroke-width:1.0;" x1="271" x2="271" y1="359.7388" y2="384.1411"/><polygon fill="#181818" points="267,374.1411,271,384.1411,275,374.1411,271,378.1411" style="stroke:#181818;stroke-width:1.0;"/><line style="stroke:#181818;stroke-width:1.0;" x1="338.5" x2="595" y1="347.7388" y2="347.7388"/><polygon fill="#181818" points="591,477.0122,595,487.0122,599,477.0122,595,481.0122" style="stroke:#181818;stroke-width:1.0;"/><line style="stroke:#181818;stroke-width:1.0;" x1="595" x2="595" y1="347.7388" y2="620.8799"/><line style="stroke:#181818;stroke-width:1.0;" x1="595" x2="283" y1="620.8799" y2="620.8799"/><polygon fill="#181818" points="293,616.8799,283,620.8799,293,624.8799,289,620.8799" style="stroke:#181818;stroke-width:1.0;"/><line style="stroke:#181818;stroke-width:1.0;" x1="271" x2="271" y1="584.981" y2="608.8799"/><polygon fill="#181818" points="267,598.8799,271,608.8799,275,598.8799,271,602.8799" style="stroke:#181818;stroke-width:1.0;"/><line style="stroke:#181818;stroke-width:1.0;" x1="271" x2="271" y1="315.7388" y2="335.7388"/><polygon fill="#181818" points="267,325.7388,271,335.7388,275,325.7388,271,329.7388" style="stroke:#181818;stroke-width:1.0;"/><line style="stroke:#181818;stroke-width:1.0;" x1="271" x2="271" y1="686.8486" y2="706.8486"/><polygon fill="#181818" points="267,696.8486,271,706.8486,275,696.8486,271,700.8486" style="stroke:#181818;stroke-width:1.0;"/><line style="stroke:#181818;stroke-width:1.0;" x1="335" x2="356.5" y1="772.8174" y2="772.8174"/><polygon fill="#181818" points="352.5,731.3408,356.5,721.3408,360.5,731.3408,356.5,727.3408" style="stroke:#181818;stroke-width:1.0;"/><line style="stroke:#181818;stroke-width:1.0;" x1="356.5" x2="356.5" y1="669.8643" y2="772.8174"/><line style="stroke:#181818;stroke-width:1.0;" x1="356.5" x2="344.5" y1="669.8643" y2="669.8643"/><polygon fill="#181818" points="354.5,665.8643,344.5,669.8643,354.5,673.8643,350.5,669.8643" style="stroke:#181818;stroke-width:1.0;"/><line style="stroke:#181818;stroke-width:1.0;" x1="271" x2="271" y1="740.8174" y2="760.8174"/><polygon fill="#181818" points="267,750.8174,271,760.8174,275,750.8174,271,754.8174" style="stroke:#181818;stroke-width:1.0;"/><line style="stroke:#181818;stroke-width:1.0;" x1="271" x2="271" y1="632.8799" y2="652.8799"/><polygon fill="#181818" points="267,642.8799,271,652.8799,275,642.8799,271,646.8799" style="stroke:#181818;stroke-width:1.0;"/><line style="stroke:#181818;stroke-width:1.0;" x1="271" x2="271" y1="908.5874" y2="960.6851"/><polygon fill="#181818" points="267,950.6851,271,960.6851,275,950.6851,271,954.6851" style="stroke:#181818;stroke-width:1.0;"/><line style="stroke:#181818;stroke-width:1.0;" x1="339.5" x2="379.5" y1="972.6851" y2="972.6851"/><polygon fill="#181818" points="375.5,928.5874,379.5,918.5874,383.5,928.5874,379.5,924.5874" style="stroke:#181818;stroke-width:1.0;"/><line style="stroke:#181818;stroke-width:1.0;" x1="379.5" x2="379.5" y1="891.603" y2="972.6851"/><line style="stroke:#181818;stroke-width:1.0;" x1="379.5" x2="367.5" y1="891.603" y2="891.603"/><polygon fill="#181818" points="377.5,887.603,367.5,891.603,377.5,895.603,373.5,891.603" style="stroke:#181818;stroke-width:1.0;"/><line style="stroke:#181818;stroke-width:1.0;" x1="271" x2="271" y1="984.6851" y2="1026.084"/><polygon fill="#181818" points="267,1016.084,271,1026.084,275,1016.084,271,1020.084" style="stroke:#181818;stroke-width:1.0;"/><text fill="#000000" font-family="sans-serif" font-size="11" lengthAdjust="spacing" textLength="21" x="275" y="1005.9897">Yes</text><line style="stroke:#181818;stroke-width:1.0;" x1="271" x2="271" y1="850.2163" y2="874.6187"/><polygon fill="#181818" points="267,864.6187,271,874.6187,275,864.6187,271,868.6187" style="stroke:#181818;stroke-width:1.0;"/><line style="stroke:#181818;stroke-width:1.0;" x1="345.5" x2="401.5" y1="838.2163" y2="838.2163"/><polygon fill="#181818" points="397.5,938.5874,401.5,948.5874,405.5,938.5874,401.5,942.5874" style="stroke:#181818;stroke-width:1.0;"/><line style="stroke:#181818;stroke-width:1.0;" x1="401.5" x2="401.5" y1="838.2163" y2="1092.0527"/><line style="stroke:#181818;stroke-width:1.0;" x1="401.5" x2="283" y1="1092.0527" y2="1092.0527"/><polygon fill="#181818" points="293,1088.0527,283,1092.0527,293,1096.0527,289,1092.0527" style="stroke:#181818;stroke-width:1.0;"/><line style="stroke:#181818;stroke-width:1.0;" x1="271" x2="271" y1="1060.0527" y2="1080.0527"/><polygon fill="#181818" points="267,1070.0527,271,1080.0527,275,1070.0527,271,1074.0527" style="stroke:#181818;stroke-width:1.0;"/><line style="stroke:#181818;stroke-width:1.0;" x1="271" x2="271" y1="784.8174" y2="826.2163"/><polygon fill="#181818" points="267,816.2163,271,826.2163,275,816.2163,271,820.2163" style="stroke:#181818;stroke-width:1.0;"/><text fill="#000000" font-family="sans-serif" font-size="11" lengthAdjust="spacing" textLength="21" x="275" y="806.1221">Yes</text><line style="stroke:#181818;stroke-width:1.0;" x1="271" x2="271" y1="1104.0527" y2="1124.0527"/><polygon fill="#181818" points="267,1114.0527,271,1124.0527,275,1114.0527,271,1118.0527" style="stroke:#181818;stroke-width:1.0;"/><line style="stroke:#181818;stroke-width:1.0;" x1="271" x2="271" y1="1211.9902" y2="1285.959"/><polygon fill="#181818" points="267,1275.959,271,1285.959,275,1275.959,271,1279.959" style="stroke:#181818;stroke-width:1.0;"/><line style="stroke:#181818;stroke-width:1.0;" x1="337.5" x2="469" y1="1297.959" y2="1297.959"/><line style="stroke:#181818;stroke-width:1.0;" x1="469" x2="469" y1="1255.959" y2="1297.959"/><polygon fill="#181818" points="465,1265.959,469,1255.959,473,1265.959,469,1261.959" style="stroke:#181818;stroke-width:1.0;"/><line style="stroke:#181818;stroke-width:1.0;" x1="469" x2="469" y1="1195.0059" y2="1221.9902"/><line style="stroke:#181818;stroke-width:1.0;" x1="469" x2="340.5" y1="1195.0059" y2="1195.0059"/><polygon fill="#181818" points="350.5,1191.0059,340.5,1195.0059,350.5,1199.0059,346.5,1195.0059" style="stroke:#181818;stroke-width:1.0;"/><line style="stroke:#181818;stroke-width:1.0;" x1="271" x2="271" y1="1158.0215" y2="1178.0215"/><polygon fill="#181818" points="267,1168.0215,271,1178.0215,275,1168.0215,271,1172.0215" style="stroke:#181818;stroke-width:1.0;"/><line style="stroke:#181818;stroke-width:1.0;" x1="127" x2="127" y1="1405.7603" y2="1425.7603"/><polygon fill="#181818" points="123,1415.7603,127,1425.7603,131,1415.7603,127,1419.7603" style="stroke:#181818;stroke-width:1.0;"/><line style="stroke:#181818;stroke-width:1.0;" x1="389" x2="389" y1="1405.7603" y2="1425.7603"/><polygon fill="#181818" points="385,1415.7603,389,1425.7603,393,1415.7603,389,1419.7603" style="stroke:#181818;stroke-width:1.0;"/><line style="stroke:#181818;stroke-width:1.0;" x1="127" x2="127" y1="1459.729" y2="1479.729"/><polygon fill="#181818" points="123,1469.729,127,1479.729,131,1469.729,127,1473.729" style="stroke:#181818;stroke-width:1.0;"/><line style="stroke:#181818;stroke-width:1.0;" x1="389" x2="389" y1="1459.729" y2="1479.729"/><polygon fill="#181818" points="385,1469.729,389,1479.729,393,1469.729,389,1473.729" style="stroke:#181818;stroke-width:1.0;"/><line style="stroke:#181818;stroke-width:1.0;" x1="271" x2="271" y1="1375.3579" y2="1399.7603"/><polygon fill="#181818" points="267,1389.7603,271,1399.7603,275,1389.7603,271,1393.7603" style="stroke:#181818;stroke-width:1.0;"/><line style="stroke:#181818;stroke-width:1.0;" x1="363" x2="543" y1="1363.3579" y2="1363.3579"/><polygon fill="#181818" points="539,1432.7446,543,1442.7446,547,1432.7446,543,1436.7446" style="stroke:#181818;stroke-width:1.0;"/><line style="stroke:#181818;stroke-width:1.0;" x1="543" x2="543" y1="1363.3579" y2="1517.729"/><line style="stroke:#181818;stroke-width:1.0;" x1="543" x2="283" y1="1517.729" y2="1517.729"/><polygon fill="#181818" points="293,1513.729,283,1517.729,293,1521.729,289,1517.729" style="stroke:#181818;stroke-width:1.0;"/><line style="stroke:#181818;stroke-width:1.0;" x1="271" x2="271" y1="1485.729" y2="1505.729"/><polygon fill="#181818" points="267,1495.729,271,1505.729,275,1495.729,271,1499.729" style="stroke:#181818;stroke-width:1.0;"/><line style="stroke:#181818;stroke-width:1.0;" x1="271" x2="271" y1="1309.959" y2="1351.3579"/><polygon fill="#181818" points="267,1341.3579,271,1351.3579,275,1341.3579,271,1345.3579" style="stroke:#181818;stroke-width:1.0;"/><text fill="#000000" font-family="sans-serif" font-size="11" lengthAdjust="spacing" textLength="21" x="275" y="1331.2637">Yes</text><line style="stroke:#181818;stroke-width:1.0;" x1="271" x2="271" y1="1529.729" y2="1549.729"/><polygon fill="#181818" points="267,1539.729,271,1549.729,275,1539.729,271,1543.729" style="stroke:#181818;stroke-width:1.0;"/><!--SRC=[XLFDRjim3BxxANXC3di16nWGP6rH56cDv53io5XqJ4IHFFqqy9v-b5mdRUgXFXYo_97YzoCVq8N2KKyOeAnbWOuWT0HRyeIkwQhfxxbZJR3O4ge1MkkWTlPa0rkp1FQmUBRBuiVFt-IhWbjOh9g6lEUzrDJal3MeOMUZQsYP-XjO27HPW3pbB-gr7S2QMsXLaFOqzYQZkCsjwxZNx3is1vdoJsH7wclFUpOA4DwnvAgyVM4wRjymJOWzDiSpEbNUlQ6E60XG6gqKzc46_LcRXyYAD1loa6JSKBXAaz3lyjnocePwL6G2jqC-PnKLaqaIY2ri7GV-I_140pmu6ti_uqlJOP9x_3zhoYRgm2TIZ8b7bjX_aMuQPwtHfMdcYkROhvryI1pImVU4sVjP_jcVZAR_DBzLg1opDYRp9OO-1Wyl9abzqQ7SMCD1Sla1KnNVsNa1VkQo4oQ-nKRw3V1uwcKrA-YK1gXbEZ5FafkDk2PouYutvfWNcNq6fSCXM4dfg-J6VR1yAW0y89jhsPqvu8603JnJE0iWtO54Q6srnhrrsO2nNfJBPuvQPdT7CUNz3m00]--></g></svg>