<?xml version="1.0" encoding="us-ascii" standalone="no"?><svg xmlns="http://www.w3.org/2000/svg" xmlns:xlink="http://www.w3.org/1999/xlink" contentStyleType="text/css" height="1817px" preserveAspectRatio="none" style="width:1082px;height:1817px;background:#FFFFFF;" version="1.1" viewBox="0 0 1082 1817" width="1082px" zoomAndPan="magnify"><defs/><g><rect fill="none" height="20.9531" style="stroke:none;stroke-width:1.0;" width="1049.5" x="15" y="12.7451"/><ellipse cx="100" cy="48.6982" fill="#222222" rx="10" ry="10" style="stroke:#222222;stroke-width:1.0;"/><rect fill="#F1F1F1" height="33.9688" rx="12.5" ry="12.5" style="stroke:#181818;stroke-width:0.5;" width="105" x="47.5" y="78.6982"/><text fill="#000000" font-family="sans-serif" font-size="12" lengthAdjust="spacing" textLength="85" x="57.5" y="99.8369">Prepare Paper</text><polygon fill="#F1F1F1" points="42.5,152.667,157.5,152.667,169.5,164.667,157.5,176.667,42.5,176.667,30.5,164.667,42.5,152.667" style="stroke:#181818;stroke-width:0.5;"/><text fill="#000000" font-family="sans-serif" font-size="11" lengthAdjust="spacing" textLength="115" x="42.5" y="168.4751">Ready for Promotion</text><text fill="#000000" font-family="sans-serif" font-size="11" lengthAdjust="spacing" textLength="15" x="169.5" y="162.0728">No</text><path d="M170.5,266.4683 L170.5,282.6011 L150.5,286.6011 L170.5,290.6011 L170.5,306.7339 A0,0 0 0 0 170.5,306.7339 L297.5,306.7339 A0,0 0 0 0 297.5,306.7339 L297.5,276.4683 L287.5,266.4683 L170.5,266.4683 A0,0 0 0 0 170.5,266.4683 " fill="#FEFFDD" style="stroke:#181818;stroke-width:0.5;"/><path d="M287.5,266.4683 L287.5,276.4683 L297.5,276.4683 L287.5,266.4683 " fill="#FEFFDD" style="stroke:#181818;stroke-width:0.5;"/><text fill="#000000" font-family="sans-serif" font-size="13" lengthAdjust="spacing" textLength="80" x="176.5" y="283.5352">The author's</text><text fill="#000000" font-family="sans-serif" font-size="13" lengthAdjust="spacing" textLength="106" x="176.5" y="298.668">personal source.</text><rect fill="#F1F1F1" height="33.9688" rx="12.5" ry="12.5" style="stroke:#181818;stroke-width:0.5;" width="101" x="49.5" y="269.6167"/><text fill="#000000" font-family="sans-serif" font-size="12" lengthAdjust="spacing" textLength="81" x="59.5" y="290.7554">Deploy Paper</text><polygon fill="#F1F1F1" points="47,218.0659,153,218.0659,165,230.0659,153,242.0659,47,242.0659,35,230.0659,47,218.0659" style="stroke:#181818;stroke-width:0.5;"/><text fill="#000000" font-family="sans-serif" font-size="11" lengthAdjust="spacing" textLength="21" x="104" y="252.2764">Yes</text><text fill="#000000" font-family="sans-serif" font-size="11" lengthAdjust="spacing" textLength="106" x="47" y="233.874">Personal Source(s)</text><text fill="#000000" font-family="sans-serif" font-size="11" lengthAdjust="spacing" textLength="15" x="165" y="227.4717">No</text><polygon fill="#F1F1F1" points="100,326.7339,112,338.7339,100,350.7339,88,338.7339,100,326.7339" style="stroke:#181818;stroke-width:0.5;"/><rect fill="#F1F1F1" height="33.9688" rx="12.5" ry="12.5" style="stroke:#181818;stroke-width:0.5;" width="103" x="48.5" y="419.1362"/><text fill="#000000" font-family="sans-serif" font-size="12" lengthAdjust="spacing" textLength="83" x="58.5" y="440.2749">Find Publisher</text><rect fill="#F1F1F1" height="33.9688" rx="12.5" ry="12.5" style="stroke:#181818;stroke-width:0.5;" width="99" x="50.5" y="473.105"/><text fill="#000000" font-family="sans-serif" font-size="12" lengthAdjust="spacing" textLength="79" x="60.5" y="494.2437">Publish Paper</text><polygon fill="#F1F1F1" points="45.5,595.9761,154.5,595.9761,166.5,607.9761,154.5,619.9761,45.5,619.9761,33.5,607.9761,45.5,595.9761" style="stroke:#181818;stroke-width:0.5;"/><text fill="#000000" font-family="sans-serif" font-size="11" lengthAdjust="spacing" textLength="109" x="45.5" y="611.7842">Guidelines are Met</text><text fill="#000000" font-family="sans-serif" font-size="11" lengthAdjust="spacing" textLength="15" x="166.5" y="605.3818">No</text><rect fill="#F1F1F1" height="33.9688" rx="12.5" ry="12.5" style="stroke:#181818;stroke-width:0.5;" width="93" x="190.5" y="532.0073"/><text fill="#000000" font-family="sans-serif" font-size="12" lengthAdjust="spacing" textLength="73" x="200.5" y="553.146">Adapt Paper</text><polygon fill="#F1F1F1" points="42,370.7339,158,370.7339,170,382.7339,158,394.7339,42,394.7339,30,382.7339,42,370.7339" style="stroke:#181818;stroke-width:0.5;"/><text fill="#000000" font-family="sans-serif" font-size="11" lengthAdjust="spacing" textLength="21" x="104" y="404.9443">Yes</text><text fill="#000000" font-family="sans-serif" font-size="11" lengthAdjust="spacing" textLength="116" x="42" y="386.542">Academic Publishing</text><text fill="#000000" font-family="sans-serif" font-size="11" lengthAdjust="spacing" textLength="15" x="170" y="380.1396">No</text><polygon fill="#F1F1F1" points="100,643.875,112,655.875,100,667.875,88,655.875,100,643.875" style="stroke:#181818;stroke-width:0.5;"/><text fill="#000000" font-family="sans-serif" font-size="11" lengthAdjust="spacing" textLength="21" x="106" y="641.2808">Yes</text><rect fill="#F1F1F1" height="33.9688" rx="12.5" ry="12.5" style="stroke:#181818;stroke-width:0.5;" width="111" x="44.5" y="1228.7793"/><text fill="#000000" font-family="sans-serif" font-size="12" lengthAdjust="spacing" textLength="91" x="54.5" y="1249.918">Publish Content</text><polygon fill="#F1F1F1" points="45.5,1336.7168,154.5,1336.7168,166.5,1348.7168,154.5,1360.7168,45.5,1360.7168,33.5,1348.7168,45.5,1336.7168" style="stroke:#181818;stroke-width:0.5;"/><text fill="#000000" font-family="sans-serif" font-size="11" lengthAdjust="spacing" textLength="109" x="45.5" y="1352.5249">Guidelines are Met</text><text fill="#000000" font-family="sans-serif" font-size="11" lengthAdjust="spacing" textLength="15" x="166.5" y="1346.1226">No</text><rect fill="#F1F1F1" height="33.9688" rx="12.5" ry="12.5" style="stroke:#181818;stroke-width:0.5;" width="105" x="190.5" y="1272.748"/><text fill="#000000" font-family="sans-serif" font-size="12" lengthAdjust="spacing" textLength="85" x="200.5" y="1293.8867">Adapt Content</text><line style="stroke:#000000;stroke-width:1.5;" x1="15" x2="15" y1="12.7451" y2="1805.1211"/><rect fill="#DCDCDC" height="1792.376" style="stroke:#DCDCDC;stroke-width:1.0;" width="346" x="326.5" y="12.7451"/><rect fill="#F1F1F1" height="33.9688" rx="12.5" ry="12.5" style="stroke:#181818;stroke-width:0.5;" width="147" x="417.5" y="741.8438"/><text fill="#000000" font-family="sans-serif" font-size="12" lengthAdjust="spacing" textLength="127" x="427.5" y="762.9824">Prioritize Key Groups</text><rect fill="#F1F1F1" height="33.9688" rx="12.5" ry="12.5" style="stroke:#181818;stroke-width:0.5;" width="124" x="429" y="687.875"/><text fill="#000000" font-family="sans-serif" font-size="12" lengthAdjust="spacing" textLength="104" x="439" y="709.0137">Identify Audience</text><polygon fill="#F1F1F1" points="439,795.8125,543,795.8125,555,807.8125,543,819.8125,439,819.8125,427,807.8125,439,795.8125" style="stroke:#181818;stroke-width:0.5;"/><text fill="#000000" font-family="sans-serif" font-size="11" lengthAdjust="spacing" textLength="104" x="439" y="811.6206">Reachable Groups</text><text fill="#000000" font-family="sans-serif" font-size="11" lengthAdjust="spacing" textLength="15" x="555" y="805.2183">No</text><rect fill="#555555" height="6" rx="2.5" ry="2.5" style="stroke:#555555;stroke-width:1.0;" width="309" x="332.5" y="915.1802"/><rect fill="#F1F1F1" height="33.9688" rx="12.5" ry="12.5" style="stroke:#181818;stroke-width:0.5;" width="105" x="344.5" y="1009.0669"/><text fill="#000000" font-family="sans-serif" font-size="12" lengthAdjust="spacing" textLength="85" x="354.5" y="1030.2056">Paper Outputs</text><rect fill="#F1F1F1" height="33.9688" rx="12.5" ry="12.5" style="stroke:#181818;stroke-width:0.5;" width="145" x="479" y="941.1802"/><text fill="#000000" font-family="sans-serif" font-size="12" lengthAdjust="spacing" textLength="125" x="489" y="962.3188">Multimedia Resource</text><rect fill="#F1F1F1" height="33.9688" rx="12.5" ry="12.5" style="stroke:#181818;stroke-width:0.5;" width="128" x="487.5" y="1043.5513"/><text fill="#000000" font-family="sans-serif" font-size="12" lengthAdjust="spacing" textLength="108" x="497.5" y="1064.6899">Create Multimedia</text><polygon fill="#F1F1F1" points="501.5,995.1489,601.5,995.1489,613.5,1007.1489,601.5,1019.1489,501.5,1019.1489,489.5,1007.1489,501.5,995.1489" style="stroke:#181818;stroke-width:0.5;"/><text fill="#000000" font-family="sans-serif" font-size="11" lengthAdjust="spacing" textLength="21" x="555.5" y="1029.3594">Yes</text><text fill="#000000" font-family="sans-serif" font-size="11" lengthAdjust="spacing" textLength="100" x="501.5" y="1010.957">Feasible Creation</text><text fill="#000000" font-family="sans-serif" font-size="11" lengthAdjust="spacing" textLength="15" x="613.5" y="1004.5547">No</text><polygon fill="#F1F1F1" points="551.5,1097.52,563.5,1109.52,551.5,1121.52,539.5,1109.52,551.5,1097.52" style="stroke:#181818;stroke-width:0.5;"/><rect fill="#555555" height="6" rx="2.5" ry="2.5" style="stroke:#555555;stroke-width:1.0;" width="309" x="332.5" y="1141.52"/><rect fill="#F1F1F1" height="33.9688" rx="12.5" ry="12.5" style="stroke:#181818;stroke-width:0.5;" width="185" x="398.5" y="861.2114"/><text fill="#000000" font-family="sans-serif" font-size="12" lengthAdjust="spacing" textLength="165" x="408.5" y="882.3501">Collect Promotional Content</text><polygon fill="#F1F1F1" points="430,1167.52,552,1167.52,564,1179.52,552,1191.52,430,1191.52,418,1179.52,430,1167.52" style="stroke:#181818;stroke-width:0.5;"/><text fill="#000000" font-family="sans-serif" font-size="11" lengthAdjust="spacing" textLength="122" x="430" y="1183.3281">Key Groups Targeted</text><text fill="#000000" font-family="sans-serif" font-size="11" lengthAdjust="spacing" textLength="15" x="564" y="1176.9258">No</text><rect fill="#F1F1F1" height="33.9688" rx="12.5" ry="12.5" style="stroke:#181818;stroke-width:0.5;" width="120" x="431" y="1397.9761"/><text fill="#000000" font-family="sans-serif" font-size="12" lengthAdjust="spacing" textLength="100" x="441" y="1419.1147">Promote Content</text><line style="stroke:#000000;stroke-width:1.5;" x1="326.5" x2="326.5" y1="12.7451" y2="1805.1211"/><rect fill="#F1F1F1" height="33.9688" rx="12.5" ry="12.5" style="stroke:#181818;stroke-width:0.5;" width="144" x="769.5" y="1451.9448"/><text fill="#000000" font-family="sans-serif" font-size="12" lengthAdjust="spacing" textLength="124" x="779.5" y="1473.0835">Monitor Engagement</text><polygon fill="#F1F1F1" points="787,1559.8823,896,1559.8823,908,1571.8823,896,1583.8823,787,1583.8823,775,1571.8823,787,1559.8823" style="stroke:#181818;stroke-width:0.5;"/><text fill="#000000" font-family="sans-serif" font-size="11" lengthAdjust="spacing" textLength="109" x="787" y="1575.6904">Satisfactory Impact</text><text fill="#000000" font-family="sans-serif" font-size="11" lengthAdjust="spacing" textLength="15" x="908" y="1569.2881">No</text><rect fill="#F1F1F1" height="33.9688" rx="12.5" ry="12.5" style="stroke:#181818;stroke-width:0.5;" width="121" x="937.5" y="1495.9136"/><text fill="#000000" font-family="sans-serif" font-size="12" lengthAdjust="spacing" textLength="101" x="947.5" y="1517.0522">Resolve Problem</text><rect fill="#F1F1F1" height="33.9688" rx="12.5" ry="12.5" style="stroke:#181818;stroke-width:0.5;" width="197" x="743" y="1686.0859"/><text fill="#000000" font-family="sans-serif" font-size="12" lengthAdjust="spacing" textLength="177" x="753" y="1707.2246">Reach Out to Wider Audience</text><rect fill="#F1F1F1" height="33.9688" rx="12.5" ry="12.5" style="stroke:#181818;stroke-width:0.5;" width="260" x="711.5" y="1749.1523"/><text fill="#000000" font-family="sans-serif" font-size="12" lengthAdjust="spacing" textLength="240" x="721.5" y="1770.291">Engage in Networking and Collaboration</text><polygon fill="#F1F1F1" points="772,1625.2813,911,1625.2813,923,1637.2813,911,1649.2813,772,1649.2813,760,1637.2813,772,1625.2813" style="stroke:#181818;stroke-width:0.5;"/><text fill="#000000" font-family="sans-serif" font-size="11" lengthAdjust="spacing" textLength="15" x="845.5" y="1659.4917">No</text><text fill="#000000" font-family="sans-serif" font-size="11" lengthAdjust="spacing" textLength="139" x="772" y="1641.0894">Paper Potential Reached</text><text fill="#000000" font-family="sans-serif" font-size="11" lengthAdjust="spacing" textLength="21" x="739" y="1634.687">Yes</text><ellipse cx="691.5" cy="1683.2813" fill="none" rx="10" ry="10" style="stroke:#222222;stroke-width:1.5;"/><line style="stroke:#222222;stroke-width:2.5;" x1="685.3128" x2="697.6872" y1="1677.0941" y2="1689.4684"/><line style="stroke:#222222;stroke-width:2.5;" x1="697.6872" x2="685.3128" y1="1677.0941" y2="1689.4684"/><line style="stroke:#000000;stroke-width:1.5;" x1="672.5" x2="672.5" y1="12.7451" y2="1805.1211"/><line style="stroke:#000000;stroke-width:1.5;" x1="1062.5" x2="1062.5" y1="12.7451" y2="1805.1211"/><line style="stroke:#181818;stroke-width:1.0;" x1="100" x2="100" y1="112.667" y2="152.667"/><polygon fill="#181818" points="96,142.667,100,152.667,104,142.667,100,146.667" style="stroke:#181818;stroke-width:1.0;"/><line style="stroke:#181818;stroke-width:1.0;" x1="169.5" x2="181.5" y1="164.667" y2="164.667"/><polygon fill="#181818" points="177.5,132.667,181.5,122.667,185.5,132.667,181.5,128.667" style="stroke:#181818;stroke-width:1.0;"/><line style="stroke:#181818;stroke-width:1.0;" x1="181.5" x2="181.5" y1="95.6826" y2="164.667"/><line style="stroke:#181818;stroke-width:1.0;" x1="181.5" x2="152.5" y1="95.6826" y2="95.6826"/><polygon fill="#181818" points="162.5,91.6826,152.5,95.6826,162.5,99.6826,158.5,95.6826" style="stroke:#181818;stroke-width:1.0;"/><line style="stroke:#181818;stroke-width:1.0;" x1="100" x2="100" y1="58.6982" y2="78.6982"/><polygon fill="#181818" points="96,68.6982,100,78.6982,104,68.6982,100,72.6982" style="stroke:#181818;stroke-width:1.0;"/><line style="stroke:#181818;stroke-width:1.0;" x1="100" x2="100" y1="242.0659" y2="269.6167"/><polygon fill="#181818" points="96,259.6167,100,269.6167,104,259.6167,100,263.6167" style="stroke:#181818;stroke-width:1.0;"/><line style="stroke:#181818;stroke-width:1.0;" x1="165" x2="307.5" y1="230.0659" y2="230.0659"/><polygon fill="#181818" points="303.5,276.6011,307.5,286.6011,311.5,276.6011,307.5,280.6011" style="stroke:#181818;stroke-width:1.0;"/><line style="stroke:#181818;stroke-width:1.0;" x1="307.5" x2="307.5" y1="230.0659" y2="338.7339"/><line style="stroke:#181818;stroke-width:1.0;" x1="307.5" x2="112" y1="338.7339" y2="338.7339"/><polygon fill="#181818" points="122,334.7339,112,338.7339,122,342.7339,118,338.7339" style="stroke:#181818;stroke-width:1.0;"/><line style="stroke:#181818;stroke-width:1.0;" x1="100" x2="100" y1="303.5854" y2="326.7339"/><polygon fill="#181818" points="96,316.7339,100,326.7339,104,316.7339,100,320.7339" style="stroke:#181818;stroke-width:1.0;"/><line style="stroke:#181818;stroke-width:1.0;" x1="100" x2="100" y1="176.667" y2="218.0659"/><polygon fill="#181818" points="96,208.0659,100,218.0659,104,208.0659,100,212.0659" style="stroke:#181818;stroke-width:1.0;"/><text fill="#000000" font-family="sans-serif" font-size="11" lengthAdjust="spacing" textLength="21" x="104" y="197.9717">Yes</text><line style="stroke:#181818;stroke-width:1.0;" x1="100" x2="100" y1="507.0737" y2="595.9761"/><polygon fill="#181818" points="96,585.9761,100,595.9761,104,585.9761,100,589.9761" style="stroke:#181818;stroke-width:1.0;"/><line style="stroke:#181818;stroke-width:1.0;" x1="166.5" x2="237" y1="607.9761" y2="607.9761"/><line style="stroke:#181818;stroke-width:1.0;" x1="237" x2="237" y1="565.9761" y2="607.9761"/><polygon fill="#181818" points="233,575.9761,237,565.9761,241,575.9761,237,571.9761" style="stroke:#181818;stroke-width:1.0;"/><line style="stroke:#181818;stroke-width:1.0;" x1="237" x2="237" y1="490.0894" y2="532.0073"/><line style="stroke:#181818;stroke-width:1.0;" x1="237" x2="149.5" y1="490.0894" y2="490.0894"/><polygon fill="#181818" points="159.5,486.0894,149.5,490.0894,159.5,494.0894,155.5,490.0894" style="stroke:#181818;stroke-width:1.0;"/><line style="stroke:#181818;stroke-width:1.0;" x1="100" x2="100" y1="453.105" y2="473.105"/><polygon fill="#181818" points="96,463.105,100,473.105,104,463.105,100,467.105" style="stroke:#181818;stroke-width:1.0;"/><line style="stroke:#181818;stroke-width:1.0;" x1="100" x2="100" y1="394.7339" y2="419.1362"/><polygon fill="#181818" points="96,409.1362,100,419.1362,104,409.1362,100,413.1362" style="stroke:#181818;stroke-width:1.0;"/><line style="stroke:#181818;stroke-width:1.0;" x1="170" x2="293.5" y1="382.7339" y2="382.7339"/><polygon fill="#181818" points="289.5,512.0073,293.5,522.0073,297.5,512.0073,293.5,516.0073" style="stroke:#181818;stroke-width:1.0;"/><line style="stroke:#181818;stroke-width:1.0;" x1="293.5" x2="293.5" y1="382.7339" y2="655.875"/><line style="stroke:#181818;stroke-width:1.0;" x1="293.5" x2="112" y1="655.875" y2="655.875"/><polygon fill="#181818" points="122,651.875,112,655.875,122,659.875,118,655.875" style="stroke:#181818;stroke-width:1.0;"/><line style="stroke:#181818;stroke-width:1.0;" x1="100" x2="100" y1="619.9761" y2="643.875"/><polygon fill="#181818" points="96,633.875,100,643.875,104,633.875,100,637.875" style="stroke:#181818;stroke-width:1.0;"/><line style="stroke:#181818;stroke-width:1.0;" x1="100" x2="100" y1="350.7339" y2="370.7339"/><polygon fill="#181818" points="96,360.7339,100,370.7339,104,360.7339,100,364.7339" style="stroke:#181818;stroke-width:1.0;"/><line style="stroke:#181818;stroke-width:1.0;" x1="100" x2="100" y1="1262.748" y2="1336.7168"/><polygon fill="#181818" points="96,1326.7168,100,1336.7168,104,1326.7168,100,1330.7168" style="stroke:#181818;stroke-width:1.0;"/><line style="stroke:#181818;stroke-width:1.0;" x1="166.5" x2="243" y1="1348.7168" y2="1348.7168"/><line style="stroke:#181818;stroke-width:1.0;" x1="243" x2="243" y1="1306.7168" y2="1348.7168"/><polygon fill="#181818" points="239,1316.7168,243,1306.7168,247,1316.7168,243,1312.7168" style="stroke:#181818;stroke-width:1.0;"/><line style="stroke:#181818;stroke-width:1.0;" x1="243" x2="243" y1="1245.7637" y2="1272.748"/><line style="stroke:#181818;stroke-width:1.0;" x1="243" x2="155.5" y1="1245.7637" y2="1245.7637"/><polygon fill="#181818" points="165.5,1241.7637,155.5,1245.7637,165.5,1249.7637,161.5,1245.7637" style="stroke:#181818;stroke-width:1.0;"/><line style="stroke:#181818;stroke-width:1.0;" x1="491" x2="491" y1="721.8438" y2="741.8438"/><polygon fill="#181818" points="487,731.8438,491,741.8438,495,731.8438,491,735.8438" style="stroke:#181818;stroke-width:1.0;"/><line style="stroke:#181818;stroke-width:1.0;" x1="555" x2="576.5" y1="807.8125" y2="807.8125"/><polygon fill="#181818" points="572.5,766.3359,576.5,756.3359,580.5,766.3359,576.5,762.3359" style="stroke:#181818;stroke-width:1.0;"/><line style="stroke:#181818;stroke-width:1.0;" x1="576.5" x2="576.5" y1="704.8594" y2="807.8125"/><line style="stroke:#181818;stroke-width:1.0;" x1="576.5" x2="553" y1="704.8594" y2="704.8594"/><polygon fill="#181818" points="563,700.8594,553,704.8594,563,708.8594,559,704.8594" style="stroke:#181818;stroke-width:1.0;"/><line style="stroke:#181818;stroke-width:1.0;" x1="491" x2="491" y1="775.8125" y2="795.8125"/><polygon fill="#181818" points="487,785.8125,491,795.8125,495,785.8125,491,789.8125" style="stroke:#181818;stroke-width:1.0;"/><line style="stroke:#181818;stroke-width:1.0;" x1="551.5" x2="551.5" y1="1019.1489" y2="1043.5513"/><polygon fill="#181818" points="547.5,1033.5513,551.5,1043.5513,555.5,1033.5513,551.5,1037.5513" style="stroke:#181818;stroke-width:1.0;"/><line style="stroke:#181818;stroke-width:1.0;" x1="613.5" x2="625.5" y1="1007.1489" y2="1007.1489"/><polygon fill="#181818" points="621.5,1050.5356,625.5,1060.5356,629.5,1050.5356,625.5,1054.5356" style="stroke:#181818;stroke-width:1.0;"/><line style="stroke:#181818;stroke-width:1.0;" x1="625.5" x2="625.5" y1="1007.1489" y2="1109.52"/><line style="stroke:#181818;stroke-width:1.0;" x1="625.5" x2="563.5" y1="1109.52" y2="1109.52"/><polygon fill="#181818" points="573.5,1105.52,563.5,1109.52,573.5,1113.52,569.5,1109.52" style="stroke:#181818;stroke-width:1.0;"/><line style="stroke:#181818;stroke-width:1.0;" x1="551.5" x2="551.5" y1="1077.52" y2="1097.52"/><polygon fill="#181818" points="547.5,1087.52,551.5,1097.52,555.5,1087.52,551.5,1091.52" style="stroke:#181818;stroke-width:1.0;"/><line style="stroke:#181818;stroke-width:1.0;" x1="551.5" x2="551.5" y1="975.1489" y2="995.1489"/><polygon fill="#181818" points="547.5,985.1489,551.5,995.1489,555.5,985.1489,551.5,989.1489" style="stroke:#181818;stroke-width:1.0;"/><line style="stroke:#181818;stroke-width:1.0;" x1="397" x2="397" y1="921.1802" y2="1009.0669"/><polygon fill="#181818" points="393,999.0669,397,1009.0669,401,999.0669,397,1003.0669" style="stroke:#181818;stroke-width:1.0;"/><line style="stroke:#181818;stroke-width:1.0;" x1="551.5" x2="551.5" y1="921.1802" y2="941.1802"/><polygon fill="#181818" points="547.5,931.1802,551.5,941.1802,555.5,931.1802,551.5,935.1802" style="stroke:#181818;stroke-width:1.0;"/><line style="stroke:#181818;stroke-width:1.0;" x1="397" x2="397" y1="1043.0356" y2="1141.52"/><polygon fill="#181818" points="393,1131.52,397,1141.52,401,1131.52,397,1135.52" style="stroke:#181818;stroke-width:1.0;"/><line style="stroke:#181818;stroke-width:1.0;" x1="551.5" x2="551.5" y1="1121.52" y2="1141.52"/><polygon fill="#181818" points="547.5,1131.52,551.5,1141.52,555.5,1131.52,551.5,1135.52" style="stroke:#181818;stroke-width:1.0;"/><line style="stroke:#181818;stroke-width:1.0;" x1="491" x2="491" y1="895.1802" y2="915.1802"/><polygon fill="#181818" points="487,905.1802,491,915.1802,495,905.1802,491,909.1802" style="stroke:#181818;stroke-width:1.0;"/><line style="stroke:#181818;stroke-width:1.0;" x1="564" x2="653.5" y1="1179.52" y2="1179.52"/><polygon fill="#181818" points="649.5,1033.5591,653.5,1023.5591,657.5,1033.5591,653.5,1029.5591" style="stroke:#181818;stroke-width:1.0;"/><line style="stroke:#181818;stroke-width:1.0;" x1="653.5" x2="653.5" y1="878.1958" y2="1179.52"/><line style="stroke:#181818;stroke-width:1.0;" x1="653.5" x2="583.5" y1="878.1958" y2="878.1958"/><polygon fill="#181818" points="593.5,874.1958,583.5,878.1958,593.5,882.1958,589.5,878.1958" style="stroke:#181818;stroke-width:1.0;"/><line style="stroke:#181818;stroke-width:1.0;" x1="491" x2="491" y1="1147.52" y2="1167.52"/><polygon fill="#181818" points="487,1157.52,491,1167.52,495,1157.52,491,1161.52" style="stroke:#181818;stroke-width:1.0;"/><line style="stroke:#181818;stroke-width:1.0;" x1="491" x2="491" y1="819.8125" y2="861.2114"/><polygon fill="#181818" points="487,851.2114,491,861.2114,495,851.2114,491,855.2114" style="stroke:#181818;stroke-width:1.0;"/><text fill="#000000" font-family="sans-serif" font-size="11" lengthAdjust="spacing" textLength="21" x="495" y="841.1172">Yes</text><line style="stroke:#181818;stroke-width:1.0;" x1="841.5" x2="841.5" y1="1485.9136" y2="1559.8823"/><polygon fill="#181818" points="837.5,1549.8823,841.5,1559.8823,845.5,1549.8823,841.5,1553.8823" style="stroke:#181818;stroke-width:1.0;"/><line style="stroke:#181818;stroke-width:1.0;" x1="908" x2="998" y1="1571.8823" y2="1571.8823"/><line style="stroke:#181818;stroke-width:1.0;" x1="998" x2="998" y1="1529.8823" y2="1571.8823"/><polygon fill="#181818" points="994,1539.8823,998,1529.8823,1002,1539.8823,998,1535.8823" style="stroke:#181818;stroke-width:1.0;"/><line style="stroke:#181818;stroke-width:1.0;" x1="998" x2="998" y1="1468.9292" y2="1495.9136"/><line style="stroke:#181818;stroke-width:1.0;" x1="998" x2="913.5" y1="1468.9292" y2="1468.9292"/><polygon fill="#181818" points="923.5,1464.9292,913.5,1468.9292,923.5,1472.9292,919.5,1468.9292" style="stroke:#181818;stroke-width:1.0;"/><line style="stroke:#181818;stroke-width:1.0;" x1="841.5" x2="841.5" y1="1720.0547" y2="1749.1523"/><polygon fill="#181818" points="837.5,1739.1523,841.5,1749.1523,845.5,1739.1523,841.5,1743.1523" style="stroke:#181818;stroke-width:1.0;"/><line style="stroke:#181818;stroke-width:1.0;" x1="841.5" x2="841.5" y1="1649.2813" y2="1686.0859"/><polygon fill="#181818" points="837.5,1676.0859,841.5,1686.0859,845.5,1676.0859,841.5,1680.0859" style="stroke:#181818;stroke-width:1.0;"/><line style="stroke:#181818;stroke-width:1.0;" x1="841.5" x2="841.5" y1="1783.1211" y2="1793.1211"/><line style="stroke:#181818;stroke-width:1.0;" x1="841.5" x2="983.5" y1="1793.1211" y2="1793.1211"/><polygon fill="#181818" points="979.5,1729.1523,983.5,1719.1523,987.5,1729.1523,983.5,1725.1523" style="stroke:#181818;stroke-width:1.0;"/><line style="stroke:#181818;stroke-width:1.0;" x1="983.5" x2="983.5" y1="1637.2813" y2="1793.1211"/><line style="stroke:#181818;stroke-width:1.0;" x1="983.5" x2="923" y1="1637.2813" y2="1637.2813"/><polygon fill="#181818" points="933,1633.2813,923,1637.2813,933,1641.2813,929,1637.2813" style="stroke:#181818;stroke-width:1.0;"/><line style="stroke:#181818;stroke-width:1.0;" x1="760" x2="691.5" y1="1637.2813" y2="1637.2813"/><line style="stroke:#181818;stroke-width:1.0;" x1="691.5" x2="691.5" y1="1637.2813" y2="1673.2813"/><polygon fill="#181818" points="687.5,1663.2813,691.5,1673.2813,695.5,1663.2813,691.5,1667.2813" style="stroke:#181818;stroke-width:1.0;"/><line style="stroke:#181818;stroke-width:1.0;" x1="841.5" x2="841.5" y1="1583.8823" y2="1625.2813"/><polygon fill="#181818" points="837.5,1615.2813,841.5,1625.2813,845.5,1615.2813,841.5,1619.2813" style="stroke:#181818;stroke-width:1.0;"/><text fill="#000000" font-family="sans-serif" font-size="11" lengthAdjust="spacing" textLength="21" x="845.5" y="1605.187">Yes</text><line style="stroke:#181818;stroke-width:1.0;" x1="100" x2="100" y1="667.875" y2="672.875"/><line style="stroke:#181818;stroke-width:1.0;" x1="100" x2="491" y1="672.875" y2="672.875"/><line style="stroke:#181818;stroke-width:1.0;" x1="491" x2="491" y1="672.875" y2="687.875"/><polygon fill="#181818" points="487,677.875,491,687.875,495,677.875,491,681.875" style="stroke:#181818;stroke-width:1.0;"/><line style="stroke:#181818;stroke-width:1.0;" x1="491" x2="491" y1="1191.52" y2="1213.7793"/><line style="stroke:#181818;stroke-width:1.0;" x1="491" x2="100" y1="1213.7793" y2="1213.7793"/><line style="stroke:#181818;stroke-width:1.0;" x1="100" x2="100" y1="1213.7793" y2="1228.7793"/><polygon fill="#181818" points="96,1218.7793,100,1228.7793,104,1218.7793,100,1222.7793" style="stroke:#181818;stroke-width:1.0;"/><text fill="#000000" font-family="sans-serif" font-size="11" lengthAdjust="spacing" textLength="21" x="495" y="1207.2793">Yes</text><line style="stroke:#181818;stroke-width:1.0;" x1="100" x2="100" y1="1360.7168" y2="1382.9761"/><line style="stroke:#181818;stroke-width:1.0;" x1="100" x2="491" y1="1382.9761" y2="1382.9761"/><line style="stroke:#181818;stroke-width:1.0;" x1="491" x2="491" y1="1382.9761" y2="1397.9761"/><polygon fill="#181818" points="487,1387.9761,491,1397.9761,495,1387.9761,491,1391.9761" style="stroke:#181818;stroke-width:1.0;"/><text fill="#000000" font-family="sans-serif" font-size="11" lengthAdjust="spacing" textLength="21" x="104" y="1376.4761">Yes</text><line style="stroke:#181818;stroke-width:1.0;" x1="491" x2="491" y1="1431.9448" y2="1436.9448"/><line style="stroke:#181818;stroke-width:1.0;" x1="491" x2="841.5" y1="1436.9448" y2="1436.9448"/><line style="stroke:#181818;stroke-width:1.0;" x1="841.5" x2="841.5" y1="1436.9448" y2="1451.9448"/><polygon fill="#181818" points="837.5,1441.9448,841.5,1451.9448,845.5,1441.9448,841.5,1445.9448" style="stroke:#181818;stroke-width:1.0;"/><text fill="#000000" font-family="sans-serif" font-size="18" lengthAdjust="spacing" textLength="67" x="137.25" y="29.4531">Publish</text><text fill="#000000" font-family="sans-serif" font-size="18" lengthAdjust="spacing" textLength="79" x="460" y="29.4531">Promote</text><text fill="#000000" font-family="sans-serif" font-size="18" lengthAdjust="spacing" textLength="72" x="831.5" y="29.4531">Monitor</text><!--SRC=[ZPFBZjim34Nt_We2NJHUj1-G00M2j3CO59aQCmCKNIeMOnDZIuP4DqZXZoyb-P575_KYa4c5lBo77eh-q92lXyopSfmvx50nh0ivA8TGg0xTPWgVQceGLY-ez1cEra7XR6kPhCc1FAoURPvz-l8B_IQZ8wmATDuQrS2hxLs9Av_dm3KQMCcLF0Dvrb-nQ-nvwXD2nZA2ewhc-1gUjnf1zLnRzz737EscyZwM_nmJQ7Gea67ZCGcI21sZdcsfDBPKmZWqcUfUq0CPFLsO9CskfF2bseCgtq_AwVLMguulCzUUFVQaiI637eAlU-J5id1xjErMzl2XKcJymJex9BDnc24zQJHCnpDiUqreIjna0ewi8wO_2D_n38_Ezft_1y2oLWSvflmTlQd3pZODbhnm5hTtrh3qtMIo0E_9ipWr_EYvwzcd1AWWFANtVSFKeYO5BvXW9Oi2b0TKdeAKdPEMSPLkaCGQCIk-pQLIXSMl4Rvu9hzHslNCYnlmfbo5ZFfkx67-6cw9pqFVy9xZ_qzxxZNXN8-dfTYmjuROkaN7681lfb8LjjTIWgdDRmoKnCZsLiohsEgFgfJ_d-6fxUHqfsQyca0MDiWWOHqNvTAeo2960svW2pzbKdUnWV56aWbau1dv933aKmCb7rPOA2NR74bl0ggnSwGjhty1]--></g></svg>